<mxfile host="app.diagrams.net" modified="2022-05-10T17:49:29.547Z" agent="5.0 (Windows NT 10.0; Win64; x64) AppleWebKit/537.36 (KHTML, like Gecko) Chrome/101.0.4951.54 Safari/537.36" etag="sIP00cg3hUf_9Z89vYnk" version="18.0.0" type="github">
  <diagram id="GSQ1Wx1hv6eCKWOAcTyi" name="Page-1">
    <mxGraphModel dx="1422" dy="738" grid="1" gridSize="10" guides="1" tooltips="1" connect="1" arrows="1" fold="1" page="1" pageScale="1" pageWidth="827" pageHeight="1169" math="0" shadow="0">
      <root>
        <mxCell id="0" />
        <mxCell id="1" parent="0" />
        <mxCell id="2OsGnD8xrRHOEKQomS8l-15" value="" style="group" parent="1" vertex="1" connectable="0">
          <mxGeometry x="250" y="340" width="450" height="120" as="geometry" />
        </mxCell>
        <mxCell id="2OsGnD8xrRHOEKQomS8l-4" value="" style="shape=ext;double=1;rounded=1;whiteSpace=wrap;html=1;" parent="2OsGnD8xrRHOEKQomS8l-15" vertex="1">
          <mxGeometry width="450" height="120" as="geometry" />
        </mxCell>
        <mxCell id="2OsGnD8xrRHOEKQomS8l-1" value="" style="shape=image;verticalLabelPosition=bottom;verticalAlign=top;imageAspect=0;aspect=fixed;image=data:image/jpeg,/9j/4AAQSkZJRgABAQACWAJYAAD/2wBDAAgGBgcGBQgHBwcJCQgKDBQNDAsLDBkSEw8UHRofHh0aHBwgJC4nICIsIxwcKDcpLDAxNDQ0Hyc5PTgyPC4zNDL/wgALCADIAMgBAREA/8QAHAABAAICAwEAAAAAAAAAAAAAAAYHBQgBAgQD/9oACAEBAAAAAL/AAAAAAAAAAAAAAAAAAAAAAAAAAAAAAAAAADGYXtmcjyAAHFWUbkJTWFj+X2W7NgAOsRojx7M5pq7sBIsTRmI2PyIAqfXLCsn9u/bH5bI+r0w/6TiX2JN+QaYQ+TziAR8AmEurnD3tsSDR/LTaq7gq+MAWTkq9umlMhuwDTOw6K49Fz0ici9aIZ6dxbc8Hw6ajQOztqvmcj56bxa6Nj3oAfKOSXuAebBSTsAAAAAAAAAAAAAAAAAAAAAAAAAAAAAAAAAB//8QAMRAAAQQCAQIEBAMJAAAAAAAABAIDBQYBBwAREggUFVQgMDFSECRwExYhIiUmQEVR/9oACAEBAAEMAP1ROsULGdfPSoQ3HNoUhpXaqygdWdl0p/PRuyx3USwwp/TycsC/zGcZx1xnrj/Bznpjrnl93ZEVhbgEUlEnJSmwrzdTMjJOLXyL0leZnOHXw0BpG8NkopOMk2ARtV1qjlNtT8I6TgjOPDtNLEZKAngnOKpm3ad1cjiDHmorfVphCcCWWKQTyqbVq1t7GhTcDGfNccQ0jK3FJSmd2hT68leC5lhx7YG7JSzJcAh8ORsZrbUkhdlpkDVLEh69U4WrBJGiAGh0/h4hw/2F/GI6dMUM31GhwRXXrnk3WYaxjZYl44ctF30E+ElyRqb63k0Xc8xVCcRVkQ+YFCTkbYoxuQiykEjfK29tV6m5aiYhLapSYts/PuqXKSxZP4j2KaDYQwNLHMs4t1kx9J6T5i5WbH0sEnzF3tOPpYpTklMSUy6h2SOILcjb9a4cJoKPnTBxm9uXtv6WInPG9031v/eZVxG9b4j6yI6+WWyn2uWzJySWPM164T1VdW5CyTwvAN/3MXOPM5BMTF+JNrPamVr6k8ru2qfZFoaHk0jE4zhWOuM9cfFtM9cjsyddWrrjlXoFkuCs5iY9a2VeHW14Y70nRinLNSp+ov4bmI9xhPyatrG025vD8cBlAj/h2tjbHe0ZGuuWCrTVXN8rMAOiudenNE7CPXMpq0mSt8f4ryruvc9nmsKV++9sbDe6pA2Jtt+OIXWKZlEfHJtVgQT5hM3IYe15s1Nu/s67IbMZv1TdpltKiV5ytn49P0Vi2Tzxsnj+kX/cslIGORdYezGw41ssIhOCGJuQQ9R7sJtGOdp1wabdNs8CTWLGbDlfxc10SsXYsA6jPTPxbQrx8FfJXzbC0taM/LUq5GsY/NqVlSsqVnrngLzg547zOc4d8RbSVSFdJynoR2q/5nnar7c87FfbnnYr7c87FfbnnYr7c87FfbnlEyoHw7WgoXqkn8KUQ+Ld4R4fOcO+IQdtGxW3G8fz6vjH5PZEG002rOPiJDGMThJI7TyWo0JhtxtkRhpGy9eH0ydeWlha4nmo9cm2efGkzB1tw7wQpCsKfGZdz6VHewF56XH+xG56YB7EbnpgHsRuemAeyG56YD7IbnpgPshuGRIZkWVHLYbSNd6PKUqadEMZWoXmktcmnTg9mkh1MgOgivr73hmXFMgiDr72RmW1/IIGYLYUwSy280jXNOQT5hNbjsOtMtsNJaabS238k0ASSGUMaMyQwNryniE4IYrscl1KEoThKcYwn9Tf/8QAPhAAAgADAwcIBwYHAAAAAAAAAQIAAxEEITESIkFRYXHREBMwc4GRobEUICMyM2LBBUJScHJ0QENEVIKywv/aAAgBAQANPwD80Romz1U91Y2TK+Qj5puT5wdEu0K31jZ/BrUNkt7KUfmYYnYImGi2SwqVG6i3nthr8u2TqN3CpjSJclm8yIlKjCcFyQwYVwiZLV1DI6YiuIrCf2lp51afoPCFuaqGRNH0PdDf0tqoj12aG7OmGJY0Ahf5NmPOue7DthrmIb2s0bSMBsEBr5tM+cdITjAGc4FXfazYnltFiQ12qzDhD2KXU7QtD5chFAZiZy7mxELnGxTWzx+htO43xLbIJmfHkU0X4gajEwXMhwOojQdnRzk5x5jiokJoNNJMH7rzTkjcou5UFFly7QyqNwBj90/GP3T8Y/dPxhFyVafMLlRqFYlCiSkfNUbBHzKp+kfNIln/AJj5rMnCGUKzSZQQNTSQMTtiZ76LQq29TdAxEyRkk9qkRpeyzq+DD6w1wk2sc2xOoE3Hv6BLSZS7FTNHlyA0a0TDkSx/kceyKfD5xvPJhjRJozpb7mF3RHC0zzkId1bz2RT4YmMD3laQfdLCqvtVhceSahNkaYatLZRXJrqIr3ev6fO/3MSF561MPwg3LvJu74sfsWnyAAzEXEJqA14mK1y/SXr5xbBzci0zAAS2hW26mxrA9pZ5h+/LOHbo7Og+zgJk8NcJjYhTsuJO6JB5tGkZrzQLq1HurqAgGuULQx+sPLJs1qCgM5Ax2OMbsYs0wrlfiXEN2ihj02WvYTQ+fr2m0PPkzaZrqxrce2kJKotMRSWxHjBNSTp5Jc1WQjGoN0TLI4mUGogjxJjdG6N0bo3RujdDvNDkYgUUeRPKttlBaaasAfCJlilmZQaQWA8AIl2lZzmmCpnE+Hri8LMQMPGJgo6y5YUMNtInOWs1oUVUA35DaiOSyTBMaY4oJzA1CrrvxgXAzEDU746leEdSvCOpXhHVLwjql4R1S8I6peEWmW0uYiKACCKGCxNntIGZNXRfr1jkshy7OJgoZ0zQQNQxrFKZTywT4xSmUksKfDoXFGSYoZSNoMVrXmRSu7CFFFVBQAbB0TYy5qBlPYYBqG5kGh3G6AKAAUA/M7//2Q==" parent="2OsGnD8xrRHOEKQomS8l-15" vertex="1">
          <mxGeometry x="38.297872340425535" y="30" width="60" height="60" as="geometry" />
        </mxCell>
        <mxCell id="2OsGnD8xrRHOEKQomS8l-2" value="" style="shape=image;verticalLabelPosition=bottom;verticalAlign=top;imageAspect=0;aspect=fixed;image=data:image/jpeg,/9j/4AAQSkZJRgABAQACWAJYAAD/2wBDAAgGBgcGBQgHBwcJCQgKDBQNDAsLDBkSEw8UHRofHh0aHBwgJC4nICIsIxwcKDcpLDAxNDQ0Hyc5PTgyPC4zNDL/wgALCADIAMgBAREA/8QAHAABAAICAwEAAAAAAAAAAAAAAAYHBQgBAgQD/9oACAEBAAAAAL/AAAAAAAAAAAAAAAAAAAAAAAAAAAAAAAAAADGYXtmcjyAAHFWUbkJTWFj+X2W7NgAOsRojx7M5pq7sBIsTRmI2PyIAqfXLCsn9u/bH5bI+r0w/6TiX2JN+QaYQ+TziAR8AmEurnD3tsSDR/LTaq7gq+MAWTkq9umlMhuwDTOw6K49Fz0ici9aIZ6dxbc8Hw6ajQOztqvmcj56bxa6Nj3oAfKOSXuAebBSTsAAAAAAAAAAAAAAAAAAAAAAAAAAAAAAAAAB//8QAMRAAAQQCAQIEBAMJAAAAAAAABAIDBQYBBwAREggUFVQgMDFSECRwExYhIiUmQEVR/9oACAEBAAEMAP1ROsULGdfPSoQ3HNoUhpXaqygdWdl0p/PRuyx3USwwp/TycsC/zGcZx1xnrj/Bznpjrnl93ZEVhbgEUlEnJSmwrzdTMjJOLXyL0leZnOHXw0BpG8NkopOMk2ARtV1qjlNtT8I6TgjOPDtNLEZKAngnOKpm3ad1cjiDHmorfVphCcCWWKQTyqbVq1t7GhTcDGfNccQ0jK3FJSmd2hT68leC5lhx7YG7JSzJcAh8ORsZrbUkhdlpkDVLEh69U4WrBJGiAGh0/h4hw/2F/GI6dMUM31GhwRXXrnk3WYaxjZYl44ctF30E+ElyRqb63k0Xc8xVCcRVkQ+YFCTkbYoxuQiykEjfK29tV6m5aiYhLapSYts/PuqXKSxZP4j2KaDYQwNLHMs4t1kx9J6T5i5WbH0sEnzF3tOPpYpTklMSUy6h2SOILcjb9a4cJoKPnTBxm9uXtv6WInPG9031v/eZVxG9b4j6yI6+WWyn2uWzJySWPM164T1VdW5CyTwvAN/3MXOPM5BMTF+JNrPamVr6k8ru2qfZFoaHk0jE4zhWOuM9cfFtM9cjsyddWrrjlXoFkuCs5iY9a2VeHW14Y70nRinLNSp+ov4bmI9xhPyatrG025vD8cBlAj/h2tjbHe0ZGuuWCrTVXN8rMAOiudenNE7CPXMpq0mSt8f4ryruvc9nmsKV++9sbDe6pA2Jtt+OIXWKZlEfHJtVgQT5hM3IYe15s1Nu/s67IbMZv1TdpltKiV5ytn49P0Vi2Tzxsnj+kX/cslIGORdYezGw41ssIhOCGJuQQ9R7sJtGOdp1wabdNs8CTWLGbDlfxc10SsXYsA6jPTPxbQrx8FfJXzbC0taM/LUq5GsY/NqVlSsqVnrngLzg547zOc4d8RbSVSFdJynoR2q/5nnar7c87FfbnnYr7c87FfbnnYr7c87FfbnlEyoHw7WgoXqkn8KUQ+Ld4R4fOcO+IQdtGxW3G8fz6vjH5PZEG002rOPiJDGMThJI7TyWo0JhtxtkRhpGy9eH0ydeWlha4nmo9cm2efGkzB1tw7wQpCsKfGZdz6VHewF56XH+xG56YB7EbnpgHsRuemAeyG56YD7IbnpgPshuGRIZkWVHLYbSNd6PKUqadEMZWoXmktcmnTg9mkh1MgOgivr73hmXFMgiDr72RmW1/IIGYLYUwSy280jXNOQT5hNbjsOtMtsNJaabS238k0ASSGUMaMyQwNryniE4IYrscl1KEoThKcYwn9Tf/8QAPhAAAgADAwcIBwYHAAAAAAAAAQIAAxEEITESIkFRYXHREBMwc4GRobEUICMyM2LBBUJScHJ0QENEVIKywv/aAAgBAQANPwD80Romz1U91Y2TK+Qj5puT5wdEu0K31jZ/BrUNkt7KUfmYYnYImGi2SwqVG6i3nthr8u2TqN3CpjSJclm8yIlKjCcFyQwYVwiZLV1DI6YiuIrCf2lp51afoPCFuaqGRNH0PdDf0tqoj12aG7OmGJY0Ahf5NmPOue7DthrmIb2s0bSMBsEBr5tM+cdITjAGc4FXfazYnltFiQ12qzDhD2KXU7QtD5chFAZiZy7mxELnGxTWzx+htO43xLbIJmfHkU0X4gajEwXMhwOojQdnRzk5x5jiokJoNNJMH7rzTkjcou5UFFly7QyqNwBj90/GP3T8Y/dPxhFyVafMLlRqFYlCiSkfNUbBHzKp+kfNIln/AJj5rMnCGUKzSZQQNTSQMTtiZ76LQq29TdAxEyRkk9qkRpeyzq+DD6w1wk2sc2xOoE3Hv6BLSZS7FTNHlyA0a0TDkSx/kceyKfD5xvPJhjRJozpb7mF3RHC0zzkId1bz2RT4YmMD3laQfdLCqvtVhceSahNkaYatLZRXJrqIr3ev6fO/3MSF561MPwg3LvJu74sfsWnyAAzEXEJqA14mK1y/SXr5xbBzci0zAAS2hW26mxrA9pZ5h+/LOHbo7Og+zgJk8NcJjYhTsuJO6JB5tGkZrzQLq1HurqAgGuULQx+sPLJs1qCgM5Ax2OMbsYs0wrlfiXEN2ihj02WvYTQ+fr2m0PPkzaZrqxrce2kJKotMRSWxHjBNSTp5Jc1WQjGoN0TLI4mUGogjxJjdG6N0bo3RujdDvNDkYgUUeRPKttlBaaasAfCJlilmZQaQWA8AIl2lZzmmCpnE+Hri8LMQMPGJgo6y5YUMNtInOWs1oUVUA35DaiOSyTBMaY4oJzA1CrrvxgXAzEDU746leEdSvCOpXhHVLwjql4R1S8I6peEWmW0uYiKACCKGCxNntIGZNXRfr1jkshy7OJgoZ0zQQNQxrFKZTywT4xSmUksKfDoXFGSYoZSNoMVrXmRSu7CFFFVBQAbB0TYy5qBlPYYBqG5kGh3G6AKAAUA/M7//2Q==" parent="2OsGnD8xrRHOEKQomS8l-15" vertex="1">
          <mxGeometry x="124.46808510638299" y="30" width="60" height="60" as="geometry" />
        </mxCell>
        <mxCell id="2OsGnD8xrRHOEKQomS8l-7" value="....." style="text;html=1;strokeColor=none;fillColor=none;align=center;verticalAlign=middle;whiteSpace=wrap;rounded=0;fontSize=25;" parent="2OsGnD8xrRHOEKQomS8l-15" vertex="1">
          <mxGeometry x="201.06382978723406" y="47.14285714285714" width="57.4468085106383" height="25.71428571428571" as="geometry" />
        </mxCell>
        <mxCell id="2OsGnD8xrRHOEKQomS8l-9" value="" style="shape=image;verticalLabelPosition=bottom;verticalAlign=top;imageAspect=0;aspect=fixed;image=data:image/jpeg,/9j/4AAQSkZJRgABAQACWAJYAAD/2wBDAAgGBgcGBQgHBwcJCQgKDBQNDAsLDBkSEw8UHRofHh0aHBwgJC4nICIsIxwcKDcpLDAxNDQ0Hyc5PTgyPC4zNDL/wgALCADIAMgBAREA/8QAHAABAAICAwEAAAAAAAAAAAAAAAYHBQgBAgQD/9oACAEBAAAAAL/AAAAAAAAAAAAAAAAAAAAAAAAAAAAAAAAAADGYXtmcjyAAHFWUbkJTWFj+X2W7NgAOsRojx7M5pq7sBIsTRmI2PyIAqfXLCsn9u/bH5bI+r0w/6TiX2JN+QaYQ+TziAR8AmEurnD3tsSDR/LTaq7gq+MAWTkq9umlMhuwDTOw6K49Fz0ici9aIZ6dxbc8Hw6ajQOztqvmcj56bxa6Nj3oAfKOSXuAebBSTsAAAAAAAAAAAAAAAAAAAAAAAAAAAAAAAAAB//8QAMRAAAQQCAQIEBAMJAAAAAAAABAIDBQYBBwAREggUFVQgMDFSECRwExYhIiUmQEVR/9oACAEBAAEMAP1ROsULGdfPSoQ3HNoUhpXaqygdWdl0p/PRuyx3USwwp/TycsC/zGcZx1xnrj/Bznpjrnl93ZEVhbgEUlEnJSmwrzdTMjJOLXyL0leZnOHXw0BpG8NkopOMk2ARtV1qjlNtT8I6TgjOPDtNLEZKAngnOKpm3ad1cjiDHmorfVphCcCWWKQTyqbVq1t7GhTcDGfNccQ0jK3FJSmd2hT68leC5lhx7YG7JSzJcAh8ORsZrbUkhdlpkDVLEh69U4WrBJGiAGh0/h4hw/2F/GI6dMUM31GhwRXXrnk3WYaxjZYl44ctF30E+ElyRqb63k0Xc8xVCcRVkQ+YFCTkbYoxuQiykEjfK29tV6m5aiYhLapSYts/PuqXKSxZP4j2KaDYQwNLHMs4t1kx9J6T5i5WbH0sEnzF3tOPpYpTklMSUy6h2SOILcjb9a4cJoKPnTBxm9uXtv6WInPG9031v/eZVxG9b4j6yI6+WWyn2uWzJySWPM164T1VdW5CyTwvAN/3MXOPM5BMTF+JNrPamVr6k8ru2qfZFoaHk0jE4zhWOuM9cfFtM9cjsyddWrrjlXoFkuCs5iY9a2VeHW14Y70nRinLNSp+ov4bmI9xhPyatrG025vD8cBlAj/h2tjbHe0ZGuuWCrTVXN8rMAOiudenNE7CPXMpq0mSt8f4ryruvc9nmsKV++9sbDe6pA2Jtt+OIXWKZlEfHJtVgQT5hM3IYe15s1Nu/s67IbMZv1TdpltKiV5ytn49P0Vi2Tzxsnj+kX/cslIGORdYezGw41ssIhOCGJuQQ9R7sJtGOdp1wabdNs8CTWLGbDlfxc10SsXYsA6jPTPxbQrx8FfJXzbC0taM/LUq5GsY/NqVlSsqVnrngLzg547zOc4d8RbSVSFdJynoR2q/5nnar7c87FfbnnYr7c87FfbnnYr7c87FfbnlEyoHw7WgoXqkn8KUQ+Ld4R4fOcO+IQdtGxW3G8fz6vjH5PZEG002rOPiJDGMThJI7TyWo0JhtxtkRhpGy9eH0ydeWlha4nmo9cm2efGkzB1tw7wQpCsKfGZdz6VHewF56XH+xG56YB7EbnpgHsRuemAeyG56YD7IbnpgPshuGRIZkWVHLYbSNd6PKUqadEMZWoXmktcmnTg9mkh1MgOgivr73hmXFMgiDr72RmW1/IIGYLYUwSy280jXNOQT5hNbjsOtMtsNJaabS238k0ASSGUMaMyQwNryniE4IYrscl1KEoThKcYwn9Tf/8QAPhAAAgADAwcIBwYHAAAAAAAAAQIAAxEEITESIkFRYXHREBMwc4GRobEUICMyM2LBBUJScHJ0QENEVIKywv/aAAgBAQANPwD80Romz1U91Y2TK+Qj5puT5wdEu0K31jZ/BrUNkt7KUfmYYnYImGi2SwqVG6i3nthr8u2TqN3CpjSJclm8yIlKjCcFyQwYVwiZLV1DI6YiuIrCf2lp51afoPCFuaqGRNH0PdDf0tqoj12aG7OmGJY0Ahf5NmPOue7DthrmIb2s0bSMBsEBr5tM+cdITjAGc4FXfazYnltFiQ12qzDhD2KXU7QtD5chFAZiZy7mxELnGxTWzx+htO43xLbIJmfHkU0X4gajEwXMhwOojQdnRzk5x5jiokJoNNJMH7rzTkjcou5UFFly7QyqNwBj90/GP3T8Y/dPxhFyVafMLlRqFYlCiSkfNUbBHzKp+kfNIln/AJj5rMnCGUKzSZQQNTSQMTtiZ76LQq29TdAxEyRkk9qkRpeyzq+DD6w1wk2sc2xOoE3Hv6BLSZS7FTNHlyA0a0TDkSx/kceyKfD5xvPJhjRJozpb7mF3RHC0zzkId1bz2RT4YmMD3laQfdLCqvtVhceSahNkaYatLZRXJrqIr3ev6fO/3MSF561MPwg3LvJu74sfsWnyAAzEXEJqA14mK1y/SXr5xbBzci0zAAS2hW26mxrA9pZ5h+/LOHbo7Og+zgJk8NcJjYhTsuJO6JB5tGkZrzQLq1HurqAgGuULQx+sPLJs1qCgM5Ax2OMbsYs0wrlfiXEN2ihj02WvYTQ+fr2m0PPkzaZrqxrce2kJKotMRSWxHjBNSTp5Jc1WQjGoN0TLI4mUGogjxJjdG6N0bo3RujdDvNDkYgUUeRPKttlBaaasAfCJlilmZQaQWA8AIl2lZzmmCpnE+Hri8LMQMPGJgo6y5YUMNtInOWs1oUVUA35DaiOSyTBMaY4oJzA1CrrvxgXAzEDU746leEdSvCOpXhHVLwjql4R1S8I6peEWmW0uYiKACCKGCxNntIGZNXRfr1jkshy7OJgoZ0zQQNQxrFKZTywT4xSmUksKfDoXFGSYoZSNoMVrXmRSu7CFFFVBQAbB0TYy5qBlPYYBqG5kGh3G6AKAAUA/M7//2Q==" parent="2OsGnD8xrRHOEKQomS8l-15" vertex="1">
          <mxGeometry x="268.0851063829787" y="30" width="60" height="60" as="geometry" />
        </mxCell>
        <mxCell id="2OsGnD8xrRHOEKQomS8l-10" value="" style="shape=image;verticalLabelPosition=bottom;verticalAlign=top;imageAspect=0;aspect=fixed;image=data:image/jpeg,/9j/4AAQSkZJRgABAQACWAJYAAD/2wBDAAgGBgcGBQgHBwcJCQgKDBQNDAsLDBkSEw8UHRofHh0aHBwgJC4nICIsIxwcKDcpLDAxNDQ0Hyc5PTgyPC4zNDL/wgALCADIAMgBAREA/8QAHAABAAICAwEAAAAAAAAAAAAAAAYHBQgBAgQD/9oACAEBAAAAAL/AAAAAAAAAAAAAAAAAAAAAAAAAAAAAAAAAADGYXtmcjyAAHFWUbkJTWFj+X2W7NgAOsRojx7M5pq7sBIsTRmI2PyIAqfXLCsn9u/bH5bI+r0w/6TiX2JN+QaYQ+TziAR8AmEurnD3tsSDR/LTaq7gq+MAWTkq9umlMhuwDTOw6K49Fz0ici9aIZ6dxbc8Hw6ajQOztqvmcj56bxa6Nj3oAfKOSXuAebBSTsAAAAAAAAAAAAAAAAAAAAAAAAAAAAAAAAAB//8QAMRAAAQQCAQIEBAMJAAAAAAAABAIDBQYBBwAREggUFVQgMDFSECRwExYhIiUmQEVR/9oACAEBAAEMAP1ROsULGdfPSoQ3HNoUhpXaqygdWdl0p/PRuyx3USwwp/TycsC/zGcZx1xnrj/Bznpjrnl93ZEVhbgEUlEnJSmwrzdTMjJOLXyL0leZnOHXw0BpG8NkopOMk2ARtV1qjlNtT8I6TgjOPDtNLEZKAngnOKpm3ad1cjiDHmorfVphCcCWWKQTyqbVq1t7GhTcDGfNccQ0jK3FJSmd2hT68leC5lhx7YG7JSzJcAh8ORsZrbUkhdlpkDVLEh69U4WrBJGiAGh0/h4hw/2F/GI6dMUM31GhwRXXrnk3WYaxjZYl44ctF30E+ElyRqb63k0Xc8xVCcRVkQ+YFCTkbYoxuQiykEjfK29tV6m5aiYhLapSYts/PuqXKSxZP4j2KaDYQwNLHMs4t1kx9J6T5i5WbH0sEnzF3tOPpYpTklMSUy6h2SOILcjb9a4cJoKPnTBxm9uXtv6WInPG9031v/eZVxG9b4j6yI6+WWyn2uWzJySWPM164T1VdW5CyTwvAN/3MXOPM5BMTF+JNrPamVr6k8ru2qfZFoaHk0jE4zhWOuM9cfFtM9cjsyddWrrjlXoFkuCs5iY9a2VeHW14Y70nRinLNSp+ov4bmI9xhPyatrG025vD8cBlAj/h2tjbHe0ZGuuWCrTVXN8rMAOiudenNE7CPXMpq0mSt8f4ryruvc9nmsKV++9sbDe6pA2Jtt+OIXWKZlEfHJtVgQT5hM3IYe15s1Nu/s67IbMZv1TdpltKiV5ytn49P0Vi2Tzxsnj+kX/cslIGORdYezGw41ssIhOCGJuQQ9R7sJtGOdp1wabdNs8CTWLGbDlfxc10SsXYsA6jPTPxbQrx8FfJXzbC0taM/LUq5GsY/NqVlSsqVnrngLzg547zOc4d8RbSVSFdJynoR2q/5nnar7c87FfbnnYr7c87FfbnnYr7c87FfbnlEyoHw7WgoXqkn8KUQ+Ld4R4fOcO+IQdtGxW3G8fz6vjH5PZEG002rOPiJDGMThJI7TyWo0JhtxtkRhpGy9eH0ydeWlha4nmo9cm2efGkzB1tw7wQpCsKfGZdz6VHewF56XH+xG56YB7EbnpgHsRuemAeyG56YD7IbnpgPshuGRIZkWVHLYbSNd6PKUqadEMZWoXmktcmnTg9mkh1MgOgivr73hmXFMgiDr72RmW1/IIGYLYUwSy280jXNOQT5hNbjsOtMtsNJaabS238k0ASSGUMaMyQwNryniE4IYrscl1KEoThKcYwn9Tf/8QAPhAAAgADAwcIBwYHAAAAAAAAAQIAAxEEITESIkFRYXHREBMwc4GRobEUICMyM2LBBUJScHJ0QENEVIKywv/aAAgBAQANPwD80Romz1U91Y2TK+Qj5puT5wdEu0K31jZ/BrUNkt7KUfmYYnYImGi2SwqVG6i3nthr8u2TqN3CpjSJclm8yIlKjCcFyQwYVwiZLV1DI6YiuIrCf2lp51afoPCFuaqGRNH0PdDf0tqoj12aG7OmGJY0Ahf5NmPOue7DthrmIb2s0bSMBsEBr5tM+cdITjAGc4FXfazYnltFiQ12qzDhD2KXU7QtD5chFAZiZy7mxELnGxTWzx+htO43xLbIJmfHkU0X4gajEwXMhwOojQdnRzk5x5jiokJoNNJMH7rzTkjcou5UFFly7QyqNwBj90/GP3T8Y/dPxhFyVafMLlRqFYlCiSkfNUbBHzKp+kfNIln/AJj5rMnCGUKzSZQQNTSQMTtiZ76LQq29TdAxEyRkk9qkRpeyzq+DD6w1wk2sc2xOoE3Hv6BLSZS7FTNHlyA0a0TDkSx/kceyKfD5xvPJhjRJozpb7mF3RHC0zzkId1bz2RT4YmMD3laQfdLCqvtVhceSahNkaYatLZRXJrqIr3ev6fO/3MSF561MPwg3LvJu74sfsWnyAAzEXEJqA14mK1y/SXr5xbBzci0zAAS2hW26mxrA9pZ5h+/LOHbo7Og+zgJk8NcJjYhTsuJO6JB5tGkZrzQLq1HurqAgGuULQx+sPLJs1qCgM5Ax2OMbsYs0wrlfiXEN2ihj02WvYTQ+fr2m0PPkzaZrqxrce2kJKotMRSWxHjBNSTp5Jc1WQjGoN0TLI4mUGogjxJjdG6N0bo3RujdDvNDkYgUUeRPKttlBaaasAfCJlilmZQaQWA8AIl2lZzmmCpnE+Hri8LMQMPGJgo6y5YUMNtInOWs1oUVUA35DaiOSyTBMaY4oJzA1CrrvxgXAzEDU746leEdSvCOpXhHVLwjql4R1S8I6peEWmW0uYiKACCKGCxNntIGZNXRfr1jkshy7OJgoZ0zQQNQxrFKZTywT4xSmUksKfDoXFGSYoZSNoMVrXmRSu7CFFFVBQAbB0TYy5qBlPYYBqG5kGh3G6AKAAUA/M7//2Q==" parent="2OsGnD8xrRHOEKQomS8l-15" vertex="1">
          <mxGeometry x="354.25531914893617" y="30" width="60" height="60" as="geometry" />
        </mxCell>
        <mxCell id="2OsGnD8xrRHOEKQomS8l-16" value="" style="group" parent="1" vertex="1" connectable="0">
          <mxGeometry x="285" y="210" width="360" height="100" as="geometry" />
        </mxCell>
        <mxCell id="2OsGnD8xrRHOEKQomS8l-5" value="" style="shape=ext;double=1;rounded=1;whiteSpace=wrap;html=1;fillColor=#f5f5f5;fontColor=#333333;strokeColor=#666666;" parent="2OsGnD8xrRHOEKQomS8l-16" vertex="1">
          <mxGeometry width="360" height="100" as="geometry" />
        </mxCell>
        <mxCell id="2OsGnD8xrRHOEKQomS8l-11" value="" style="shape=image;verticalLabelPosition=bottom;labelBackgroundColor=default;verticalAlign=top;aspect=fixed;imageAspect=0;image=data:image/jpeg,/9j/4AAQSkZJRgABAQAAAQABAAD/2wBDAAMCAgMCAgMDAgMDAwMDBAcFBAQEBAkGBwUHCgkLCwoJCgoMDREODAwQDAoKDhQPEBESExMTCw4UFhQSFhESExL/2wBDAQMDAwQEBAgFBQgSDAoMEhISEhISEhISEhISEhISEhISEhISEhISEhISEhISEhISEhISEhISEhISEhISEhISEhL/wAARCAF8AXwDAREAAhEBAxEB/8QAHgABAAIBBQEBAAAAAAAAAAAAAAgJBwEDBAUGAgr/xABXEAABAwMCAwQHBAYDCQwLAAABAAIDBAUGBxEIEiEJEzFBFCIyUWFxgSNCUpEVFjNygqFikqIkQ3ODk5WxsrQXGBklNDhTV2N2wfAmJzdGVGRlo7PC4f/EABUBAQEAAAAAAAAAAAAAAAAAAAAB/8QAFhEBAQEAAAAAAAAAAAAAAAAAAAER/9oADAMBAAIRAxEAPwCztAQEBAQEBAQEBAQEBAQEBAQEBAQEBAQEBAQEBAQEBAQEBAQEBAQEBAQEBAQEBAQEBAQEBAQEBAQEBAQEBAQEBAQEBAQEBAQEBAQEBAQEBAQEBAQEBAQEBAQEBAQEBAQEBAQEBAQEBAQEBAQEBAQEBAQEBAQEBAQEBAQEBAQEBAQEBAQEBAQEBAQEBAQEBAQEBAQEBAQEBAQEBAQEBAQEBAQEBAQfEsrIYnyzPbHFGC58jyGtYB4kk9APmgwrqBxq6HaYyyw5ZqXjLaqH9pSW+oNwmafcWwB+x+BIQYMyTtgNDLNzCz0uc5AWnZrqS0xwNd9ZpWnb6IPGS9tPp015FPp9mz2eRfV0jDt8tz/pQc+09s9pRUSNZd8M1AogT1fEykqA36d60oMq4f2oXD1lsjIp8ursfmf4NvVnnhaPm9ge0fmgkRg2p2IamUQq9O8ox/JaflDi61XGOpLf3mtJc0/MBB6fxQEBAQEBAQEBAQEBAQEBAQEBAQEBAQEBAQEBAQEBAQEBAQEBAQEBB0Ob53jum2OVV/z6922wWajH21bX1DYo2n8IJ9px8mt3J8gUFdPEF2xtvt8lVauHDHhc5G7sGRX+NzIf3oaUEOcPcZHN+LUES2R8U3HXWuez9dcvtkr9t+b0G0Q9fAexTjb6lBnfTjsYM0ukUM+qGd4/jrX7F9LaaaS4yge4vPdx7/IkfFBnzFuxx0dtTGOybIM7vsw9oCrp6OM/wsjc7+0g9rD2UfDvFGGyY7kExH335HUAn8th/JB1927JHh/uMTmUdJmFqc4dH0l/Ly36SxvCDE2Z9itjVTHI7TrUm926XxjivVsjqmH4F8RYR/VQRpz/ALMriF0WrjecDgiydlGS+KvxG5PZVxj3907kl3+DOZBydJ+0y120Fu4sWqTJswoqFwjqLZlMD4LhAB5NqNhKD/hA8ILJOGzj70q4lPR7dZbm/G8rlABx69PbFNK73QSb8k/yaQ73tCCSXv8AeEBAQEBAQEBAQEBAQEBAQEBAQEBAQEBAQEBAQEBAQEBAQEBAQRi4w+O/DeFO2utpDMjz2qh7yisEE3KIGkerNVPH7JnmG+27yAHrAKr6ej197SHVDvHOq74KV/rSPcaWz2GJ3kB1ZH08hzSP2+8gsZ4buyz0w0eipbrqTFHqLlEezy+4Q7W6mf06R0p9vb8UvNv48rUEz6algo6WKmo4Yqemp2hsMMTAxkbR4BrR0A+QQbqAgICB4oNCAfFBjzWLh80918s5t2q+LWy+tDS2Grkj7urpvjFUN2kZ8gdveCgq84ouygyzTJlXkvD3V1uZWOmJnfaZABdaNo67x8uwqAP6AD/6J8UG7wg9qRkml9bS4fxIvuGRY1E8U8d6ka6S5WrY7bS7+tURt8wftG9di7blQW3YvlNozbHrffcRuVHd7NdYBPRV1HKJIp4z4Oa4fkR4ggggHog7RAQEBAQEBAQEBAQEBAQEBAQEBAQEBAQEBAQEBAQEBAQEEMeP7j3o+Gq0PxLTmWmr9S7nAHDmAkjscLx0mlaejpXDqyM/vO6cocEDuDnghy7jKyupzrVS4XWjwqSufLcL1UPL6y+T77vjgc7ffr0dMdw3wAJ6ALmtOtOMa0mxKhxjTuzUVisduZtBSUrNhzeb3nxe8+Je4lxPiUHpUBAQEBAQEBAQEEOeNjs78Z4kaCsybA46PGtSY2F4q2s7umvBA6MqgB0efATAbj73MPAK9+Fvisz7gP1TuGGak226HGG1/c5FjVT0lo5PA1NNv0Em2x6Hklbt19lwC7PCs1seo2KWvJcJuVPd7HeqdtRRVlOd2ysP8w4HcFp6tIIOxCDu0BAQEBAQEBAQEBAQEBAQEBAQEBAQEBAQEBAQEBAQEEe+Nnitt/ClpLNdou4q8tvRfSY1b5erZJ9vWnkHj3UQIcfxEtb95BV3wWcKOQ8bmrd1zDVasuVTiVDX+lZJdZpCJrtVPPP6LG/8Tgd3uHsM8NiWoLubDYrdi9lobRjtDS22122nZT0dHSxiOKCJg2axrR4AD/zug56AgHoEGMdX+JfTHQan59VMys1kqSznZb3S99WSD+jTx80m3xIA+KCIed9s3pxZZ5YdP8LyvJizo2esnitsUnxA+0ft82hBiyr7a+/vmJoNJ7NHFv0E1+ne78xGB/JB3mN9tjEZmsy/SeSOI+1NbMg3cPkyWHY/1ggkTpX2o2g+pUsNNcr5cMJr5tgIckpO5i5vd6RGXxgfFxaglbartQ323U9fZK2kuFBVMD4KqknbNFK0+bXtJa4fIoOWgICCKHHlwR2zikwp11xiGmodSLDTn9E1h2YLjGNz6HOfME78jj7Dj+EuQQE7PPi9ufDBqdPpvq3LVUOF3m4mlq4a0Oa7H7iHd2Zi09WsLgGSt8tg/wAWncLqWuDmgtIII3Gx3B+qDVAQEBAQEBAQEBAQEBAQEBAQEBAQEBAQEBAQEBAQcW6XSjslsq7jeKmKjoKCnkqKqplOzIYmNLnvcfcGgn6IKItW81yvtEeL2nocTZMKW7VgtmO08u5jttsjc5xnkHl6vPNJ7yduvRBdlo3pJYNDNNrHhWDU4gtdkpxGHloElVKesk8h85Hv3cfnsOgCD2qAg6bMMysen+NXDIc2ulFZbJaoTNWV1ZKI44WfE+ZJ6ADck7AAk7IKmOKrtWsr1FrqnGOGwVuLWB7zAb33e10uO52HdAb+jtPkG7yHp1b7KDyGh3Zeawa5zMyPU+rODWy4kTyVV8D6i51Yd1LxT78wJ98rmn4FBNvT3sk9C8RhidlcGR5pWM2Mj7jcnUsJd8IoOXp8C4oMu0fAnw/0MIih0mxB7R03mpnzO/NzyUHQ5R2cPDtlUDo5tOaG2SH2ZrTX1NG5p945ZOX6EEIIw6wdjFaamnnqtCs1rKGpALo7XksYmiefwioiaHNHxMbkER6G+cRXZ1ZxFTTi7Y3BUSc3odT/AHZZrw0eOwBMb+nmwtkbv4hBaHwecf2G8VFNHZqtkeLZ/DEXTWOebmZWADd0lJIf2g8zGfXb16OA5kEqPj5ICDQ9ehHRBV72tnCVH3DdbcDoQ14dHS5hTwM25t9mQ1pHv35Ynnz3Y78RQZi7LHiifrLpJLguX1hmyzT6GOGGSV5L622H1YZCT4ujI7p3w7snxKCcKAgICAgICAgICAgICAgICAgICAgICAgICAgICAggt2tevT9N9CaTBbHUmG86jTuhqOR2zmW2EtdP/lHmOP4jnCDx/Y/cPEeN4Hd9W8hpW/pTKXvt1jdIzrDQRP8AtpG7jp3sreXf8MX9JBYygIOuyLIrZiFhuF7yeup7ZabTTPqq2sqHcsdPEwbue4+4AfXwHVBSBxU8T+cceesduw7TOhucmMC4ej4vjsA2fVydR6VUDw7wt3d19WJm/h6ziFinBf2e2J8NVtor/l0VFk+o72B8tykj54LU4jrHRtcOhHgZj6zvLlHRBLz+e6AgICAg89nmn2OaoYtW43qBZqC/WO4N2noq2LnYT5OHm148Q9pDgfAoKaONfgVyLhDyKnz7SStutXgza5ktJcIpCKzH6nm3jZK9u3q823JMNtz6rtnbcwT07PXjhi4nMSfjee1EEGpOO04fVBoDBeKYdPSmNHQPBIEjR0BIcAA4hoTEQEHVZVi9rzXGbrj+UUkddZ71Ry0ddTPG4lhkaWvb89j0PkQCgorwq5Xjs++OEU92lmfQ4xeXUNxcAWi4Wefb7TbbrvC5ko9zmD3IL5aaoiq6eKeklZPBOxskUrDuJGOALXD4EEH6oNxAQEBAQEBAQEBAQEBAQEBAQEBAQEBAQEBAQEGh38up8ggo37QPMLhxE8b9di+OyPqmWqupMTs8bTzDvQ8NkOw99RJIT8B8EF0+neD27TPA8exLHo2x23G7bBb6YD7zYmBpcfeXEFxPmXFB6JA32QVadr1xQzGso9FMQrHxwxsiuOWPhd7bj61PSO+AG0rh5kx+5Bm3syeD+n0S00p8+zWgaM8zOkbLGJmevarc8BzIQD1bJIOV7z47cjfJ24TeQPPp5+A96CMWvvaKaN6A19RaLleZ8oySlJbNaMea2odA8fdlmJEUZ38W8xcPNoQRWvHbaFlY5uPaRiWkB6PrclLZCPiGQED8yg9vpz2zWAX2rip9S8LyHFWyHZ1ZQVLLnDH8XN2jk2+QcfggnLptqniOsGMw5BpjkFtyO0THb0iim5u7d+CRh2dG/wDovAPwQeqQdbkmN2vMLBcbHlFBT3O0XamfS1tHUM5o54XjZzHD3EH6dCOoQUW6+6Y5T2e3FdQ3HBKmoZRUdS274rXvJIqqNzi11PMfBxHrQyDzB5vvBBdjo3qnaNbdLsbzjFHb27I6FlS2Mu3dTyezLC7+kx4cw/L4oPZoCCrDtn9Ho4K/B9TrdT8pqmvsN2e1vtOYDLTOO3nymZu/9Fo8kEtOzk1YfqzwmYfNXzme54w19grnOdu4mmIERPzgdF4+5BJtAQEBAQEBAQEBAQEBAQEBAQEBAQEBAQEBAQEHW5JfocVx263ut/5PZqGetl67epDG6Q/yagpG7ODHJ9YeOWz3++/3Q+2SXDJqzmG/NMA4scf8dMx30QXlAbAD3INUHV5TkdFh2MXe/wB7eI7dZKCeuq3nyihjMj/5NI+qCjThXwut40eNyG55xGauir7rU5NkLHes30aJ/eCH90uMUO3uKC94DYbbAfAdAPkg1QVddpZx+3K23u56QaIXOS3uot6fKr5SSFspkI9aigeOrQ0dJHg7k7sBADtw8RwldlHdtTrPRZdxBV1xxizV7Wz0dipGhtwqo3dQ+ZzgRA1w6hvKXkHchvmE6rB2dXDtjtvZSx6a2uuLW7OqLlW1NTLIfeXGQAfQBBjfV/sl9Gc7t1Q7TuK5afXgtPczUdS+spObbp3kEzidv3HtKCuuso9Z+zU11hcJjRSyDnZJE90tryOjDurSOnO3yIID4yQRsdiQui4dde8e4ktKrTm+GF0UNaDDXUMjw6S31bNu9gefMgkEHpzNc13mgyYgiB2omhsWrXDLdL7RU7ZL9p443ijeG+sabo2rj39xj2k298QQYK7GPWKSusmbaY3Scv8A0Y9l9tDXO32jkIiqWj4B/cv/AInILNEBBGntGsAZqDweagQ8nNU2GlivVK7bfkdSyBz9vnE6UfVBE/sU87f/AOs7DJ3bx7UV5pW7+B3dBKdviDD+SC0ZAQEBAQEBAQEBAQEBAQEBAQEBAQEBAQEBAQEGGOM2+vxzhS1XroXcsjcVq4WHfwMrREP9dBXx2K9hbUan6kXhzAXW7H6akY7bw76p3P8AKFBbcgIIzdpDmEmG8GuoU1M4snu0NNamEHY7VFQxj/7Af9EEVuxUwqI0+p+YSsBmL6G0Uz9vZb688o/lF+QQWhIMX8TurB0P0BzjNoOUVljtMjqAO8DVyERQfMCSRp+QKCp/sveH+HXvX+5Zhn0P6VtGDBtyqG1Te8bXXKaQ9wJN/aAc2SUjzLG79CgtJ4ruJ7H+FTS+bKskidcrjVymls1pjl5JLhVEF2xd15I2j1nv2Ow6AEuAQVMX7tDeJ7Ve91tfhV8u1toqX7Q27F7I10FIzy5z3b3kbDxe477IJD8GHan3+/Zra8I4lpKGqivE7aWhyiKnbTPgqHHlY2qYwBhY5xDe8aGlpI5gRuQE1eMrh1t/EnoXf8cqKaI36ggkr8eqnNHPT10bCWtB8myAGNw8w4HxAQVydkBrBWYdrrd9OrlJIy2Zpb5JYaeQkd1cKVpe0gHwJiErD7+Vo8kFxvl0QcG+2SmyWy3C0XNgko7tSS0dQ0jcOjlYY3D8nFBSF2dF1n0v48LFYahzmisqbnj9WN9t/s5AAf8AGQs+qC8oHcBBqg8vqnY2ZPpll9nlaHsutgr6VzSN9+enkH+khBT72QV7ktfFbU0G/K274rXQPaT4ujMUo/1CguqQEBAQEBAQEBAQEBAQEBAQEBAQEBAQEBAQEBBHjtCS4cGWqfICSbTHv8vSYd0EPexMDfSNXj9/ktQ+nNUILSUBBC7tcHSDhBqRHvyuya295t7vtdv57IPG9i+2P/e85m5u3enMnc3v29Dh2/8AFBYGgh92rck7ODXIRTl3dvvNrE+34O/8/wCINQYr7FllONHtQ3x8vpjsmp2ze/uxSjk3+G5f/NBi3tq6i4HUHTKCXvP0S2x1j6cE+oZzUASfDflEX0QTd7Pe14rbOEjT1+nLaUQ1ttE11lpdueW4lxFR3xHUyB45dneDQ0dBsgq67Uq24rZ+Lq7t0/FHBUy2ylnvsdFs1sVyc1xfuG9GyFvdOcPHmcSepKC63TGevqNP8Qlv/P8ApOWzW99bz+13xgjL9/jzE7oKTOF0Npu0qsTLD0p25/cWQ8nh3HPUA+HlyboL02ew337BBuRj7Vn77f8ASEFFGkREfag0QoPYGq9YGcv4PTJgf5boL02+yPkg+kHFugabbWCTo000u/y5HIKQ+yzJbxs2UReybfdgfl6O/wD/AIgvGQEBAQEBAQEBAQEBAQEBAQEBAQEBAQEBAQEBBhTjWsr8g4TNWKOFvM84vVTNHvMXLL/+iCAPYq3wQajamWhztnV9ipKtrd/HuqgtP8pQgtpQEEXe0wxOTLeDPPG0zS6az+h3RoA39WGoZzn+o5yCNHYp5jG6y6n4lK/aaCqobtCz8TXNfDIR9RH+aCzn5+KDEXFrpPNrdw5Z7h1vYJbjc7U+S2tP3quBwmhb/E+MN/iQVf8AZNa+02k+uF1wPMZxQW7UGOOmp31B5BBc4S7uWO39nnDpIuv3uQILIOMvhQtXFnpaLDVVLLVkVnmdV2C6PYXNp5y3lfHIB1MUgADgOoLWuG/LsQpkzqza4cEuU1mH3G+ZHg9RdIPSuSy3tzae4wlzmNnYYnbOBLHDcgOG2xAQSf4HuzeybUTJ7FqdxAw+iYpI+K8UVuqKkTVV+LtpYny7E8kLiQ5xeed46bAHmQWN8VevVt4cdD8kzG5zQtr4qZ1LZKZx2dV3CVpbCxo8wD9o7bwYxxQVg9kdpVXZ5xI3DPbkx8tvwi3zTOqXgkSV9UHRRt38zymZ593KPeguc+HkEHFul1p7Hbau5XB4jpbdBJUzvJ2DWRtL3H8mlBRz2flBPqnx9Y9fZWlzY7ncsgqjt4ARyvB+HryMQXngbAfJBqg83qTemY3p1lV2mIay2WOuqXEnboyne7/wQU6dkPZ5LpxaPrdt22rF7hUPdt4F/dxj/wDIUF16AgICAgICAgICAgICAgICAgICAgICAgICAgIOoy7HYsvxS92Kq27i922ooJN/DlmidH1/rIKUOzIyeXS3jZtdhvZNM+9wXDHqprjsGzcpcxp+PewNb9UF4oO6DVB0ecYjRZ/hl+xi9DegyK2VFvqem+zJoywn5jmB+YQUh8E+eVnCTxq01lzx3oFNJcKjFMg592ti55Axsp3+62ZkT9/wknzQXsbEdHDYjoR8UD5b9Pd4oKq+Prs48ruWp0moXDdZJbvT5HVGe72WgeyKagrHHd1RCC5oMUh9YgHdjyT7JGwWL6C2zMbLoxhdBq/VtrczpLPBHepxIJC6cDb1njo94byhzh0c4E9d90FV/bPdOIfD+n/uXF/tdSgtF4a+nDrpbsAP/Qy0f7HEggv2knC9rtxB66Y2zArXPf8AB2W+GC3BlXHFT2qocT6TJUBzgWknldz7HdoDR1GyCaHCtw42Xhe0it2HWB7KytLvSrzc+TldcKx4AfJt4hgADWA+DWjzJKDMCCKXaXa3RaPcLt/o6WoEV8zrexW5ods4MkG9TIPPZsIcN/IyNQRm7GDR+Vjs51OuUBbE9jLBanub7R3bNUuBPkAIG7j3uCC0ZAQR07QrPWae8H2o1X3nJUXe3Ns9MAdi59XI2IgfKMyO/hQQ67FLCHyXPU7MZmcsUVNRWemft7TnvdPKB8hHF+YQWoICAgICAgICAgICAgICAgICAgICAgICAgICAgdR1adiPBBRdxv41X8MvHdcskx6I0zJbxS5dZy0cgd3kgleB8pmTNKC7jDMtt2fYjZclx2Vs9ryG3wXCjkb5xTMD2/Uc2x+IQdyg0I3HVBWn2jXZ9Zjq5qpR6g6DWaG7Vd+hZT5FQCripnsqIwGsqh3haC10Ya1+x3BYDt6xQT/ANI7Hf8AGNLMQtGfV8d1yS12OkpbrWRu5mz1EcTWvcHH2uo25vPbfzQeuQabDzAKDVBTl2z/APzh8P8A+5cX+2VKC0Xhr/5uulv/AHLtH+xxIMj7b/TwQaoCCuXtKeEDWTiO1cw+46Z0lNesYpLU2hEMlfFTttVQ6VzpppGvIJY8GM8zeY/Z8u3QbhNnQHRu1aA6QYzgmOlskFiowyepDeU1dS48885/fkLj8BsPJBkFAQVf9s/q9G2kwXTG31AMsr5L/dYw72WgOhpgR8ft3fQe9BJbszNKXaXcJOMyVsHcXDMZZb/VAs5Tyz7NgB/xMcZ/iQSqQEBAQEBAQEBAQEBAQEBAQEBAQEBAQEBAQEBAQQB7XzQeTONHrRqNZKZ0tywGcxXDkbu51uqHAFx94jlDD8BI4+9BtdkPxCMzXSi46YX2o3vODPdUWxr3etNbZn7kD391KXA+4SNQWB/NAQabA+ICDg368RY/YrldauOaaC2Uc1VLHA3nke2ONz3Bo83EN2A96Cqq49tXlBrag2vTPG2URkcacVF1qHSCPf1eYtABdt47ADdBxh21WZHw00xTr/8AU6pBr/w1OZ/9WmKf5zqkEUOLfinuvFpnlqyfILDbrBParQ22sp6GeSVkjWyySc5L+oO8hG3h0QSQ0+7XvLdP8CxvF6TTzGauDG7RS22KoluFS18rYImxh7gOgJDd9h06oO+/4arMh46aYp/nOqQajtqsy3/9mmKf5zqkEsOBLjsquLqsym137FIMeueOQQ1TZaGpfPTzwyPLOU845mPDh4bkEEnpsgl3sD49UGqAg4V7vNDjlmr7rfKqKittsppKqsqZTs2GGNpc95+AaCUFEDnXftBuOEFkdRFQ5Zeh06/8XWanHifJpbAz+u74oL5LdQU9poKaitsLKejo4WQU8LBsIo2NDWNHwDQB9EHIQEBAQEBAQEBAQEBAQEBAQEBAQEBAQEBAQEBAQddkePW7LcfuVkyKljrrVeKSWjraaQbtmhkaWvYfmCfrsfJBRJkVry7s4+MWOW3CWoisFZ6RQOeeWO9WeYkcrtunrR7sd+GRhP3QgvF0z1GsWrmB2TMMHq211kv9I2ppZR7TQejmPH3XscCxw8nNIQenQED5bIIVcemh2jum3DRqPmNDpvhVHkU1K2CjroLTHFKyrqZmxiRpHQOHO942HiEFN2nWXtwDMbZfquxWXJaOin+3tV6pBPSVsZGz43jy3B6OB3adiEF1XDhp9wtcTmndPlWA6WYE17eWK6Wue1xmotdRtuYpAD1B6lrx0cOo67gBlT/eXaEf9UeA/wCZ2INDwY6Dhwb/ALkmA8zvAfodm5QVv9oXqZoVgstdpnw+acYCMjYXQ3/I6S1xkW0g+tT0zuoM/TZ8g6M6tG7ty0MNdnBZcQyvinsWNan2Cz5HacjoK2kjpbpTiaNlQIjLE8A/e3iLd/c8oLwtPdKcM0ot09Fpli1hxekrJBLURWqhZTiZ4Gwc8jq4gbgbnp12QesQEBBWx2tfFlHYMeGi2D1jTdLyyOoyqaF/Wmpd+aKlJHg6QgPePJgaD7aD1fZOcL8mmum1Vqhl1IYchzuAMtTJW7PpbUHBzX/AzPAf+4xn4ign4gICAgICAgICAgICAgICAgICAgICAgICAgICAgICCMPHvwh0/FPpXtYY6eHO8ZbJUY/VPAb6SCN5KN7vJsmw5SfZeGnwLkFdXZ/cZFfwp6hVmA6uGspMHulwdFcIqmJwkx+vB5HT8niG7gNlZtv6ocOrdiF1lFW09yo6ert88NVS1UTZYJ4JBJHLG4bte1w6OaQQQR4hBvoCCv3tl84/Qmg+JYzDIGS5LknpErN+roaWEk9P8JNGg8twLcH2I66cBtTbtRaJzJctyGtuNsusTB6TbnwtbTRSxE+PrRybtPqvB2PkQEP5I9W+zO4iQQeWRg9V3rG3ZLbi7+bTt4e3G/3EdQuT4fOI7GOJPTqkynA5JInloZcrbUEGotk+3WOQDxB6lrwNnjqOu4ARH49ePFuKUl3wHRCuFTd6djo8hv8ASygiiAPLJSwOB3E2xIe/7nsj1ty0rFXZ/dnZHmlzotUtaqQy4vG9tXjtiqmnmuh6OZPUNP8AeAfZaf2pG59T2iMD6jMbw19pBXVFM1tHRY/qFDcGNA5Gso6iVkuw8tu6mI9yC90gNcQ32QTt8vJAQEEcONrjDsvCjpy+aF9LcM5vcT2Y9aHnfd3gamYDqIWH5c7vVH3iArM4HeF6/cZ+tdwzfVWWsuGJ225GuyS4VRPNeKt7ucUjXe93Qv29hnToXNQXfQU8VJBHBSxRQQwtDI4omhrI2gbNa0DoAAAAPIBBuICAgICAgICAgICAgICAgICAgICAgICAgICAgICAgbbhBBXj37OmPiFrf150e/R1rz48rLnTVMvcU96jA2D3P2IZUNAA5j0eAA7YgEhnvgx0ZybQPh4xvDNRLtFdr1bnTyP7iZ0sVHHJIXMpo3uALmsBPltu4gdNkGb0BBTx2zGb/pjXPD8Yik5o8Zxv0iRu/Rs1VM5x/sRRoLLuFfDW6Z8NemuPTNEc1BjVI6oaBsTNKzvpOn78pQbfEdw94vxMad1OMZ9Seo1xlt1fA0Gqts+2wmiJ8/IsPqvHQ+RAUoVOQ5xwr6mZljGC5hA692eOaz11fY6rnguVHt1aCOoezfw9pjgRuC0oqTvZ5cIWO6xZFV6l5rW0twtdqqGRfq02ZsjpalzWvElU3xEO2/K0/tCDv0aQQtjZAaN0Qi3I9nlA2Ab5D6Iim7th8HNg4lbPkMDOWLKsap3ucBtzT073wu/siJBa7w/ZuNSNDcAyfvO9fe8coqiZ2/8Afe5a2T+21yDICDQ+B+KCtHiT7NXUfX/i1umVXDJ7Y3A7/UQyyV8tUXVdtpWMa00sdOR1c3lIZseT1tzsdwgsE0t0vxvRrBbTiGnlujtdjs8PdwQtPM55PV0kjvF8j3buc4+JPu2AD1aAgICAgICAgICAgICAgICAgICAgICAgICAgICAgICAgICAg0IJ6N6k9Agos4nI6niH7Qu/W6371FJX5vR43AQegZC+Omdy+8Dke4/BBeAIGRQGKEcroXNjiY37rB0aB8NgEWK/OP3jzGF0V3060auM4u0gNPkGQ271v0e0+q6ngk32Ex32dIN+Twb63UBhbg77OWfXLG/191jnu+LW68UL249HThrairlcNo66Rrv717mHYy+O4B3cRijI6nVbs4uJGGrhe1krogOTlf8Ao6/28O25fLdh2/fidt4EdQuC4cOI/EuJzTumynAanlezliulrnePSLZUbbmKUeYPUteOjx1HXcAIc9tHhBr9LtPsugi5n2O+T26Z7R7MdTD3jd/hz05/rIMs9lNnP638H9loZJe9nxO7V1qfuerW84njHy5Z9vogmEgIH5ICAgICAgICAgICAgICAgIPh0gDwwe0RuEHCBicT6Y8iQHbr7kHYICAgICAgICAgICAgICAgICAgIOmyLI2Y5Y7ndqkNbTWillqpJCenLGwvP8Aqoqmjs/MdqdXeNDHMorw4y2l1de6qmcN/te7eWP+skrT7+YIJJcf3aD02I1tXpdo1cZG3ueF9NkGSU0mwt3MNjTwOHjL5PkB9QdGnm3LQx7wCcA1Vn1WzUrX61sNlfMJrHZZwT+k9vZnmb4ejbgFrSCZPHoz2gtXgoWRRMY8B/IAGjbYNA8AB4AIjG3EXw6YjxM6d1OKagUp29aW2XKBg9ItdRtsJoifycw9HjofIgKZpI9WuzO4iQWkNkZ7LhzG3ZLbub+bT/XiePIjqE/+I/VjEuNXs9c3yPTyUmrsdPTXOutcrgam1VNPK18kcg8wYzJyvHR7eo67gBibsVM2HLqfh0j/AP4K70zN/i+GUj84v5ILRUBAQEBAQEBAQEBAQEBAQEBBxX1Tt38jRytIHNvuivhkjonPZEA9ziSHk+PwRG4yGOpY17ty7bY+XVByUBAQEBAQEBAQEBAQEBAQEBAQEGAeOjMxp9wtagXSN7Yp6y3MttP12L31UrIdv6rnn6IKaNL9X7rolHk7sCnjoLpmFC22G6Pke2rpaUyh07ISBs2R3K1vN4taCRsXAgqW3AH2fEufG2ai8QFsdJjtFUGXHrPVt2ddmg7tnqGnr6PzbFrT1kPU+p7RFrcFPHSxhkDQxo8GtGwHlsB5DbyQbiAgxbxF8OmI8TOndVimoNKdvWlttyhaPSbZU7bCaIn6BzT0e3ofIgKTM6xLVHgI1WvuOXMhtNfbXU2+Z4a51uyO1ztdG47dNx62+3R8TwPAjqHvuyhzn9UuL6zW+WUxwZbaK21OBPql/d9/Hv8AHmgAHzQXjA7jceBQaoCAgICAgICAgICAgICAgIOJVwNdu7bbcfd8/mg2Gvc9hBad2AEFvgD70VvmmM20jHFnOASAfNEctAQEBAQEBAQEBAQEBAQEBAQEBBX72yWc/oPRDDcaikDJMiyX0qVoPV0NJCT/AK8zPyQVh6a6h2fAtRbHkGa4hHltjprqy4yWivmdBHVxjcDYgHwduevM1xbs4EbghfTw9cSeA8SWHtvOl10jmdTMY2vtM4EVXbXbbBksQ8B02D27sO3Q+QDKqAgINCQASfABBV/2nfGLpPmuI1WmGM2ygzzI6Sp5xfYpdqawzjYOMEres0pA5XNae72PrFxGwCvfh7zSTTTXbAMnLjC2zZDRVUhPQd13zQ/6Fhcg/SSeXc92d2bnlPw8v5ICAgICAgICAgICAgICAgICDRw3aR7wg2IqYtLC8j1WcpA80G+BsNh4BBqgICAgICAgICAgICAgICAgICAgp27ZfOP01rxiWMQP5o8YxoTyDfo2aqmc8j/JxxIJsWPghwHVbhG01wfUy0Bl0suL0vo14o2tirbdUyx99KY5COre8kcTG/dp9wPVBWnrRw06y9n3qFS5ditzr22qnqOW1ZfZ2lsTgT0hqWHcRucOhik3Y7yLggnpwc9p3jGtXoOK6zGhw/N5OWKCrL+7t92f4AMc4/YSk/cceUn2XbkNQTp/0jxHuQeS1Q1WxPRnEKvJ9S73RWKzUY2dPUP9aV+3SOJg9aSQ+TWgn6IKguLPtHM44lrhNhGjFJdccw+vlFMylpAXXO98x2DZTHuWtd5Qx777+sXeADMnB12UH/Isu4pYT4tlpMOjk+oNbI09P8Cw/B7h1agxF2vGmlLg/EFjl0sNFTUFqv2K08cNPSwtiiikpXvgLWNaAGgMEOwHggth4es4GpWhOn+T8/PJesbop5zvv9t3LWyj6Pa5BkJAQEBAQEBAQEBAQEBAQEBAQEBAQEBAQEBAQEBAQEBAQEBAQEBBoWl3QdSegQUT8S07+IbtF7zaKN3pUN1zakx+EN9YCKGSOmd9PUeUF67ImQsEcDWtijHJGB4Bo6AfkAg4l5stBkVqq7Zf6KkuVtr4XQ1dHVwtminjI6texwIcPgUFXHGN2UNRbjW5dwtwSVlNu6Wrw6STmliHiTRvcd5B/wBi4834S7o1BiHhy7TbUnh1slfh+olslzWgtkMlPbKe71D6estU7AQ2J8haXuha7oY3Dmb4Nc3bZB4Skt+u/aTatOnkNRdzTv2fUSc1NZ8fgcfZHi2MbeQ5pH7b+seqC1nhM4E8D4V6CKvoYm5HnEsXLV5HWQgPj3HrR00fXuWeW4PO7zdt0ASU8EFdHbQ4QbhpTgOWwxcz7HfZ7dM8DqI6mHnbv/HAfzQZT7KPOBl3CFaKB8oknxK8V1reN9y1heJ4x/Vm/kgmIgICAgICAgICAgICAgICAgICAgICAgICAgICAgICAgICAgICAg63Jb/BimOXW915AprNQz1sxJ22ZDG6Q/yagpH7Nmw1GqvHJZr9dQZ3Wx1xyKsJG4MnI/lJ/wAbMw/MILyQNvoEHDvV7t+N2msumQV1Jbbbb4jNV1lXM2KKnjHi573bBo+aCrbjG7V2punp2I8Lk0tFSbuiq8xkYWTTDwIo2OG8bf8AtXDm/CG9HEMR8OPZkakcRNlrsv1Euc2E0FzhkqLZUXanfUVt0nf1bK6IkPbCSdzI48zt92tdvug8LSVuvHZs6tOhc2otPpLt3wP5qmz5BA0+0PBsg28xyyR7/dO4QWr8JnHdgXFPb4qGhkbjmbxR81XjlZMC+TYes+lf076P4DZ7fNu3UhJXxHRBGrtGsH/Xrg51CgjYX1NmpYbxAQNy000zXv8A/tmQfVBE3sUs42fqfh0z+hFFeKVm/uL4JT/ah/IILR0BAQEBAQEBAQEBAQEBAQEBAQEBAQEBAQEBAQEBAQEBAQEBAQEEee0BzgYBwgalV7ZDHPX2ttqpyD1L6uVkJ2/hc8/RBC7sVcHM+Q6m5hLH6lHRUdoppCPOV7ppAPk2Fn9Ye9BPjiN4p8A4YcXN01IugFdUsJttkpC19bcHD/o2E+qzfoZHbNHvJ6EKgNaeJbWTtA9Q6XE8Xtlc+11FRzWnD7M4uhZsek1Q87CRw8TJJsxvXYNCCevB12YeMaK+hZVrMKDMM3ZyywUhb3lvtL/EcjXD7eUH77hyg+y3pzIJ0+/frv479d0Hk9T9KsU1lxCrxjUuyUV9s1Z1dBUt6xP2O0kbx60cg36PaQfogqD4tOzhzfhsuE2b6KVV1yPD7fL6U2opC5tzsfKdw+UR7FzG+U0e223rBviQzFwddq/1osQ4pJ99y2KjzGOL6AVsbR1/wzB++09XILIcltVu1R07u1soqmkr7XldlqKWKpglbLFPFUQuY17Ht3DmnmBBCCmTst8om0840LdYbmXU7r/Q3Cxzsd0HetYZGg/Hng2+ZQXfg7/VBqgICAgICAgICAgICAgICAgICAgICAgICAgICAgICAgICAgICCvftmc3No0Pw7FoZA2TIsidVStB6uhpYT/Lnmb9R8EETOHjjpouFDhgqsZ0vtrbpqNlN6qa6tra6I+iWmMMZFCeX+/ScrC4N6MbzAu36tQdHoLwnavcemcVOY5nc7jDY6up/wCNMwvQdJ32x6xUrDt3rgOga3aNngS3oEFwfD7w0YFw0YmLJpjaGU0kzW/pC6VG0lZcXj700u3hv1DG7Mb5DzQZUQEBBoRv4oIEcY/Zc47q2a7LdCGUOJ5i/mmqbVsIrddX+JIA6U8p/EByE+IaSXIIQ6C8WGr/AAEZ3U4fmdruEtkoqr/jTD7yXR9ySdzLSv6904jqHN5o3+JDuhQeDpdW7FauNak1I0+NXT2CTO4r3TR1cYjlihmqGySxvaCQNueRnQ7EDp0KD9CPqncxndm/qHfxHkfy2QaoCAgICAgICAgICAgICAgICAgICAgICAgICAgICAgICAgICAgp07ZbOf01r3iuMQPLocYxps0gB6NmqpXPI+fdxxfmgyDwX9lTHV01szbiZa2SCdkdVb8Rhl9prgHNdWvb5EEHuWHz9Z3i1BaBbLXR2W3U1BZ6SmoKGiibDTUtNE2KKCNo2axjGgBrQPIDZBykBAQEBAQYi4i+FvAuJ3Fv0VqRawaylY4Wy80mzK23OPnG/bqzfqY3bsPuB2ICkLi14Tck4StQYLFklZSXa2XaGSpsl1pQWCrha7lPPGescjSQHN3I6ggkFBetw65yNStBdPcn5+eS843RTzknciYRNZID/G16DIiAgICAgICAgICAgICAgICAgICAgICAgICAgICAgICAgICAg0ILhyt8XdB80H5++OTUKHNuMvUO9SsZcKK338UMcLnkNkhowyHk3HgD3Th8N0FxPCtxjYBxS44w4bUC1ZHQ04NxxmskaKmlAABdH4CaEdAHt8OnMGnogz54+HVAQEBAQEBBs1dXBQUs1TXTRU9PTRukmmleGMiY0buc5x6NaANyT0CCmjtSuKnT/iAyPGbDpeZLycKlqxPkLCG01R3wYHRQD2nsDowe86An2QR6xCa/ZQ5x+tnCHa7dJL3k2JXmttjgTuWsc8VEY/KY/kgmMgICAgICAgICAgICAgICAgICAgICAgICAgICAgICAgICAgIOsyjIKfEsau18uDg2lstBPXTEnbZkMbpD/JqCiTge0ctvFdxSSWzUmnnrrPW0N0u95ZBO6F5LmO5XNeOrSJ5oyPl1BG4Qeo4m+B/UvgtyiDONNrldbpituqhPb8ntm8NXan7+q2qaz9mfLvB9m7z5d+VBLfgx7U206hGgw7iOmo7Dk7+WGjyMNENFcXHoBOB0glP4v2bj+DwIWHNcHtDmkEEAgg7gg+BQaoCAgIPB6za4YZoFhk+Tao3qC026MlkDNueeslHhFBEOsjz7h0Hi4gdUFOnE1xu6l8auVQ4PpvbbrbMWuFSIbfjFr5pqq6u39V1U5n7Q+fIPs2ePXbmQZFvHZb1WmPCbnmeaoV8k2oFss4uFDaKCUOprXHHIx8wleP20vdd4Nm+o3rsXHYgPcdilnO0+p+GzvGzo6K8Urd/wufBKdv4oUFpSAgICAgICAgICAgICAgICAgICAgICAgICAgICAgICAgICAgjv2gucfqDwfak1rJDFPcbay1QbHqXVUrIiB/A56CGfYqYR3181NzCSMBtLSUdopnkecj3TSAfwxM/MILTqqlhrqWanrYYp6eojdHLFKwPZIxw2LXNPRwI6EHoUFaHGb2U8F09OzHhcpoqSr2dNW4e53LFMfEmicejD4/YuPKfuEdGoMDcJPaH5xwvXWLBNZKO637DbfMaWSgq2llysJB2LYefYlrT4wP2A29Us8wuE0y1SxXWPD6PKNNb1R32yVw+zqKd/WN/nHIw+tHIPNjgCEHqkGhOyCKPGH2guF8MNLUWSz+j5XqE6PaOywzfZUBPg+skb7HvEQ9d3T2QeZBWJiGAa4dpFq1PdLhVVFzZA8R115rWmK2WOAncRRtHRvT2YmAvd4nzcgty4W+DbAuFWwdziFL+k8kq4Qy55JWxj0qp97GeIhi38I2+PTmLj1QZezXGoczw6+49VhpgvtsqaCQO8CJonM/0uQUr9l7k02nPGpbbDcXOp3X2kuNiqGnoO9awyNB+PPAPqUF4I6gfFBqgICAgICAgICAgICAgICAgICAgICAgICAgICAgICAgICAgr17ZvOHWnRPCsVp5eWXI8ifVytB6uhpISNj8O8nafm1B7jsk8GGKcJdPdpIiyfL79W3AucOro4+Wnj+n2Tz/EgmkgII0cW/AlgvFRbZa+qjZjucww8tHkdJCC6TYerHVMG3fR+W+4e37p29UhVTDPrp2a+sHK4TWt1Qdyx3NUWjIadp8R4CQfH1ZI9/ulBanwwcfWnHEbi809RcaPEMmtVG6pvFmu1YyMQxsG8k8MriGywgdSejmj2gOhIRF4zO1YmuJrsO4XKmSlpvWhrcxLCyWUeBbRNcN2N/7Z3rH7ob0cQx7wedmZk+uVTTZtr4+545iNXJ6VHSSktuV85jzc/rdYo3eJkd6zt/VHXmAW8YPgePaaYvQ45gVnobFY7azkpqGjj5GM95Pm5x8S5xLnHqSUHfIG5aQR4tO4QUR6zMPDh2kNzuNKDTU1l1Ap7wzp0NNUTMqCB8OSVzfzQXubtJJjILCd2kHfceX8kBAQEBAQEBAQEBAQEBAQEBAQEBAQEBAQEBAQEBAQEBAQEBBTl2ymcfpnX7F8aheXRYxjTJXjfo2aqlfIfryMj/NBZ7wv4R/uccO2nGOOYWS2zGqMVDSNiJpIxLJ9eeRyDKCAg0PwQYF4zMy0axfR6ug4m46C4WOva4UVqLQ+trJ2joaNoIc2Qbj7QFobv6ztjsQoHuFBDesgupwS23d1qjknqKWnmPpVRT0jSSDM6NoB5Wbczw0N6E9Agk72dWW6GYlqy2fiNt7jc3SRnHbrcnNktVBN+Koj26P325ZXczG+JDTs4BelBUR1kMc9NKyeGdjZI5WPDmyNI3Dg4HYgjqCDsUG4gICCmntjMINh4jMfyKBvLFlONRczvxT00j4nfXkMX8kFp/Dhm41I0C08yYvL5LxjVFLOSd9pREGSD587HIMjoCAgICAgICAgICAgICAgICAgICAgICAgICAgICAgICAg0ILhs3xPQfNBRLxCudxF9o1ebVAfSqa8ZzS2KIA7j0eCSOmO3w5Y3FBe0GsjHLEAI2eqwAbANHQD8tkGqB57e9BDXjK7R7E+HOOtxnAfQ8u1EaCx1KyTmo7S/wB9U9p9Z4/6Fp3/ABFvmFculuh+tPaKao1mRX64VdTRmYNuuU3UOFHQM337iBg2DiAfVhiAA8XcoO6C37hu4TcA4YMUda8BtoqLjWwhl2vlaxslZcveHu22bHv4RN9Uee56kIm8ZvZXWzN/T8x4bIKWyZC7earxfmEVHXu8S6mcekEh6+ofs3eXIfEIq8LnHXqPwb5HJg2p9vut3xK21Bp63HbjzRVtndv6xpi/2D59071HeI5SeZBcXo/rThuu+G02T6X3qmvNsn2bIGHlmpZNtzFNGfWjePcfHxBI2KD26Agrs7aDBv0ppDgeWQxc8tgv01BK8Dq2Kqh5h193PTt/NBknsnc4OV8ItttksveT4leq62kE7lsbnCoj+n2zgP3UEykBAQEBAQEBAQEBAQEBAQEBAQEBAQEBAQEBAQEBAQEBAQdVlWQQYli94vlc4NprJb6iumcfJkMTpD/qoKTOzPsE+qPHBaL7dWmZ1pjuOQ1Z2J+05HBp/wArO1BeO0bNA93RB12RZJasQsdbespuNFabTbYjNWV1bM2GGnYPFz3HoB/p8BuUFUHGZ2qFzzg12G8M81ZZ7DKDBV5Pyuhra8HoW0w8YIz+L9o7+h4EOLwa9lvedSX0WacSMddYscmIqKXHy4xV9zB9YOmPtQRH3H7R2/3dw4hbNi+K2fCcfoLFiFsobNZrZCIaOhooRFFAweTWj8yfEnqSSg7VAQR/4q+C3AuKuxOGT04s+V0sPJbcloogaiDbwZK3oJ4t/uOO468rmlBUnkOJ659m1q9HX0k89q9IeWUlzpgZ7Xf6dp3LHtPRw98bwHs8Rt0cgtG4P+P7CeKOjhs9YYcW1Ajj3nsVRNuysIHrSUkh/aN8zGfXb7nAcyCU2/uQRt7RXB/164OtRoGM56iz0UV3hIG/KaWZsjz/AJPvEERuxTzjar1Ow6d42kiorxTM3/C50Ep2+T4kFpfzQEBAQEBAQEBAQEBAQEBAQEBAQEBAQEBAQEBAQEBAQEBBHTtCs3/UPg81Iq2Sd3PdLcy0w7HqXVUrYnD+oZEEOexTwfnu+puYSx9IKWitFM/bzke6aQflHEgnpxG8UeBcMOKfpfUe5f3ZVMcbZZaTZ9bcXDyjZv0YD4yO2aPeT0IU+avcQms/aG6mUeMY1ba2W3yzl9pxG0vJp6Zo6d/USHYPc0H1ppNmt36BoOyCwzgz7NjFeH1tDlWpYost1BYBLE9zOeitD/8A5djv2kg/6Zw6fcDfEhNP5oNUBAQEHnM/08xvVPE67GtQrNQ32x3FnLUUdXHzNJ8nNI6sePFr2kOaeoKCoPjA7NfLOH6sqM40LmumRYfRS+lFkBJudi5TzB7uTYyRtI3ErNnN29YDbmIZV4NO1ZfEaHDuKSpc9vqxUWZBm7h5Btaxo9YeA75o3/GD1cgspyG2W7UnAbpbaaopq+15RZ56aOeCVssU8NRC5gc1wJDmkP6EHZBS72YeRTaa8bFrsVycYHXumuNgqWnp9oGF7R/lKdqC8IHcA+9BqgICAgICAgICAgICAgICAgICAgICAgICAgICAgICAgIK8u2dzn9EaLYRi0EobLkWQyVkrAeroaSEj8ueob+SCMXDtxzWfhK4VH47p3QRXzUvK7xV19TJUxkUloj2ZDCZfDvpOWMvaxp2Adu4/dIeO0L4X9X+P/UGry/LbpXts9RU7XfMLs0vaSD1hpmdBI5o6BjNmM6blvgQuJ4fuGvBOGnEG2LTK1NgdM1puF0qNpKy5SD780m3h7mDZrfIeaDKSAgICAgICAggLxm9l7YdWfTsv0EjocYzJ/NNVWjpDb7q7xJaANqeY+8eo4+IaSXIIUcOvGBqtwKZrUYZndruVVj1DV7XTErvzQyUbt9zJSvO/dOPtdN43777deYB4Gu1ax6x8bMepGnM87cbOcw3yl7+HuXxwSztllie3yLQ+Rh2JHTcEhB+g8lpJMZDmE7tIO4I8j+SAgICAgICAgICAgICAgICAgICAgICAgICAgICAgICAgBBTd2yWbfpviBxrGoXl0WMY1G+Ru/Rs1VK+R315Gx/yQeu4LOyuqMnitubcS0UtFaJQyot+KMfyT1bCA5rqt46xRkbHu2nnO/rFg6ELVbJZLfjlppLXj9DSWy2W+JsNJR0kLYYYI2+DGMbsGtHuCDnICAgICAgICAgIMJ8TXCNgPFNjQoc8ofRbzSRFtryCiY0VlCfEN5j+0i38Y3dPEjlPVBSJxQ8K+YcKWeRWHOPRaukuUb57PdqN+8NfC13KXBp9aN7SQHMd1B8CRsSF73DXm41H4f9O8l5+8lu2NUUk7j4982IRyf22OQZJQEBAQEBAQEBAQEBAQEBAQEBAQEBAQEBAQEBAQEBAQNieg8T0HzQUR6+PfxGdo7d7XSOdVU14zymscWx6CngkjpnEfDlie5Be2GMj3bEGtjadmADYBvkPyQaoCAgICAgICAgICAgru7Z/BjddHcFyuCIPlx/IJaGZ48WxVUPMN/hzwD+sgyL2TOc/rXwi0FsklMk+I3yttzg47kRvc2oj+m0zgP3UEzEBAQEBAQEBAQEBAQEBAQEBAQEBAQEBAQEBAQEBAQEHU5dkUOIYrer7Wua2nsluqK6UnwDYYnSH/VQUodmVj02pvG3ab7dGmd1miuN/qiev2hY5rSf8ZO1BeIBsAPcg1QEBAQEBAQEBAQEBBHDtEMI/Xvg81Gpo4zJUWqhju0Gw3IdSyskcR/BzoIgdipm/JcNTsOleOWWCiu9MzfzY50Mp/J8SC05AQEBAQEBAQEBAQEBAQEBAQEBAQEBAQEBAQEBAQEBBhzjEs+R5Dwu6m2vT2hqLnf7lj81PTUdOCZZ2Pc0TNYB1c7uu82aOpPQeKCGXY86EZJhlVn+cZvYLnY466np7Rav0jRvp5JwJDLUFrXgEsBbC3m2233HkUFmCAgICAgICDbMzGyBhcOY+SDcQEBAQEHU5fjlPmGJXuw3ANNLfLbU0EwPhyTROjO/9ZBU52ZGhuqOlXF9dGZPiV8tFstFnuFuvtZWUckNON+XuhHI4BshdLHGW8pO7d3eCC3lAQEBAQEBAQEBAQEBAQEBAQEBAQEBAQEBAQEBAQEBAQCSTu4lx95O6AgICAgICDiyVDpA4Rbta3fd3n9EHHe5o7sBrmtefbPn7jv80VzYJS8Fr/bZ0Px+KI3UBAQEBA5iQASdh4AnwQEBAQEBAQEBAQEBAQEBAQEBAQEBAQEBAQEBAQEBAQEBAQEBAQEG1LO2Loerj4NHmg4znyv3kjeC6M7mMHpt7kGjxG8NmA3hk9oebT/56IrbZHI+EMGz4hJtt5jYoOSafuXxmAOPXruegCI5SAgICAgICAgICAgICAgICAgICAgIPh0rGHZ72tPuJ2QfaAgICAgICAgICAgICAgICAgICAg2zKC/kZuTt1I+6g4TmczHxuB77nB38dxv4opBztkc1jwA87B3J47IPtwbSTcriO5n8fg73oORTROha5h25QfVPwRG8gICAgICAgICAgICAgICAgICAgICDbMoL+Rm5O3Uj7qDhh8cJc2pY5z+bxAJ3QdggICAgICAgICAgICAgICAgICAg4UlU/0h0Y2DQ4DceKLj4fK6nErIugDunw3QfdSOSGKRu/MNhvv8ER91UDWQbt3AYNgAeiLH3TwMjjGw3JHUnqURvoCAgICAgICAgICAgICAgICAgICAg4UlU/0h0Y2DQ4DceKLj4fK6nErIugDunw3QcpsLHxsL2hx5R1KI/9k=;" parent="2OsGnD8xrRHOEKQomS8l-16" vertex="1">
          <mxGeometry x="35" y="22.5" width="55" height="55" as="geometry" />
        </mxCell>
        <mxCell id="2OsGnD8xrRHOEKQomS8l-12" value="" style="shape=image;verticalLabelPosition=bottom;labelBackgroundColor=default;verticalAlign=top;aspect=fixed;imageAspect=0;image=data:image/jpeg,/9j/4AAQSkZJRgABAQAAAQABAAD/2wBDAAMCAgMCAgMDAgMDAwMDBAcFBAQEBAkGBwUHCgkLCwoJCgoMDREODAwQDAoKDhQPEBESExMTCw4UFhQSFhESExL/2wBDAQMDAwQEBAgFBQgSDAoMEhISEhISEhISEhISEhISEhISEhISEhISEhISEhISEhISEhISEhISEhISEhISEhISEhL/wAARCAF8AXwDAREAAhEBAxEB/8QAHgABAAIBBQEBAAAAAAAAAAAAAAgJBwEDBAUGAgr/xABXEAABAwMCAwQHBAYDCQwLAAABAAIDBAUGBxEIEiEJEzFBFCIyUWFxgSNCUpEVFjNygqFikqIkQ3ODk5WxsrQXGBklNDhTV2N2wfAmJzdGVGRlo7PC4f/EABUBAQEAAAAAAAAAAAAAAAAAAAAB/8QAFhEBAQEAAAAAAAAAAAAAAAAAAAER/9oADAMBAAIRAxEAPwCztAQEBAQEBAQEBAQEBAQEBAQEBAQEBAQEBAQEBAQEBAQEBAQEBAQEBAQEBAQEBAQEBAQEBAQEBAQEBAQEBAQEBAQEBAQEBAQEBAQEBAQEBAQEBAQEBAQEBAQEBAQEBAQEBAQEBAQEBAQEBAQEBAQEBAQEBAQEBAQEBAQEBAQEBAQEBAQEBAQEBAQEBAQEBAQEBAQEBAQEBAQEBAQEBAQEBAQEBAQfEsrIYnyzPbHFGC58jyGtYB4kk9APmgwrqBxq6HaYyyw5ZqXjLaqH9pSW+oNwmafcWwB+x+BIQYMyTtgNDLNzCz0uc5AWnZrqS0xwNd9ZpWnb6IPGS9tPp015FPp9mz2eRfV0jDt8tz/pQc+09s9pRUSNZd8M1AogT1fEykqA36d60oMq4f2oXD1lsjIp8ursfmf4NvVnnhaPm9ge0fmgkRg2p2IamUQq9O8ox/JaflDi61XGOpLf3mtJc0/MBB6fxQEBAQEBAQEBAQEBAQEBAQEBAQEBAQEBAQEBAQEBAQEBAQEBAQEBB0Ob53jum2OVV/z6922wWajH21bX1DYo2n8IJ9px8mt3J8gUFdPEF2xtvt8lVauHDHhc5G7sGRX+NzIf3oaUEOcPcZHN+LUES2R8U3HXWuez9dcvtkr9t+b0G0Q9fAexTjb6lBnfTjsYM0ukUM+qGd4/jrX7F9LaaaS4yge4vPdx7/IkfFBnzFuxx0dtTGOybIM7vsw9oCrp6OM/wsjc7+0g9rD2UfDvFGGyY7kExH335HUAn8th/JB1927JHh/uMTmUdJmFqc4dH0l/Ly36SxvCDE2Z9itjVTHI7TrUm926XxjivVsjqmH4F8RYR/VQRpz/ALMriF0WrjecDgiydlGS+KvxG5PZVxj3907kl3+DOZBydJ+0y120Fu4sWqTJswoqFwjqLZlMD4LhAB5NqNhKD/hA8ILJOGzj70q4lPR7dZbm/G8rlABx69PbFNK73QSb8k/yaQ73tCCSXv8AeEBAQEBAQEBAQEBAQEBAQEBAQEBAQEBAQEBAQEBAQEBAQEBAQRi4w+O/DeFO2utpDMjz2qh7yisEE3KIGkerNVPH7JnmG+27yAHrAKr6ej197SHVDvHOq74KV/rSPcaWz2GJ3kB1ZH08hzSP2+8gsZ4buyz0w0eipbrqTFHqLlEezy+4Q7W6mf06R0p9vb8UvNv48rUEz6algo6WKmo4Yqemp2hsMMTAxkbR4BrR0A+QQbqAgICB4oNCAfFBjzWLh80918s5t2q+LWy+tDS2Grkj7urpvjFUN2kZ8gdveCgq84ouygyzTJlXkvD3V1uZWOmJnfaZABdaNo67x8uwqAP6AD/6J8UG7wg9qRkml9bS4fxIvuGRY1E8U8d6ka6S5WrY7bS7+tURt8wftG9di7blQW3YvlNozbHrffcRuVHd7NdYBPRV1HKJIp4z4Oa4fkR4ggggHog7RAQEBAQEBAQEBAQEBAQEBAQEBAQEBAQEBAQEBAQEBAQEEMeP7j3o+Gq0PxLTmWmr9S7nAHDmAkjscLx0mlaejpXDqyM/vO6cocEDuDnghy7jKyupzrVS4XWjwqSufLcL1UPL6y+T77vjgc7ffr0dMdw3wAJ6ALmtOtOMa0mxKhxjTuzUVisduZtBSUrNhzeb3nxe8+Je4lxPiUHpUBAQEBAQEBAQEEOeNjs78Z4kaCsybA46PGtSY2F4q2s7umvBA6MqgB0efATAbj73MPAK9+Fvisz7gP1TuGGak226HGG1/c5FjVT0lo5PA1NNv0Em2x6Hklbt19lwC7PCs1seo2KWvJcJuVPd7HeqdtRRVlOd2ysP8w4HcFp6tIIOxCDu0BAQEBAQEBAQEBAQEBAQEBAQEBAQEBAQEBAQEBAQEEe+Nnitt/ClpLNdou4q8tvRfSY1b5erZJ9vWnkHj3UQIcfxEtb95BV3wWcKOQ8bmrd1zDVasuVTiVDX+lZJdZpCJrtVPPP6LG/8Tgd3uHsM8NiWoLubDYrdi9lobRjtDS22122nZT0dHSxiOKCJg2axrR4AD/zug56AgHoEGMdX+JfTHQan59VMys1kqSznZb3S99WSD+jTx80m3xIA+KCIed9s3pxZZ5YdP8LyvJizo2esnitsUnxA+0ft82hBiyr7a+/vmJoNJ7NHFv0E1+ne78xGB/JB3mN9tjEZmsy/SeSOI+1NbMg3cPkyWHY/1ggkTpX2o2g+pUsNNcr5cMJr5tgIckpO5i5vd6RGXxgfFxaglbartQ323U9fZK2kuFBVMD4KqknbNFK0+bXtJa4fIoOWgICCKHHlwR2zikwp11xiGmodSLDTn9E1h2YLjGNz6HOfME78jj7Dj+EuQQE7PPi9ufDBqdPpvq3LVUOF3m4mlq4a0Oa7H7iHd2Zi09WsLgGSt8tg/wAWncLqWuDmgtIII3Gx3B+qDVAQEBAQEBAQEBAQEBAQEBAQEBAQEBAQEBAQEBAQcW6XSjslsq7jeKmKjoKCnkqKqplOzIYmNLnvcfcGgn6IKItW81yvtEeL2nocTZMKW7VgtmO08u5jttsjc5xnkHl6vPNJ7yduvRBdlo3pJYNDNNrHhWDU4gtdkpxGHloElVKesk8h85Hv3cfnsOgCD2qAg6bMMysen+NXDIc2ulFZbJaoTNWV1ZKI44WfE+ZJ6ADck7AAk7IKmOKrtWsr1FrqnGOGwVuLWB7zAb33e10uO52HdAb+jtPkG7yHp1b7KDyGh3Zeawa5zMyPU+rODWy4kTyVV8D6i51Yd1LxT78wJ98rmn4FBNvT3sk9C8RhidlcGR5pWM2Mj7jcnUsJd8IoOXp8C4oMu0fAnw/0MIih0mxB7R03mpnzO/NzyUHQ5R2cPDtlUDo5tOaG2SH2ZrTX1NG5p945ZOX6EEIIw6wdjFaamnnqtCs1rKGpALo7XksYmiefwioiaHNHxMbkER6G+cRXZ1ZxFTTi7Y3BUSc3odT/AHZZrw0eOwBMb+nmwtkbv4hBaHwecf2G8VFNHZqtkeLZ/DEXTWOebmZWADd0lJIf2g8zGfXb16OA5kEqPj5ICDQ9ehHRBV72tnCVH3DdbcDoQ14dHS5hTwM25t9mQ1pHv35Ynnz3Y78RQZi7LHiifrLpJLguX1hmyzT6GOGGSV5L622H1YZCT4ujI7p3w7snxKCcKAgICAgICAgICAgICAgICAgICAgICAgICAgICAggt2tevT9N9CaTBbHUmG86jTuhqOR2zmW2EtdP/lHmOP4jnCDx/Y/cPEeN4Hd9W8hpW/pTKXvt1jdIzrDQRP8AtpG7jp3sreXf8MX9JBYygIOuyLIrZiFhuF7yeup7ZabTTPqq2sqHcsdPEwbue4+4AfXwHVBSBxU8T+cceesduw7TOhucmMC4ej4vjsA2fVydR6VUDw7wt3d19WJm/h6ziFinBf2e2J8NVtor/l0VFk+o72B8tykj54LU4jrHRtcOhHgZj6zvLlHRBLz+e6AgICAg89nmn2OaoYtW43qBZqC/WO4N2noq2LnYT5OHm148Q9pDgfAoKaONfgVyLhDyKnz7SStutXgza5ktJcIpCKzH6nm3jZK9u3q823JMNtz6rtnbcwT07PXjhi4nMSfjee1EEGpOO04fVBoDBeKYdPSmNHQPBIEjR0BIcAA4hoTEQEHVZVi9rzXGbrj+UUkddZ71Ry0ddTPG4lhkaWvb89j0PkQCgorwq5Xjs++OEU92lmfQ4xeXUNxcAWi4Wefb7TbbrvC5ko9zmD3IL5aaoiq6eKeklZPBOxskUrDuJGOALXD4EEH6oNxAQEBAQEBAQEBAQEBAQEBAQEBAQEBAQEBAQEGh38up8ggo37QPMLhxE8b9di+OyPqmWqupMTs8bTzDvQ8NkOw99RJIT8B8EF0+neD27TPA8exLHo2x23G7bBb6YD7zYmBpcfeXEFxPmXFB6JA32QVadr1xQzGso9FMQrHxwxsiuOWPhd7bj61PSO+AG0rh5kx+5Bm3syeD+n0S00p8+zWgaM8zOkbLGJmevarc8BzIQD1bJIOV7z47cjfJ24TeQPPp5+A96CMWvvaKaN6A19RaLleZ8oySlJbNaMea2odA8fdlmJEUZ38W8xcPNoQRWvHbaFlY5uPaRiWkB6PrclLZCPiGQED8yg9vpz2zWAX2rip9S8LyHFWyHZ1ZQVLLnDH8XN2jk2+QcfggnLptqniOsGMw5BpjkFtyO0THb0iim5u7d+CRh2dG/wDovAPwQeqQdbkmN2vMLBcbHlFBT3O0XamfS1tHUM5o54XjZzHD3EH6dCOoQUW6+6Y5T2e3FdQ3HBKmoZRUdS274rXvJIqqNzi11PMfBxHrQyDzB5vvBBdjo3qnaNbdLsbzjFHb27I6FlS2Mu3dTyezLC7+kx4cw/L4oPZoCCrDtn9Ho4K/B9TrdT8pqmvsN2e1vtOYDLTOO3nymZu/9Fo8kEtOzk1YfqzwmYfNXzme54w19grnOdu4mmIERPzgdF4+5BJtAQEBAQEBAQEBAQEBAQEBAQEBAQEBAQEBAQEHW5JfocVx263ut/5PZqGetl67epDG6Q/yagpG7ODHJ9YeOWz3++/3Q+2SXDJqzmG/NMA4scf8dMx30QXlAbAD3INUHV5TkdFh2MXe/wB7eI7dZKCeuq3nyihjMj/5NI+qCjThXwut40eNyG55xGauir7rU5NkLHes30aJ/eCH90uMUO3uKC94DYbbAfAdAPkg1QVddpZx+3K23u56QaIXOS3uot6fKr5SSFspkI9aigeOrQ0dJHg7k7sBADtw8RwldlHdtTrPRZdxBV1xxizV7Wz0dipGhtwqo3dQ+ZzgRA1w6hvKXkHchvmE6rB2dXDtjtvZSx6a2uuLW7OqLlW1NTLIfeXGQAfQBBjfV/sl9Gc7t1Q7TuK5afXgtPczUdS+spObbp3kEzidv3HtKCuuso9Z+zU11hcJjRSyDnZJE90tryOjDurSOnO3yIID4yQRsdiQui4dde8e4ktKrTm+GF0UNaDDXUMjw6S31bNu9gefMgkEHpzNc13mgyYgiB2omhsWrXDLdL7RU7ZL9p443ijeG+sabo2rj39xj2k298QQYK7GPWKSusmbaY3Scv8A0Y9l9tDXO32jkIiqWj4B/cv/AInILNEBBGntGsAZqDweagQ8nNU2GlivVK7bfkdSyBz9vnE6UfVBE/sU87f/AOs7DJ3bx7UV5pW7+B3dBKdviDD+SC0ZAQEBAQEBAQEBAQEBAQEBAQEBAQEBAQEBAQEGGOM2+vxzhS1XroXcsjcVq4WHfwMrREP9dBXx2K9hbUan6kXhzAXW7H6akY7bw76p3P8AKFBbcgIIzdpDmEmG8GuoU1M4snu0NNamEHY7VFQxj/7Af9EEVuxUwqI0+p+YSsBmL6G0Uz9vZb688o/lF+QQWhIMX8TurB0P0BzjNoOUVljtMjqAO8DVyERQfMCSRp+QKCp/sveH+HXvX+5Zhn0P6VtGDBtyqG1Te8bXXKaQ9wJN/aAc2SUjzLG79CgtJ4ruJ7H+FTS+bKskidcrjVymls1pjl5JLhVEF2xd15I2j1nv2Ow6AEuAQVMX7tDeJ7Ve91tfhV8u1toqX7Q27F7I10FIzy5z3b3kbDxe477IJD8GHan3+/Zra8I4lpKGqivE7aWhyiKnbTPgqHHlY2qYwBhY5xDe8aGlpI5gRuQE1eMrh1t/EnoXf8cqKaI36ggkr8eqnNHPT10bCWtB8myAGNw8w4HxAQVydkBrBWYdrrd9OrlJIy2Zpb5JYaeQkd1cKVpe0gHwJiErD7+Vo8kFxvl0QcG+2SmyWy3C0XNgko7tSS0dQ0jcOjlYY3D8nFBSF2dF1n0v48LFYahzmisqbnj9WN9t/s5AAf8AGQs+qC8oHcBBqg8vqnY2ZPpll9nlaHsutgr6VzSN9+enkH+khBT72QV7ktfFbU0G/K274rXQPaT4ujMUo/1CguqQEBAQEBAQEBAQEBAQEBAQEBAQEBAQEBAQEBBHjtCS4cGWqfICSbTHv8vSYd0EPexMDfSNXj9/ktQ+nNUILSUBBC7tcHSDhBqRHvyuya295t7vtdv57IPG9i+2P/e85m5u3enMnc3v29Dh2/8AFBYGgh92rck7ODXIRTl3dvvNrE+34O/8/wCINQYr7FllONHtQ3x8vpjsmp2ze/uxSjk3+G5f/NBi3tq6i4HUHTKCXvP0S2x1j6cE+oZzUASfDflEX0QTd7Pe14rbOEjT1+nLaUQ1ttE11lpdueW4lxFR3xHUyB45dneDQ0dBsgq67Uq24rZ+Lq7t0/FHBUy2ylnvsdFs1sVyc1xfuG9GyFvdOcPHmcSepKC63TGevqNP8Qlv/P8ApOWzW99bz+13xgjL9/jzE7oKTOF0Npu0qsTLD0p25/cWQ8nh3HPUA+HlyboL02ew337BBuRj7Vn77f8ASEFFGkREfag0QoPYGq9YGcv4PTJgf5boL02+yPkg+kHFugabbWCTo000u/y5HIKQ+yzJbxs2UReybfdgfl6O/wD/AIgvGQEBAQEBAQEBAQEBAQEBAQEBAQEBAQEBAQEBBhTjWsr8g4TNWKOFvM84vVTNHvMXLL/+iCAPYq3wQajamWhztnV9ipKtrd/HuqgtP8pQgtpQEEXe0wxOTLeDPPG0zS6az+h3RoA39WGoZzn+o5yCNHYp5jG6y6n4lK/aaCqobtCz8TXNfDIR9RH+aCzn5+KDEXFrpPNrdw5Z7h1vYJbjc7U+S2tP3quBwmhb/E+MN/iQVf8AZNa+02k+uF1wPMZxQW7UGOOmp31B5BBc4S7uWO39nnDpIuv3uQILIOMvhQtXFnpaLDVVLLVkVnmdV2C6PYXNp5y3lfHIB1MUgADgOoLWuG/LsQpkzqza4cEuU1mH3G+ZHg9RdIPSuSy3tzae4wlzmNnYYnbOBLHDcgOG2xAQSf4HuzeybUTJ7FqdxAw+iYpI+K8UVuqKkTVV+LtpYny7E8kLiQ5xeed46bAHmQWN8VevVt4cdD8kzG5zQtr4qZ1LZKZx2dV3CVpbCxo8wD9o7bwYxxQVg9kdpVXZ5xI3DPbkx8tvwi3zTOqXgkSV9UHRRt38zymZ593KPeguc+HkEHFul1p7Hbau5XB4jpbdBJUzvJ2DWRtL3H8mlBRz2flBPqnx9Y9fZWlzY7ncsgqjt4ARyvB+HryMQXngbAfJBqg83qTemY3p1lV2mIay2WOuqXEnboyne7/wQU6dkPZ5LpxaPrdt22rF7hUPdt4F/dxj/wDIUF16AgICAgICAgICAgICAgICAgICAgICAgICAgIOoy7HYsvxS92Kq27i922ooJN/DlmidH1/rIKUOzIyeXS3jZtdhvZNM+9wXDHqprjsGzcpcxp+PewNb9UF4oO6DVB0ecYjRZ/hl+xi9DegyK2VFvqem+zJoywn5jmB+YQUh8E+eVnCTxq01lzx3oFNJcKjFMg592ti55Axsp3+62ZkT9/wknzQXsbEdHDYjoR8UD5b9Pd4oKq+Prs48ruWp0moXDdZJbvT5HVGe72WgeyKagrHHd1RCC5oMUh9YgHdjyT7JGwWL6C2zMbLoxhdBq/VtrczpLPBHepxIJC6cDb1njo94byhzh0c4E9d90FV/bPdOIfD+n/uXF/tdSgtF4a+nDrpbsAP/Qy0f7HEggv2knC9rtxB66Y2zArXPf8AB2W+GC3BlXHFT2qocT6TJUBzgWknldz7HdoDR1GyCaHCtw42Xhe0it2HWB7KytLvSrzc+TldcKx4AfJt4hgADWA+DWjzJKDMCCKXaXa3RaPcLt/o6WoEV8zrexW5ods4MkG9TIPPZsIcN/IyNQRm7GDR+Vjs51OuUBbE9jLBanub7R3bNUuBPkAIG7j3uCC0ZAQR07QrPWae8H2o1X3nJUXe3Ns9MAdi59XI2IgfKMyO/hQQ67FLCHyXPU7MZmcsUVNRWemft7TnvdPKB8hHF+YQWoICAgICAgICAgICAgICAgICAgICAgICAgICAgdR1adiPBBRdxv41X8MvHdcskx6I0zJbxS5dZy0cgd3kgleB8pmTNKC7jDMtt2fYjZclx2Vs9ryG3wXCjkb5xTMD2/Uc2x+IQdyg0I3HVBWn2jXZ9Zjq5qpR6g6DWaG7Vd+hZT5FQCripnsqIwGsqh3haC10Ya1+x3BYDt6xQT/ANI7Hf8AGNLMQtGfV8d1yS12OkpbrWRu5mz1EcTWvcHH2uo25vPbfzQeuQabDzAKDVBTl2z/APzh8P8A+5cX+2VKC0Xhr/5uulv/AHLtH+xxIMj7b/TwQaoCCuXtKeEDWTiO1cw+46Z0lNesYpLU2hEMlfFTttVQ6VzpppGvIJY8GM8zeY/Z8u3QbhNnQHRu1aA6QYzgmOlskFiowyepDeU1dS48885/fkLj8BsPJBkFAQVf9s/q9G2kwXTG31AMsr5L/dYw72WgOhpgR8ft3fQe9BJbszNKXaXcJOMyVsHcXDMZZb/VAs5Tyz7NgB/xMcZ/iQSqQEBAQEBAQEBAQEBAQEBAQEBAQEBAQEBAQEBAQQB7XzQeTONHrRqNZKZ0tywGcxXDkbu51uqHAFx94jlDD8BI4+9BtdkPxCMzXSi46YX2o3vODPdUWxr3etNbZn7kD391KXA+4SNQWB/NAQabA+ICDg368RY/YrldauOaaC2Uc1VLHA3nke2ONz3Bo83EN2A96Cqq49tXlBrag2vTPG2URkcacVF1qHSCPf1eYtABdt47ADdBxh21WZHw00xTr/8AU6pBr/w1OZ/9WmKf5zqkEUOLfinuvFpnlqyfILDbrBParQ22sp6GeSVkjWyySc5L+oO8hG3h0QSQ0+7XvLdP8CxvF6TTzGauDG7RS22KoluFS18rYImxh7gOgJDd9h06oO+/4arMh46aYp/nOqQajtqsy3/9mmKf5zqkEsOBLjsquLqsym137FIMeueOQQ1TZaGpfPTzwyPLOU845mPDh4bkEEnpsgl3sD49UGqAg4V7vNDjlmr7rfKqKittsppKqsqZTs2GGNpc95+AaCUFEDnXftBuOEFkdRFQ5Zeh06/8XWanHifJpbAz+u74oL5LdQU9poKaitsLKejo4WQU8LBsIo2NDWNHwDQB9EHIQEBAQEBAQEBAQEBAQEBAQEBAQEBAQEBAQEBAQddkePW7LcfuVkyKljrrVeKSWjraaQbtmhkaWvYfmCfrsfJBRJkVry7s4+MWOW3CWoisFZ6RQOeeWO9WeYkcrtunrR7sd+GRhP3QgvF0z1GsWrmB2TMMHq211kv9I2ppZR7TQejmPH3XscCxw8nNIQenQED5bIIVcemh2jum3DRqPmNDpvhVHkU1K2CjroLTHFKyrqZmxiRpHQOHO942HiEFN2nWXtwDMbZfquxWXJaOin+3tV6pBPSVsZGz43jy3B6OB3adiEF1XDhp9wtcTmndPlWA6WYE17eWK6Wue1xmotdRtuYpAD1B6lrx0cOo67gBlT/eXaEf9UeA/wCZ2INDwY6Dhwb/ALkmA8zvAfodm5QVv9oXqZoVgstdpnw+acYCMjYXQ3/I6S1xkW0g+tT0zuoM/TZ8g6M6tG7ty0MNdnBZcQyvinsWNan2Cz5HacjoK2kjpbpTiaNlQIjLE8A/e3iLd/c8oLwtPdKcM0ot09Fpli1hxekrJBLURWqhZTiZ4Gwc8jq4gbgbnp12QesQEBBWx2tfFlHYMeGi2D1jTdLyyOoyqaF/Wmpd+aKlJHg6QgPePJgaD7aD1fZOcL8mmum1Vqhl1IYchzuAMtTJW7PpbUHBzX/AzPAf+4xn4ign4gICAgICAgICAgICAgICAgICAgICAgICAgICAgICCMPHvwh0/FPpXtYY6eHO8ZbJUY/VPAb6SCN5KN7vJsmw5SfZeGnwLkFdXZ/cZFfwp6hVmA6uGspMHulwdFcIqmJwkx+vB5HT8niG7gNlZtv6ocOrdiF1lFW09yo6ert88NVS1UTZYJ4JBJHLG4bte1w6OaQQQR4hBvoCCv3tl84/Qmg+JYzDIGS5LknpErN+roaWEk9P8JNGg8twLcH2I66cBtTbtRaJzJctyGtuNsusTB6TbnwtbTRSxE+PrRybtPqvB2PkQEP5I9W+zO4iQQeWRg9V3rG3ZLbi7+bTt4e3G/3EdQuT4fOI7GOJPTqkynA5JInloZcrbUEGotk+3WOQDxB6lrwNnjqOu4ARH49ePFuKUl3wHRCuFTd6djo8hv8ASygiiAPLJSwOB3E2xIe/7nsj1ty0rFXZ/dnZHmlzotUtaqQy4vG9tXjtiqmnmuh6OZPUNP8AeAfZaf2pG59T2iMD6jMbw19pBXVFM1tHRY/qFDcGNA5Gso6iVkuw8tu6mI9yC90gNcQ32QTt8vJAQEEcONrjDsvCjpy+aF9LcM5vcT2Y9aHnfd3gamYDqIWH5c7vVH3iArM4HeF6/cZ+tdwzfVWWsuGJ225GuyS4VRPNeKt7ucUjXe93Qv29hnToXNQXfQU8VJBHBSxRQQwtDI4omhrI2gbNa0DoAAAAPIBBuICAgICAgICAgICAgICAgICAgICAgICAgICAgICAgbbhBBXj37OmPiFrf150e/R1rz48rLnTVMvcU96jA2D3P2IZUNAA5j0eAA7YgEhnvgx0ZybQPh4xvDNRLtFdr1bnTyP7iZ0sVHHJIXMpo3uALmsBPltu4gdNkGb0BBTx2zGb/pjXPD8Yik5o8Zxv0iRu/Rs1VM5x/sRRoLLuFfDW6Z8NemuPTNEc1BjVI6oaBsTNKzvpOn78pQbfEdw94vxMad1OMZ9Seo1xlt1fA0Gqts+2wmiJ8/IsPqvHQ+RAUoVOQ5xwr6mZljGC5hA692eOaz11fY6rnguVHt1aCOoezfw9pjgRuC0oqTvZ5cIWO6xZFV6l5rW0twtdqqGRfq02ZsjpalzWvElU3xEO2/K0/tCDv0aQQtjZAaN0Qi3I9nlA2Ab5D6Iim7th8HNg4lbPkMDOWLKsap3ucBtzT073wu/siJBa7w/ZuNSNDcAyfvO9fe8coqiZ2/8Afe5a2T+21yDICDQ+B+KCtHiT7NXUfX/i1umVXDJ7Y3A7/UQyyV8tUXVdtpWMa00sdOR1c3lIZseT1tzsdwgsE0t0vxvRrBbTiGnlujtdjs8PdwQtPM55PV0kjvF8j3buc4+JPu2AD1aAgICAgICAgICAgICAgICAgICAgICAgICAgICAgICAgICAg0IJ6N6k9Agos4nI6niH7Qu/W6371FJX5vR43AQegZC+Omdy+8Dke4/BBeAIGRQGKEcroXNjiY37rB0aB8NgEWK/OP3jzGF0V3060auM4u0gNPkGQ271v0e0+q6ngk32Ex32dIN+Twb63UBhbg77OWfXLG/191jnu+LW68UL249HThrairlcNo66Rrv717mHYy+O4B3cRijI6nVbs4uJGGrhe1krogOTlf8Ao6/28O25fLdh2/fidt4EdQuC4cOI/EuJzTumynAanlezliulrnePSLZUbbmKUeYPUteOjx1HXcAIc9tHhBr9LtPsugi5n2O+T26Z7R7MdTD3jd/hz05/rIMs9lNnP638H9loZJe9nxO7V1qfuerW84njHy5Z9vogmEgIH5ICAgICAgICAgICAgICAgIPh0gDwwe0RuEHCBicT6Y8iQHbr7kHYICAgICAgICAgICAgICAgICAgIOmyLI2Y5Y7ndqkNbTWillqpJCenLGwvP8Aqoqmjs/MdqdXeNDHMorw4y2l1de6qmcN/te7eWP+skrT7+YIJJcf3aD02I1tXpdo1cZG3ueF9NkGSU0mwt3MNjTwOHjL5PkB9QdGnm3LQx7wCcA1Vn1WzUrX61sNlfMJrHZZwT+k9vZnmb4ejbgFrSCZPHoz2gtXgoWRRMY8B/IAGjbYNA8AB4AIjG3EXw6YjxM6d1OKagUp29aW2XKBg9ItdRtsJoifycw9HjofIgKZpI9WuzO4iQWkNkZ7LhzG3ZLbub+bT/XiePIjqE/+I/VjEuNXs9c3yPTyUmrsdPTXOutcrgam1VNPK18kcg8wYzJyvHR7eo67gBibsVM2HLqfh0j/AP4K70zN/i+GUj84v5ILRUBAQEBAQEBAQEBAQEBAQEBBxX1Tt38jRytIHNvuivhkjonPZEA9ziSHk+PwRG4yGOpY17ty7bY+XVByUBAQEBAQEBAQEBAQEBAQEBAQEGAeOjMxp9wtagXSN7Yp6y3MttP12L31UrIdv6rnn6IKaNL9X7rolHk7sCnjoLpmFC22G6Pke2rpaUyh07ISBs2R3K1vN4taCRsXAgqW3AH2fEufG2ai8QFsdJjtFUGXHrPVt2ddmg7tnqGnr6PzbFrT1kPU+p7RFrcFPHSxhkDQxo8GtGwHlsB5DbyQbiAgxbxF8OmI8TOndVimoNKdvWlttyhaPSbZU7bCaIn6BzT0e3ofIgKTM6xLVHgI1WvuOXMhtNfbXU2+Z4a51uyO1ztdG47dNx62+3R8TwPAjqHvuyhzn9UuL6zW+WUxwZbaK21OBPql/d9/Hv8AHmgAHzQXjA7jceBQaoCAgICAgICAgICAgICAgIOJVwNdu7bbcfd8/mg2Gvc9hBad2AEFvgD70VvmmM20jHFnOASAfNEctAQEBAQEBAQEBAQEBAQEBAQEBBX72yWc/oPRDDcaikDJMiyX0qVoPV0NJCT/AK8zPyQVh6a6h2fAtRbHkGa4hHltjprqy4yWivmdBHVxjcDYgHwduevM1xbs4EbghfTw9cSeA8SWHtvOl10jmdTMY2vtM4EVXbXbbBksQ8B02D27sO3Q+QDKqAgINCQASfABBV/2nfGLpPmuI1WmGM2ygzzI6Sp5xfYpdqawzjYOMEres0pA5XNae72PrFxGwCvfh7zSTTTXbAMnLjC2zZDRVUhPQd13zQ/6Fhcg/SSeXc92d2bnlPw8v5ICAgICAgICAgICAgICAgICDRw3aR7wg2IqYtLC8j1WcpA80G+BsNh4BBqgICAgICAgICAgICAgICAgICAgp27ZfOP01rxiWMQP5o8YxoTyDfo2aqmc8j/JxxIJsWPghwHVbhG01wfUy0Bl0suL0vo14o2tirbdUyx99KY5COre8kcTG/dp9wPVBWnrRw06y9n3qFS5ditzr22qnqOW1ZfZ2lsTgT0hqWHcRucOhik3Y7yLggnpwc9p3jGtXoOK6zGhw/N5OWKCrL+7t92f4AMc4/YSk/cceUn2XbkNQTp/0jxHuQeS1Q1WxPRnEKvJ9S73RWKzUY2dPUP9aV+3SOJg9aSQ+TWgn6IKguLPtHM44lrhNhGjFJdccw+vlFMylpAXXO98x2DZTHuWtd5Qx777+sXeADMnB12UH/Isu4pYT4tlpMOjk+oNbI09P8Cw/B7h1agxF2vGmlLg/EFjl0sNFTUFqv2K08cNPSwtiiikpXvgLWNaAGgMEOwHggth4es4GpWhOn+T8/PJesbop5zvv9t3LWyj6Pa5BkJAQEBAQEBAQEBAQEBAQEBAQEBAQEBAQEBAQEBAQEBAQEBAQEBBoWl3QdSegQUT8S07+IbtF7zaKN3pUN1zakx+EN9YCKGSOmd9PUeUF67ImQsEcDWtijHJGB4Bo6AfkAg4l5stBkVqq7Zf6KkuVtr4XQ1dHVwtminjI6texwIcPgUFXHGN2UNRbjW5dwtwSVlNu6Wrw6STmliHiTRvcd5B/wBi4834S7o1BiHhy7TbUnh1slfh+olslzWgtkMlPbKe71D6estU7AQ2J8haXuha7oY3Dmb4Nc3bZB4Skt+u/aTatOnkNRdzTv2fUSc1NZ8fgcfZHi2MbeQ5pH7b+seqC1nhM4E8D4V6CKvoYm5HnEsXLV5HWQgPj3HrR00fXuWeW4PO7zdt0ASU8EFdHbQ4QbhpTgOWwxcz7HfZ7dM8DqI6mHnbv/HAfzQZT7KPOBl3CFaKB8oknxK8V1reN9y1heJ4x/Vm/kgmIgICAgICAgICAgICAgICAgICAgICAgICAgICAgICAgICAgICAg63Jb/BimOXW915AprNQz1sxJ22ZDG6Q/yagpH7Nmw1GqvHJZr9dQZ3Wx1xyKsJG4MnI/lJ/wAbMw/MILyQNvoEHDvV7t+N2msumQV1Jbbbb4jNV1lXM2KKnjHi573bBo+aCrbjG7V2punp2I8Lk0tFSbuiq8xkYWTTDwIo2OG8bf8AtXDm/CG9HEMR8OPZkakcRNlrsv1Euc2E0FzhkqLZUXanfUVt0nf1bK6IkPbCSdzI48zt92tdvug8LSVuvHZs6tOhc2otPpLt3wP5qmz5BA0+0PBsg28xyyR7/dO4QWr8JnHdgXFPb4qGhkbjmbxR81XjlZMC+TYes+lf076P4DZ7fNu3UhJXxHRBGrtGsH/Xrg51CgjYX1NmpYbxAQNy000zXv8A/tmQfVBE3sUs42fqfh0z+hFFeKVm/uL4JT/ah/IILR0BAQEBAQEBAQEBAQEBAQEBAQEBAQEBAQEBAQEBAQEBAQEBAQEEee0BzgYBwgalV7ZDHPX2ttqpyD1L6uVkJ2/hc8/RBC7sVcHM+Q6m5hLH6lHRUdoppCPOV7ppAPk2Fn9Ye9BPjiN4p8A4YcXN01IugFdUsJttkpC19bcHD/o2E+qzfoZHbNHvJ6EKgNaeJbWTtA9Q6XE8Xtlc+11FRzWnD7M4uhZsek1Q87CRw8TJJsxvXYNCCevB12YeMaK+hZVrMKDMM3ZyywUhb3lvtL/EcjXD7eUH77hyg+y3pzIJ0+/frv479d0Hk9T9KsU1lxCrxjUuyUV9s1Z1dBUt6xP2O0kbx60cg36PaQfogqD4tOzhzfhsuE2b6KVV1yPD7fL6U2opC5tzsfKdw+UR7FzG+U0e223rBviQzFwddq/1osQ4pJ99y2KjzGOL6AVsbR1/wzB++09XILIcltVu1R07u1soqmkr7XldlqKWKpglbLFPFUQuY17Ht3DmnmBBCCmTst8om0840LdYbmXU7r/Q3Cxzsd0HetYZGg/Hng2+ZQXfg7/VBqgICAgICAgICAgICAgICAgICAgICAgICAgICAgICAgICAgICCvftmc3No0Pw7FoZA2TIsidVStB6uhpYT/Lnmb9R8EETOHjjpouFDhgqsZ0vtrbpqNlN6qa6tra6I+iWmMMZFCeX+/ScrC4N6MbzAu36tQdHoLwnavcemcVOY5nc7jDY6up/wCNMwvQdJ32x6xUrDt3rgOga3aNngS3oEFwfD7w0YFw0YmLJpjaGU0kzW/pC6VG0lZcXj700u3hv1DG7Mb5DzQZUQEBBoRv4oIEcY/Zc47q2a7LdCGUOJ5i/mmqbVsIrddX+JIA6U8p/EByE+IaSXIIQ6C8WGr/AAEZ3U4fmdruEtkoqr/jTD7yXR9ySdzLSv6904jqHN5o3+JDuhQeDpdW7FauNak1I0+NXT2CTO4r3TR1cYjlihmqGySxvaCQNueRnQ7EDp0KD9CPqncxndm/qHfxHkfy2QaoCAgICAgICAgICAgICAgICAgICAgICAgICAgICAgICAgICAgp07ZbOf01r3iuMQPLocYxps0gB6NmqpXPI+fdxxfmgyDwX9lTHV01szbiZa2SCdkdVb8Rhl9prgHNdWvb5EEHuWHz9Z3i1BaBbLXR2W3U1BZ6SmoKGiibDTUtNE2KKCNo2axjGgBrQPIDZBykBAQEBAQYi4i+FvAuJ3Fv0VqRawaylY4Wy80mzK23OPnG/bqzfqY3bsPuB2ICkLi14Tck4StQYLFklZSXa2XaGSpsl1pQWCrha7lPPGescjSQHN3I6ggkFBetw65yNStBdPcn5+eS843RTzknciYRNZID/G16DIiAgICAgICAgICAgICAgICAgICAgICAgICAgICAgICAgICAg0ILhyt8XdB80H5++OTUKHNuMvUO9SsZcKK338UMcLnkNkhowyHk3HgD3Th8N0FxPCtxjYBxS44w4bUC1ZHQ04NxxmskaKmlAABdH4CaEdAHt8OnMGnogz54+HVAQEBAQEBBs1dXBQUs1TXTRU9PTRukmmleGMiY0buc5x6NaANyT0CCmjtSuKnT/iAyPGbDpeZLycKlqxPkLCG01R3wYHRQD2nsDowe86An2QR6xCa/ZQ5x+tnCHa7dJL3k2JXmttjgTuWsc8VEY/KY/kgmMgICAgICAgICAgICAgICAgICAgICAgICAgICAgICAgICAgIOsyjIKfEsau18uDg2lstBPXTEnbZkMbpD/JqCiTge0ctvFdxSSWzUmnnrrPW0N0u95ZBO6F5LmO5XNeOrSJ5oyPl1BG4Qeo4m+B/UvgtyiDONNrldbpituqhPb8ntm8NXan7+q2qaz9mfLvB9m7z5d+VBLfgx7U206hGgw7iOmo7Dk7+WGjyMNENFcXHoBOB0glP4v2bj+DwIWHNcHtDmkEEAgg7gg+BQaoCAgIPB6za4YZoFhk+Tao3qC026MlkDNueeslHhFBEOsjz7h0Hi4gdUFOnE1xu6l8auVQ4PpvbbrbMWuFSIbfjFr5pqq6u39V1U5n7Q+fIPs2ePXbmQZFvHZb1WmPCbnmeaoV8k2oFss4uFDaKCUOprXHHIx8wleP20vdd4Nm+o3rsXHYgPcdilnO0+p+GzvGzo6K8Urd/wufBKdv4oUFpSAgICAgICAgICAgICAgICAgICAgICAgICAgICAgICAgICAgjv2gucfqDwfak1rJDFPcbay1QbHqXVUrIiB/A56CGfYqYR3181NzCSMBtLSUdopnkecj3TSAfwxM/MILTqqlhrqWanrYYp6eojdHLFKwPZIxw2LXNPRwI6EHoUFaHGb2U8F09OzHhcpoqSr2dNW4e53LFMfEmicejD4/YuPKfuEdGoMDcJPaH5xwvXWLBNZKO637DbfMaWSgq2llysJB2LYefYlrT4wP2A29Us8wuE0y1SxXWPD6PKNNb1R32yVw+zqKd/WN/nHIw+tHIPNjgCEHqkGhOyCKPGH2guF8MNLUWSz+j5XqE6PaOywzfZUBPg+skb7HvEQ9d3T2QeZBWJiGAa4dpFq1PdLhVVFzZA8R115rWmK2WOAncRRtHRvT2YmAvd4nzcgty4W+DbAuFWwdziFL+k8kq4Qy55JWxj0qp97GeIhi38I2+PTmLj1QZezXGoczw6+49VhpgvtsqaCQO8CJonM/0uQUr9l7k02nPGpbbDcXOp3X2kuNiqGnoO9awyNB+PPAPqUF4I6gfFBqgICAgICAgICAgICAgICAgICAgICAgICAgICAgICAgICAgr17ZvOHWnRPCsVp5eWXI8ifVytB6uhpISNj8O8nafm1B7jsk8GGKcJdPdpIiyfL79W3AucOro4+Wnj+n2Tz/EgmkgII0cW/AlgvFRbZa+qjZjucww8tHkdJCC6TYerHVMG3fR+W+4e37p29UhVTDPrp2a+sHK4TWt1Qdyx3NUWjIadp8R4CQfH1ZI9/ulBanwwcfWnHEbi809RcaPEMmtVG6pvFmu1YyMQxsG8k8MriGywgdSejmj2gOhIRF4zO1YmuJrsO4XKmSlpvWhrcxLCyWUeBbRNcN2N/7Z3rH7ob0cQx7wedmZk+uVTTZtr4+545iNXJ6VHSSktuV85jzc/rdYo3eJkd6zt/VHXmAW8YPgePaaYvQ45gVnobFY7azkpqGjj5GM95Pm5x8S5xLnHqSUHfIG5aQR4tO4QUR6zMPDh2kNzuNKDTU1l1Ap7wzp0NNUTMqCB8OSVzfzQXubtJJjILCd2kHfceX8kBAQEBAQEBAQEBAQEBAQEBAQEBAQEBAQEBAQEBAQEBAQEBBTl2ymcfpnX7F8aheXRYxjTJXjfo2aqlfIfryMj/NBZ7wv4R/uccO2nGOOYWS2zGqMVDSNiJpIxLJ9eeRyDKCAg0PwQYF4zMy0axfR6ug4m46C4WOva4UVqLQ+trJ2joaNoIc2Qbj7QFobv6ztjsQoHuFBDesgupwS23d1qjknqKWnmPpVRT0jSSDM6NoB5Wbczw0N6E9Agk72dWW6GYlqy2fiNt7jc3SRnHbrcnNktVBN+Koj26P325ZXczG+JDTs4BelBUR1kMc9NKyeGdjZI5WPDmyNI3Dg4HYgjqCDsUG4gICCmntjMINh4jMfyKBvLFlONRczvxT00j4nfXkMX8kFp/Dhm41I0C08yYvL5LxjVFLOSd9pREGSD587HIMjoCAgICAgICAgICAgICAgICAgICAgICAgICAgICAgICAg0ILhs3xPQfNBRLxCudxF9o1ebVAfSqa8ZzS2KIA7j0eCSOmO3w5Y3FBe0GsjHLEAI2eqwAbANHQD8tkGqB57e9BDXjK7R7E+HOOtxnAfQ8u1EaCx1KyTmo7S/wB9U9p9Z4/6Fp3/ABFvmFculuh+tPaKao1mRX64VdTRmYNuuU3UOFHQM337iBg2DiAfVhiAA8XcoO6C37hu4TcA4YMUda8BtoqLjWwhl2vlaxslZcveHu22bHv4RN9Uee56kIm8ZvZXWzN/T8x4bIKWyZC7earxfmEVHXu8S6mcekEh6+ofs3eXIfEIq8LnHXqPwb5HJg2p9vut3xK21Bp63HbjzRVtndv6xpi/2D59071HeI5SeZBcXo/rThuu+G02T6X3qmvNsn2bIGHlmpZNtzFNGfWjePcfHxBI2KD26Agrs7aDBv0ppDgeWQxc8tgv01BK8Dq2Kqh5h193PTt/NBknsnc4OV8ItttksveT4leq62kE7lsbnCoj+n2zgP3UEykBAQEBAQEBAQEBAQEBAQEBAQEBAQEBAQEBAQEBAQEBAQdVlWQQYli94vlc4NprJb6iumcfJkMTpD/qoKTOzPsE+qPHBaL7dWmZ1pjuOQ1Z2J+05HBp/wArO1BeO0bNA93RB12RZJasQsdbespuNFabTbYjNWV1bM2GGnYPFz3HoB/p8BuUFUHGZ2qFzzg12G8M81ZZ7DKDBV5Pyuhra8HoW0w8YIz+L9o7+h4EOLwa9lvedSX0WacSMddYscmIqKXHy4xV9zB9YOmPtQRH3H7R2/3dw4hbNi+K2fCcfoLFiFsobNZrZCIaOhooRFFAweTWj8yfEnqSSg7VAQR/4q+C3AuKuxOGT04s+V0sPJbcloogaiDbwZK3oJ4t/uOO468rmlBUnkOJ659m1q9HX0k89q9IeWUlzpgZ7Xf6dp3LHtPRw98bwHs8Rt0cgtG4P+P7CeKOjhs9YYcW1Ajj3nsVRNuysIHrSUkh/aN8zGfXb7nAcyCU2/uQRt7RXB/164OtRoGM56iz0UV3hIG/KaWZsjz/AJPvEERuxTzjar1Ow6d42kiorxTM3/C50Ep2+T4kFpfzQEBAQEBAQEBAQEBAQEBAQEBAQEBAQEBAQEBAQEBAQEBBHTtCs3/UPg81Iq2Sd3PdLcy0w7HqXVUrYnD+oZEEOexTwfnu+puYSx9IKWitFM/bzke6aQflHEgnpxG8UeBcMOKfpfUe5f3ZVMcbZZaTZ9bcXDyjZv0YD4yO2aPeT0IU+avcQms/aG6mUeMY1ba2W3yzl9pxG0vJp6Zo6d/USHYPc0H1ppNmt36BoOyCwzgz7NjFeH1tDlWpYost1BYBLE9zOeitD/8A5djv2kg/6Zw6fcDfEhNP5oNUBAQEHnM/08xvVPE67GtQrNQ32x3FnLUUdXHzNJ8nNI6sePFr2kOaeoKCoPjA7NfLOH6sqM40LmumRYfRS+lFkBJudi5TzB7uTYyRtI3ErNnN29YDbmIZV4NO1ZfEaHDuKSpc9vqxUWZBm7h5Btaxo9YeA75o3/GD1cgspyG2W7UnAbpbaaopq+15RZ56aOeCVssU8NRC5gc1wJDmkP6EHZBS72YeRTaa8bFrsVycYHXumuNgqWnp9oGF7R/lKdqC8IHcA+9BqgICAgICAgICAgICAgICAgICAgICAgICAgICAgICAgIK8u2dzn9EaLYRi0EobLkWQyVkrAeroaSEj8ueob+SCMXDtxzWfhK4VH47p3QRXzUvK7xV19TJUxkUloj2ZDCZfDvpOWMvaxp2Adu4/dIeO0L4X9X+P/UGry/LbpXts9RU7XfMLs0vaSD1hpmdBI5o6BjNmM6blvgQuJ4fuGvBOGnEG2LTK1NgdM1puF0qNpKy5SD780m3h7mDZrfIeaDKSAgICAgICAggLxm9l7YdWfTsv0EjocYzJ/NNVWjpDb7q7xJaANqeY+8eo4+IaSXIIUcOvGBqtwKZrUYZndruVVj1DV7XTErvzQyUbt9zJSvO/dOPtdN43777deYB4Gu1ax6x8bMepGnM87cbOcw3yl7+HuXxwSztllie3yLQ+Rh2JHTcEhB+g8lpJMZDmE7tIO4I8j+SAgICAgICAgICAgICAgICAgICAgICAgICAgICAgICAgBBTd2yWbfpviBxrGoXl0WMY1G+Ru/Rs1VK+R315Gx/yQeu4LOyuqMnitubcS0UtFaJQyot+KMfyT1bCA5rqt46xRkbHu2nnO/rFg6ELVbJZLfjlppLXj9DSWy2W+JsNJR0kLYYYI2+DGMbsGtHuCDnICAgICAgICAgIMJ8TXCNgPFNjQoc8ofRbzSRFtryCiY0VlCfEN5j+0i38Y3dPEjlPVBSJxQ8K+YcKWeRWHOPRaukuUb57PdqN+8NfC13KXBp9aN7SQHMd1B8CRsSF73DXm41H4f9O8l5+8lu2NUUk7j4982IRyf22OQZJQEBAQEBAQEBAQEBAQEBAQEBAQEBAQEBAQEBAQEBAQNieg8T0HzQUR6+PfxGdo7d7XSOdVU14zymscWx6CngkjpnEfDlie5Be2GMj3bEGtjadmADYBvkPyQaoCAgICAgICAgICAgru7Z/BjddHcFyuCIPlx/IJaGZ48WxVUPMN/hzwD+sgyL2TOc/rXwi0FsklMk+I3yttzg47kRvc2oj+m0zgP3UEzEBAQEBAQEBAQEBAQEBAQEBAQEBAQEBAQEBAQEBAQEHU5dkUOIYrer7Wua2nsluqK6UnwDYYnSH/VQUodmVj02pvG3ab7dGmd1miuN/qiev2hY5rSf8ZO1BeIBsAPcg1QEBAQEBAQEBAQEBBHDtEMI/Xvg81Gpo4zJUWqhju0Gw3IdSyskcR/BzoIgdipm/JcNTsOleOWWCiu9MzfzY50Mp/J8SC05AQEBAQEBAQEBAQEBAQEBAQEBAQEBAQEBAQEBAQEBBhzjEs+R5Dwu6m2vT2hqLnf7lj81PTUdOCZZ2Pc0TNYB1c7uu82aOpPQeKCGXY86EZJhlVn+cZvYLnY466np7Rav0jRvp5JwJDLUFrXgEsBbC3m2233HkUFmCAgICAgICDbMzGyBhcOY+SDcQEBAQEHU5fjlPmGJXuw3ANNLfLbU0EwPhyTROjO/9ZBU52ZGhuqOlXF9dGZPiV8tFstFnuFuvtZWUckNON+XuhHI4BshdLHGW8pO7d3eCC3lAQEBAQEBAQEBAQEBAQEBAQEBAQEBAQEBAQEBAQEBAQCSTu4lx95O6AgICAgICDiyVDpA4Rbta3fd3n9EHHe5o7sBrmtefbPn7jv80VzYJS8Fr/bZ0Px+KI3UBAQEBA5iQASdh4AnwQEBAQEBAQEBAQEBAQEBAQEBAQEBAQEBAQEBAQEBAQEBAQEBAQEG1LO2Loerj4NHmg4znyv3kjeC6M7mMHpt7kGjxG8NmA3hk9oebT/56IrbZHI+EMGz4hJtt5jYoOSafuXxmAOPXruegCI5SAgICAgICAgICAgICAgICAgICAgIPh0rGHZ72tPuJ2QfaAgICAgICAgICAgICAgICAgICAg2zKC/kZuTt1I+6g4TmczHxuB77nB38dxv4opBztkc1jwA87B3J47IPtwbSTcriO5n8fg73oORTROha5h25QfVPwRG8gICAgICAgICAgICAgICAgICAgICDbMoL+Rm5O3Uj7qDhh8cJc2pY5z+bxAJ3QdggICAgICAgICAgICAgICAgICAg4UlU/0h0Y2DQ4DceKLj4fK6nErIugDunw3QfdSOSGKRu/MNhvv8ER91UDWQbt3AYNgAeiLH3TwMjjGw3JHUnqURvoCAgICAgICAgICAgICAgICAgICAg4UlU/0h0Y2DQ4DceKLj4fK6nErIugDunw3QcpsLHxsL2hx5R1KI/9k=;" parent="2OsGnD8xrRHOEKQomS8l-16" vertex="1">
          <mxGeometry x="115" y="22.5" width="55" height="55" as="geometry" />
        </mxCell>
        <mxCell id="2OsGnD8xrRHOEKQomS8l-13" value="" style="shape=image;verticalLabelPosition=bottom;labelBackgroundColor=default;verticalAlign=top;aspect=fixed;imageAspect=0;image=data:image/jpeg,/9j/4AAQSkZJRgABAQAAAQABAAD/2wBDAAMCAgMCAgMDAgMDAwMDBAcFBAQEBAkGBwUHCgkLCwoJCgoMDREODAwQDAoKDhQPEBESExMTCw4UFhQSFhESExL/2wBDAQMDAwQEBAgFBQgSDAoMEhISEhISEhISEhISEhISEhISEhISEhISEhISEhISEhISEhISEhISEhISEhISEhISEhL/wAARCAF8AXwDAREAAhEBAxEB/8QAHgABAAIBBQEBAAAAAAAAAAAAAAgJBwEDBAUGAgr/xABXEAABAwMCAwQHBAYDCQwLAAABAAIDBAUGBxEIEiEJEzFBFCIyUWFxgSNCUpEVFjNygqFikqIkQ3ODk5WxsrQXGBklNDhTV2N2wfAmJzdGVGRlo7PC4f/EABUBAQEAAAAAAAAAAAAAAAAAAAAB/8QAFhEBAQEAAAAAAAAAAAAAAAAAAAER/9oADAMBAAIRAxEAPwCztAQEBAQEBAQEBAQEBAQEBAQEBAQEBAQEBAQEBAQEBAQEBAQEBAQEBAQEBAQEBAQEBAQEBAQEBAQEBAQEBAQEBAQEBAQEBAQEBAQEBAQEBAQEBAQEBAQEBAQEBAQEBAQEBAQEBAQEBAQEBAQEBAQEBAQEBAQEBAQEBAQEBAQEBAQEBAQEBAQEBAQEBAQEBAQEBAQEBAQEBAQEBAQEBAQEBAQEBAQfEsrIYnyzPbHFGC58jyGtYB4kk9APmgwrqBxq6HaYyyw5ZqXjLaqH9pSW+oNwmafcWwB+x+BIQYMyTtgNDLNzCz0uc5AWnZrqS0xwNd9ZpWnb6IPGS9tPp015FPp9mz2eRfV0jDt8tz/pQc+09s9pRUSNZd8M1AogT1fEykqA36d60oMq4f2oXD1lsjIp8ursfmf4NvVnnhaPm9ge0fmgkRg2p2IamUQq9O8ox/JaflDi61XGOpLf3mtJc0/MBB6fxQEBAQEBAQEBAQEBAQEBAQEBAQEBAQEBAQEBAQEBAQEBAQEBAQEBB0Ob53jum2OVV/z6922wWajH21bX1DYo2n8IJ9px8mt3J8gUFdPEF2xtvt8lVauHDHhc5G7sGRX+NzIf3oaUEOcPcZHN+LUES2R8U3HXWuez9dcvtkr9t+b0G0Q9fAexTjb6lBnfTjsYM0ukUM+qGd4/jrX7F9LaaaS4yge4vPdx7/IkfFBnzFuxx0dtTGOybIM7vsw9oCrp6OM/wsjc7+0g9rD2UfDvFGGyY7kExH335HUAn8th/JB1927JHh/uMTmUdJmFqc4dH0l/Ly36SxvCDE2Z9itjVTHI7TrUm926XxjivVsjqmH4F8RYR/VQRpz/ALMriF0WrjecDgiydlGS+KvxG5PZVxj3907kl3+DOZBydJ+0y120Fu4sWqTJswoqFwjqLZlMD4LhAB5NqNhKD/hA8ILJOGzj70q4lPR7dZbm/G8rlABx69PbFNK73QSb8k/yaQ73tCCSXv8AeEBAQEBAQEBAQEBAQEBAQEBAQEBAQEBAQEBAQEBAQEBAQEBAQRi4w+O/DeFO2utpDMjz2qh7yisEE3KIGkerNVPH7JnmG+27yAHrAKr6ej197SHVDvHOq74KV/rSPcaWz2GJ3kB1ZH08hzSP2+8gsZ4buyz0w0eipbrqTFHqLlEezy+4Q7W6mf06R0p9vb8UvNv48rUEz6algo6WKmo4Yqemp2hsMMTAxkbR4BrR0A+QQbqAgICB4oNCAfFBjzWLh80918s5t2q+LWy+tDS2Grkj7urpvjFUN2kZ8gdveCgq84ouygyzTJlXkvD3V1uZWOmJnfaZABdaNo67x8uwqAP6AD/6J8UG7wg9qRkml9bS4fxIvuGRY1E8U8d6ka6S5WrY7bS7+tURt8wftG9di7blQW3YvlNozbHrffcRuVHd7NdYBPRV1HKJIp4z4Oa4fkR4ggggHog7RAQEBAQEBAQEBAQEBAQEBAQEBAQEBAQEBAQEBAQEBAQEEMeP7j3o+Gq0PxLTmWmr9S7nAHDmAkjscLx0mlaejpXDqyM/vO6cocEDuDnghy7jKyupzrVS4XWjwqSufLcL1UPL6y+T77vjgc7ffr0dMdw3wAJ6ALmtOtOMa0mxKhxjTuzUVisduZtBSUrNhzeb3nxe8+Je4lxPiUHpUBAQEBAQEBAQEEOeNjs78Z4kaCsybA46PGtSY2F4q2s7umvBA6MqgB0efATAbj73MPAK9+Fvisz7gP1TuGGak226HGG1/c5FjVT0lo5PA1NNv0Em2x6Hklbt19lwC7PCs1seo2KWvJcJuVPd7HeqdtRRVlOd2ysP8w4HcFp6tIIOxCDu0BAQEBAQEBAQEBAQEBAQEBAQEBAQEBAQEBAQEBAQEEe+Nnitt/ClpLNdou4q8tvRfSY1b5erZJ9vWnkHj3UQIcfxEtb95BV3wWcKOQ8bmrd1zDVasuVTiVDX+lZJdZpCJrtVPPP6LG/8Tgd3uHsM8NiWoLubDYrdi9lobRjtDS22122nZT0dHSxiOKCJg2axrR4AD/zug56AgHoEGMdX+JfTHQan59VMys1kqSznZb3S99WSD+jTx80m3xIA+KCIed9s3pxZZ5YdP8LyvJizo2esnitsUnxA+0ft82hBiyr7a+/vmJoNJ7NHFv0E1+ne78xGB/JB3mN9tjEZmsy/SeSOI+1NbMg3cPkyWHY/1ggkTpX2o2g+pUsNNcr5cMJr5tgIckpO5i5vd6RGXxgfFxaglbartQ323U9fZK2kuFBVMD4KqknbNFK0+bXtJa4fIoOWgICCKHHlwR2zikwp11xiGmodSLDTn9E1h2YLjGNz6HOfME78jj7Dj+EuQQE7PPi9ufDBqdPpvq3LVUOF3m4mlq4a0Oa7H7iHd2Zi09WsLgGSt8tg/wAWncLqWuDmgtIII3Gx3B+qDVAQEBAQEBAQEBAQEBAQEBAQEBAQEBAQEBAQEBAQcW6XSjslsq7jeKmKjoKCnkqKqplOzIYmNLnvcfcGgn6IKItW81yvtEeL2nocTZMKW7VgtmO08u5jttsjc5xnkHl6vPNJ7yduvRBdlo3pJYNDNNrHhWDU4gtdkpxGHloElVKesk8h85Hv3cfnsOgCD2qAg6bMMysen+NXDIc2ulFZbJaoTNWV1ZKI44WfE+ZJ6ADck7AAk7IKmOKrtWsr1FrqnGOGwVuLWB7zAb33e10uO52HdAb+jtPkG7yHp1b7KDyGh3Zeawa5zMyPU+rODWy4kTyVV8D6i51Yd1LxT78wJ98rmn4FBNvT3sk9C8RhidlcGR5pWM2Mj7jcnUsJd8IoOXp8C4oMu0fAnw/0MIih0mxB7R03mpnzO/NzyUHQ5R2cPDtlUDo5tOaG2SH2ZrTX1NG5p945ZOX6EEIIw6wdjFaamnnqtCs1rKGpALo7XksYmiefwioiaHNHxMbkER6G+cRXZ1ZxFTTi7Y3BUSc3odT/AHZZrw0eOwBMb+nmwtkbv4hBaHwecf2G8VFNHZqtkeLZ/DEXTWOebmZWADd0lJIf2g8zGfXb16OA5kEqPj5ICDQ9ehHRBV72tnCVH3DdbcDoQ14dHS5hTwM25t9mQ1pHv35Ynnz3Y78RQZi7LHiifrLpJLguX1hmyzT6GOGGSV5L622H1YZCT4ujI7p3w7snxKCcKAgICAgICAgICAgICAgICAgICAgICAgICAgICAggt2tevT9N9CaTBbHUmG86jTuhqOR2zmW2EtdP/lHmOP4jnCDx/Y/cPEeN4Hd9W8hpW/pTKXvt1jdIzrDQRP8AtpG7jp3sreXf8MX9JBYygIOuyLIrZiFhuF7yeup7ZabTTPqq2sqHcsdPEwbue4+4AfXwHVBSBxU8T+cceesduw7TOhucmMC4ej4vjsA2fVydR6VUDw7wt3d19WJm/h6ziFinBf2e2J8NVtor/l0VFk+o72B8tykj54LU4jrHRtcOhHgZj6zvLlHRBLz+e6AgICAg89nmn2OaoYtW43qBZqC/WO4N2noq2LnYT5OHm148Q9pDgfAoKaONfgVyLhDyKnz7SStutXgza5ktJcIpCKzH6nm3jZK9u3q823JMNtz6rtnbcwT07PXjhi4nMSfjee1EEGpOO04fVBoDBeKYdPSmNHQPBIEjR0BIcAA4hoTEQEHVZVi9rzXGbrj+UUkddZ71Ry0ddTPG4lhkaWvb89j0PkQCgorwq5Xjs++OEU92lmfQ4xeXUNxcAWi4Wefb7TbbrvC5ko9zmD3IL5aaoiq6eKeklZPBOxskUrDuJGOALXD4EEH6oNxAQEBAQEBAQEBAQEBAQEBAQEBAQEBAQEBAQEGh38up8ggo37QPMLhxE8b9di+OyPqmWqupMTs8bTzDvQ8NkOw99RJIT8B8EF0+neD27TPA8exLHo2x23G7bBb6YD7zYmBpcfeXEFxPmXFB6JA32QVadr1xQzGso9FMQrHxwxsiuOWPhd7bj61PSO+AG0rh5kx+5Bm3syeD+n0S00p8+zWgaM8zOkbLGJmevarc8BzIQD1bJIOV7z47cjfJ24TeQPPp5+A96CMWvvaKaN6A19RaLleZ8oySlJbNaMea2odA8fdlmJEUZ38W8xcPNoQRWvHbaFlY5uPaRiWkB6PrclLZCPiGQED8yg9vpz2zWAX2rip9S8LyHFWyHZ1ZQVLLnDH8XN2jk2+QcfggnLptqniOsGMw5BpjkFtyO0THb0iim5u7d+CRh2dG/wDovAPwQeqQdbkmN2vMLBcbHlFBT3O0XamfS1tHUM5o54XjZzHD3EH6dCOoQUW6+6Y5T2e3FdQ3HBKmoZRUdS274rXvJIqqNzi11PMfBxHrQyDzB5vvBBdjo3qnaNbdLsbzjFHb27I6FlS2Mu3dTyezLC7+kx4cw/L4oPZoCCrDtn9Ho4K/B9TrdT8pqmvsN2e1vtOYDLTOO3nymZu/9Fo8kEtOzk1YfqzwmYfNXzme54w19grnOdu4mmIERPzgdF4+5BJtAQEBAQEBAQEBAQEBAQEBAQEBAQEBAQEBAQEHW5JfocVx263ut/5PZqGetl67epDG6Q/yagpG7ODHJ9YeOWz3++/3Q+2SXDJqzmG/NMA4scf8dMx30QXlAbAD3INUHV5TkdFh2MXe/wB7eI7dZKCeuq3nyihjMj/5NI+qCjThXwut40eNyG55xGauir7rU5NkLHes30aJ/eCH90uMUO3uKC94DYbbAfAdAPkg1QVddpZx+3K23u56QaIXOS3uot6fKr5SSFspkI9aigeOrQ0dJHg7k7sBADtw8RwldlHdtTrPRZdxBV1xxizV7Wz0dipGhtwqo3dQ+ZzgRA1w6hvKXkHchvmE6rB2dXDtjtvZSx6a2uuLW7OqLlW1NTLIfeXGQAfQBBjfV/sl9Gc7t1Q7TuK5afXgtPczUdS+spObbp3kEzidv3HtKCuuso9Z+zU11hcJjRSyDnZJE90tryOjDurSOnO3yIID4yQRsdiQui4dde8e4ktKrTm+GF0UNaDDXUMjw6S31bNu9gefMgkEHpzNc13mgyYgiB2omhsWrXDLdL7RU7ZL9p443ijeG+sabo2rj39xj2k298QQYK7GPWKSusmbaY3Scv8A0Y9l9tDXO32jkIiqWj4B/cv/AInILNEBBGntGsAZqDweagQ8nNU2GlivVK7bfkdSyBz9vnE6UfVBE/sU87f/AOs7DJ3bx7UV5pW7+B3dBKdviDD+SC0ZAQEBAQEBAQEBAQEBAQEBAQEBAQEBAQEBAQEGGOM2+vxzhS1XroXcsjcVq4WHfwMrREP9dBXx2K9hbUan6kXhzAXW7H6akY7bw76p3P8AKFBbcgIIzdpDmEmG8GuoU1M4snu0NNamEHY7VFQxj/7Af9EEVuxUwqI0+p+YSsBmL6G0Uz9vZb688o/lF+QQWhIMX8TurB0P0BzjNoOUVljtMjqAO8DVyERQfMCSRp+QKCp/sveH+HXvX+5Zhn0P6VtGDBtyqG1Te8bXXKaQ9wJN/aAc2SUjzLG79CgtJ4ruJ7H+FTS+bKskidcrjVymls1pjl5JLhVEF2xd15I2j1nv2Ow6AEuAQVMX7tDeJ7Ve91tfhV8u1toqX7Q27F7I10FIzy5z3b3kbDxe477IJD8GHan3+/Zra8I4lpKGqivE7aWhyiKnbTPgqHHlY2qYwBhY5xDe8aGlpI5gRuQE1eMrh1t/EnoXf8cqKaI36ggkr8eqnNHPT10bCWtB8myAGNw8w4HxAQVydkBrBWYdrrd9OrlJIy2Zpb5JYaeQkd1cKVpe0gHwJiErD7+Vo8kFxvl0QcG+2SmyWy3C0XNgko7tSS0dQ0jcOjlYY3D8nFBSF2dF1n0v48LFYahzmisqbnj9WN9t/s5AAf8AGQs+qC8oHcBBqg8vqnY2ZPpll9nlaHsutgr6VzSN9+enkH+khBT72QV7ktfFbU0G/K274rXQPaT4ujMUo/1CguqQEBAQEBAQEBAQEBAQEBAQEBAQEBAQEBAQEBBHjtCS4cGWqfICSbTHv8vSYd0EPexMDfSNXj9/ktQ+nNUILSUBBC7tcHSDhBqRHvyuya295t7vtdv57IPG9i+2P/e85m5u3enMnc3v29Dh2/8AFBYGgh92rck7ODXIRTl3dvvNrE+34O/8/wCINQYr7FllONHtQ3x8vpjsmp2ze/uxSjk3+G5f/NBi3tq6i4HUHTKCXvP0S2x1j6cE+oZzUASfDflEX0QTd7Pe14rbOEjT1+nLaUQ1ttE11lpdueW4lxFR3xHUyB45dneDQ0dBsgq67Uq24rZ+Lq7t0/FHBUy2ylnvsdFs1sVyc1xfuG9GyFvdOcPHmcSepKC63TGevqNP8Qlv/P8ApOWzW99bz+13xgjL9/jzE7oKTOF0Npu0qsTLD0p25/cWQ8nh3HPUA+HlyboL02ew337BBuRj7Vn77f8ASEFFGkREfag0QoPYGq9YGcv4PTJgf5boL02+yPkg+kHFugabbWCTo000u/y5HIKQ+yzJbxs2UReybfdgfl6O/wD/AIgvGQEBAQEBAQEBAQEBAQEBAQEBAQEBAQEBAQEBBhTjWsr8g4TNWKOFvM84vVTNHvMXLL/+iCAPYq3wQajamWhztnV9ipKtrd/HuqgtP8pQgtpQEEXe0wxOTLeDPPG0zS6az+h3RoA39WGoZzn+o5yCNHYp5jG6y6n4lK/aaCqobtCz8TXNfDIR9RH+aCzn5+KDEXFrpPNrdw5Z7h1vYJbjc7U+S2tP3quBwmhb/E+MN/iQVf8AZNa+02k+uF1wPMZxQW7UGOOmp31B5BBc4S7uWO39nnDpIuv3uQILIOMvhQtXFnpaLDVVLLVkVnmdV2C6PYXNp5y3lfHIB1MUgADgOoLWuG/LsQpkzqza4cEuU1mH3G+ZHg9RdIPSuSy3tzae4wlzmNnYYnbOBLHDcgOG2xAQSf4HuzeybUTJ7FqdxAw+iYpI+K8UVuqKkTVV+LtpYny7E8kLiQ5xeed46bAHmQWN8VevVt4cdD8kzG5zQtr4qZ1LZKZx2dV3CVpbCxo8wD9o7bwYxxQVg9kdpVXZ5xI3DPbkx8tvwi3zTOqXgkSV9UHRRt38zymZ593KPeguc+HkEHFul1p7Hbau5XB4jpbdBJUzvJ2DWRtL3H8mlBRz2flBPqnx9Y9fZWlzY7ncsgqjt4ARyvB+HryMQXngbAfJBqg83qTemY3p1lV2mIay2WOuqXEnboyne7/wQU6dkPZ5LpxaPrdt22rF7hUPdt4F/dxj/wDIUF16AgICAgICAgICAgICAgICAgICAgICAgICAgIOoy7HYsvxS92Kq27i922ooJN/DlmidH1/rIKUOzIyeXS3jZtdhvZNM+9wXDHqprjsGzcpcxp+PewNb9UF4oO6DVB0ecYjRZ/hl+xi9DegyK2VFvqem+zJoywn5jmB+YQUh8E+eVnCTxq01lzx3oFNJcKjFMg592ti55Axsp3+62ZkT9/wknzQXsbEdHDYjoR8UD5b9Pd4oKq+Prs48ruWp0moXDdZJbvT5HVGe72WgeyKagrHHd1RCC5oMUh9YgHdjyT7JGwWL6C2zMbLoxhdBq/VtrczpLPBHepxIJC6cDb1njo94byhzh0c4E9d90FV/bPdOIfD+n/uXF/tdSgtF4a+nDrpbsAP/Qy0f7HEggv2knC9rtxB66Y2zArXPf8AB2W+GC3BlXHFT2qocT6TJUBzgWknldz7HdoDR1GyCaHCtw42Xhe0it2HWB7KytLvSrzc+TldcKx4AfJt4hgADWA+DWjzJKDMCCKXaXa3RaPcLt/o6WoEV8zrexW5ods4MkG9TIPPZsIcN/IyNQRm7GDR+Vjs51OuUBbE9jLBanub7R3bNUuBPkAIG7j3uCC0ZAQR07QrPWae8H2o1X3nJUXe3Ns9MAdi59XI2IgfKMyO/hQQ67FLCHyXPU7MZmcsUVNRWemft7TnvdPKB8hHF+YQWoICAgICAgICAgICAgICAgICAgICAgICAgICAgdR1adiPBBRdxv41X8MvHdcskx6I0zJbxS5dZy0cgd3kgleB8pmTNKC7jDMtt2fYjZclx2Vs9ryG3wXCjkb5xTMD2/Uc2x+IQdyg0I3HVBWn2jXZ9Zjq5qpR6g6DWaG7Vd+hZT5FQCripnsqIwGsqh3haC10Ya1+x3BYDt6xQT/ANI7Hf8AGNLMQtGfV8d1yS12OkpbrWRu5mz1EcTWvcHH2uo25vPbfzQeuQabDzAKDVBTl2z/APzh8P8A+5cX+2VKC0Xhr/5uulv/AHLtH+xxIMj7b/TwQaoCCuXtKeEDWTiO1cw+46Z0lNesYpLU2hEMlfFTttVQ6VzpppGvIJY8GM8zeY/Z8u3QbhNnQHRu1aA6QYzgmOlskFiowyepDeU1dS48885/fkLj8BsPJBkFAQVf9s/q9G2kwXTG31AMsr5L/dYw72WgOhpgR8ft3fQe9BJbszNKXaXcJOMyVsHcXDMZZb/VAs5Tyz7NgB/xMcZ/iQSqQEBAQEBAQEBAQEBAQEBAQEBAQEBAQEBAQEBAQQB7XzQeTONHrRqNZKZ0tywGcxXDkbu51uqHAFx94jlDD8BI4+9BtdkPxCMzXSi46YX2o3vODPdUWxr3etNbZn7kD391KXA+4SNQWB/NAQabA+ICDg368RY/YrldauOaaC2Uc1VLHA3nke2ONz3Bo83EN2A96Cqq49tXlBrag2vTPG2URkcacVF1qHSCPf1eYtABdt47ADdBxh21WZHw00xTr/8AU6pBr/w1OZ/9WmKf5zqkEUOLfinuvFpnlqyfILDbrBParQ22sp6GeSVkjWyySc5L+oO8hG3h0QSQ0+7XvLdP8CxvF6TTzGauDG7RS22KoluFS18rYImxh7gOgJDd9h06oO+/4arMh46aYp/nOqQajtqsy3/9mmKf5zqkEsOBLjsquLqsym137FIMeueOQQ1TZaGpfPTzwyPLOU845mPDh4bkEEnpsgl3sD49UGqAg4V7vNDjlmr7rfKqKittsppKqsqZTs2GGNpc95+AaCUFEDnXftBuOEFkdRFQ5Zeh06/8XWanHifJpbAz+u74oL5LdQU9poKaitsLKejo4WQU8LBsIo2NDWNHwDQB9EHIQEBAQEBAQEBAQEBAQEBAQEBAQEBAQEBAQEBAQddkePW7LcfuVkyKljrrVeKSWjraaQbtmhkaWvYfmCfrsfJBRJkVry7s4+MWOW3CWoisFZ6RQOeeWO9WeYkcrtunrR7sd+GRhP3QgvF0z1GsWrmB2TMMHq211kv9I2ppZR7TQejmPH3XscCxw8nNIQenQED5bIIVcemh2jum3DRqPmNDpvhVHkU1K2CjroLTHFKyrqZmxiRpHQOHO942HiEFN2nWXtwDMbZfquxWXJaOin+3tV6pBPSVsZGz43jy3B6OB3adiEF1XDhp9wtcTmndPlWA6WYE17eWK6Wue1xmotdRtuYpAD1B6lrx0cOo67gBlT/eXaEf9UeA/wCZ2INDwY6Dhwb/ALkmA8zvAfodm5QVv9oXqZoVgstdpnw+acYCMjYXQ3/I6S1xkW0g+tT0zuoM/TZ8g6M6tG7ty0MNdnBZcQyvinsWNan2Cz5HacjoK2kjpbpTiaNlQIjLE8A/e3iLd/c8oLwtPdKcM0ot09Fpli1hxekrJBLURWqhZTiZ4Gwc8jq4gbgbnp12QesQEBBWx2tfFlHYMeGi2D1jTdLyyOoyqaF/Wmpd+aKlJHg6QgPePJgaD7aD1fZOcL8mmum1Vqhl1IYchzuAMtTJW7PpbUHBzX/AzPAf+4xn4ign4gICAgICAgICAgICAgICAgICAgICAgICAgICAgICCMPHvwh0/FPpXtYY6eHO8ZbJUY/VPAb6SCN5KN7vJsmw5SfZeGnwLkFdXZ/cZFfwp6hVmA6uGspMHulwdFcIqmJwkx+vB5HT8niG7gNlZtv6ocOrdiF1lFW09yo6ert88NVS1UTZYJ4JBJHLG4bte1w6OaQQQR4hBvoCCv3tl84/Qmg+JYzDIGS5LknpErN+roaWEk9P8JNGg8twLcH2I66cBtTbtRaJzJctyGtuNsusTB6TbnwtbTRSxE+PrRybtPqvB2PkQEP5I9W+zO4iQQeWRg9V3rG3ZLbi7+bTt4e3G/3EdQuT4fOI7GOJPTqkynA5JInloZcrbUEGotk+3WOQDxB6lrwNnjqOu4ARH49ePFuKUl3wHRCuFTd6djo8hv8ASygiiAPLJSwOB3E2xIe/7nsj1ty0rFXZ/dnZHmlzotUtaqQy4vG9tXjtiqmnmuh6OZPUNP8AeAfZaf2pG59T2iMD6jMbw19pBXVFM1tHRY/qFDcGNA5Gso6iVkuw8tu6mI9yC90gNcQ32QTt8vJAQEEcONrjDsvCjpy+aF9LcM5vcT2Y9aHnfd3gamYDqIWH5c7vVH3iArM4HeF6/cZ+tdwzfVWWsuGJ225GuyS4VRPNeKt7ucUjXe93Qv29hnToXNQXfQU8VJBHBSxRQQwtDI4omhrI2gbNa0DoAAAAPIBBuICAgICAgICAgICAgICAgICAgICAgICAgICAgICAgbbhBBXj37OmPiFrf150e/R1rz48rLnTVMvcU96jA2D3P2IZUNAA5j0eAA7YgEhnvgx0ZybQPh4xvDNRLtFdr1bnTyP7iZ0sVHHJIXMpo3uALmsBPltu4gdNkGb0BBTx2zGb/pjXPD8Yik5o8Zxv0iRu/Rs1VM5x/sRRoLLuFfDW6Z8NemuPTNEc1BjVI6oaBsTNKzvpOn78pQbfEdw94vxMad1OMZ9Seo1xlt1fA0Gqts+2wmiJ8/IsPqvHQ+RAUoVOQ5xwr6mZljGC5hA692eOaz11fY6rnguVHt1aCOoezfw9pjgRuC0oqTvZ5cIWO6xZFV6l5rW0twtdqqGRfq02ZsjpalzWvElU3xEO2/K0/tCDv0aQQtjZAaN0Qi3I9nlA2Ab5D6Iim7th8HNg4lbPkMDOWLKsap3ucBtzT073wu/siJBa7w/ZuNSNDcAyfvO9fe8coqiZ2/8Afe5a2T+21yDICDQ+B+KCtHiT7NXUfX/i1umVXDJ7Y3A7/UQyyV8tUXVdtpWMa00sdOR1c3lIZseT1tzsdwgsE0t0vxvRrBbTiGnlujtdjs8PdwQtPM55PV0kjvF8j3buc4+JPu2AD1aAgICAgICAgICAgICAgICAgICAgICAgICAgICAgICAgICAg0IJ6N6k9Agos4nI6niH7Qu/W6371FJX5vR43AQegZC+Omdy+8Dke4/BBeAIGRQGKEcroXNjiY37rB0aB8NgEWK/OP3jzGF0V3060auM4u0gNPkGQ271v0e0+q6ngk32Ex32dIN+Twb63UBhbg77OWfXLG/191jnu+LW68UL249HThrairlcNo66Rrv717mHYy+O4B3cRijI6nVbs4uJGGrhe1krogOTlf8Ao6/28O25fLdh2/fidt4EdQuC4cOI/EuJzTumynAanlezliulrnePSLZUbbmKUeYPUteOjx1HXcAIc9tHhBr9LtPsugi5n2O+T26Z7R7MdTD3jd/hz05/rIMs9lNnP638H9loZJe9nxO7V1qfuerW84njHy5Z9vogmEgIH5ICAgICAgICAgICAgICAgIPh0gDwwe0RuEHCBicT6Y8iQHbr7kHYICAgICAgICAgICAgICAgICAgIOmyLI2Y5Y7ndqkNbTWillqpJCenLGwvP8Aqoqmjs/MdqdXeNDHMorw4y2l1de6qmcN/te7eWP+skrT7+YIJJcf3aD02I1tXpdo1cZG3ueF9NkGSU0mwt3MNjTwOHjL5PkB9QdGnm3LQx7wCcA1Vn1WzUrX61sNlfMJrHZZwT+k9vZnmb4ejbgFrSCZPHoz2gtXgoWRRMY8B/IAGjbYNA8AB4AIjG3EXw6YjxM6d1OKagUp29aW2XKBg9ItdRtsJoifycw9HjofIgKZpI9WuzO4iQWkNkZ7LhzG3ZLbub+bT/XiePIjqE/+I/VjEuNXs9c3yPTyUmrsdPTXOutcrgam1VNPK18kcg8wYzJyvHR7eo67gBibsVM2HLqfh0j/AP4K70zN/i+GUj84v5ILRUBAQEBAQEBAQEBAQEBAQEBBxX1Tt38jRytIHNvuivhkjonPZEA9ziSHk+PwRG4yGOpY17ty7bY+XVByUBAQEBAQEBAQEBAQEBAQEBAQEGAeOjMxp9wtagXSN7Yp6y3MttP12L31UrIdv6rnn6IKaNL9X7rolHk7sCnjoLpmFC22G6Pke2rpaUyh07ISBs2R3K1vN4taCRsXAgqW3AH2fEufG2ai8QFsdJjtFUGXHrPVt2ddmg7tnqGnr6PzbFrT1kPU+p7RFrcFPHSxhkDQxo8GtGwHlsB5DbyQbiAgxbxF8OmI8TOndVimoNKdvWlttyhaPSbZU7bCaIn6BzT0e3ofIgKTM6xLVHgI1WvuOXMhtNfbXU2+Z4a51uyO1ztdG47dNx62+3R8TwPAjqHvuyhzn9UuL6zW+WUxwZbaK21OBPql/d9/Hv8AHmgAHzQXjA7jceBQaoCAgICAgICAgICAgICAgIOJVwNdu7bbcfd8/mg2Gvc9hBad2AEFvgD70VvmmM20jHFnOASAfNEctAQEBAQEBAQEBAQEBAQEBAQEBBX72yWc/oPRDDcaikDJMiyX0qVoPV0NJCT/AK8zPyQVh6a6h2fAtRbHkGa4hHltjprqy4yWivmdBHVxjcDYgHwduevM1xbs4EbghfTw9cSeA8SWHtvOl10jmdTMY2vtM4EVXbXbbBksQ8B02D27sO3Q+QDKqAgINCQASfABBV/2nfGLpPmuI1WmGM2ygzzI6Sp5xfYpdqawzjYOMEres0pA5XNae72PrFxGwCvfh7zSTTTXbAMnLjC2zZDRVUhPQd13zQ/6Fhcg/SSeXc92d2bnlPw8v5ICAgICAgICAgICAgICAgICDRw3aR7wg2IqYtLC8j1WcpA80G+BsNh4BBqgICAgICAgICAgICAgICAgICAgp27ZfOP01rxiWMQP5o8YxoTyDfo2aqmc8j/JxxIJsWPghwHVbhG01wfUy0Bl0suL0vo14o2tirbdUyx99KY5COre8kcTG/dp9wPVBWnrRw06y9n3qFS5ditzr22qnqOW1ZfZ2lsTgT0hqWHcRucOhik3Y7yLggnpwc9p3jGtXoOK6zGhw/N5OWKCrL+7t92f4AMc4/YSk/cceUn2XbkNQTp/0jxHuQeS1Q1WxPRnEKvJ9S73RWKzUY2dPUP9aV+3SOJg9aSQ+TWgn6IKguLPtHM44lrhNhGjFJdccw+vlFMylpAXXO98x2DZTHuWtd5Qx777+sXeADMnB12UH/Isu4pYT4tlpMOjk+oNbI09P8Cw/B7h1agxF2vGmlLg/EFjl0sNFTUFqv2K08cNPSwtiiikpXvgLWNaAGgMEOwHggth4es4GpWhOn+T8/PJesbop5zvv9t3LWyj6Pa5BkJAQEBAQEBAQEBAQEBAQEBAQEBAQEBAQEBAQEBAQEBAQEBAQEBBoWl3QdSegQUT8S07+IbtF7zaKN3pUN1zakx+EN9YCKGSOmd9PUeUF67ImQsEcDWtijHJGB4Bo6AfkAg4l5stBkVqq7Zf6KkuVtr4XQ1dHVwtminjI6texwIcPgUFXHGN2UNRbjW5dwtwSVlNu6Wrw6STmliHiTRvcd5B/wBi4834S7o1BiHhy7TbUnh1slfh+olslzWgtkMlPbKe71D6estU7AQ2J8haXuha7oY3Dmb4Nc3bZB4Skt+u/aTatOnkNRdzTv2fUSc1NZ8fgcfZHi2MbeQ5pH7b+seqC1nhM4E8D4V6CKvoYm5HnEsXLV5HWQgPj3HrR00fXuWeW4PO7zdt0ASU8EFdHbQ4QbhpTgOWwxcz7HfZ7dM8DqI6mHnbv/HAfzQZT7KPOBl3CFaKB8oknxK8V1reN9y1heJ4x/Vm/kgmIgICAgICAgICAgICAgICAgICAgICAgICAgICAgICAgICAgICAg63Jb/BimOXW915AprNQz1sxJ22ZDG6Q/yagpH7Nmw1GqvHJZr9dQZ3Wx1xyKsJG4MnI/lJ/wAbMw/MILyQNvoEHDvV7t+N2msumQV1Jbbbb4jNV1lXM2KKnjHi573bBo+aCrbjG7V2punp2I8Lk0tFSbuiq8xkYWTTDwIo2OG8bf8AtXDm/CG9HEMR8OPZkakcRNlrsv1Euc2E0FzhkqLZUXanfUVt0nf1bK6IkPbCSdzI48zt92tdvug8LSVuvHZs6tOhc2otPpLt3wP5qmz5BA0+0PBsg28xyyR7/dO4QWr8JnHdgXFPb4qGhkbjmbxR81XjlZMC+TYes+lf076P4DZ7fNu3UhJXxHRBGrtGsH/Xrg51CgjYX1NmpYbxAQNy000zXv8A/tmQfVBE3sUs42fqfh0z+hFFeKVm/uL4JT/ah/IILR0BAQEBAQEBAQEBAQEBAQEBAQEBAQEBAQEBAQEBAQEBAQEBAQEEee0BzgYBwgalV7ZDHPX2ttqpyD1L6uVkJ2/hc8/RBC7sVcHM+Q6m5hLH6lHRUdoppCPOV7ppAPk2Fn9Ye9BPjiN4p8A4YcXN01IugFdUsJttkpC19bcHD/o2E+qzfoZHbNHvJ6EKgNaeJbWTtA9Q6XE8Xtlc+11FRzWnD7M4uhZsek1Q87CRw8TJJsxvXYNCCevB12YeMaK+hZVrMKDMM3ZyywUhb3lvtL/EcjXD7eUH77hyg+y3pzIJ0+/frv479d0Hk9T9KsU1lxCrxjUuyUV9s1Z1dBUt6xP2O0kbx60cg36PaQfogqD4tOzhzfhsuE2b6KVV1yPD7fL6U2opC5tzsfKdw+UR7FzG+U0e223rBviQzFwddq/1osQ4pJ99y2KjzGOL6AVsbR1/wzB++09XILIcltVu1R07u1soqmkr7XldlqKWKpglbLFPFUQuY17Ht3DmnmBBCCmTst8om0840LdYbmXU7r/Q3Cxzsd0HetYZGg/Hng2+ZQXfg7/VBqgICAgICAgICAgICAgICAgICAgICAgICAgICAgICAgICAgICCvftmc3No0Pw7FoZA2TIsidVStB6uhpYT/Lnmb9R8EETOHjjpouFDhgqsZ0vtrbpqNlN6qa6tra6I+iWmMMZFCeX+/ScrC4N6MbzAu36tQdHoLwnavcemcVOY5nc7jDY6up/wCNMwvQdJ32x6xUrDt3rgOga3aNngS3oEFwfD7w0YFw0YmLJpjaGU0kzW/pC6VG0lZcXj700u3hv1DG7Mb5DzQZUQEBBoRv4oIEcY/Zc47q2a7LdCGUOJ5i/mmqbVsIrddX+JIA6U8p/EByE+IaSXIIQ6C8WGr/AAEZ3U4fmdruEtkoqr/jTD7yXR9ySdzLSv6904jqHN5o3+JDuhQeDpdW7FauNak1I0+NXT2CTO4r3TR1cYjlihmqGySxvaCQNueRnQ7EDp0KD9CPqncxndm/qHfxHkfy2QaoCAgICAgICAgICAgICAgICAgICAgICAgICAgICAgICAgICAgp07ZbOf01r3iuMQPLocYxps0gB6NmqpXPI+fdxxfmgyDwX9lTHV01szbiZa2SCdkdVb8Rhl9prgHNdWvb5EEHuWHz9Z3i1BaBbLXR2W3U1BZ6SmoKGiibDTUtNE2KKCNo2axjGgBrQPIDZBykBAQEBAQYi4i+FvAuJ3Fv0VqRawaylY4Wy80mzK23OPnG/bqzfqY3bsPuB2ICkLi14Tck4StQYLFklZSXa2XaGSpsl1pQWCrha7lPPGescjSQHN3I6ggkFBetw65yNStBdPcn5+eS843RTzknciYRNZID/G16DIiAgICAgICAgICAgICAgICAgICAgICAgICAgICAgICAgICAg0ILhyt8XdB80H5++OTUKHNuMvUO9SsZcKK338UMcLnkNkhowyHk3HgD3Th8N0FxPCtxjYBxS44w4bUC1ZHQ04NxxmskaKmlAABdH4CaEdAHt8OnMGnogz54+HVAQEBAQEBBs1dXBQUs1TXTRU9PTRukmmleGMiY0buc5x6NaANyT0CCmjtSuKnT/iAyPGbDpeZLycKlqxPkLCG01R3wYHRQD2nsDowe86An2QR6xCa/ZQ5x+tnCHa7dJL3k2JXmttjgTuWsc8VEY/KY/kgmMgICAgICAgICAgICAgICAgICAgICAgICAgICAgICAgICAgIOsyjIKfEsau18uDg2lstBPXTEnbZkMbpD/JqCiTge0ctvFdxSSWzUmnnrrPW0N0u95ZBO6F5LmO5XNeOrSJ5oyPl1BG4Qeo4m+B/UvgtyiDONNrldbpituqhPb8ntm8NXan7+q2qaz9mfLvB9m7z5d+VBLfgx7U206hGgw7iOmo7Dk7+WGjyMNENFcXHoBOB0glP4v2bj+DwIWHNcHtDmkEEAgg7gg+BQaoCAgIPB6za4YZoFhk+Tao3qC026MlkDNueeslHhFBEOsjz7h0Hi4gdUFOnE1xu6l8auVQ4PpvbbrbMWuFSIbfjFr5pqq6u39V1U5n7Q+fIPs2ePXbmQZFvHZb1WmPCbnmeaoV8k2oFss4uFDaKCUOprXHHIx8wleP20vdd4Nm+o3rsXHYgPcdilnO0+p+GzvGzo6K8Urd/wufBKdv4oUFpSAgICAgICAgICAgICAgICAgICAgICAgICAgICAgICAgICAgjv2gucfqDwfak1rJDFPcbay1QbHqXVUrIiB/A56CGfYqYR3181NzCSMBtLSUdopnkecj3TSAfwxM/MILTqqlhrqWanrYYp6eojdHLFKwPZIxw2LXNPRwI6EHoUFaHGb2U8F09OzHhcpoqSr2dNW4e53LFMfEmicejD4/YuPKfuEdGoMDcJPaH5xwvXWLBNZKO637DbfMaWSgq2llysJB2LYefYlrT4wP2A29Us8wuE0y1SxXWPD6PKNNb1R32yVw+zqKd/WN/nHIw+tHIPNjgCEHqkGhOyCKPGH2guF8MNLUWSz+j5XqE6PaOywzfZUBPg+skb7HvEQ9d3T2QeZBWJiGAa4dpFq1PdLhVVFzZA8R115rWmK2WOAncRRtHRvT2YmAvd4nzcgty4W+DbAuFWwdziFL+k8kq4Qy55JWxj0qp97GeIhi38I2+PTmLj1QZezXGoczw6+49VhpgvtsqaCQO8CJonM/0uQUr9l7k02nPGpbbDcXOp3X2kuNiqGnoO9awyNB+PPAPqUF4I6gfFBqgICAgICAgICAgICAgICAgICAgICAgICAgICAgICAgICAgr17ZvOHWnRPCsVp5eWXI8ifVytB6uhpISNj8O8nafm1B7jsk8GGKcJdPdpIiyfL79W3AucOro4+Wnj+n2Tz/EgmkgII0cW/AlgvFRbZa+qjZjucww8tHkdJCC6TYerHVMG3fR+W+4e37p29UhVTDPrp2a+sHK4TWt1Qdyx3NUWjIadp8R4CQfH1ZI9/ulBanwwcfWnHEbi809RcaPEMmtVG6pvFmu1YyMQxsG8k8MriGywgdSejmj2gOhIRF4zO1YmuJrsO4XKmSlpvWhrcxLCyWUeBbRNcN2N/7Z3rH7ob0cQx7wedmZk+uVTTZtr4+545iNXJ6VHSSktuV85jzc/rdYo3eJkd6zt/VHXmAW8YPgePaaYvQ45gVnobFY7azkpqGjj5GM95Pm5x8S5xLnHqSUHfIG5aQR4tO4QUR6zMPDh2kNzuNKDTU1l1Ap7wzp0NNUTMqCB8OSVzfzQXubtJJjILCd2kHfceX8kBAQEBAQEBAQEBAQEBAQEBAQEBAQEBAQEBAQEBAQEBAQEBBTl2ymcfpnX7F8aheXRYxjTJXjfo2aqlfIfryMj/NBZ7wv4R/uccO2nGOOYWS2zGqMVDSNiJpIxLJ9eeRyDKCAg0PwQYF4zMy0axfR6ug4m46C4WOva4UVqLQ+trJ2joaNoIc2Qbj7QFobv6ztjsQoHuFBDesgupwS23d1qjknqKWnmPpVRT0jSSDM6NoB5Wbczw0N6E9Agk72dWW6GYlqy2fiNt7jc3SRnHbrcnNktVBN+Koj26P325ZXczG+JDTs4BelBUR1kMc9NKyeGdjZI5WPDmyNI3Dg4HYgjqCDsUG4gICCmntjMINh4jMfyKBvLFlONRczvxT00j4nfXkMX8kFp/Dhm41I0C08yYvL5LxjVFLOSd9pREGSD587HIMjoCAgICAgICAgICAgICAgICAgICAgICAgICAgICAgICAg0ILhs3xPQfNBRLxCudxF9o1ebVAfSqa8ZzS2KIA7j0eCSOmO3w5Y3FBe0GsjHLEAI2eqwAbANHQD8tkGqB57e9BDXjK7R7E+HOOtxnAfQ8u1EaCx1KyTmo7S/wB9U9p9Z4/6Fp3/ABFvmFculuh+tPaKao1mRX64VdTRmYNuuU3UOFHQM337iBg2DiAfVhiAA8XcoO6C37hu4TcA4YMUda8BtoqLjWwhl2vlaxslZcveHu22bHv4RN9Uee56kIm8ZvZXWzN/T8x4bIKWyZC7earxfmEVHXu8S6mcekEh6+ofs3eXIfEIq8LnHXqPwb5HJg2p9vut3xK21Bp63HbjzRVtndv6xpi/2D59071HeI5SeZBcXo/rThuu+G02T6X3qmvNsn2bIGHlmpZNtzFNGfWjePcfHxBI2KD26Agrs7aDBv0ppDgeWQxc8tgv01BK8Dq2Kqh5h193PTt/NBknsnc4OV8ItttksveT4leq62kE7lsbnCoj+n2zgP3UEykBAQEBAQEBAQEBAQEBAQEBAQEBAQEBAQEBAQEBAQEBAQdVlWQQYli94vlc4NprJb6iumcfJkMTpD/qoKTOzPsE+qPHBaL7dWmZ1pjuOQ1Z2J+05HBp/wArO1BeO0bNA93RB12RZJasQsdbespuNFabTbYjNWV1bM2GGnYPFz3HoB/p8BuUFUHGZ2qFzzg12G8M81ZZ7DKDBV5Pyuhra8HoW0w8YIz+L9o7+h4EOLwa9lvedSX0WacSMddYscmIqKXHy4xV9zB9YOmPtQRH3H7R2/3dw4hbNi+K2fCcfoLFiFsobNZrZCIaOhooRFFAweTWj8yfEnqSSg7VAQR/4q+C3AuKuxOGT04s+V0sPJbcloogaiDbwZK3oJ4t/uOO468rmlBUnkOJ659m1q9HX0k89q9IeWUlzpgZ7Xf6dp3LHtPRw98bwHs8Rt0cgtG4P+P7CeKOjhs9YYcW1Ajj3nsVRNuysIHrSUkh/aN8zGfXb7nAcyCU2/uQRt7RXB/164OtRoGM56iz0UV3hIG/KaWZsjz/AJPvEERuxTzjar1Ow6d42kiorxTM3/C50Ep2+T4kFpfzQEBAQEBAQEBAQEBAQEBAQEBAQEBAQEBAQEBAQEBAQEBBHTtCs3/UPg81Iq2Sd3PdLcy0w7HqXVUrYnD+oZEEOexTwfnu+puYSx9IKWitFM/bzke6aQflHEgnpxG8UeBcMOKfpfUe5f3ZVMcbZZaTZ9bcXDyjZv0YD4yO2aPeT0IU+avcQms/aG6mUeMY1ba2W3yzl9pxG0vJp6Zo6d/USHYPc0H1ppNmt36BoOyCwzgz7NjFeH1tDlWpYost1BYBLE9zOeitD/8A5djv2kg/6Zw6fcDfEhNP5oNUBAQEHnM/08xvVPE67GtQrNQ32x3FnLUUdXHzNJ8nNI6sePFr2kOaeoKCoPjA7NfLOH6sqM40LmumRYfRS+lFkBJudi5TzB7uTYyRtI3ErNnN29YDbmIZV4NO1ZfEaHDuKSpc9vqxUWZBm7h5Btaxo9YeA75o3/GD1cgspyG2W7UnAbpbaaopq+15RZ56aOeCVssU8NRC5gc1wJDmkP6EHZBS72YeRTaa8bFrsVycYHXumuNgqWnp9oGF7R/lKdqC8IHcA+9BqgICAgICAgICAgICAgICAgICAgICAgICAgICAgICAgIK8u2dzn9EaLYRi0EobLkWQyVkrAeroaSEj8ueob+SCMXDtxzWfhK4VH47p3QRXzUvK7xV19TJUxkUloj2ZDCZfDvpOWMvaxp2Adu4/dIeO0L4X9X+P/UGry/LbpXts9RU7XfMLs0vaSD1hpmdBI5o6BjNmM6blvgQuJ4fuGvBOGnEG2LTK1NgdM1puF0qNpKy5SD780m3h7mDZrfIeaDKSAgICAgICAggLxm9l7YdWfTsv0EjocYzJ/NNVWjpDb7q7xJaANqeY+8eo4+IaSXIIUcOvGBqtwKZrUYZndruVVj1DV7XTErvzQyUbt9zJSvO/dOPtdN43777deYB4Gu1ax6x8bMepGnM87cbOcw3yl7+HuXxwSztllie3yLQ+Rh2JHTcEhB+g8lpJMZDmE7tIO4I8j+SAgICAgICAgICAgICAgICAgICAgICAgICAgICAgICAgBBTd2yWbfpviBxrGoXl0WMY1G+Ru/Rs1VK+R315Gx/yQeu4LOyuqMnitubcS0UtFaJQyot+KMfyT1bCA5rqt46xRkbHu2nnO/rFg6ELVbJZLfjlppLXj9DSWy2W+JsNJR0kLYYYI2+DGMbsGtHuCDnICAgICAgICAgIMJ8TXCNgPFNjQoc8ofRbzSRFtryCiY0VlCfEN5j+0i38Y3dPEjlPVBSJxQ8K+YcKWeRWHOPRaukuUb57PdqN+8NfC13KXBp9aN7SQHMd1B8CRsSF73DXm41H4f9O8l5+8lu2NUUk7j4982IRyf22OQZJQEBAQEBAQEBAQEBAQEBAQEBAQEBAQEBAQEBAQEBAQNieg8T0HzQUR6+PfxGdo7d7XSOdVU14zymscWx6CngkjpnEfDlie5Be2GMj3bEGtjadmADYBvkPyQaoCAgICAgICAgICAgru7Z/BjddHcFyuCIPlx/IJaGZ48WxVUPMN/hzwD+sgyL2TOc/rXwi0FsklMk+I3yttzg47kRvc2oj+m0zgP3UEzEBAQEBAQEBAQEBAQEBAQEBAQEBAQEBAQEBAQEBAQEHU5dkUOIYrer7Wua2nsluqK6UnwDYYnSH/VQUodmVj02pvG3ab7dGmd1miuN/qiev2hY5rSf8ZO1BeIBsAPcg1QEBAQEBAQEBAQEBBHDtEMI/Xvg81Gpo4zJUWqhju0Gw3IdSyskcR/BzoIgdipm/JcNTsOleOWWCiu9MzfzY50Mp/J8SC05AQEBAQEBAQEBAQEBAQEBAQEBAQEBAQEBAQEBAQEBBhzjEs+R5Dwu6m2vT2hqLnf7lj81PTUdOCZZ2Pc0TNYB1c7uu82aOpPQeKCGXY86EZJhlVn+cZvYLnY466np7Rav0jRvp5JwJDLUFrXgEsBbC3m2233HkUFmCAgICAgICDbMzGyBhcOY+SDcQEBAQEHU5fjlPmGJXuw3ANNLfLbU0EwPhyTROjO/9ZBU52ZGhuqOlXF9dGZPiV8tFstFnuFuvtZWUckNON+XuhHI4BshdLHGW8pO7d3eCC3lAQEBAQEBAQEBAQEBAQEBAQEBAQEBAQEBAQEBAQEBAQCSTu4lx95O6AgICAgICDiyVDpA4Rbta3fd3n9EHHe5o7sBrmtefbPn7jv80VzYJS8Fr/bZ0Px+KI3UBAQEBA5iQASdh4AnwQEBAQEBAQEBAQEBAQEBAQEBAQEBAQEBAQEBAQEBAQEBAQEBAQEG1LO2Loerj4NHmg4znyv3kjeC6M7mMHpt7kGjxG8NmA3hk9oebT/56IrbZHI+EMGz4hJtt5jYoOSafuXxmAOPXruegCI5SAgICAgICAgICAgICAgICAgICAgIPh0rGHZ72tPuJ2QfaAgICAgICAgICAgICAgICAgICAg2zKC/kZuTt1I+6g4TmczHxuB77nB38dxv4opBztkc1jwA87B3J47IPtwbSTcriO5n8fg73oORTROha5h25QfVPwRG8gICAgICAgICAgICAgICAgICAgICDbMoL+Rm5O3Uj7qDhh8cJc2pY5z+bxAJ3QdggICAgICAgICAgICAgICAgICAg4UlU/0h0Y2DQ4DceKLj4fK6nErIugDunw3QfdSOSGKRu/MNhvv8ER91UDWQbt3AYNgAeiLH3TwMjjGw3JHUnqURvoCAgICAgICAgICAgICAgICAgICAg4UlU/0h0Y2DQ4DceKLj4fK6nErIugDunw3QcpsLHxsL2hx5R1KI/9k=;" parent="2OsGnD8xrRHOEKQomS8l-16" vertex="1">
          <mxGeometry x="265" y="22.5" width="55" height="55" as="geometry" />
        </mxCell>
        <mxCell id="2OsGnD8xrRHOEKQomS8l-14" value="....." style="text;html=1;strokeColor=none;fillColor=none;align=center;verticalAlign=middle;whiteSpace=wrap;rounded=0;fontSize=25;" parent="2OsGnD8xrRHOEKQomS8l-16" vertex="1">
          <mxGeometry x="180" y="20" width="80" height="60" as="geometry" />
        </mxCell>
        <mxCell id="2OsGnD8xrRHOEKQomS8l-52" style="edgeStyle=orthogonalEdgeStyle;rounded=0;orthogonalLoop=1;jettySize=auto;html=1;fontSize=25;strokeWidth=3;" parent="2OsGnD8xrRHOEKQomS8l-16" edge="1">
          <mxGeometry relative="1" as="geometry">
            <mxPoint x="95" y="128.45999999999998" as="sourcePoint" />
            <mxPoint x="96" y="100" as="targetPoint" />
            <Array as="points">
              <mxPoint x="96" y="128.45999999999998" />
            </Array>
          </mxGeometry>
        </mxCell>
        <mxCell id="2OsGnD8xrRHOEKQomS8l-27" value="Server Layer" style="text;html=1;strokeColor=none;fillColor=none;align=center;verticalAlign=middle;whiteSpace=wrap;rounded=0;fontSize=25;" parent="1" vertex="1">
          <mxGeometry x="110" y="126" width="160" height="30" as="geometry" />
        </mxCell>
        <mxCell id="2OsGnD8xrRHOEKQomS8l-29" value="" style="group" parent="1" vertex="1" connectable="0">
          <mxGeometry x="350" y="80" width="230" height="80" as="geometry" />
        </mxCell>
        <mxCell id="2OsGnD8xrRHOEKQomS8l-17" value="" style="shape=ext;double=1;rounded=1;whiteSpace=wrap;html=1;fontSize=25;fillColor=#dae8fc;strokeColor=#6c8ebf;" parent="2OsGnD8xrRHOEKQomS8l-29" vertex="1">
          <mxGeometry width="230" height="80" as="geometry" />
        </mxCell>
        <mxCell id="2OsGnD8xrRHOEKQomS8l-18" value="" style="shape=image;verticalLabelPosition=bottom;verticalAlign=top;imageAspect=0;aspect=fixed;image=data:image/png,iVBORw0KGgoAAAANSUhEUgAAAgAAAAIACAYAAAD0eNT6AACAAElEQVR42u39Z4Ac13UnfP9vVefckxMGkRiACCQYAVKiKILKIilRphyUdr1+5LW9K0q2LMsUbcOWxCBpLVHrfbX2er27luVnH9O7FoMkW6ZISiJIMYAgAIIgiDCDMDl07uqK9/3QM8DE7qqe7qmqmfP7QmK6u/p2dbin7j33HoAQQgghhBBCCCGEEEIIIYQQQgghhBBCCCGEEEIIIYQQQgghhBBCCCGEEEIIIYQQQgghK4fZ3QBCiPvsu+dAEy9572cCXnvhsfu+CzBud5sIIdZQAEAIMe/AAWHfYe/HOcc3ALRO//UQwO79xeP3HbS7eYQQ8ygAIISYsvdDX74VhvAIgN2L3MwB9o8eLnz+uSe+eN7uthJCqqMAgBBS0Y13P9wj6OoDnLNPmLh7EcDXA1n1oWefPVCyu+2EkKVRAEAIWdS1dxwIeZn3CwC+ACBo8eEXGcOXKD+AEOeiAIAQssDeu75yB8D+MzjWL+tAnD1rcOGzLz35xSN2vyZCyFwUABBCLtl354N7AOMRDry9joc1GOPfY4L2+ef/6cCY3a+REFJGAQAhZHpZn+9PwPjvABAb8RwcSDOOh5Ja9Fs/+tFnZLtfMyFrHQUAhKxh1376L72ekYl/y4AHADSv0NO+xTj7vReeuO9Ju18/IWsZBQCErFH7PvjV/VzEt8Cx054WsKd0rn325Sf++Ljd54KQtYgCAELWmH13PriFgz8A8HvsbgsAFZx9JyAqf/Ls9w+k7W4MIWsJBQCErBG73/31cCig/D6ALwLw292eOTimOMOf9fqv+ItHH/2obndzCFkLGpLsQwhxEs723em9x+sxHgdwJwCP3S1agCHIgPdm9Kk71/fdduLCyafP2d0kQlY7GgEgZBW74c6vXCeAPQLgJrvbYg1/0uD8My898Uf9dreEkNWKAgBCVqFr7/5qp0/DAQ78BgDB7vbUSALDt0Xu+erBx/8gZ3djCFltKAAgZBWZXtb32wz4MwAxu9tTJ0Mc+NMXr1H/GgcOGHY3hpDVggIAQlaJvXd9+XYYwrfBsN3utjTIy4zxz77w2P3P290QQlYDCgAIcbkbPvzAVkEzvgnG3m93W1YAB9g/6sz4vZcfu/+C3Y0hxM0oACDEpW790IFEiXu/CI7PAfDZ3Z4VVgDwDSo7TEjtKAAgxG0OHBD2HfZ+nHN8DUC73c2x2QXGcP8Lj33pb+1uCCFuQwEAIS6y70NfuYEb7NsAbrS7LQ7zDAc+++LjXzpqd0MIcQsKAAhxgX0f/Eo3RDzIOfs46Hu7FCo7TIgF9ENCiIPtu+fPg7wkfQYM9wOI2N0el0iB4+FcQP3m8UcPKHY3hhCnogCAEIfae9dX7gBnjwDYaHdb3IgDJ8HY77742H0/tLsthDgRBQCEOMy+Ox7YZjD+LQa8x+62rA7sKc5w74uP3feG3S0hxEkoACDEIfbdc6CJl3x/AsZ/G04s2ONuKjj7jhoQ/vjQo1/M2N0YQpyAAgBCbHbrrQc8Usz76wz4CoBWu9uzyk1y4MtUdpgQCgAIsdWNd371nQz4FoDddrdljXnVYOyzLz1238/tbgghdqEAgBAbXH/XV9Z5gK9yzj5hd1vWNv4kBPE//uL7fzhgd0sIWWkUABCygq6940DIy7xfAPAHAAJ2t4cAmC47HPCpX3n20QN5uxtDyEqhAICQFcHZvju/+kucsa+DY73drSGLGmQM973w2H3fBRi3uzGENBoFAIQ02N47vnoNGB4B8Da720JM4HiJg9/74hP3/8LuphDSSBQAENIgN3z4gWZBwx+D8d8BINrdHmIJZ4z/nab6vvDyD78wYndjCGkECgAIqbNrP/2XXs/IxG8z4E8BxO1uD1mWAoBvJNXogz/60WdkuxtDSD1RAEBIHe2968u3My5+i4PvsLstpK5OM/D7Xnj8/kftbggh9UIBACF1cOMHv3wFE8SvAvweu9tCGoeBPQ2mffaFx/74mN1tIWS5KAAgZBl2v/vr4VBA+X0AXwTgt7s9ZEVoDPgbj8ru//mP7hu3uzGE1IoSkwipCWf77vJ90uvRngDYB0F7968lAoBrDQH/rnvbfvmKzlsODQw8a9jdKEKsohEAQiy66Y4Hr9cF4xHGsc/uthBHeBMcv/uLJ770I7sbQogVFAAQYtLNdz7cZUD7Ew78BspXgYTMwp8UBP7Z57//R2fsbgkhZlAAQEgVO+454IvI3t9iwJcBRO1uD3E0FZx9h2vKH734owNZuxtDSCUUABBSwd67vnIH4+xbHNhkd1uIezBg2AAOvHiN+tc4cIDyA4gjUQBAyCJuvvPLfTqEbwJ4n91tIa52iHP+2RefuP85uxtCyHwUABAyy9s+8GBS8xh/AI7PAfDZ3R6yKnCA/aOgGb///A/vP2d3YwiZQQEAIQBw4ICw77D345yzrwO8ze7mkFWpCODrzB98+IVHf1eyuzGEUABA1rx9dzzwDs6MRwB2ld1tIWvCRcbwJSo7TOxGAQBZs268++EeQVcf4Jx9HPRdICvvp4KAzz7//S+9ZndDyNpEP3pkzdl3z58HeUn6DBjuBxCxuz1kTTMY498zOPv9Fx//0qjdjSFrCwUAZE3Ze9dX7gBn3wawwe62EDJLHsB/orLDZCVRAEDWhJs+9NWrdQOPMOAWu9tCSAWnGPiXqOwwWQkUAJBVbd89B5p4yfcnYPx3QMWviGuwpwSdf+75H3zpdbtbQlYvCgDIqnTrrQc8Usz76wz4KoAWu9tDSA1UBvwPhatfOvTEgQm7G0NWHwoAyKpzwx1fvk0QhEfAsdPuthCybBxTnOHPev1X/MWjj35Ut7s5ZPWgAICsGjd96MubDUN8EOD32N0WQuqO4wQT8LkXHvvSv9jdFLI6UABAXG/3u78eDgWU3wfwBwACdreHkMbiT+q6eO/LP/jDs3a3hLgbBQDExTjbd+dXf4mDfQNAr92tIWQFKeDsv4pMvP/g43+Qs7sxxJ0oACCudOOHHryWGcYjAG62uy2E2GiIA39KZYdJLSgAIK5y7d1f7fRpOMCB3wAg2N0eQpyAAa+A8XtfeOz+5+1uC3EPCgCIK1z76b/0ekYmfpsBfwYgZnd7CHEgDrB/9HDh88898cXzdjeGOB8FAMTx9t715dvBhUcAXGl3WwhxgSKArwey6kPPPnugZHdjiHNRAEAc64YPP7BV1Pmfc+ADdreFEBe6wBjuf+GxL/2t3Q0hzkQBAHGcW+85ECnJ3s8D+CIAv93tIcTVOHvW4MJnX3ryi0fsbgpxFgoAiHMcOCDsO+z9OOf4GoB2u5tDyCpiMMa/xwTt88//04ExuxtDnIECAOII+z70lRu4wR4BsNfuthCyWnEgzTgeygXUbx5/9IBid3uIvSgAILa6+c6HuwymPsQ5+zjo80jISnnLAH73pce/9AO7G0LsQz+4xBY77jngi8je32LAlwFE7W4PIWsTe4oz3PviY/e9YXdLyMqjAICsuL13feUOcPYIgI12t4UQAhWcfUcNCH986NEvZuxuDFk5FACQFbPvjge2cWZ8E2DvtbsthJAFJjnwZSo7vHZQAEAa7m0feDCpCfwAGP9tAB6720MIqYQfFoDPPv/4/T+zuyWksSgAII1zeVnfNwC02t0cQogV/EmD88+89MQf9dvdEtIYFACQhtj7oS/fCkN4BMBuu9tCCKmZBIZvi9zzVSo7vPpQAEDq6sa7H+4RdPUBztkn7G4LIaRuBhnDfS88dt93AcbtbgypDwoASF1ce8eBkJd5vwDgDwAE7G4PIaQhXhYMdu/zT973gt0NIctHAQBZtr13feUOgP1ncKy3uy2EkIbjjPG/01TfF17+4RdG7G4MqR0FAKRm++58cA9gPMKBt9vdFkLIiisA+AaVHXYvCgCIZTd8+IFmQcMfg/HfASDa3R5CiK1OM/D7Xnj8/kftbgixhgIAYtq1n/5Lr2dk4rcZ8KcA4na3hxDiHAzsaQP8cy8+/qWjdreFmEMBADFl3we/uh8Ce4SD77C7LYQQx9IY8Dceld3/8x/dN253Y0hltCsbqejGD375CiawP+fABwFa/UMIqcjDgU+WoHYCuNPuxpDKKAAgi9r97q+HQwHl9wF8EYDf7vYQQpzPgHFILkgdBtffYXdbSHUUAJB5ONt31wOf4Fx+GGAddreGEOJ8HLggl4qqoWnXAgADqKqgC1AAQC654c6vXCfggUc4x02UHkIIqYaDZ3VFOaco8i6720KsowCA4Nq7v9rp03CAA78BQLC7PYQQxzN0Q3tLkaQrOOeLdf6UMOQCFACsYZeW9Wn4Mw7E7G4PIcT5DM7PylKhnRvGNrvbQpaHAoA1au9dX7kDIxPfBLDZ7rYQQlyA8ylFkQVNVTeZuMCnEQAXoABgjbn5zi/36Zz9OTh7v91tIYS4gqyrSkZRSm2cuvVVhQKANeLWDx1IlLj3izrH58Dgs7s9hBDnMwxtTC6V2rhhtFl8KIUKLkABwGp34ICw77D34yWDfR3gVr/EhJA1yODGpFKSkoau1/qbQQGAC1AAsIrtveuBG3GIf5sz3EDfR0JINZyjqKolUVPUZvrNWP0oAFiF9n3wK90Q8SDn/ONgtKCfEFIN03VNkWW5FEJ9JvopenABCgBWkX33/HmQl6TPcIb7wRGxuz2EEOfjhp6XS1LEMIyQ3W0hK4sCgFVi711fuYPL0iNg2Gh3WwghzscNXlQVKaRpWiMuFmgEwAUoAHC5vR/+8nZmsG9xzt5td1sIIW7ANUVWRF2VQw3spSkAcAEKAFxq3z0HmnjJ9yfQ+e9wQLS7PYQQx+O6phmqXPIY3LC7LcQBKABwmVtvPeCRYt5f5zK+CsZb7G4PIcT5DN1QFUXyGrq+UhcLNALgAhQAuMgNd3z5thITv8XAqfIWIaQ6g2uKWvJoquq1uynEeSgAcIFrP/2XXu/w5HfB+C9TYE0IMcFQVVnQFMXD7dm/l36oXIACABfwTY7u5Ez8ZbvbQQhxPl3TuCKXBG7jPD9nFAC4AdV+dwFmeAJguGh3OwghzmUYBpelIuRSkdnZ+RP3oBEAF9A1gzPGEgBTAU5zeYSQSzgH15QS01SVcYdceDumIaQiCgBcQOQCMxiPgEGlrxUhBADAAV1XoMgys2men7gcBQBuwunqnxACGIYOpVSCYeh2N2UpFJG4AAUALsBFg4HPr+nDAarzQ8iawjmHqpSgqRoc3sc6unGkjAIAF+BcYAu/T9T5E7JmcA5VVaAqCqhvJfVCAQAhhDiYrqtQSjJcldlPSQmuQAGAC3BuMMboip+QtcQwDKhKCbqm2d0UskpRAOACXBAYo4CakDWhPM8vQ1MVu5tSO8boB8sFKAAghBCH0DUFiiyvghF0CgDcgAIAF/BwgxmU9EfIqmXoGhRZdvKyPrIKUQBACCE24dyAIq/GeX7XD2GsCRQAuADnAqMRNUJWF1WRoSkyLeojtqFiQC7ARd3+8X8OWVXkc5Ojp5/Vde2Y3c0hxK10XYVUyENdzZ0/1QJwBRoBIFVNJyb5Oefri7mUXMylrogm2l6It/T2MrBuu9tHiBsYhl6e59dX23D/IqgcsCvQCABZkq7rKEkFyKXSvKxkznLp0X2DZ15NSvnUzwGU7G4rIU7FOYciSygVC2uj8yeuQSMALsANYUW3Aaq83zi79DfO9dDEyKm3i17fcFtn31mPL3gTaI9iQso4h6aqUFR5LebErbkX7EYUALhAeSfAFRis4RyqpkJTSpZ+r3RV6Rw+f6wzGI4faW7fEmSCuNW+s0WI/XRdgyKXwA0Xbd9L1hyaAnABkQuNvarm04lJUgGqXKXzZ0tf4UuFzFUX+w9tyU5dPAiOcbvOFyF2MQwDSqkIWSqu6c6f0QiAK1AA4ALJK3a0o4GTALquviFLkskfLF65IRxCZmro5sGBQ76SlH0OgLqyZ4sQe6hKCaViHtqqW9NPVisKAFwg2JRsbd22u2HH54ZR92jd0PX4+OCbbxu5cGxQ0+SXG3qCCLENh64p08v6XLx3f51xGgFwBQoA3EAQhXU37UewubUhh+eCIDaq6aosbRgeOHL95OjpV8H56YadI0JWmKHrkIvF6VUya3e4fwkUALgABQBuwBhjHg82v/tu+CKx+h+fw9vol1DMTV1z4ewr67OZ0Z9xINPo5yOkYYzpZX1SATrt3U9cjAIAN2AeEQD8sTj67vxV+KLxOj+BYXo1CFvOMj/OvZnxc7cM9b9qyFLuZwDo15O4B+fQFAXFYg6aSqktVdAIgAtQAOACDMal98kXjWPrB38ZgXiynk9hZTnosrMRDV1Ljg2euGXk/LFzuqYequcLIaQRdF1FSSpAUWjPK7J6UADgAoI4d47eH0ug78MfR6RzXV2Oz2zaD0JVpE1DA4evnRo78zIHv2BHGwipxDAMyKUiZEmCsYaX9dWARgBcgAIAFxAWeZs8/iC2vv8eNG3evvwn4MxCDkD9lyMWspPXXzzzSns2M/ozgOfr/gSEWMQ5hyqXl/WtvlK9K4ICABegAMAFDJEtmqXPPB5svP0O9N7yHjBhOW8lt39HSM59mfFztwwPHC0ocuHnAOhyi9hC1xSUinmoKi3rI6ub/T/8pLoqpTVbt1+FQCKJs//6BDSpUMPhLXwOGG9onS9Nk9tHLxxvDwRibzR1XqGLorircc9GyGW6rkFVZBg65aYuF+0D4A40AuACk2dP9htVlhtFO3ux/SOfRKSzx/LxOeempwC4sTLFfkql7JVD/a/uTE+ce4HDGFqJ5yRr00y1PlmSqPMnawoFAC6QHzyXGjn0QtX7+cJR9N3xq+i67mZY2jqYsYZtBLQ8M2WHX4sXc6mfgsoOk3riHKqqoHRpWR9dtNYL1QJwBwoAXGL48AvIXTxX/Y6MofPam7H1g78Mbyhi6tiMc0d/DjjXwpOjp94xdO7IlKZIB+1uD3E/08WvSI3orLqBo3/4SRnnnIFznPnX7yM/am40PNrViyvv+TdIbDBTmdfcaIEgRhCIbPbbdR50Ve4aPn/s5onhU69xg79lVzuIexmGgZJUXta3lqv1EQIADh36JbN19+3fyoBf47qO9NmTiPashy8crfo4weNF05ZtCMQTyA1dANcXX85kGFrluU8mIhTfi3jnr8Hjaw34wxtEpXgBhmHPiLymljqy6aEkA3/eF4iFGEPIloYQ1+CcQ1VkKDLt278y2Oho/8Hv2N0KUhkFAC7Qu/X2PjD8GgBwXcfU6TcRampFINFk6vHB5jY0b90JOZNCKTO14HZDXzoA8AU3I9H5MQRie8CYB0pxiPsCHUK06QYIYhiKdB6c25I4xWQp15vPjCo+f/BFjzfQBfo8k0Voqgq5VKQEv5U1RgGA89EPpgv0bH9nH8B+debf3NAxdeZNeAMhhNs6TR1D9PrQtGU7gk3NyA6emzMaoGsa5q8yEL3NiLbdhUjLeyCI4Ut/V4rDBhO8ApgAf6gH4cQ14IYMRR625dxwbgSKuckNUn7qfDDcdFoQxG5bGkIcx9B1yKUiNI327V95bHS0/7n/ancrSGUUALhAz7bb5gQAMzLnz4JrCmLdG0xn/QeTLWjavA3S5DiUXLkon65fDgAY8yHc9A7EOj4Kr79jweMVaYgz5r2UOyIIPgSjfQhG+qDKY9BVewr9GbqWzKVHujVVejUUThTBmLnhEbLqlIf7S9PD/ZSLZgcGjIz2H6QAwOEoAHCBnr7btwH41cVuy48OITd0AfHeTRC9PlPHE/0BNG/dCW84gtzQBWiKDMMwEIjtQaLz4/CHt4GxxfNDFWl4TgBw6ZjeKCLJPfAG2qBIF2EYsi3nSlWkzmx6OMpEz0G/P5wEY7YlLZKVpyoylFKR9u23GQNGKQBwPgoAXKCnb38flggAAEDJZ5E6cxLRjh54w+aW/oEB4dYOJDf1QRovIBD9EELxG8GEyv2lUhzmTPAKSx3U629DpOl6MCZCkS4C9iRciXIxsz6fHS/4A5GXPV5/D2jFyyrGoWk6FKkIXad9+x2BYWS0/+Bf2t0MUhkFAC7QvfWd2xhjv1LpProiY/LU6xB9AYRbO03X7PEEgtCVENRCr6n7q0uMAMzGmIhAeCMiyT0w9CLU0qgt541zI1jITayXi7m3gqHEEBOEdlsaQhrG0HXIsgRNVartmE1WEgUArkBXRS4gQDDVnXNdx4WDT+HMv/xfaLJk+vicW9nd1/x9RU8Mzd13o33Dv4Uv0GH6cfUml7LbBgde3V0uO2xctK0hpG7K2/eWUJIou9+RKBpzBQoAVqH0udM48ej/RH74QgOObv0j4w9vQMem30Jz90cgekxOUTRAITt5/WD/q8357PhPOYf1qknEfpxDUxRIxTw0VQHtOOtY9Ma4AAUAbiAYlgvwKIUcTj7xvzH44k/Bq1whMVNfVY5S7ijy6UMFbtSwrIoxhBNXofOKzyDavA9g9nz0uG4EU2P97xg+91puelth+qFyCV3XIUkFKEqJdpolpA6oHPBqxjlGXnsRmfNnsOGdH0CopX2pu1WkycPIjf8AamkA6ZGT+ezE87FE2+0IJ66y3CRBCCDZ8T5EkzcgNfIjSHl7dvTVNaVj+PyxjkAg9kZT1xZDFDw7bWkIqYpzA0pJhq7Ten4XoQjNBSgJ0AW23vyJvWox96FaH69JRUyePAZDUxHpWrdgiV92KAMll1jwOEMvojD5Y2THvg9DSwEApPxkzjBKUSl3AqVCP3zBzpqG9QVPCOHEbvhDvVBKwzB0e0bkNU1uzaVGWhn48/5gNACw8PKPSuqBc0BTZSilEgx7dpsktRse7T/4V3Y3glRGAYAL7P7gf3y/6PXtl7Pp2g/COfIjg8icO41Ieze8ocv9XH5+AMB1SJkXkRn5e6ilAcwO5qX8ZA5AFAB0NY18+hVoSgr+cC8Ewdw+BLN5fE2IJq+DIIagFC+Ac1uWcTFZyvXmUmPweAMveP3BDtDomI04dK28fS8t63MphqHR/oP/ze5mkMooB8AFRFEUNtz2/jmddq2kyXGc+P7fYeS1Fy+N/c+eAlCKZzB18b8gN/ED8EWL/cxbMsA5CunXMPzWI8hO/Byo5UqNCYg270XX1s8h2rwPzOSuhvU2U3Z45PyxUU2VX7ClEWucYejlan0l2sWPkEajEQAX2Hbbp25N9G55Z7i1E6mzJ5dfxtQwkBs8h+zFAUQ7elCcUlCcMpAffwz5yR9XHI6X8hN5TI8AzMa5hlLhLArZ1+HxNsHrb7bcLCZ4EYxcgWB0O1RlHLqaXulTXT49upbIZ0bXqbJ0OBhO5Blj1l8MsYRzY3r7Xpmq9a0CHBgcoxEAx6MAwAW23frr74x1rbvVF40j0rUO6bNv1qWWuVrIYeLkMSiFHNIXnoCmVN+wRypMFAAsOelv6BKKmaOQpfPwBbsgeqyPWoieCCKJPfCFuqFIF2DodpUdljpzqeE4gIO+YCzCQGWHG0FTFCiyROv5VxEGDI72H/xru9tBKqMpABcQZ42JRzt6sOk9d0P01WeLe0NTkR89AQ5zP77c5E5ApfwZDJ/5/yE18iNwvba6AMHIVnRt+QySHe+HINizpT8H92SmBt8+dPZVUZZyPwNAk9J1ousqpEIeikLD/YTYgQIAN2BszkhNrHs9tt31MfgisbocvmE/vdxAbvIFDJ76JnKTv6jtR56JiDbvReeWzyCSvM501cN6MwwtMTZ44paR88cu6Jr6ii2NWCUMw4AsFSFLEg33r14U0bkABQAuwBbJigs0tWDbhz+OUEvbirallm+1oReRGvkhRs/+V8iFgZqeV/RG0dR1Jzo2fhr+oLm6BY2gKtLGoYHD102NnXkZHOdta4gLXdq+t5in7H5CHIACABfgIls0V8MbimDbXR9HS5879rBRSsMYHfgbjJ//HjQlVdMxfMFutG/6d2hZ91F4vAnbXkshO3n9hbMvd2Yzoz8DkLOtIS6hawpKl7bvJaseoxEAN6AAwBWWfpuYx4P1t74f627eDyasxNu5/DF4KXcSw2f+M9Kj/wrDqCU/gCEU24nOLf8B8bZ3ggneFXjdi+Dcmxk/d8tg/6vqdH4AZbHNY+g6SsUCLetba+jNdgVaBeAC63e/b1fTxm3vqZR+F27rQrSrF9mLAzAsXmXpugbDMNd3SYXJIoDlb0jADcjF8yhkjkAUw/AF2mGl0iAwq+xw4moYugS1NLLsZtX0Ui6VHc68FYwkhxijssPcmFnWRx3/GnVxtP/gf7e7EaQyCgBcoLntqg2BWPyXgs2V5/t90Riat+5AKT0JOWN+iF3XVRgmlxXWLQCYxg0ZUu4EpPwpeP3t8Hjjlo8hiAGEYtvhD2+AIo3A0PP1ap4luqa05FLD7bpWejkQToKB1SdL02VURYYsl2hZ3xrGwC6M9h/8G7vbQSqjAMAFerfetis7eO4jiY198ASCFe8reLxo2nwlPIEAckPnTVVNK48A2BMAXGqDlkMhfRiamkIg1ANWw7I/jy+JaPI6eHzNUIrnwbk9xWNUWerOpcZEjy/wgtcX7IXVoQ1X4tA0vbx9r0YJfmsdAygAcAEKAFxg3fb9uw3d+Ej2wlkkNm2tvgcAK08JxHs3Iz98EVpJqnh3XdfNTQEwAUpJlrkhB6vfuTZqaQS51CsAdPiDPfNXQJpoI4Mv0IFI8loADLI0CDtWJPn8QV8omtzg8fhXfedvGDrkUgmaKlOZXjKNn6cAwPkoAHCBddv27wLwEV0uIXPuNJIbTQQBKK8SaN22G5wbyI8OLXk/M1MA3uBGJDo/hkBoo4+JAUGRLgKNWsPNdciFARSzr0P0RuD1W1/qyAQvApHNCMV2QldT0JTJxrR1HkH0ING8Dsm2DfB47dm8aKVwzqEqMm3fSxbi7PzowMH/YXczSGUUALhAT99tuwF2NwDocgnpgdOI9W6qOh0AAEwQEOvZgGj3euSHL0CXF26rW2kKQPDEEW39IKIt74cgRiCXRhGMbGWR5B4YehFqqfr2wbUydAnF7HHIxXPwBTtqKjssekIIx2fKDg/B0IuNaSxjiCQ60NpxBfyhqG0FjVYE59BUlbbvJZVQAOACFAC4wOwAACgHAVOn3kCkrQu+qLmkOX8khpYrrwIMA4WRuaMBi00BMOZFuOlWJNp/GZ5A96W/K8UhgwleQRD8CMW2IxDeCLU0DF1rXOKdpqaQT02XHQ6th1DDsr9y2eHrIYghyNL52qoWLiEQiqGlcyvC0ZYVWoppH13XoJQkaJo9+RXEJRg7N9r/HAUADkcBgAt09+2/igF3z/4b1zVMnTkBfzSOaqsDZsyMBoQ7usujAUp5Df78ZYD+8DYkuj4Bf/hKYN4cvCoNc8a8l3o5jy+ByEzinXQB3GjcRi9qaQSF9KFyG4M9ALPY2TIGf6gH0eR14FyHWhpcVns83gCaOjYh3tQDUbRpL4IVYhgGVFmCqsi0rI+YwM5TAOB8FAC4QM/W269iDB9ecAPnSPefglbMI7Zuk+lhZ38sgZZtu6DLJRQnRi/lAHj8nYh3/gpCyVvAhMWnF5TiMGeCd27PO5N413Rt+T7SEIDGzAnPlB0uZo/D400ur+xwpA+aPA5NzVh7PBMRa+pCc8dmeH0Ny4d0CA5VUaCWSqZXihAC4Nxo/8H/aXcjSGUUALhAT9/+xQOAacWJUeSGzyO+biNEr8/UMQXRg/j6LYi0dyE7OIpA+O2ItX8IoidZ8XGl4jAEwbtopMGYB4HIZoTjO6EpjU28M/TirLLD3bWVHfZGEU5eM112+LzpssOxRCcCoTgE0beK5/o5NE1DqVSEQcv6iGVsYLT/uf9pdytIZRQAuEDv9tuuBpYOAABAyWcxdfoEwq0dpvMCAMAfT4KxFujyLphZrq5II5wxT8U7CmII4cRM4t0wDL3QsHOjKeX8AEOXEAj2ggkey8fw+poRSV4PQfRBkS6CV8kPCITiCMdawHl5WJwJIpjV6QgHM3QdiiyV9+2n0X5SE3aOAgDnowDABdZt238VqgQAAGCoCiZPvQ5DLiHavcH01Wl+OA05kzB1X0Ua5YyJpg5cTry7DqI3Blm6AG40KnGMQ5EuIp86BMY88AW7LV+ZMybAH1qPcOLqqqsbAsEY/MEoGBMgesojLqpcdH8gYHAotH0vqQPOMTA2cPB/2d0OUpmLf63WDs4t9GYcGD12CCcf+x7knLW5bTMsF/liAiLJ69C15V5Em/c1dMj8Utnh/r9EqXiupmOI3hiau+9Gx6ZPwx9aZ+4lMgG+QBgCE6DIBRiGy4bMOYemKCgWc9BUyu4nZK2gAMANOLfcaxbGhvHm//lbpM68WfW+ZnO7NHkMpeL5mtbPCWIQyY73oX3Tb8Ef3tDQ06VIQxjr/+/TZYfTNR3DF+xG+8bfQHP3RyB4onNvXOrdYAw+fxiC4IGua+AmCyzZSdd1lKQCFMVc/gMhZjAqB+wKNAXgAj19+68Gw4esPs7QNaTOnkQpNYlo9zoInsWXquWGM1CyiQrHkVBMPY3c6P/F+OC/FhTpgt8X7Kot8c4TQSSxZzrx7oLpxLtaaMok8qlXwA0FvtA669sKo7y6Idp0PZggQileBGAgECpPAVQiCAIYE8ABjQElAI5aJ8gNAwot6yON0z/af/Bv7W4EqYwCABfYeP2H9xqK/MFaH19KTWDyreMIxJIIJBcum8sNpaHkEgv+zsEh515DZvh7UIqnAXAU8xOyrqT89Ui8izbdAEEMTxfuadTV8kzZ4deWXXY4HN8JXSvAI5aqBgCXHlseZfOW/5/psHnU7dL2vUoJnJb1kcahAMAFKABwgV133Pshrqm3aFLt29gamorUmTfLowE9vXNGA3KDmQUBgCL1IzfyPUiZl8H55c19pPykAsBfj8Q7MAH+UA/CiT3ghgJFHm7YOaxP2eEQQvEdEEUFApMsPx42d/66pkAu0fa9ZEWcpQDA+SgHwAU8IhM37b8Dgmj9Snu+1Nk38cY//A9kzp259LfZI8CGlkF27P8gPfg3UOWRxQ4xp5e/lHh39r9CLgzU1CbRG0VT153lxLtgb0PPpSINYnTgrzE5+H9r3r7Y4000tI31ZugaSsUC5BJl9xNCLqMRABfY/o5Pvrvpih03e8NRZM6dWvbxDFXB1JkT0Ap5RLt6kR/NQ86GUUw/j+zo/4ZWYYtcKT+hAFiw25Cu5VFIH4ZSGoI/uA6CaH2HPNETQyS5B95AGxRpEIbRuPwAtTSCfOplADr8oXXWlu/xScCYaljb6qU83F+CIitUrY+sLI6zowMHv2t3M0hly7+kJA3HucAAoKVvJ2AYOPfzf17+Bi0cGD9xBNnBAXiiWzB17h+ga2aWDXJWaQ5dyp1EqXAG0aZ9iLXeAkGwWhKXIRTbiWBkK7KTB5GdeK5h+wdwQ0Fm7BkU0keRaN+PUGynucc5/Sqac6iqAnW61gMhhCyGpgBcgHkuX562bN+NdTe/C8xiIttS5GwGU2cOmuz8zeGGhuzEzzF8+tsopI+glmiFCT7EW9+Jri2fQThxdd3athhNmcTEhX/A2MD/bGh545Wg6yqkYoE6f2IrWgboDhQAuACbNz7dtmMPNr3nriWX9Vln5btqPvDQ1RwmB/8PRs7+FeTihZpaJnrjaO6+G20b/i28/o46vd7FlQpnMXLmO5gaehyGVnvCpR0Mo7yeX5YkGu4ntjNoE2lXoADADfjCCerEhq3YeuevwBO0vhZ/mSwPPSjSIEb7y4l3hpar6UkD4Y3o3PxbaO7+CESxca+Zw0A+9QqGznwb+amXFx3uZ8xZv226rqFULFJ2PyHEEgoAXIAtkaEWbu3E9rs/gXBr5/KOvyKvgqOQfg2Dpx5BZvyZ2ub1GUM4cRU6t96LWMvbAcsb+5hnaEVMDT+BkdN/gVJ++YmXjWQYOuiCizgJTQG4AwUAblBhgb0vEkPfXb+Glm27V6gty4sXZhLvhk//5+n8AOsEIYBE+7vQtfk/IBjd2tCXqyrjGDv33fK2wmpq+kU09Cmtc1p7CCGuQMsAXWDz9R95e2LDlrcvdTsTBCQ2bIE3GEZ2cGDuwn4TdF2DYXJXOKkwoaEO29oaRglS7gTk4gB8wU6InojlYwieEMLxmbLDQzD0xs3ba8okclMvT+9+GAV4/Qst1crQdRr+J87C+enRgYPfs7sZpDIKAFyguWXXlmhX7wd90cq714XbOhDv3YL80Dlosvk19Lqmmg8A8hM66rh8VFPTyKdegaak4A+thyBYjy3KZYevhyCGIEvngYZtK1ze/VAUFfj81vc5aBQKAIjjMHZqtJ8CAKejKQAX4Nxg/T95Elqp+hVuqKUN2+/5t2jfdW2jmlP/lAFezg8YPv0IshM/r60DZwKizXvRfcXnGl52mBvK8g9SRyuTw0EIWW0oAHAJpZDD2X99HIZWPXlOED3ouWk/NrzzAxB91Tfi4Q7pQgxdQnr0XzF85r9Ayr1V0zEEMTRddvjfN6zscLC5FcxDe2gRsjSn75ZFAJoCcIWevtuvB/ABJZdBfmQQyU3bIIjV37pQcxuarrgSUmocSnbpOWtd06pWhhPEGCIt70MgeqWgqzmmKZMNe72GXkQxcxSydB6+YHeNZYejDSs7vPUdH8KWd30IjAkoTozZXlVPpykA4jynRvsP/r3djSCVUQDgAt1b33kDY+wDAKDksyiODSOx4QpTxYFEnx/NV+yENxBEbvjCop2VrqlLdmIMIkLxvYh3/hq8wV5opSlEmq5j5cS7YRh6oWGvW1NSqEfZ4UjyegiiD4o0WJeyw11XXo/kxj7EejagdftVEL3eciBgUydMOQDEaThjb41RAOB4FAC4QE/fbdfPBAAAIOcyyJw/g3jvJoj+QPUDMCDc1ommK65EcXIMSi475+alRgD84W2Id30SgehuMFbufEvSEATBx8qJd9dB9MYgSxcatl9/PcoOMybAH1qPcOJqGHpx2dv9du64AfGejQAAwetFtKsXLdt3TwcC4+C61qBzsTgKAIjTMLC3Rvuf+3/tbgepjAIAF+jZvv8GBrx/9t80qYjUmZOIdvfCGzK3hM7jD6Bl606IXh9yIxeB6U5/fgAg+loQb/8lhJveuaCqn1ocBhO85R6YMfiCXYgkrwXnOtQKVQSXi3MVpfwplPJvweNvrakkryD6EYptRzC6Fao8Bl3NWj4GAHTtuBHx7g1zj+0pBwKtO66G6A+gODG6YoEABQDEeSgAcAMKAFygZ9vCAAAol/WdPHUc3lAEoZZ2cwdjDJGObiQ2bkVxbBhqMQ9jehmgIAYRatqPWMcvweNtXfThSmFWADBzSMGLYOQKhGI7oSlT0JTGlcrVtdysssO9EEQTIyDziN4YIslr4PE1Q5YuWs7q7955I2LzAoAZguhBpKMHbTv2QPT5IU2MwWhwIEABAHGgk6P9BykAcDgKAFygt++2GwH2/kVvNAxkzp2GVswjum6j6br23mAIzX27IHi9yF0YgDe8C/HOj8EfugKswuIQVRpkTPAtepvoCSOcuKqceFe8AMOoX+LdfJoyiXzqFXBDgS+0DszytsAMvkAHok3XgwkiFGkQMFlEp2vnXsS61lc+uigi0tGD1iuvhuj1Q0qNm1rBUQsKAIgDvUUBgPNRAOACPVv33wiG91W6T3FiFLnB84j1bDC19A8o7zAc6egB83SD6TdjqY59NlkaBmOVN+vx+poRbboBghiGUjxfl8S7xRmQi+dRyLwGUQzDF2iH1VXxjIkIhDciHN8JXStAlceqPqZ79z7EOntNHV8QPYh09qB957Xwx5sgZ1PQpPruWEgBAHEednK0/7n/bXcrSGUUALhAT1/1AAAA1EIOkyePwR9LINjUYvr4hdEs5EzC1H2V4oi5bHwmwB/qQTixB9xQoMjDDTs/3JAh5U5Ayp+C198Ojzdu+RiCGEIovgP+8Hoo0ggMPb/kfbt3mQ8ALp8OAaHmNrReuQeRzm7osgw5W5+pEloGSByH4c3R/oMUADgcBQAu0LP9tr0AqxoAAADXdaTOnoScyyC+bgOYUP0tzo2kTQcAqjR8aUWAGYLoRzDaV068K41D1xq3h76u5VDIHIampBAI9YAJ5kZCZvP4kog0XQuPNwZlidUNPbtvQrRzXW2NZIA/lkDTlu1IbNgKxjlKmRS4UXsHTgEAcRyGkxQAOB8FAC7Qs+22G80GADOkyTFkz59BtGMdPMFQxfvmhtJQsomqx+SGDCk/AFEMVb3vfKInhkhyDzy+JJQaEu+sUEsjyKVeAaDDH1pnOi9iBsO81Q3SEGaX3PMFIkh0b4InsLx6AN5QGPH1W9C2Yw98kRjkfLam6QGaAiBOw4A3R/sP/n92t4NURgGAC3T37d/LgPdafZwqFTHx5hEAvHzFusT6+dxwtQCAo5R7DZmR72Hs/OPTiXc9lkYCyhh8gc6aEu8s4zrkwgCKmdcheiPw+tssH+LS6ob4TuhqCjO7HzLVQObMW5AzaYSSLcsOBATRg3BbJ9p27EGsez0YY5BzGdPLCCkAIE5DAYA7UADgAht3vP9thqG/u6YHc47c0AVkLw4g2tGzaGeVG0pDySUWfbhaGkR25P+FlPkFuKGgmBublXgXWVbiXSRxNQxdgloaadi5M3QJxexxyMVz8AVqKzsszis77PP74POHIU2NY+yNw3ULBADAF40hsWEL2nddh1BrBwBAyabBKwRKFAAQp+HAiTEKAByPAgAX2PXe3/qIJhdvMtTal5GphRwm3jwKJggId3SDzeq0c4MLAwBDyyE/+SPkx5+YM28v5ScAlCviLT/xLoBQbDv84Q1QSyPQtbzlY5ilqSkUUoega1n4g+vAllF2mGEKonj56nwmEFAyafgTzfAGrU+RzMcEAYFEM5Kb+tCx+3pEutbBFw7D0FRoJWlOrRWuGdCNld19kJBKGHBitP/gP9jdDlIZBQAusO22T32wffcNN06deWNZx+HcQG7wHHKD5xDt7IUnUN5EZ84IANchZV5EZuTvoZYuLDiElJ+Yc7k/szGPKo/DH+qpaWMejy+JSPI6eHzN08sGG7itcGkI+fQhMOaFL9Q1JxAyhTEIQgHgC5MZpalxTBx/DcWpMfijCfjC0bq0mgkC/LFEufbAlVejY89etGzbhcSmPrRduQfeSATp82cadM4IqQkFAC5AAYALbHvbx97ftuu6G7iqID86tOzjKfnyaIDo8yHc2oXsUAZKLgGl+CbSw3+HUv4osNjafQ4uFSYW7TFVeQz51CEAOvzBHusb87DyxjyRpusAALI0iNmJd/XEuYZS/hSkzHF4/U3w+JqtHcAYWzQAmFFKT2HizaPIDZ2DNxBCIN5kdZakyqliEP0B+CMxeMMR5AbPI0UBAHEShjcoAHA+CgBcYNstH/9grHfT9bHujdBKRRTHlz9nzg0D2Qv9KI4Pw9ACmBr4FxSmngU3pIoPWyoAKN9aTrwrZI5Mb8zTYbldjHkQiGxGOLYL2qzEu0Yw9CIKmaPT2wr3LKh7sCR9tGIAMEPJZzF1+gQy505D9PsRSDRbLmRkRnboHNLnKAAgDsJoBMANKABwgW23fOKO2LpN14EBsd5NUAt5FCeWV9FuhpxJITN0HJo8UfW+HDCkwkTVNXUzG/PIxQH4grUl3gnzEu8Mvb67582mKZPIpV6CoUvwmyk7bJgLAGaoxQLSZ9/CxJtHYGgqgk0tEDzWcxCWkrkwgPSFsw07P4TU4I3R/oOP2t0IUhkFAC6w7R2fvCO2buN1QHmNemL9FjAG5IYvLPfQAABdUxctB7wIbiYAmKGpaeRTr0BTUvCH1kNYRuKdIIYgS+cXn5qoi3LZ4UL6MATRD1+gc8llk4yPWQoAZhiqitzQBYwfPww1n4UvlqxLwmD2Qj/SF/obdF4IsY4BxykAcD6rC7mJHfi8QI0BndfeDF8kjnM/+2eznffyMW59Up5zFNKvQcqdRKzlbYg13wRYzg8QEG3ei3BiNzLjP0V+6hfgNTTFDF3LY2roceRTh5DseD/8ocV2/FvecxuaivETRzB+4ghCLe1oufJqNG25EqK31lGBxpwLQsjqRiMALrDt1k/dGevZcM38v4da2hDp7EHmwtllVZrTVa3iOvMZDEyX8hM1fWY411AqnEUxexwebxJev8XEO1zemCcY3QZVmYCuppdzWiufk1mrG3zzVzdYnAKoRC0WkDl3BuNvvAa1kIMvEoU3GLZ0jMyFfmQu0ggAcQ4OHB/rP/iPdreDVEYBgAtsu/VTH471rN+z2G3+aBxNW7ajMDoEtZCr6fi6Zi4AAGDUGgBcOoBeRDFzFLJ0Hr5gN0SPtc4OAERPFJHEnnLZYekCDL1xZYdVeQz5qVcAGOX9A5gAbjIJ0AquayiMDWP8jdeQ7j8JrVSENxQxtblQ5twZZAYHGnYOCKkBBQAuQAGAC/Tt+5X3xtdvvm6p20WfH81X7IBaLNSUHKjpJnMAONelwmRdPjOakkI+9QoMXULATOLdIry+ZkSS10MQfVCkwcaWHS4MoJA+DNEThtfH6h4AzDk3UnE6V+BVpAdOQS0WwBiDNxQBExamYKQvnEHm4rmGtYcQqxjnr48OUADgdBQAuEBT29W7k5v79le6GmSCgMSGLfDHE8hePGepupxmPgmwbgFAWTnxLp86BMY88AW7LS+TY0yAP7Qe4cTVMPQi1FJ9Vkcs2trp1Q2+gAhvzfP11mhSAfnhC5g8+TpGj7yM/NB5FMdHIE1NQM6lkR++gIm3jkHO1zb6Q0iDHKcAwPkoAHCBni233lwcG7q9qW9n1cp2oeY2NG/ZjsLYsOkpAQurADSpMFn3xFHOVZTyp1DKvwWPvxUeb8LyMQTRj1Bse7nssDwGXc3Wu5mX+INh+PzWpy6Wf54MyLkMCmPDyA0OIN1/CtkL/SjlsjCWUU6YkLpj7PXR/oP/x+5mkMqs1UkltimMj+DCc/9qKuHbF41j652/irZd15nbgc50EnmDUu+nKdIQxvr/O8bPfw+akq7pGL5gN9o3/gaauz8CwVOfrXjn8/isb3dMyNrS2N8KUh80AuAC3dtvfzsDbi9OjEIt5pDo3VK1Y2dMQHzdRkQ6upEfugBdkZe8r66p1ZMAmYhw4mZ4/BsEVR5taOKdpkwin355uuzwOuvbCqO8rXCjyg5ve9c9WLf3NiiFLJRs43IBzNJ1jUYAiNPQCIALUADgAr19t70dwH4AKE6MQpMlxHo3mipk448l0LJtFzSpgOLk2KL3qRYA+IKbkej8GPzRqwVDKyHW8jYIYhiKdL5xiXfcmFV2OLysssPh+E7oWgGqPGbp8UvpvPIGtG67Cs1bdyLWswFaSYKcmWrMeTCBAgDiPOzYaP/B/2t3K0hlFAC4wLq+/ZcCAAAojg1Dmhov7wgoVH8LBdGDxIYrEGnvQm7oAgxVmXP7UgGA6G1GtO0uRFreA0Esz3nL0iAEIQB/qAfh+B5wQ4EiDzfstc8k3i2v7HAIofgO+MProUgjMPTllR3u2nkj4t0bAAC+SAxNW7Yjvm4DVMmeQIACAOJAFAC4AAUALtCz9fZbwC4HAEC54lxu6DwS6zdD8PpMHccfT6K5byfUXA5S6vLe//q8ZYCM+RBuegdiHR+F1z+3oI9SGAITys8niH4Eo33TiXfj0NXGDYfPbMyjqSkEQj1ggt/yMTy+JCJN18LjjUGRLoAbtW2e1LXrRsS7Nsz520wgkNx4BbRSCaV09doK9WIYGgydAgDiHIyzo6MDz1EA4HAUALhAT9/+t88PAABALeSQOv0mIh09pmvPCx4vkpv6EGxqQW74AgxNhabOjAAwBGJ7kOj8OPzhbYuuOJClIQjC3IBD9MQQSe6BN9AGRRqEYTRwY57SCHKpVwDo8IfWVV0VMR8Dgy/YhUjyWgCsprLD3Tv3Ita1ftHbvKEwkpv7kNywdcUCAUOjEQDiLJzh6Fj/wX+yux2kMgoAXKBn+223ALhtsdt0VcHkqePwBiMItbabPmYw2YKWrTsgZzPIj49A9HUi3vmrCMX3Vry6VouXRwDmYvD62xBpug6M1T/xbo7pssPFzOsQvRF4/W2WD8EELwKRzQjFdkK3WHa4e+c+xLp6K95nJhBo2tgHXVMhTY035lwAMGgKgDgPBQAuQAGAC/Rs279kAAAA4ByZc6ehFfOIdW9YdLe4xQheH5o2bwPXE/B6PwjRU31+XZZGwNjSm+DMJN5FElfD0CWopZGGnRdDl1DMHodcPAdfoLayw2INZYe7d+9DrLPXxNEBTzCE5MYr0HzFDjAGSFMTdS/eRDkAxGkY2JHR/ucoAHA4CgBcoKfv9negUgAwrTgxivTAW4h0rrNUUEaaLEHOJE3dVykOg5ko6yuIAYRi2xGIbIRaGoauLS/xrhJNTaGQOgRdy8IXXLfsssPVVjf07L4J0c51Fo4OePwBxNZtQtvOa+ANR1CamoA+LxmzVhQAEOdhRykAcD4KAFygu++2dzDgnWbuq5UkTJ58HaLPh3Bbl6nj50bSUDIJU/dVpREwZn4zQI83gUjyOnh8zVCK58F57VULK+NQSkMopA+BMS98oS5TyyTnYAz+UA8iievAoUMtDS56t57dNyHaYS0AmCGIHoTbutC24xr4Y0mohRzU4vKCI52SAInTMBwZ7T/4fbubQSqjAMAFevr2mw4AgPKWsdkL/ZAzKcR61kMQK3fYuaE0lGzCzJEhmxwBmIOVN+aJJK8F5zqU0hAaVcOecw2l/ClImePw+pvg8S2j7HCkD5o8Dm3e6oZ4ey+SG7aaWoK59HMICLW0oWX7VYiv3wxwA6V0qqbpAZ2SAInTcPba6MBz37e7GaQyCgBcoHfb7bfCQgAwQ5oax+RbryOQaEYg0bTk/XLD1QMATR5Gevh/F8fO/5O3vDFPB6ya6VjDsV3QLCbeWWXoRRQyR6GUhuAP9kAQq5fVnU/0RhFOXjNddvj8pd0PjUIJ2bOnAcYQam5bViAAAL5wBIkNV6Bt5x54w1FoUgFqsWD68TQFQJyHHaEAwPkoAHCB3u2338o5v7WWxxqqiqkzJ6AV8oh29YKJC9/ybIUAwNCLKEz+GNmx70NTJqVibsgv5U5ALg7AF6wt8U6Yk3g3DEM339lZpSmTyKVegqFL8C+n7HDTdRAEPxTpIoLhOETBg+zFAUy8eRTgHKGW9mUHAuXpgU60Xnk1Wvp2whuKQM1nocmVl1XSKgDiNIzhtdH+g4/Z3Q5SGQUALnDlu379Hq1YuGE52ePFiVFMnX4DoeY2+KNzs/1zQ2koucTcB3AdUuZFZEb+HmppAAAH51wuFaf8AKCpaeRTr0BTUvCHexfsDWBGOfHuOghiCLJ0HmjUtsLTZYcL6cMQRD+8gc4ayg6Ll8oOc2MUHk/58YamIjd4DpMnj4EJAoLNrcsOBABA9AcQ6ehB285rkdhwBfyxBBgARcoD8z4HFAAQp2GgAMANKABwge3v+NRHmrZcuSd7oX9Zx9EVGZOnXodWyCPStR7C9GhAbnBuAKAUzyAz+j2Ucq8BXLt8AIaSVJicUwpPLY2gkHoVAOAP9gAWN+aZSbyLJq8D50sn3tUDNxRIuZMo5d+C199W47bCfohiEeBzSy0bqorshX5MnDgKrmsINbdC8NSncrI3FEakoxvNW3eg/arrkdzYh3jvBkTaupDYtBXeSBS54QsNO2+EWMWBw2MUADgeBQAusPVtH/tQ9/W37ClOjNZlr/nixChSZ95EsLUd/kgM2aEM1FwCmjqF/PhjyE/+eIlheS7PDwCA6cS7wlkUs8fh8Sbh9S8j8S66DaoyAV1NN+x8zmwrrMrj8IV6IIgWy/vykQUBwAxDU5EbOo+x44ehSwUEmloh+qxvW7z0eRLgDYURSDQj3N6FcGsHCuMjSJ8707DzRYhlDIfH+g8+bnczSGUUALhA380f+3B8w5arExu2oDA6BCW3/D33dbmEqVPHYWgquBZC+uIR5Eb/AZpSaeMeoyQVppbsLQ29iGLmKGTpPHzBboge83sRzBA9UUQSe6YT7y40tOywKo8hP/WK5bLDTB9eMgCYwQ0dhbFhjB8/DCWfRTDeBE/AeiKiGdnBc0ifpwCAOAgFAK5AAYALbH3bxz6cWL/5KiaISG7aivzIRSj57PIPzDnyI4NIn3sNpeJpAFVyDDgkqTBZtRfTlBTyqVdg6BICy0m8S14PQfRBkQYbV3YY02WH069B9JgsO2xUDwBmn+PixCjG3ngVheFBePwBBOJNVisbV5S5OID0+bMNOj+EWMc4Xh0doADA6SgAcIFtb//ER+LrN+0GACaKaNq8DaXUJErp+pSe1TRl0XLAC3BeMhMATN8ZinQR+dQhMOaBL9hdQ+KdMJ14tweGXoRaGq3viZ3d2ktlh0/DF2iH6I1VuK+FAGAWOZfG1OkTSJ1+AwAQSLZeysNYjszFAWQuUABAHOUwBQDORwGAC/S94+Mfia8rBwAAwIRyEKDLMgpjw8s+vq4p4NzExjyGIUnFKUvj2JyrKOVPoZQ7CU+gDR5vwnL7BNGPUGz7dNnhMehqHUY/ljwXWRTSr0JXc+X8gMVWN9QYAMzQ5FI5YfCNI9CKeXjDMXiDoZqPl71wFullJogSUleMvzraf/AJu5tBKqMAwAX6bvnEL8XXbdo154+MId67CZ5AELnBAcBMB74ETdPMjgBYDgBm6FoehfTh6Y15eq0n3gEQvTFEktfA42uGLF0EN+qzl/5ilNIQClMvgy9WdpgPAXz5tQ0MXSvnCbxxGJlz5Y2FgommRfdqqCR94SwyFwcadi4IsY4dogDA+SgAcIFt7/jEL8XWbdy52G3htk5Eu3qRvdAPo8biMpqmmgoAODekUo0BwKXnUiaRT79sOfHusvK2wtGm68GExpYd5kuVHdZHljUCsBi1WEDm3BmMHz+MUnoKTBThi8bmBh5LyJ6nAIA4Do0AuAAFAC6wdd+v3R1fv3nXUrf7ojE0XbEd+dFBqAXrHZOmmpsC4ODFUmGq9rHqSweaTrzLvIbytsImEu/mmSk7HE5ctcJlh7sgCNm6BwCXTo2uQ5ocw9TpN8rBQGYKYAzeUHjJmg7p82eQGTzXsNdPiFWM8UOj/QeftLsdpDIKAFygfd11+5q37bpJ8CxdhEf0+tC0dQe4pqEwNmTp+JqqmgsAOJfqEgDMHO9S4t0peP3tNW7MUy477A9vgCKNwNAbXXb4FQRDEYieOqbxL3V+dA3SxBhSp09g5MhLyJ47g1JmCmqxAK1UhKHrkNNTmHjrGKRU4+oqEGIVY6AAwAXqs1UZaShVKijnf/ZjbHrXXRXvJwgieva9E7HejRh4+gfmC8qY7Mt4g0r4KdIgRvv/GuHEVUi2vwuCJ2r5GIHwRnRu/i0UMkeRHv0RdK3YiKaCw4CmpuD1Ny3/YJaemKMwPoLC+MKRDkVu3F4JhNTCMFhjyn2SurK4byuxA+eMpc6exOixQ6buH+vegO0f+RRi3etN3b/x17KmXiUK6dcweOoRZMafATdU64dgDOHEVejcci9iLW8HLOcXmH8eZ6HfWkKIdTQF4AI9ffv3M+DtuQsD8EaiCLW0V33MzJSA4PUhP3JxQQGZ2XTN3BSAL7RZ8Xg7AkppuGGJd5hJvMsen5t4ZwETvAhENiMU2wm9AWWH+/bfjeatOyFNjteceFlP5XLADXo/CKkBY/yV0f6DP7C7HaQyCgBcoHfrbbeDsbcBQPbcGXgjMVNBAANDpKMbiY1bURwbhlpcfH5cr5IDIHjiiLZ+ENGW9wcAAdHkDSuceFdb2WFxTtnhIRh6faYFunffhK49N6Ft5zXwRmIoTozZGgjomk7VAInDsJcpAHA+CgBcoGf7/ncBeNvMvzPnT4MBiHb2mhq/9wZDaO7bBcHrRWH44oLOfqkAgDEvwk23ItH+y/AEugEAcnEQoieGUGw7ApGNUEvD0LVGJ94dgq5l4QuugyB4LR+jXHb4+rqVHe7eeSNi3RvABAHh1g607rwGvkgM0sQYdBsCAV2jcsDEcWgEwAUoAHCBnm37b8esAAAAckMXoOQyiK3fZGqtOGMMkY4eJDZegcLY0JwEQW2RKQB/eBsSXZ+AP3zlnLl0pTAENr07nsebQCR5HTy+ZijF8+C8hnl7U3h5Y570ITDmhS/UBWY1c6GOZYe7d+ydk1/B2OVAIBBvgjQ1Dn0FE/N0XaUpAOIsjL082v/cD+1uBqmMAgAX6Om77V0Au3n+36XJMeRHLiLeuwmi12fqWN5gGC19u8A5R3603AnODgA8/k7EO38FoeQtYMLCPX9kaWju9risvDFPpOk6AIAiDaFqUaEaca6hlD8FKXMcXn8TPL5llB2O9EGTx6Gp1isrdu/ci1jXwgRLxgSEmtvQumMP/PEkSqkJaCsQCGi6Dk4jAMRJKABwBQoAXGCpAAAAlFwWU6ffRKS9G76IueVzTBAQ616PeO8m5IcvopTPgglBRJrfjVj7hyB6kks+VpGGwNjCYIMxDwKRzQjHdkJT6p94N5uhF1HIHJ3eVrgHgmh9c0LRG0U4ec102eHzlsoO9+y6CdGu3qXPL2PlQGDnNQg2taA4NQ69JDXsfOi6RgEAcRTG8dLowEEKAByOAgAX6O7b/24G3LzU7YaqYOqt4/AEQwi3dpg+ri8cRcv23VCyHgTC98Ab3IhqSQWKNALGlp6HFzwhhBMziXfDMHSTexHUQFMmkUu9BEOX4F9O2eGm6yAIfijSRVNlh7t334Ro57qq92NgCCZb0LZjDwLJZqi53JKJmMthaDQFQJyFMfbSaP9zP7K7HaQyCgBcoKdv/7sqBQAAwDlH5vwZSFPjiPdsgOAx1xkyQYCSA5Rsi6n7K8VhMBOJeOXEu+vqlnhX4ZVDkS6ikD4MQfTDG+isoeywOF12+GpTZYd7dpkLAGY9AYJNrWjZfhUSG7bA0HWUUhPLKuA0WzkJkAIA4hwMFAC4AQUALtC77bZ3A+wmM/ctpScxdeZNRNo64YvEzDwEuZE0lEzC1H0VabjiCMAcdUy8q4YbCqTcSZTyb8Hrb6txW2FzZYfXXXUzIh09NbXTG4ogufEKNF1xJQCOUnoKXF9ecETLAInTcODFsf6DFAA4HAUALtDTt/89AEwFAACgKzIm3zoOweNBuKN6xnxuOA0lmzB1bEUaBWPWhtovJd5Ft0FVJqCr6YadK13LoZB+tZwfEFpfe9nhxNJlh9u2XIX4uk3LaqfHH0C8dxPadl4DXzQOtZAzv3Xz/NdMqwCI87xEAYDzUQDgAj19+98NCwEAAIBzZC8OIHvxHCKd6+AJLJ0olxtKQckmKx7OMIrITfxLJnXxXwO+UBcE0XpNINETRSSxB15/GxTpIgxDbtg505RJ5Kdeqb3sMJtXdrh4ETOrG9RMFtL4GPzROPxR6yMNc55GFMtLCK+8GvHeTeDcgJJNgVvo0GknQOI0jLEXR/uf+2e720EqowDABXr6bn8PgH21PFYt5DD55jGIPh/CrV2L5vhlhzNLjgBwcMi515AZ/nuUcienculT0VzqZRi6hECtiXeBNkSSN0AQfVCkQVOJd7WZLjucfg2iZ5llh+M7oWsFqPIYQtFmcFnB5FuvIzc4AG8wjEBi+cWBfOEoEhuuQPuu6xFu7wI3OJRMquo2zZpGywCJ4/xitP8gBQAORwGAC0xPAdQUAAAANwxkL/SjMDaIaOc6iD7/nNtzQ2koucSCxylSP3Ij34OUeRmcK+CGkSsVU9GZxLt86hAY88AX7K4h8U6YTrzbYyrxbjkulx0+DV+gHaLXXG7EbIIYQii+A/7wejA+Bs90aWYln8PU6RPIDZ9HIJqAb5kjAkA5MTOQaEJycx9ad+5BIN4M0eOFKhVhaAs3W9I1WgZIHOdFCgCcjwIAF+jZett7wWoPAGbI2TQmTx6DGAjOWS44PwAwtAxyEz9AfuJHMPTLy9Y4N7KlYip2+d8qSvlTKOVOwutvhceXMNWO2cwm3tWDrmWRT78KTUnBH1o3d0Mjkzy+JESxAPC58/VKLlseERg6B28whECsqS5lFgWPF6GWdiQ39aH96uuR2HAFwm1dCLW0wR+NIdLeDW8ojMLkWMPOGyE1+MVo/8F/sbsRpDIKAFyge9vt72XA3noci+s6MufOoDg+jGh3L0SvD9nBDNRcApyrKKafR3b0f0NbJGOfcyM3OwCYoWt5FNKHpzfm6a098S55DbyBtunEu8blB6ilERRSL4NDhz+0ztRWyrMxY3BBADBDyWcxdfoE0v1vQfD6EEy2WB4dWfJ5weANRRBqaUe0qxeJjVsRX78ZpfQU0ufPNOx8EVIDCgBcgAIAF+jp21+3AGCGnElh4uQxeMMRaEUfCmMjyAx/F3L++JJr9jnXs4sFADM0ZRL59MvTiXc9llcLAAxefxuiyevKiXfSYMPKDvOZssOZ162XHa4QAFw6F1IR6YFTmDp9HEz0INjUAiZYCzTMyl08hxQFAMRBGPACBQDORwGAC/T23fY+1DkAAACua0j3n0Ju5BTyk78ANypvh8sNI1MqpuJV7lROvMscgSguL/Eukrh6hcsOd0H0hKufNxMBwAxdlpE5fwbjr78KTSogkGxZkIOxXJnBfqTPn23YOSLEKs7xwtjAwR/b3Q5SGQUALrCub/970YAAYIYsZatmmgMAN4xs1QDg0n1nEu9Owetvr3FjngBCse3whzdAkUbm5CPUW7ns8CvQtSz8wXWVdzs0LgK8aOn4XNdRGBvG+PFXIU1NwBeJmN6oqZrMxX5kLvQ37NwQUgMKAFyAAgAX6Nl6+/vAcGOjjq+pqqkAAIZuOgCYUd6Y5zA0NYVAqAdMsH716/ElEV3BssP5mbLDS61uMAYtBwCXn4KjlJrAxJvHkL04AEEQ4E80LWt6IHu+H+mLFAAQ52CMPz/aTwGA01lfxE1WnsAZ6rNtvE04CunXUMy+gVjLzYg1v81UPYE5GEM4cRWC0a3ITjyH7OTzDasvYOgSUiM/RD71MpId70UgckVDnqcwOoj+0UGIB3+Cps3b0HLlHoRaLOQiTOPu/nAQQmxCAQCxYlk9DTcUZMaeQSF9FIn2/QjFdlo+hiAGkWh/F8KJPUiP/jOk3FsNe7GqPI6xc99FMNqHZOf74fEml3/QReiKjPETRzB+4gjCrZ1o2nolkpv64A1FzJ3XOhUVIqR+GH0oXYACADfgjC2z7632BCabUZ9GaMokJi78AwLhV5DseB+8gXbLx/D6W9Da+3GU8meQGvkhVHm8YWdHyp2ElD+NaNMNiLfeBqGB19yF8WEUxodx8eDTiHR0I7l5G+Ibr4AvHF36QbQNMHEaRlGpG1AAQGxTKpzFyJnvIJy8BvG22yF6rNcXCEQ2o3Pz7yA39RLS4z8B1xu0fwDXkZt8AcXMMbSvuxpig7NnODhyIxeRG7kIHHwKgXgS0a5eRLrWIZhshTcSgccfhKGpkPO5xjaGELIqUQDgArw8BGA73oCxZg4D+dQrKGaPI976TkSabwCDxYQ4JiDavBfhxG5kxn+K/NQvGjYsrmt5qPI4xNDyt/y1opRJoZRJYfzEkcsvWxTBdR1ySVrRthBSDTNoCsANGrMzCakrVq2e7yowk3g3cvovUMqfqukYghhCsuN9aN/4mwiE1jewtc54O7hO+/8TQmpHAQBxVA65Kk9g7Nx3MX7+e9CUqZqO4Qt2oW3jv0Pr+o/XVJ+gmtYr9yC55Uo4JS5z+RIRshpRDoAr0BSAG3Bn9DSMr9ywXjnx7hSiTTeWE+9E6/sHBCNbEdj8GeSmXkB2/KcwDKUubQslW9BzwzsgX/92jL72C0ycPAZuYyKeQz4ehBCXoREA4lzcQG7yBQyd/iZyk7XN6zPBg1jL29G55TMIJ65GPYbvZzbt8cfi6L3lPdj5K/8P2nddC9bozEBCXMKgZYCuQAGAOzT0Es/0wZlhy5fa0IpIjfwQo/1/Cbl4vqZjiN4YmrvvRsemT8MfWre8Bs1LyfRF4+i5aT92/vJvlAMBz0oPrNFvLXEWxigAcAMKAFyA0xgvAECRhjDa/9fl/AA1U9MxfMFutG/8DTR3fwSCJ1rTMZaa+58fCAgizbARQpyLfqGIedwZcYiUO4lS/iyizXsRa30HBMFn8QjlbYVDse3ITh5Edvzn4Fwz/2ih8nnwRWLouWk/OvbsxejRVzD2+qswtEbVLyi/HkIcxaAkQDegEQAXEBySbs7hnC815yqyEz/H8Klvo5A+glqGwZngQ7z1nejc8juWtiU2OyDjCYbRfeM7sPNXP42Oq2+E6A806mw06LiEkNWMAgDiarqWxeTg/8HI2f8GRbpY0zE8vma0rPso2jb8G1PbEjOL2zJ5Q+VAYPfH/j16b3kPAokmu08bIY1FOQCuQAGAC/AGj72b/aayGhecezzWl/BZpUgXMdL/3zA5+H+ha/majhEIb0LH5t9CU9edFbclthoAzBC8PrRuvwpX/vK/w+b3fAiRzp66vHbmkKkZQmYwB40WkqVRDgBpuHjzRsilLIq5MRiG+bl2y3i57LCUfQPRlpsRa3k7GLP2EWcQEEleh1BsBzLjzyI/+SI45q3xX+ZPGwNDYsNWJDZsRXFyHBNvHMbkqTdgqPXZp4AQQsyghcsu0LN1/51guKZRx9cUBWZ6NcPQpuRi2tr4NWMIRVrg8foRCCUAxqCpjd27nnMdcmEAxczrEL0ReP1tlo/BBC+CkSsQSuyApqTm7EqopbMwZBmhlnaIvuWNbnhDYcTXb0b7zmvgi8ah5HPQpIKlY2i6autGRITMxxn76Vj/c8/Y3Q5SGQUALtCz7ba7ANawAEDXFFOb7NQSADDGEIy0XPp/ry8EfyAGw9Chaw2q3DfTXl1CMXsccvEcfIEuiJ6w5WOIYhjhxFXwhbqhSBdh6BJC0WbI6RTGXz8MtZBDqLUDotfqSoR550kUEW7tQOuVVyO5eRu8wRCUfBa6XP0c6ZpGAQBxFsZ+RgGA81EA4AI9fbfd2cgAQFNNBgCaNilL6WYrx2ZMQDAy9yGCIMIfiMLrDULTZHCjsUVtNDWFQuoV6FoW/uA6MMFr+RheXzOiTTdAEEPweLIQPT5wzlGcGMX48cPQShJCzW3LDgQAwBsMIdrVi9Zd1yLWvR6C1wdDLkGTS4venwIA4jgcPx0bOPis3c0glVEOgAvwmtPO6qyGAh+VWu71h5Hwb4QspVHMjcNoYCBQz7LDXFEBfnkjIkPXMHbsFUy88Rpatu9G++7r4Ysuv1wwA0Okcx0ineWdC5VcBtnB8yhOjEDJZ6HkMhBEL7yKhMxgbTskEtIItBOgO1AAQBqKcw7D0CAIS3/U/MEEvP4opPw4ZCnd0PzhmbLD+amXkex8LwKRK6wfhAmLpkwYuoax11/F+OuHkdjUh85rb0KwqaVubfdF42jZtgvArjl/v/jSzygAIIRYRgGACzDOGRo4BtDIDpdzA+nxswiEmxAKN2Op1yEIIsKxDgRCTShkR6Eq1hLhrFKVcYyd+y6C0T4kO98PjzdZv9cMjtTZN5HqfxPx3i3o3LMX4fauhr2WWookEUIIBQBuINS6At8ZODcg5ScgS1mEoy3wBWJL3lf0+BBrWgdFLqCQHYGhN3IL3Zmyw6cRbbrBfNlhs+vuOZA5dxqZc6cRamlH267r0LRl+6VqgvXj4g8HWaXsKRxGrKGNgIhpfJklPg1dQS49hOzUeehq5ex2nz+MZMsmhGPtYKzBH1OuIzf5AoZPP4J86pWGDIkUJ0Yx8MwPcOx7/xXDhw5Ck+u3FJK2XSdOQzkA7kAjAG7AOWtowRcGUxeRrE5jzapSRGZyAL5gHKFoKwRhicUojCEQSsLnj6KYn4BcSjf0YlfX8pgaehz5qUNIdr4P/lDvUiei5naoxTyGXjmIkSMvo3nrDrReeTWCTa3LardNVZoJIS5HAQCxBQeHLKWhyFmEIq3whxJLltkVRA8i8Q4EwwnkM6MN30hIKQ1itP+/I5zYjUTbuyF655YNNhkvVWSoCsaPH8b48cMItbSj5cqr0bxlO4SalhFSAEAchoalXIECABdo+DJA01/V+n+nuWGgkB1FqZBGONYKrz+y5H1FTwDx5vVQSlkUcuMNzg/gKKSPoJh5A7HWtyHW/Laa9g8wozgxivM/+xcM/uJZJDdvQ9PWHYh0dMNsEUhOIwCEkBpQAOACAuOMN7DgSz2uaJdL12VkUxfh80cQjrVDEJfubH2BGLz+CKTCFKTCFMAbtwkO5yoyY88gP3UIifZ3IZzY3bCse12RMXHiCCZOHIEnEEJy4xVo2roT4Y6uysFAA18/IbUwKAfAFSgAIBY0/kutyHko43kEwk0IhpuXzA9gTEAo0oJAMF7OD5AyFp/Jmpmyw/nUIbR2bWxkRgYAQCsVMX7iCMZPHIEnGEa0ax2inb2Idq+DP9E0JyAw9AYWWCKkBlQN0B0oAHABzhs9A2Dyu1pDKxgY4i3rLc/dlwpTUKQsQtEW+AOJJZ9bEL2IxDvhD8ZRyI42vL6AXByAWgrDF7BeV6BWmlRA6sybSJ15EwDABAHeUATeUBiaIiM7cnHF2kIIWT0oACANxVntc/eGoSGfGUGpmEYo1gavN7Tkfb2+EBKXyg6PNnRb4RUYCKmIG0Z5K+B81tZ2ELIkmgJwBdoHwBUaXArA7OFryja7fGxfIIZEy8ZydUALa/s1tYTs5Hnk0kPQKw13M8AfjCHRuhmBCrsOLle8dzMCCUs1kRqKBlsJIbWgEQA34NxsQnitx2/Yoec3ezlz90opC1W+nB+w1NoIxgSEo63l58iNQZHzdX1N8e6N6Lr+7cieO4uhV55DcWK0YeePEFeiZYCuQAEAMW25OwHOVuvc/aVthYtphKJt8AcrbyscTfZAlQso5Mbqlh/AGCvnNqzfjHjvZmTOn8HwoYMojI/U6/RYa48tz0rI0mgnQHegAMAFOGMNLgZgdiHgsmYAFlXr3H05P2AIJSmFcKwDHs/Se/jPlB0uFVMo5sfBjeUtm+OzXxRDORBYvxnZwQEMvfhzFMaHl3X8WlpECCFWUQBAGoobBvKZIYQirUuv7Z+eu/cFwijmylf3ZlcmaIqEzGQ//IGZbYWX/kgHQkn4AzEUC5OQi1M1z3wISxTziXVvQOzuDeVA4OXnUBgdWtFzTYhTGHZnyhJTKABwAWa6/FxtuOm97Wv7UstSFkrJzNy9iHCsHYFQ0trcPQdkKQOllEMo0oxAqGnJBEAmiAhH2+APxFDIjUFTitZfUJXkwlj3BsS6NyA/MoihQ88hd/FcLafNSoMafHxCyGpEqwDcoMH7AKzIS5ieu0+Pn4EsVV6+NjN3H0uuqzi0v9hzFHLjSE/2QylVfg6PN4B4Uy+iyXUQPRa3+DX5dkQ6urH1A7+MrXf8CmI9G6ifJmsHoyRAN6ARAALGmbkh9zp8p2fP3UdiHRCrzN3Ha5i717Vy2WGvP4NwtK3ic/j8YXh9myAXp1DMT4Kb2VbXYjwW7epFtKsXpUwKE8dfxfgbR+q6e5/pjZwIIWQWGgFwA9bYKQDTSWR1zETUFAnpyX7kM8MwjMqdYSCURLJlMwLhJkt9ryoXkJ7oRyE7VrFjZ4whEG5GomUjfBWKEV2+f21fm0A8iZ6b9mPXx34TXdfdDE8gVNNxFmlRnY5DSH0wg3IA3IBGAIh9VmjuvlScglxKl8sOB5NLBhGC6IUvGKuae7Dc2oyeYBid196M9qtvxNTpNzFx/LANKwcIaSCaAnAFCgBcgTEnLPVq1FDzzNx9ScogFG2Hz7/0Pvszc/eKXEAxOwLd5LbCl8oOF1MIx9rh9S3+HGauW4YPH4TXH0Byy5VgQu2DaILoQUvfTrT07URxYhTjbxzG1Ok3YaiK1TNYcxsIIWuXuPxDkEZb13fbRwFc2ajjayY7HF1XxhQp296odnBDh1LKQlMleLyBikv6RI8P/lASgiBAU0sw2wlyQ4csZaGrJXh9QbB51QY1rVR1BCAQiCF7YQCpMycg+gIINbUue9thbyiCxPotaNuxB4F4E3RdhZIzt9e/pqkNK1FMSC0YYz8e7X/uBbvbQSqjEQBiHhes9zIM8AcTkKW06QtVVS4gLfcjEG5CKNKy5Jz7zNy9LxCzvq2wnIcyUUAglKz4HJWUMikMPPMDjLz6PDquuQnNV1y57EBA9PnRvG0XmrftglrMI3X6TUydPYni+PCSSZCN3SeaELJa0QiAC/Rs2//LaOAIgGp6BEAeVUrWRwASzRvg80eg64rpSoAAoKkSSlIKjAkQPcEl+1YmiPAFovD5w9PPYT7DXlMlyKUMBEGAxxOAppWgVhkBiMTa5ywd1OQS0gOnkDp9AoLXj0BTc82JgrOJXh/C7V1o2bYbbbuuRbitC55AsDztwDkMTQETBAh+PzS5tOznI2Qp3DAs5b4whn8Z7T9IIwAORyMApLGmfzTmzN3nRqBr9Z27Lz9HEPGm9ZClLAq5MXDDXCBg6DNlhzPweE3sO7DE72Apk8K5Z3+I4VeeQ9vu69GybTdEr8U9BpYg+vxIbLwCiY1XXD43ug4mirj40s/Q//Mf1+V5CJmNcw65OIVSKYtE80bTjzNoFYArUADgBryxY7xmKwGYv9vsY89tek3r7lFe25+dugCfP4JQtL3i5j3lbYUjkApTkApTgMnn0FQJmiot+3wq+SwuPv8TjLz6Atp27kHrzmvg8QeXfdwF51acHsCj+X/SAIqcRzE7Cl1XIYrUVaxG9K6SFbfsuXul+tz95bLDMRRyE1V3BrTUfpP300pFDL1yECNHXkZL3y607bwW/nii7ueTEgBJvZWKaRSyl6tbWr0GYcygD6ULUADgDg7J8rLejErzhjMlgQOhxPTafpNX35yjVJiCUsoiFGmBP5BYsmmC6EM00QVViZdLAqv1KQlshaEqGHv9EMZffxXR7vVo23Ut4r2b6/aucvqtJXVmdmSOuBsFAC7AGRxRXZvXMNZscAOaUoTHt/Sudx5vEPHkepRKaRRzE5bn7qVCGpF4OzzepYfZvb4w4s0boEgZFHPjpssOL34eaj5/yA4OIDs4gGBzK9p2XoemLdsgWK1FULcWEQKAG1BVaU5+zYK43epX3xG/WKQaCgBIY3GOzNT56nP3DAgEE/AHYpbn7nWthMzkOfgCMYSjS5cdZmDwBxPwBaIo5ichF1I1bm60/Et3aXIc5376I1x84Wk0bd6GliuvRqilti0W6GqN1EqR8yhkRyF6fHMTbOfvPm51eatB81JuQAGACwjcKcW1a2+FIuehKgX4Q00IRZobMnevlLJQ5XLZ4VC4CVjyOcrbCgeC5amHasv+GklXZIyfOILxE0cQbu1A8/ar0LSpD6I/YP4g9FtLLNI1GfnsyKVptwUFsxb09/QZW40oACArhnOOUmESSinTsLn7mbLDspSZ3vs/tuR9RY8PsWQPVLmAQm4UumZyC94GhWOF8REUxkdw/uc/RqSjG8lNfWjasr160SAKAIhFxfzk3Jybap8hyzMADrlmIRVRAOACvMFJgGa/qaxO6eaz192HY20Nmbs3dBX5zBBkKY1wrL1q2eGEfxNKxRSk/MSy8gPqgnPkhy8iP3wRF3/xLKKdvYh2l0sKh1raF9QfoFUAxDJW8Z8L0CdsdaIAwA14g3d7Nd2B1LcRmio1fO5eVYrITAzAH4ojFGldsPf/bIFQEowJyGeqVOZrdHXm2U+l68he7Ef2Yj8AQPD6EEw0wRuOwhsOQ5MVjL/1+oq1h7iPIudhGDoCwfilvy3I8avykbb6iTdoWMoVKAAgtqtt7n4UqlwwdXwOjlIxDVnKIRRpqlx2eJl7+TeaoSoojI8A45fXaGvy8jcvIquPrssoZMehynkEI80WH70gRLD4cJoCcAMKANyAcdbIWQDGmLlh5EbVA0Ytc/froMgFFLIjpusLcK7PKjvcBp8/ssh9TJyvRp0EQuqkmJ9AKT95+Su74HM971NMF+xr0vIrlhBSxfw560pm5u6zU+eha5UT/3z+MJKtmxGOtUMQzNe10jUFudRFZFMXoC14DooAiPupct5ivL7MK/75R6NlgK5AAYALsOXWmK3K7HfV+npzBoZk62YEwk2WEhlUpYj0ZD/ymeGqSXmBUBLxlk3l57BwplS5gMxE/3ThIMPSmSDESaqN4FX/XM+/B7P4eOJGFAC4AOeNzToze3guWJ/X4+zy3H28ZSO8/rCFBwOylEF6/CxKhcmKw5SCUH6OWNMGeH3WCu+UClNITZxBqZhy51CoC5tM6kPXFOTSQ1BLuYr3qzYlP3+0gC13QIByAFyBcgBIQ83+HanH3H042gbvInP3MzzeAGJN68tlh7PD0HVz2wpzQ0chO2ppKoEQu3BuoJifRKk4BXAO37zAekEcOy/IXzgaV9+FgMwpe5eRimgEwA0anppu7rtaWyMWPmo5c/fZJefuFz5HvGUTwtHWJXcdXIy5PQAclgTgsOaQxktPzB8Vm9fBV7uEn9c/s/m3V54RIKsEBQDENuW5+43wBxPLnrtfDGMCAuFmJFo3wT9rDfRyOXylIFkDjAWfe17l3/NvZZZut7wRCXPjXNraQwGAKzR45xmzPVqNW85VykYWBA8i8Q7EmtbDs4y5+0otKz9HJ+LN6yvuOkiIExm6umBkilUdtavyna4yRTB/hIB2m1ydKABwAd7ga07zwbr1jwvnBjIT/VUL7ni8QcSb1iOaXAdRNJ+aMjN3n50agKpU3hBn5jki8S4IQu3pL477LXRae0hdzOyNkZroXyRfxtpPQvWt/us75m8YlAPgBpQESBpuZu7e6w8jFG2Dp8K+/D5/GN6WTZCLKRTzk6ZL3WpqCdmpc+Wyw7F2iOLSZYf9wRh8gch02eFJB/boZE3jgFzKoJAbBzdMJrHO/8OCHL8qWf4WawOQ1YFGAFxAYI3efN7kMsBljgOuxNy9IueRmThb/vHklZ8jFGlBonkjfIGYhWcgpLF0XUE+Mzyn868+Blglia9a1n+9Y2DKAXAFCgDIimv03P1M2eH0RD9kKVvxvqKnXHY41tRbsWLgHJQFSBppkdHz+bH3giz/+cv8FiwCsJYkuBAtA1yNKABwAc4b2+OY3zK0ft/plZi7v7yt8Dloaqnifb2+EBItGxEIN9XtNa4YikdWl0UH/ObvzFdlGZ/1J63yfPQhW40oAHCFBl9y2nhFOzN3n0tdhF5pY6DpuftE6yYEIy2W2qwqEjKTAwuGVRfj9QZMHNFhFzcOaw5pBGvr9Kt32NU2AlrmiAEz6FPpApQESExr5FWAIuehThTgDzUhFGlecvOembl7fyCGYn4CSilr+jlkKQOllJsuO9y8aBBBy52IO9R3576qUwxkVaIRADdodBKg6U6vsb1jw+fuMXdplZXgYTbLm6IQYsGife+CK/756/Tn3Wyxuh+rlhNo8avPDIEiaRegAIA0FGNAJN5hacvfmbn7zOQANLVyfoDXF0K8ZUMNz1EuopKdugBdlU0/jpDGW2RkilVbp291iN7aRkFWg16DpgBcgQIAF2ANTgJsZBYZB4M/mECidbPluXtNLSEzea7q3D2beY6WzdZLAiuF6fyAERiG7tItAVzZaGLFgmI+81Wb019uwECfsdWIcgBIg5V/eBo9dw8ATBAQjrYhEEygkB2FqhRMHZ+DQ5bSUOQcPKaSAAlpnFo33Lb07/mzigvmEFjFo1VHUwBuQCMALsAbXQvA/DJAy1/q+Q2/NHefXNewuXvR40OsaR2iyXUQltoRcLHnMHSosrmggZCGYYv9aXlD/FX690UWFVTbWIisBhQAuIFTpgDq+CPg9YeXOXd/vurcvc8fRrJlk+Wyw25Dv82rTfV9ACxP21n+Bbn8AEH0IprosvZoygFwBZoCII3FKt1Unrv3+WMoFiYgF6dMjzGoShGZyQH4gnGEoq1Ld/CMIRBKwuePopifgFxKL7vHpFUApJEWu9qfv/FP1VqAC5L4rI4glKft/KFkxWW5S6JiQK5AIwBu0PBaAA3cCdDgkApTFWcPZubu480b4fWFLLS6PHefntlWuFLZYbFcdjjRvAFer/nnIMSJFvwg8CoBArc2giCKfiRaNiIcbbXe+RPXoHeWNBQHRzE3ZnLu3o9YU28Nc/cGCtlRZMYHqs7hi54AYs29iCa6LD3HHHRxQxrJzEYAC+7CKh5jQXA8vzrgvKOJHl/t3w8AjIoBuQIFAC7AnbLbu1B7z7cSc/e6LiObuoBc6uIi9dPnPUcghkTLxumlie7+Gjjjw0HqZtG+s1r9Xotb9/LKAQNZG9z9y7dGCA39jbfQpxvm77qUmbn7mXX3S5qeu483b4Q/mLB0BhQ5j9T4GRRyYxWfY2ZpYrJlo6Wyw1QYhTTWIp+v+UEBr7wToOkvzPT3LJpcV+eXQMNkbkBJgGveyndml9fdZxGKtMIfSiyZWDczdx8MJ1DIjEFVi6afp1SYgiJlEYq2VuzgBdGLSLwT/mAchdwo7QxI7GXmK1nlit3MIXz+MMKxjmUN9S/FcOmWWmsNjQC4gGOmAOr9uubM3ecr3rfWuXvD0JDPDCMzWb3ssNcXQjDcbOKoq/LtIA6xaAaA5Y9c5SmBQLjJcq4NWX0oAFjz7A/Uy3P3Fxs6d3+p7HB6CLpeYVth+08HWePMZQBUm/OvHDE0fF8MWgboCjQF4A6OuORkDa6Vq8h5KBMFBEJJBMPNS/5IzczdB4Lx8tp+KWP+OUpZqHIegXATguHmBWVP3fir5cY2k0pM5AAs2MqvQpIgY/DQ0leyCBoBcIcGBgDmD11rDqCl/fU5R6kwhcxEP2QpXbF3m5m7r7UkcHr8zCJlh6t3p46Ixqw1mbheta19F1/m5/WHEW/egEAosbKtpSRAV6AAYK1bgVydePOGGufuR5CZGqia+Of1hZBo3ohIvMvatsKGVi47PHUOmlZO/OPUmxKbLR5gVv5czr/VI/oRS65DLLkOHgvBcf1eBCUBugFNAbgAZw5ZVMNrGAOYHqr0BWLw+iOQClPTOwOaO5amlpCdPA9fIIZQtA2iuMRHlgH+YAy+QATF/CRKxSnTwY2mSMhM9sMfiEMUfbac2uVgbEXiuFWDcwPc0B2cALcwBOAm7jNbMNpq94sgLkABwFrX4A1AZh+9kXP3s58jHG0tP0duFIrZ6n4cFtrjuEkAYpIi51HMjiIQbl7xYXHTWPU0wAUff4cFgIzSaV2BAgAXYA7Zeaa2L/XCps9Zd58dha6ZW3c/M3cvF9MIRdvgD8aWvK/o8SGaXAdVLqCQGzP9HGR10tQSirnRWUtBndw/mdgKeBavP1zxu0DIUigAcIeGBQCW5rxryBhhFUYYZubu5VIWxdxo5Z0BZ5mZuy9JKYRjHRXnOL3+MBL+jSgVUyjmx8GNOmxn6LCLGxr+ry6bughuaMs/0Erg5v4oenwIRdvh84ftbvFCBn0q3YACgDWvsYMLnHMYugah6tx9uDx3X5gyfezZc/flksBLf5wDoST8gRiKhUlLZYfJ6sDg7Gv+2RYNyuct8wtFW+HzR+1uKnE5WgXgBg6ZAqip6dxAeuIsivmJiol/jIkIR9uQaNkEnz9i5dxAljJIj59FqTBZpexw+TliTRvgsVB2eJEj2XAmiVmKnFu4nbOL3jJmohqg0zt/wxlpy6QKCgDWuJVYrTMzd58aP7vIuvu5ynP3PYgl11le21/IjSM92V818c/jDSA+XXZY9FjPBKefNmfSNQXZqQvIpQZh8PnTSfM3znHZm+iyan2MGS47wWsTTQG4AXPI9csyF8nPnruPxDoqdvC1zt3rmoJc6gK8/jDC0baKz+Hzh+H1bYJcnEIxPwleyzJHJ3DT+HYjcI58dhRKKb10v86tbZXrFILoQzjaYm1UjBCTKABwAdbIi05LVxb1aYWmSEhfmrtvq7h5T61z96pcQFruhz+YmM4PWGpbYYZAuBm+QBzF/LippYCcOaz7WMudPwCD6+VdIyuZ/zl3+DAOYwKC00te3Xb1DwAwBGefYAKAAgBiV+8xPXevlHIIRZoRCDUt+UM3M3fvD8RQyI1BU8yXBJalNFQ5V06aCiSW/C0tlx3uhMcbQCE7as85ITVZ9C2tEik6ewZAQKJ1c+ML9pA1j3IAXMAp5YAbMUC+EnP3hqGXtxWePAtVqfwcbvzRdcSHY4XMVI6cPSW0WF8+vzYOc9EwCWPu/BzOeQ2gHAA3oBGANY5bLzTeECsxdz+TJObzRxCKti8aRJgreOiMc7aWcMMoT9EU0+VUlDlvwcL3o/pfqH9qKEZTAG5AAYA7OKTHqfE7bSFJbWbuPhBuQijSAsYWH6S6PHcfs76tsJyHopTLDld6DrdY7QWMdE1GZvI8+OzMfo7K34oF5fLm3+6QrxQhNnL3Lx+pA/OdB6shAmBgiNew7r5UmEJq/DRKxVTF+dqZbYXjzevh8QUtvOxy2eH0xNk5ZYdNXf87LYHMjUliFhiGNrfzN8Vi+VxSVwYtA3QFCgBcoXGXK6zBnQdntc/dc8NAITuK7GQ/tEt7uC/O4w0i3rQekXgXmGB+YMvQy2WH05MD0FSJRoYdwNDVeX+pvDFOPcrnksoWvidkNaAAwAW4qy/xLjfd5w8j3rwJ4WirpWF3TZORmTqHXOoidK3yD5E/GEOydROCkRbAwnPoWgmZyXMmtyJ22Nvh7JR2Cy+jnBCanTpf/b5z/rX88rlkcZzr5fckdcHaAw0aYnEDygFY6xrcecz/2V2JufvZZYcLuXEopazp59B1E1UDq80/E2s4IJcyKObGYBj6ghGcqvtgrYLyuU7DwaFIGRRz4zAMHaJoratgqyUqXeVoBMAFmEMyluo5q1fvufulniOa6EKsydq2wu7jiI9HzUpSCvnM8KVqkGau56u/fup/lkMupJDPjFx6T1xcjoRUQAHAGmftZ7KGH9UqvxvLnbvPTJ0rz91X4PWFkWjeiEi8qz7rqx32W8hX3Wgrn/evKh18TS9/tZ2z+lr22aEsS1egAMAV3JsDwA2joXP3miohM3kOufRQ5USl6bLDidZNCLh1e9VVwDD0RQpCWX8vZj9i8WWQ8/42bxCN0/t/CecG5FJuzt8WTplQf74aUQ6AK7BaVuDVH69tcw9FzkNVCvCHmhCKNJuYu4+hkJuwNHevlLJQ5Xx5/4Bw05JBRLnscOt0fsAYVDlv91ldNsaZ8/cCmJ7nL+TG4fH44Q/G5t5Y+QUudrhLQcCiK1l4lb3/qUObk3shegPwB6JzbpvDYsBE1QDdgQIAsiI45ygVJqGUMghF2uZ1AHMJog/RRBdUJY5Cdgy6ZiIxD5fLDstSBqFIa8XnED0+xJI9UOUCCrlR6Jpi9ylatTRVQiE7Ck0tTf/FN+8e867O59+6WApM1e5l/joBuuKfTVUkFHIj0NXyd0us2uFb688ZFQNyBZoCcAPmjCRAoQ5XmeW5+yFkJs9VXdvv9YURb9mASLzD0ty9oavIZ4aQnTpfNXjw+sNItGxCONYOJpj7OjivM3H2b22pmJ7V+S+08OKyyi5+Zl4zq3xvp72DK61UTF3q/E1x9keM1IgCAGIeq185IE2Vymv7q8zdMzD4g4npufsmS52vqhSRmRhAITsCblTeSS4QSiLZsgm+2cOgpC7Ygiv8Kr2JmXh3TtRg5v52nwWHYRX/uYDV/l8HjQC4AQUALsAamLFk9++iUsoiPdGPYn4CqFDUpzx334Z4y0Z4/RHTx+fgKBXTSI2fRakwWXHulwkeCgAagVW5/l7wlpi4XuezdwJc5D3l1f69RvonDpSkNErF1Jw/Wy2NYPfvBGkMCgBcgDtkH4BGfVxm5u5TE/2LZIjPNTN3H0uug+jxmXyGyzualcsOL534Z2bxklPeDbeYv4yPVVvmV21KYAHr+wCshVUAM6NshcwIDEOz+Ohl7pxESYCuQEmAa5yTvqUzc/eylEY41l5x8x6vP4yEfxNKxRSk/MSlDUuqKZcdvgivP4xQtA2eec/h+Gx6N1pw9V05Q58t2MVvsa2BKnfgC4OOao1aXQrZ0blX/QtebrVRmOVhtA+AK9AIgBs4ZBsug9cvB6ASVSkiPdk/Z3e4pQRCScRbpvMDLJwlVS4gM9GPQm4M3LD4uhz20+aw5phob+Uhfj5veH7R0frZf2SVpwiWvM8qVm1zrIUqz5m47TNGzKEAgJi2ovt7c0CWMkibmLsXhHJ+QKxpA7xWthXGdNnhiTOXyg6bGQFw3ioAZ1vQ91pMQKt2zEXfs3pntTkcrxKcW3+5y10GuFaSLNyNAgA3WMM9zuy5+2qb9ni8AcSa1pfLDotWyg7r5bLDUwPQlJLpxzmF8z8cjR1uXiwpw/nnpD50rYTs5HmopcrfjWoj8vODKGY1S5C4EuUAuAB3zACmffGirinIVpi7n83nD8PbshFyMYVifrLq1dEMTS1VXK9+CaNygNZY7fHNDN/PXgVQ/RALrkddPkVt6CqK+UnIpTTAAT/ilV8vn58TUWVYZgGrSYAuP8FrBAUAa567vqeqXEBG7p/e8rdlyc17GBPKZYeDcRRz45bKDpNGq5IDUDWBb14Ht+hGgZWvaLnLr2jTEwPgfOn8GFZtJ78FiZe84t2txrs6rQJwBZoCcAFGl5sLzJ+7X4ogeKbLDm+Ax2stP2Bp9HZYU+1qs9qi/Xo85/RfpwPDUKTZ7pOyLNVzVaoN+VtdRUGf+dWIRgDWOIfsMlyTmbl7WcogFG2vmADo8QYQb1oPuZRFMTdWw7poUi/zs/yrdi51KffL4AvEEIq2WsoPcQJdK4ExEcKsdlcv/2TxnFZZmskt5vQxRjsBugEFAO7gkF56ZZYBWqWpJWSnzsHnjyAUa1/6B366JLAvEIFUmIJUZXXBkgchy1JtVcDCJXyLHcTa+xZJdLmu4zcMDcXcBJRSGrGmDXMCgPJJMX8Oqn3Mqy3NJKsTBQDu0LBvI19FuTqKnIc6Yb7ssD8QQzFvreywE7n9HVzY9Zj4uPNF1hJWOBGu6vw5h1ScgjQrgbVaFnC1fX4WzPk3YGnmnMfrlAPgBpQDsOatrkh/puxw2uS2wtFEF2JNvRV3HZxjFQVMK8Zq7zV/+HnRh8zr0GYHBEyAILj32kbXVRRz46ZXr8yckSXPR/kvlf9NH+s1iQIAd1hdvfQKmNlWODM5UHVXNK8vVFPZYcdw+p4rFgvxmBkRWOoL4fOHkWjeCK8/bPerrt0iQeaCvIkFyxoqz+Evsi7QYqOsLgOkHAA3cG+YTOrD6Z3HMmlqCZmpcwgE4whGWpe8MpwpO8yYgFx6aMnjUTa0dazaxWa1O5gYdRG9AYSjrfD4Qna/3OVbNDG3ckllZrlDr7YSo/LSzKpHp2WArkABgAswxww8O6QZVnGgVMxAlnLT+wc0Lz0svbzVVbZgjFnO0naSql0LX3Sh/xzxpvWrfJzM2jp96+VD1nbxpLWKpgBcgDfyp83KHoMu7mTKzb9cdnipxD93vkKXtdrqJnSNOoar1XfnPm5m5YWV1tEUgCtQALDGrcXyt4auIJceQnbqAnRVXnBGKnHxtgk2Wl7C2fwY1eePQhBX7+ClqZh8wTr9eTdbLOZTdZrG5cE/Wdzq/RatLg7pdhzSjDpRlQIykwPwBeMIRVshCKIrw6HytrYObnm1mSO+xN8ufdzK/yOKfoRjbe5O8DNlsQH4Oq/Tt7gyw2rui67rDv5AkhkUAKxxq6tLt46DQ5bSUEo5hKItdEYagPNq88uLzzhf7v8ZwrGO6SRNu1+NTRY5h9Z2AlxeeV/L6T80BeAKFAC4AashybcBVtOmQQteGy9vK7zU5kEznLkKwNnvy8Kup3Jhmst/Kz9SEDwIhBJ2v4wVU9toe+Vlfgvm+OfPZS2YQ2AVjkZWC8oBWOusfLMtbUziTtY2X3EI118WLzImsJZ7HLbYn5aZOFHl5oUTDFVWHVR9eloG6AY0AuAG1tf0mOf2voM4n4XPmOjxIRRtXwVBzXJU3wfA8he32t3Z0n8o51602n1SSANQAOAODvk1pAEjJ2Lc7Ws5GBgTEYo0IRBqWuOd/+JX+/Pf4WrvN1uQxGcxEZMBTBAQCrfAH05anvqiZYDuQAEAIVas7b6pRvPmk+d1DR6vH8nWTWBu3IbZJguSAHmVAKFqbYC5PJ4Akq2bwVht7wnTKQBwAwoA3MEh3Y4L58frzZE/a85eBsiq7EPv5sI9DbHoCEi1jXpYxWNUS7ycfzjBTdUTSc1oTHeNs5RxTP2/Izl+AmBeZ0QdfhWLfimr1e+1WOxn/rLCOo++aJQE6Ar0TXQHh4wAEHoraseYgGC4CcFws91NcbjFah9Uru63MGYw9zllTEAo0lzOvSBrDgUA7uCIXocGAByKMUdv1coZgz8YQyjaRlf/ZpjaCpgt7xAM0+9Je0NKYFMSoDvQt3GNW+MJ15axNb1AvTYhyuy3ZNEMgPkj/pbLVs79dyjc0tD3hNFWwK5AOQAuwBwyAiDQp8WZHHz1D4A6f4u4qc2Sq23tW+Wc03tCQAEAsdR3OL2nWQlO/OF0YptIXVUr11thmZ8giPD6IivbXibSb4UL0BSAC3Dwhg0C0LeUEDeovJfCgqkpxsvz/IEYwtE2MMq9IIugT4UrOGS8jqIFh6I3ZjVZ/Mte+T2ef6vHG0Iw0gqPx2/HC3hM95ZOrfwTE6soACDEAu6MUIwsAzd0GIYG0Y7O0ZTFyyNXu89swbAty/pOci787rGnH/yhHU9OrKMcAFdwyAgAcSj6eJjBwSFLaaQnzkJVJLubszRWfSMgVi0HcGWlOdgX9ebg7mPPUOfvJjQCQEyjfQCcWqbWkY1yFFXOo5Abg64p039x8jkzsRXwLP5gHP5Q3I6GGgD7Hjza54/9+BtjdjSALA8FAK7QuIFnuna0is6YG+UyI+CGZnczzOHm/ujxBhGOtcHjDdrQSPZTnfN7jz/z0BEbnpzUCQUA7uCMXoe29yYu5exySXMtWtth3jVAONYBry9kR/MGwXHf0Wce+i7cc0rJEigHgBArHDcH4LT22ItzoFRMQVNLc29wRghtCjNRDdCGzl9i4A/rRnDb0Wce/lvQB29VoBEAd3DGz5fgjGYQshhVKaKQHYWuyYg19c67dd5n1217Wtm6DSd7UjDwH1979uEBu08DqS8KANY4az+DLvvRbAiHBUG0LhGcG8hnhqCU8pXuNO8P7jhvHm8AoWg7vD4b5vkZXuMc9x57+qGf2X0eSGNQAOAGHMwlv1eErDjOjYWd/8Kt8ub929nBrCB4EIq2wBdI2LEIeAoMf9bXdPYvHn30Ud3uc0EahwIAN6DunyyBO7wja8yLnv4vm/Mfa4dw8GljEJBo3QTGVnzYX2OM/41H17906Nn/NHHU7hNBGo4CgDXPwb+EDuS0SIxB4A5sVsNoqoRCdgyx5LpLHeRin2Dr5XMdhJWDgBX2NBfw2aNPfe2Y3S+frBwKAFyAO2UrQNoJiNjEMDQUc2OQpWz5D3O+EPUon7tGcX4BYPdPZ/aTNYYCAELczMlj2XWiqSVkps4DfFYEWm3cw3L53DWnCLCvZ3nwoYFnD5SWfzjiRhQAuEDDagGTGtBbsdI41+d2/qZYLJ+7dnAG/KMm4PPHn3rovN2NIfaiAGCtW7O/g8SpdE2eV6mv8sY49Sifu0YcErhw72vPPHjQ7oYQZ6CdAN2hcZedlo68Rn8255wBZ40ArKZ3xNBV5DMjyKYuWnzdyy+fu8pNguGzfc1nb6TOn8xGIwDu4IxfL9oJkDQA5xxycQrF/CQ4N8CEuT9LVVfBuq987kpRwdh3vIz/8aGnHs7Qsj4yHwUAhFjhtLljoWo6nOPJUhqF3Pilf5WA6BAAABDRSURBVJu5np/LWvncNYHjKVEQ7j38kwffsLspxLkoAHCHEoCo3Y2gaoC0J1NjVL4859U6+Jo+lqv2s3xK4Pjca888/AO7G0Kcj3IAXIADTzTy4MTFXLYM0DA0lIppaw9ilWf0+eJbAc3757xVAc7YWaOe8gD706K/uIs6f2IWjQC4gFcXPq95jP3gWG93W4jTuKQj4xylYgpSYRKiJ4BAKDH7xiqvcPFJgZm/Llo+l1fLAXBX4FQBB9jfGUz4/dd/8sCo3Y0h7kIjAC7w3A/+MMXAfw2AZGc7nJYBT9xBlQtIT55FITcGw9CxsMOfd3U+/wAmLvCr3WHVdPdzX9PLMPhNR59+6JPU+ZNaUADgEi88dv/zHLgL9Q4CqE93NcEFfZtcykLX1CVvX3gBX2UXv8Xus+Cgy7rZ6YbA8aljTz9849Fnv/YLuxtD3IsCABd58fEv/SuDcDeAoj0tcHxfQxyILbjCr/I5MrNN75yowcz97T4LdaGAsW/LMt82vXc/fSHJslAA4DIvPP6H/8wE/k4A9Rnyo58QV3PFVDarsm1P1TH/xeb4Z+8EuMhJ4NX+7YYTN+ccPMkFtv3oTx669+TBr+Xsbg1ZHSgAcKEXvn//SwY39oHjxIo+MacKKrQM0LpquSMLbq8eIaDKA6o+xkWrAN4EY+87+vRDdxx76qGzdjeGrC4UALjUS0/8Ub/HEG4G5z+0uy3ETi64kl1w9T2/w+cV779Yln+1Vz0/qLB+BNulwPDZJiO46+hPHvpnuxtDVidaBuhiz/3gD1MA/+DeOx74AhgeQIMDujVcQW0Wh50DF74p3MwQ/+z7V1sFwFj1B7nnit8A2PdElf3e4Z8/OL78wxGyNAoAXI/xXzyBh/fd8cBxg/HvMiDRwOey+8USF1rQ91Yb8bd4zEWTCqsd1IFhE+d4lgv6va//5Bu0bT9ZETQFsEq88MR9T3q5eBWA56w8jmb1LXLalaQrktnmnbN6N3mRD7HL+v+L4PjUsWcefid1/mQlUQCwijz3xBfPB7LqOwH8KQDd1IMc9ktIrOGumAKw2kQzw/ezVwFUP8TCGQFHnLYiwP40LClbp5f1EbKiaApglXn22QMagAN77/ryc4wLf8uBTrvbRMhc1XYCrJbAN69DXywFYN5zLIwh7L72YU+KUP/D4af/0zmbG0LWMLu/BaRBfvHYHz3lF9QrGfBXle5nckBb5xx/6WOez3Dg77GGxw2cN+LuuAYtokoSQNVF+/V4zum/CgLC0TYEI812nYzDYMYtR59+6A7q/IndKABYxZ79/oH0C49/6Tc5Y/cAqDWj+EUGftOxZx7+9ydf/dujQ2889jGBGTeC4QW7Xx9xJ87nbwxUJQytQ7lfxhj8wQQSLZsRCDfZsZ/DJBg+29d89vqjP/n6z1f6yQlZDAUAa8CLj933j4Ko7gTwTwtvZUtt0j4Ijk8dffrhfUee/tpLs2+4cPyJlwePP3YzOD7FgRG7X99KcloOILgzJrOtqLYqYOGE/WIHsfayo4keROIdEARxpV+uCsa+7RWw+ehPHn7k0UcfNZebQ8gKoABgjXj+nw6M/eLxL93NwD8KjqlLNzBemHdXiYE/rBvBavuN88ETj/2t7pG2MLA/BVCy+zWuDMdFAHY3oDpWbSfAeXc3c465tbWEbOU7fgD4CQzxmqM/eejeQ089nLGjAYRUQgHAGvPC4/c/quveHeB4AgAY2KwAgD0Jj77jyNNf++LxZw/kzRxv9OiPCxff+P4BLmArGL5r9+sjTlSt+M+8f8+7ul98H6B5Q/yzAgLGRAiiz7ZXy4DTHOyjR59++Pajzz7wum0NIaQKWgWwBr38wy+MALhz311f/SQHfg9AloF99sjTD/241mMOvf7YBQCf7N5x5/+Awb4Fht12v861gFkdC7fD/Kv1Krv0mRkRWPSCnwH+QAyhaLsdQ/0AUADYNwr+woOnf/SfZTsaQIgVNAKwhr3w2Jf+1jD09/Q1n921nM5/tsHjjz8zeGLPHnB8CozTVqZkwQzAwg6+ci0AM7z+MBLNGxGJd9nR+XOAfVc3jC1Hn37oAHX+xC2cNqFJVpHeXR9IaprnDxjD5wDYNyZbRx5fAJ29zhnc4JyXpEIuYHc7KinmxiAVLqediB4/Ei0bL/1bKeWQSw/OeUxzx7ZL/69rCtITcwvhJZo3QvT67X5pAMMrBse9rz/98PN2N4UQq2gEgDTM+WM/SA2deOyLXOe7AayKqoUUMddBtVUAtRxjhXGGYc7Zbx59e/BG6vyJW1EOAGm4oZOPnwTwga7td90uMDzCgSvtbhNZScurBTBnCoEB/mACgui168WoYOw7IV/gj1780YEsnrGrGYQsHwUAZMUMnXjsqWuv/fTVo8WR3+YC+1NwxO1uk2UOq57EHLKpfeVGWlwFMPO3S6e6/D8ebxDhWBs83qA9r4PjKUPkn3n9qYdP2NMAQuqLAgCyog4d+isVwCPd2z78d1ww/pgx/A44bEnZXh2c3/9zXm3r34VBFWf8cvY/ExBNdMMXiNr1Et7iXPjcsWceXBXTWITMoBwAYovBN/9pcuiNx+7lhnEDA9yzNarzLrgd16D5FnTvCzbx4Ys85vJ9BEG0q/NPc7Av6s3BXdT5k9WIRgCIrYZOPPEqgFu6dtx1B+P4NoANdrepMmdNATi/+18EqzICwFDeK8C+fZcNgH0PHu3zx378jTG7GkFIo9EIAHGEoeOPPcGyvisZwxcBmNqFkLiEhX7c4w0i3rTezs7/RXDhpqNPP/TJo9T5k1WORgCIY1y8+KiEi3i4Z+sH/457xQfB8XE47JLbaRfc3HlNqgGDIHoRirTAH7QtL3QQHPcdfebh72JVnFNCqqMRAOI4F996cnDw+GOfZIztBfALu9tDlmveVr/zulePN4BEy0a7On+zxa8IWXVoBIA41sXj338JwE3d2+/6BGd4mAEddrfJUcMRABhzfofF5vf485ps0779KBe/0j5z5Mff6LepAYTYikYAiNPNLztM+6y7zbz5fNFj+xa+JxjHe48+/dAdR6nzJ2sYBQDEFWbKDjPGdwLsUdsa4rQhAO78EYAZguhBJN6BWKLHriZMgeGzfc1ndx155uF/sft8EGI3p/2cEWJK95Uf2g/GvwmOXSv5vF5fCB29O+1++ZdxnisWcrbtkGOGVJiEoWsIRlrsGu7XGON/49H1Lx169j9N2H0+CHEKCgCIe916q6dnPPHrHMZXwFnrSjylAwOAbLGQi9ndjMpthJ2/NM9wAfcee+rhY3afBkKchgIA4no9O+5pMrjyJwz4bTQ4sdVpAQDnRlYq5J0dANiB8wsAu386s58QsggKAMiq0bXrjm1MZ38OsPc16jkcFwCAZ6R8zn1FlRqnCLCvZ43AQwPPHijZ3RhCnIwCALLqTG8r/E0Am+t9bJ8/hPZ1FAA4EGfAP2oCPn/8qYfP290YQtyAVgGQVWfo+GNPdATbtzPOP8uAbH2P7rCY2UWrABroVSbgliNPP/xR6vwJMY/KsJJVaXj4kJGdOPlismXH/zKYEQXYHtSh9xY9PkTibXa/vFl4SVOVgN2tsMkkGO7raz77/zz95F+ds7sxhLiNwy5nCGmMzm0fulYQjG8B7G3LOY7PH0b7uh12v5zLOFLFQjZpdzNWmArGvuNl/I8PPfVwxu7GEOJWFACQtYR1X3nnLwHs6wDW13IA5wUAPFUs5NZOAMDxlCgI9x7+yYNv2N0UQtyOAgCy5nRde0dIkMQvcMa/AI6glcf6AmG09zgpADCmioV8k93NWAGnGDN+98hPvv6k3Q0hZLWgHACy5uSG31Kz428+G+vc8b/AeSuA3TAZDAuis3IAOFhRU+WQ3e1ooALAHiz6i7924sffPGF3YwhZTWgEgKx5Pds+/A4uGN8CcHW1+3r9YXQ4aAqAc0xKhWyz3e1oxEsD2N8ZTPj913/ywKjdjSFkNaIAgBAAwAGhe/vhj4PhawDal7qXzx9B+7or7W7sJZzzCamQa7G7HXV9TcDLzOCfOfrs135hd1sIWc0oACBkltYd90T8XP08B/8igAV1a50XABgTUiG/WgKAIXD84dFnHv4uQPsbENJolANAyCzF8TeU7Pibz8Zbrvj/wMQOAHPG+0WvF5GYc3IAGFhBVeWw3e1YJgWM/RdZ5ne/8bOvvWx3YwhZK2gEgJAKurbfdTtj+CaAnQDgC0TQ3uOcEQBwPlYs5JwTkVjGnixX63vorN0tIWStoa2ACalg6MRjT3UE269hjP0mAAfWknftSPlJMPa+o08/dAd1/oTYg0YACDGpZ8c9TYFw5DstHVs+andbZnDOR6VCrn35R1oxKTD8aZMe/C/PPntAs7sxhKxlFAAQYsGNd3xlL2PsBbvbMcNFAYABsO+JKvu9wz9/cNzuxhBCAI/dDSDETUQuMIM5adidO6kxS7XwWQP47PFnHjpid1sIIZdRAECIBVw0GLiTBs4cFY3MdxEcXzpGy/oIcSQKAAgh9VYE2NfDkvzwCy98U7K7MYSQxVEAQIgFnAvMSRezzHFTAOxJwcB/fO3ZhwbsbgkhpDIKAAhxNcdMARwGM+49+pOv/9zuhhBCzKF9AAixgHPDSQkAALM9AJgCw2f7ms9eT50/Ie5CIwCEWMAFgTEHjbpz+6YANMb438gQ73vzJw9OHrX7RBBCLKMAgBBi1U9giJ898uwDr9vdEEJI7SgAIMQCDzeY4aD9sxhfuSkABpw2wO479vRDj9r9ugkhy0cBACGkmgLAvpExAg8NPHugZHdjCCH1QQEAIRZwLjDnJN6XW9TIgzPgH3WP5/de//FXL9j9Sgkh9UUBACEWJLTIL1Ke3GfA8EUAXXa3p2GrABheMTjuff3ph5+3+yUSQhrDOZOZhLjIjnsO+CKy998w4E9gayDA+4v53Ma6HY1hGAY7cOwdgb/GgQOGfa+LENJoFAAQsgx2BwKc46xUyG6qw6FUMPadoC/wRy/+6EB2pV8HIWTlUQBASB1ce8eBkFfw/iY4Po8VDAQMjrOl5QYAHE8ZIv/M60997cRKtZsQYj8KAAipox33HPDFFO+vcI4vAdja6OczwM+U8rnNNT78Lc6Fzx175sEfruxZIoQ4AQUAhDTCgQPC3sOeD4CzAwCuadTTcM5PS4XcFosPS3Owh4zmwDePP3pAsfU8EUJsQwEAIY104IBw4yHPHWDsdxlwS70Pz8FPSfncFSbvbgDsewYTfv/1nzwwavepIYTYiwIAQlbIvjsf3AOmf45z9isAvPU4Jjf4W1IxZ2aq4SVw4TNHn3nwRbvPAyHEGSgAIGSFXX/XV9YJnP1HBvwGgORyjmUiABgEx31Hn3n4uwCctIMRIcRmFAAQYpP3ve/b/rQ3eyeH8GmA317LMTjnJ6VCrm+RmyQG/m3NCH3l+LMH8na/VkKI81AAQIgD7L3jq9eA8X8PsF8FEDH9QI43i4Xstrl/ZE/Co33m6I+/0W/36yKEOBcFAIQ4yK23HgiU4p53gQufAPhdAHyV7s85PyEVctun/3mCcXzuyDMP/4vdr4MQ4nwUABDiUPvuOdDEFe/dAN4LjtuwSL4A58YJqZBvB8Of9TWd/YtHH31Ut7vdhBB3oACAEBe4555/EC+qb11rGGwf42wTGN8Azj0c+Hlemfyr4//yzSm720gIIYQQQgghhBBCCCGEEEIIIYQQQgghhBBCCCGEEEIIIYQQQgghhBBCCCGEEEIIIYQQQghZyv8fPnV0HcCE1I8AAAAASUVORK5CYII=" parent="2OsGnD8xrRHOEKQomS8l-29" vertex="1">
          <mxGeometry x="40" y="10.5" width="59" height="59" as="geometry" />
        </mxCell>
        <mxCell id="2OsGnD8xrRHOEKQomS8l-26" value="" style="shape=image;verticalLabelPosition=bottom;verticalAlign=top;imageAspect=0;aspect=fixed;image=data:image/png,iVBORw0KGgoAAAANSUhEUgAAAgAAAAIACAYAAAD0eNT6AACAAElEQVR42u39Z4Ac13UnfP9vVefckxMGkRiACCQYAVKiKILKIilRphyUdr1+5LW9K0q2LMsUbcOWxCBpLVHrfbX2er27luVnH9O7FoMkW6ZISiJIMYAgAIIgiDCDMDl07uqK9/3QM8DE7qqe7qmqmfP7QmK6u/p2dbin7j33HoAQQgghhBBCCCGEEEIIIYQQQgghhBBCCCGEEEIIIYQQQgghhBBCCCGEEEIIIYQQQgghK4fZ3QBCiPvsu+dAEy9572cCXnvhsfu+CzBud5sIIdZQAEAIMe/AAWHfYe/HOcc3ALRO//UQwO79xeP3HbS7eYQQ8ygAIISYsvdDX74VhvAIgN2L3MwB9o8eLnz+uSe+eN7uthJCqqMAgBBS0Y13P9wj6OoDnLNPmLh7EcDXA1n1oWefPVCyu+2EkKVRAEAIWdS1dxwIeZn3CwC+ACBo8eEXGcOXKD+AEOeiAIAQssDeu75yB8D+MzjWL+tAnD1rcOGzLz35xSN2vyZCyFwUABBCLtl354N7AOMRDry9joc1GOPfY4L2+ef/6cCY3a+REFJGAQAhZHpZn+9PwPjvABAb8RwcSDOOh5Ja9Fs/+tFnZLtfMyFrHQUAhKxh1376L72ekYl/y4AHADSv0NO+xTj7vReeuO9Ju18/IWsZBQCErFH7PvjV/VzEt8Cx054WsKd0rn325Sf++Ljd54KQtYgCAELWmH13PriFgz8A8HvsbgsAFZx9JyAqf/Ls9w+k7W4MIWsJBQCErBG73/31cCig/D6ALwLw292eOTimOMOf9fqv+ItHH/2obndzCFkLGpLsQwhxEs723em9x+sxHgdwJwCP3S1agCHIgPdm9Kk71/fdduLCyafP2d0kQlY7GgEgZBW74c6vXCeAPQLgJrvbYg1/0uD8My898Uf9dreEkNWKAgBCVqFr7/5qp0/DAQ78BgDB7vbUSALDt0Xu+erBx/8gZ3djCFltKAAgZBWZXtb32wz4MwAxu9tTJ0Mc+NMXr1H/GgcOGHY3hpDVggIAQlaJvXd9+XYYwrfBsN3utjTIy4zxz77w2P3P290QQlYDCgAIcbkbPvzAVkEzvgnG3m93W1YAB9g/6sz4vZcfu/+C3Y0hxM0oACDEpW790IFEiXu/CI7PAfDZ3Z4VVgDwDSo7TEjtKAAgxG0OHBD2HfZ+nHN8DUC73c2x2QXGcP8Lj33pb+1uCCFuQwEAIS6y70NfuYEb7NsAbrS7LQ7zDAc+++LjXzpqd0MIcQsKAAhxgX0f/Eo3RDzIOfs46Hu7FCo7TIgF9ENCiIPtu+fPg7wkfQYM9wOI2N0el0iB4+FcQP3m8UcPKHY3hhCnogCAEIfae9dX7gBnjwDYaHdb3IgDJ8HY77742H0/tLsthDgRBQCEOMy+Ox7YZjD+LQa8x+62rA7sKc5w74uP3feG3S0hxEkoACDEIfbdc6CJl3x/AsZ/G04s2ONuKjj7jhoQ/vjQo1/M2N0YQpyAAgBCbHbrrQc8Usz76wz4CoBWu9uzyk1y4MtUdpgQCgAIsdWNd371nQz4FoDddrdljXnVYOyzLz1238/tbgghdqEAgBAbXH/XV9Z5gK9yzj5hd1vWNv4kBPE//uL7fzhgd0sIWWkUABCygq6940DIy7xfAPAHAAJ2t4cAmC47HPCpX3n20QN5uxtDyEqhAICQFcHZvju/+kucsa+DY73drSGLGmQM973w2H3fBRi3uzGENBoFAIQ02N47vnoNGB4B8Da720JM4HiJg9/74hP3/8LuphDSSBQAENIgN3z4gWZBwx+D8d8BINrdHmIJZ4z/nab6vvDyD78wYndjCGkECgAIqbNrP/2XXs/IxG8z4E8BxO1uD1mWAoBvJNXogz/60WdkuxtDSD1RAEBIHe2968u3My5+i4PvsLstpK5OM/D7Xnj8/kftbggh9UIBACF1cOMHv3wFE8SvAvweu9tCGoeBPQ2mffaFx/74mN1tIWS5KAAgZBl2v/vr4VBA+X0AXwTgt7s9ZEVoDPgbj8ru//mP7hu3uzGE1IoSkwipCWf77vJ90uvRngDYB0F7968lAoBrDQH/rnvbfvmKzlsODQw8a9jdKEKsohEAQiy66Y4Hr9cF4xHGsc/uthBHeBMcv/uLJ770I7sbQogVFAAQYtLNdz7cZUD7Ew78BspXgYTMwp8UBP7Z57//R2fsbgkhZlAAQEgVO+454IvI3t9iwJcBRO1uD3E0FZx9h2vKH734owNZuxtDSCUUABBSwd67vnIH4+xbHNhkd1uIezBg2AAOvHiN+tc4cIDyA4gjUQBAyCJuvvPLfTqEbwJ4n91tIa52iHP+2RefuP85uxtCyHwUABAyy9s+8GBS8xh/AI7PAfDZ3R6yKnCA/aOgGb///A/vP2d3YwiZQQEAIQBw4ICw77D345yzrwO8ze7mkFWpCODrzB98+IVHf1eyuzGEUABA1rx9dzzwDs6MRwB2ld1tIWvCRcbwJSo7TOxGAQBZs268++EeQVcf4Jx9HPRdICvvp4KAzz7//S+9ZndDyNpEP3pkzdl3z58HeUn6DBjuBxCxuz1kTTMY498zOPv9Fx//0qjdjSFrCwUAZE3Ze9dX7gBn3wawwe62EDJLHsB/orLDZCVRAEDWhJs+9NWrdQOPMOAWu9tCSAWnGPiXqOwwWQkUAJBVbd89B5p4yfcnYPx3QMWviGuwpwSdf+75H3zpdbtbQlYvCgDIqnTrrQc8Usz76wz4KoAWu9tDSA1UBvwPhatfOvTEgQm7G0NWHwoAyKpzwx1fvk0QhEfAsdPuthCybBxTnOHPev1X/MWjj35Ut7s5ZPWgAICsGjd96MubDUN8EOD32N0WQuqO4wQT8LkXHvvSv9jdFLI6UABAXG/3u78eDgWU3wfwBwACdreHkMbiT+q6eO/LP/jDs3a3hLgbBQDExTjbd+dXf4mDfQNAr92tIWQFKeDsv4pMvP/g43+Qs7sxxJ0oACCudOOHHryWGcYjAG62uy2E2GiIA39KZYdJLSgAIK5y7d1f7fRpOMCB3wAg2N0eQpyAAa+A8XtfeOz+5+1uC3EPCgCIK1z76b/0ekYmfpsBfwYgZnd7CHEgDrB/9HDh88898cXzdjeGOB8FAMTx9t715dvBhUcAXGl3WwhxgSKArwey6kPPPnugZHdjiHNRAEAc64YPP7BV1Pmfc+ADdreFEBe6wBjuf+GxL/2t3Q0hzkQBAHGcW+85ECnJ3s8D+CIAv93tIcTVOHvW4MJnX3ryi0fsbgpxFgoAiHMcOCDsO+z9OOf4GoB2u5tDyCpiMMa/xwTt88//04ExuxtDnIECAOII+z70lRu4wR4BsNfuthCyWnEgzTgeygXUbx5/9IBid3uIvSgAILa6+c6HuwymPsQ5+zjo80jISnnLAH73pce/9AO7G0LsQz+4xBY77jngi8je32LAlwFE7W4PIWsTe4oz3PviY/e9YXdLyMqjAICsuL13feUOcPYIgI12t4UQAhWcfUcNCH986NEvZuxuDFk5FACQFbPvjge2cWZ8E2DvtbsthJAFJjnwZSo7vHZQAEAa7m0feDCpCfwAGP9tAB6720MIqYQfFoDPPv/4/T+zuyWksSgAII1zeVnfNwC02t0cQogV/EmD88+89MQf9dvdEtIYFACQhtj7oS/fCkN4BMBuu9tCCKmZBIZvi9zzVSo7vPpQAEDq6sa7H+4RdPUBztkn7G4LIaRuBhnDfS88dt93AcbtbgypDwoASF1ce8eBkJd5vwDgDwAE7G4PIaQhXhYMdu/zT973gt0NIctHAQBZtr13feUOgP1ncKy3uy2EkIbjjPG/01TfF17+4RdG7G4MqR0FAKRm++58cA9gPMKBt9vdFkLIiisA+AaVHXYvCgCIZTd8+IFmQcMfg/HfASDa3R5CiK1OM/D7Xnj8/kftbgixhgIAYtq1n/5Lr2dk4rcZ8KcA4na3hxDiHAzsaQP8cy8+/qWjdreFmEMBADFl3we/uh8Ce4SD77C7LYQQx9IY8Dceld3/8x/dN253Y0hltCsbqejGD375CiawP+fABwFa/UMIqcjDgU+WoHYCuNPuxpDKKAAgi9r97q+HQwHl9wF8EYDf7vYQQpzPgHFILkgdBtffYXdbSHUUAJB5ONt31wOf4Fx+GGAddreGEOJ8HLggl4qqoWnXAgADqKqgC1AAQC654c6vXCfggUc4x02UHkIIqYaDZ3VFOaco8i6720KsowCA4Nq7v9rp03CAA78BQLC7PYQQxzN0Q3tLkaQrOOeLdf6UMOQCFACsYZeW9Wn4Mw7E7G4PIcT5DM7PylKhnRvGNrvbQpaHAoA1au9dX7kDIxPfBLDZ7rYQQlyA8ylFkQVNVTeZuMCnEQAXoABgjbn5zi/36Zz9OTh7v91tIYS4gqyrSkZRSm2cuvVVhQKANeLWDx1IlLj3izrH58Dgs7s9hBDnMwxtTC6V2rhhtFl8KIUKLkABwGp34ICw77D34yWDfR3gVr/EhJA1yODGpFKSkoau1/qbQQGAC1AAsIrtveuBG3GIf5sz3EDfR0JINZyjqKolUVPUZvrNWP0oAFiF9n3wK90Q8SDn/ONgtKCfEFIN03VNkWW5FEJ9JvopenABCgBWkX33/HmQl6TPcIb7wRGxuz2EEOfjhp6XS1LEMIyQ3W0hK4sCgFVi711fuYPL0iNg2Gh3WwghzscNXlQVKaRpWiMuFmgEwAUoAHC5vR/+8nZmsG9xzt5td1sIIW7ANUVWRF2VQw3spSkAcAEKAFxq3z0HmnjJ9yfQ+e9wQLS7PYQQx+O6phmqXPIY3LC7LcQBKABwmVtvPeCRYt5f5zK+CsZb7G4PIcT5DN1QFUXyGrq+UhcLNALgAhQAuMgNd3z5thITv8XAqfIWIaQ6g2uKWvJoquq1uynEeSgAcIFrP/2XXu/w5HfB+C9TYE0IMcFQVVnQFMXD7dm/l36oXIACABfwTY7u5Ez8ZbvbQQhxPl3TuCKXBG7jPD9nFAC4AdV+dwFmeAJguGh3OwghzmUYBpelIuRSkdnZ+RP3oBEAF9A1gzPGEgBTAU5zeYSQSzgH15QS01SVcYdceDumIaQiCgBcQOQCMxiPgEGlrxUhBADAAV1XoMgys2men7gcBQBuwunqnxACGIYOpVSCYeh2N2UpFJG4AAUALsBFg4HPr+nDAarzQ8iawjmHqpSgqRoc3sc6unGkjAIAF+BcYAu/T9T5E7JmcA5VVaAqCqhvJfVCAQAhhDiYrqtQSjJcldlPSQmuQAGAC3BuMMboip+QtcQwDKhKCbqm2d0UskpRAOACXBAYo4CakDWhPM8vQ1MVu5tSO8boB8sFKAAghBCH0DUFiiyvghF0CgDcgAIAF/BwgxmU9EfIqmXoGhRZdvKyPrIKUQBACCE24dyAIq/GeX7XD2GsCRQAuADnAqMRNUJWF1WRoSkyLeojtqFiQC7ARd3+8X8OWVXkc5Ojp5/Vde2Y3c0hxK10XYVUyENdzZ0/1QJwBRoBIFVNJyb5Oefri7mUXMylrogm2l6It/T2MrBuu9tHiBsYhl6e59dX23D/IqgcsCvQCABZkq7rKEkFyKXSvKxkznLp0X2DZ15NSvnUzwGU7G4rIU7FOYciSygVC2uj8yeuQSMALsANYUW3Aaq83zi79DfO9dDEyKm3i17fcFtn31mPL3gTaI9iQso4h6aqUFR5LebErbkX7EYUALhAeSfAFRis4RyqpkJTSpZ+r3RV6Rw+f6wzGI4faW7fEmSCuNW+s0WI/XRdgyKXwA0Xbd9L1hyaAnABkQuNvarm04lJUgGqXKXzZ0tf4UuFzFUX+w9tyU5dPAiOcbvOFyF2MQwDSqkIWSqu6c6f0QiAK1AA4ALJK3a0o4GTALquviFLkskfLF65IRxCZmro5sGBQ76SlH0OgLqyZ4sQe6hKCaViHtqqW9NPVisKAFwg2JRsbd22u2HH54ZR92jd0PX4+OCbbxu5cGxQ0+SXG3qCCLENh64p08v6XLx3f51xGgFwBQoA3EAQhXU37UewubUhh+eCIDaq6aosbRgeOHL95OjpV8H56YadI0JWmKHrkIvF6VUya3e4fwkUALgABQBuwBhjHg82v/tu+CKx+h+fw9vol1DMTV1z4ewr67OZ0Z9xINPo5yOkYYzpZX1SATrt3U9cjAIAN2AeEQD8sTj67vxV+KLxOj+BYXo1CFvOMj/OvZnxc7cM9b9qyFLuZwDo15O4B+fQFAXFYg6aSqktVdAIgAtQAOACDMal98kXjWPrB38ZgXiynk9hZTnosrMRDV1Ljg2euGXk/LFzuqYequcLIaQRdF1FSSpAUWjPK7J6UADgAoI4d47eH0ug78MfR6RzXV2Oz2zaD0JVpE1DA4evnRo78zIHv2BHGwipxDAMyKUiZEmCsYaX9dWARgBcgAIAFxAWeZs8/iC2vv8eNG3evvwn4MxCDkD9lyMWspPXXzzzSns2M/ozgOfr/gSEWMQ5hyqXl/WtvlK9K4ICABegAMAFDJEtmqXPPB5svP0O9N7yHjBhOW8lt39HSM59mfFztwwPHC0ocuHnAOhyi9hC1xSUinmoKi3rI6ub/T/8pLoqpTVbt1+FQCKJs//6BDSpUMPhLXwOGG9onS9Nk9tHLxxvDwRibzR1XqGLorircc9GyGW6rkFVZBg65aYuF+0D4A40AuACk2dP9htVlhtFO3ux/SOfRKSzx/LxOeempwC4sTLFfkql7JVD/a/uTE+ce4HDGFqJ5yRr00y1PlmSqPMnawoFAC6QHzyXGjn0QtX7+cJR9N3xq+i67mZY2jqYsYZtBLQ8M2WHX4sXc6mfgsoOk3riHKqqoHRpWR9dtNYL1QJwBwoAXGL48AvIXTxX/Y6MofPam7H1g78Mbyhi6tiMc0d/DjjXwpOjp94xdO7IlKZIB+1uD3E/08WvSI3orLqBo3/4SRnnnIFznPnX7yM/am40PNrViyvv+TdIbDBTmdfcaIEgRhCIbPbbdR50Ve4aPn/s5onhU69xg79lVzuIexmGgZJUXta3lqv1EQIADh36JbN19+3fyoBf47qO9NmTiPashy8crfo4weNF05ZtCMQTyA1dANcXX85kGFrluU8mIhTfi3jnr8Hjaw34wxtEpXgBhmHPiLymljqy6aEkA3/eF4iFGEPIloYQ1+CcQ1VkKDLt278y2Oho/8Hv2N0KUhkFAC7Qu/X2PjD8GgBwXcfU6TcRampFINFk6vHB5jY0b90JOZNCKTO14HZDXzoA8AU3I9H5MQRie8CYB0pxiPsCHUK06QYIYhiKdB6c25I4xWQp15vPjCo+f/BFjzfQBfo8k0Voqgq5VKQEv5U1RgGA89EPpgv0bH9nH8B+debf3NAxdeZNeAMhhNs6TR1D9PrQtGU7gk3NyA6emzMaoGsa5q8yEL3NiLbdhUjLeyCI4Ut/V4rDBhO8ApgAf6gH4cQ14IYMRR625dxwbgSKuckNUn7qfDDcdFoQxG5bGkIcx9B1yKUiNI327V95bHS0/7n/ancrSGUUALhAz7bb5gQAMzLnz4JrCmLdG0xn/QeTLWjavA3S5DiUXLkon65fDgAY8yHc9A7EOj4Kr79jweMVaYgz5r2UOyIIPgSjfQhG+qDKY9BVewr9GbqWzKVHujVVejUUThTBmLnhEbLqlIf7S9PD/ZSLZgcGjIz2H6QAwOEoAHCBnr7btwH41cVuy48OITd0AfHeTRC9PlPHE/0BNG/dCW84gtzQBWiKDMMwEIjtQaLz4/CHt4GxxfNDFWl4TgBw6ZjeKCLJPfAG2qBIF2EYsi3nSlWkzmx6OMpEz0G/P5wEY7YlLZKVpyoylFKR9u23GQNGKQBwPgoAXKCnb38flggAAEDJZ5E6cxLRjh54w+aW/oEB4dYOJDf1QRovIBD9EELxG8GEyv2lUhzmTPAKSx3U629DpOl6MCZCkS4C9iRciXIxsz6fHS/4A5GXPV5/D2jFyyrGoWk6FKkIXad9+x2BYWS0/+Bf2t0MUhkFAC7QvfWd2xhjv1LpProiY/LU6xB9AYRbO03X7PEEgtCVENRCr6n7q0uMAMzGmIhAeCMiyT0w9CLU0qgt541zI1jITayXi7m3gqHEEBOEdlsaQhrG0HXIsgRNVartmE1WEgUArkBXRS4gQDDVnXNdx4WDT+HMv/xfaLJk+vicW9nd1/x9RU8Mzd13o33Dv4Uv0GH6cfUml7LbBgde3V0uO2xctK0hpG7K2/eWUJIou9+RKBpzBQoAVqH0udM48ej/RH74QgOObv0j4w9vQMem30Jz90cgekxOUTRAITt5/WD/q8357PhPOYf1qknEfpxDUxRIxTw0VQHtOOtY9Ma4AAUAbiAYlgvwKIUcTj7xvzH44k/Bq1whMVNfVY5S7ijy6UMFbtSwrIoxhBNXofOKzyDavA9g9nz0uG4EU2P97xg+91puelth+qFyCV3XIUkFKEqJdpolpA6oHPBqxjlGXnsRmfNnsOGdH0CopX2pu1WkycPIjf8AamkA6ZGT+ezE87FE2+0IJ66y3CRBCCDZ8T5EkzcgNfIjSHl7dvTVNaVj+PyxjkAg9kZT1xZDFDw7bWkIqYpzA0pJhq7Ten4XoQjNBSgJ0AW23vyJvWox96FaH69JRUyePAZDUxHpWrdgiV92KAMll1jwOEMvojD5Y2THvg9DSwEApPxkzjBKUSl3AqVCP3zBzpqG9QVPCOHEbvhDvVBKwzB0e0bkNU1uzaVGWhn48/5gNACw8PKPSuqBc0BTZSilEgx7dpsktRse7T/4V3Y3glRGAYAL7P7gf3y/6PXtl7Pp2g/COfIjg8icO41Ieze8ocv9XH5+AMB1SJkXkRn5e6ilAcwO5qX8ZA5AFAB0NY18+hVoSgr+cC8Ewdw+BLN5fE2IJq+DIIagFC+Ac1uWcTFZyvXmUmPweAMveP3BDtDomI04dK28fS8t63MphqHR/oP/ze5mkMooB8AFRFEUNtz2/jmddq2kyXGc+P7fYeS1Fy+N/c+eAlCKZzB18b8gN/ED8EWL/cxbMsA5CunXMPzWI8hO/Byo5UqNCYg270XX1s8h2rwPzOSuhvU2U3Z45PyxUU2VX7ClEWucYejlan0l2sWPkEajEQAX2Hbbp25N9G55Z7i1E6mzJ5dfxtQwkBs8h+zFAUQ7elCcUlCcMpAffwz5yR9XHI6X8hN5TI8AzMa5hlLhLArZ1+HxNsHrb7bcLCZ4EYxcgWB0O1RlHLqaXulTXT49upbIZ0bXqbJ0OBhO5Blj1l8MsYRzY3r7Xpmq9a0CHBgcoxEAx6MAwAW23frr74x1rbvVF40j0rUO6bNv1qWWuVrIYeLkMSiFHNIXnoCmVN+wRypMFAAsOelv6BKKmaOQpfPwBbsgeqyPWoieCCKJPfCFuqFIF2DodpUdljpzqeE4gIO+YCzCQGWHG0FTFCiyROv5VxEGDI72H/xru9tBKqMpABcQZ42JRzt6sOk9d0P01WeLe0NTkR89AQ5zP77c5E5ApfwZDJ/5/yE18iNwvba6AMHIVnRt+QySHe+HINizpT8H92SmBt8+dPZVUZZyPwNAk9J1ousqpEIeikLD/YTYgQIAN2BszkhNrHs9tt31MfgisbocvmE/vdxAbvIFDJ76JnKTv6jtR56JiDbvReeWzyCSvM501cN6MwwtMTZ44paR88cu6Jr6ii2NWCUMw4AsFSFLEg33r14U0bkABQAuwBbJigs0tWDbhz+OUEvbirallm+1oReRGvkhRs/+V8iFgZqeV/RG0dR1Jzo2fhr+oLm6BY2gKtLGoYHD102NnXkZHOdta4gLXdq+t5in7H5CHIACABfgIls0V8MbimDbXR9HS5879rBRSsMYHfgbjJ//HjQlVdMxfMFutG/6d2hZ91F4vAnbXkshO3n9hbMvd2Yzoz8DkLOtIS6hawpKl7bvJaseoxEAN6AAwBWWfpuYx4P1t74f627eDyasxNu5/DF4KXcSw2f+M9Kj/wrDqCU/gCEU24nOLf8B8bZ3ggneFXjdi+Dcmxk/d8tg/6vqdH4AZbHNY+g6SsUCLetba+jNdgVaBeAC63e/b1fTxm3vqZR+F27rQrSrF9mLAzAsXmXpugbDMNd3SYXJIoDlb0jADcjF8yhkjkAUw/AF2mGl0iAwq+xw4moYugS1NLLsZtX0Ui6VHc68FYwkhxijssPcmFnWRx3/GnVxtP/gf7e7EaQyCgBcoLntqg2BWPyXgs2V5/t90Riat+5AKT0JOWN+iF3XVRgmlxXWLQCYxg0ZUu4EpPwpeP3t8Hjjlo8hiAGEYtvhD2+AIo3A0PP1ap4luqa05FLD7bpWejkQToKB1SdL02VURYYsl2hZ3xrGwC6M9h/8G7vbQSqjAMAFerfetis7eO4jiY198ASCFe8reLxo2nwlPIEAckPnTVVNK48A2BMAXGqDlkMhfRiamkIg1ANWw7I/jy+JaPI6eHzNUIrnwbk9xWNUWerOpcZEjy/wgtcX7IXVoQ1X4tA0vbx9r0YJfmsdAygAcAEKAFxg3fb9uw3d+Ej2wlkkNm2tvgcAK08JxHs3Iz98EVpJqnh3XdfNTQEwAUpJlrkhB6vfuTZqaQS51CsAdPiDPfNXQJpoI4Mv0IFI8loADLI0CDtWJPn8QV8omtzg8fhXfedvGDrkUgmaKlOZXjKNn6cAwPkoAHCBddv27wLwEV0uIXPuNJIbTQQBKK8SaN22G5wbyI8OLXk/M1MA3uBGJDo/hkBoo4+JAUGRLgKNWsPNdciFARSzr0P0RuD1W1/qyAQvApHNCMV2QldT0JTJxrR1HkH0ING8Dsm2DfB47dm8aKVwzqEqMm3fSxbi7PzowMH/YXczSGUUALhAT99tuwF2NwDocgnpgdOI9W6qOh0AAEwQEOvZgGj3euSHL0CXF26rW2kKQPDEEW39IKIt74cgRiCXRhGMbGWR5B4YehFqqfr2wbUydAnF7HHIxXPwBTtqKjssekIIx2fKDg/B0IuNaSxjiCQ60NpxBfyhqG0FjVYE59BUlbbvJZVQAOACFAC4wOwAACgHAVOn3kCkrQu+qLmkOX8khpYrrwIMA4WRuaMBi00BMOZFuOlWJNp/GZ5A96W/K8UhgwleQRD8CMW2IxDeCLU0DF1rXOKdpqaQT02XHQ6th1DDsr9y2eHrIYghyNL52qoWLiEQiqGlcyvC0ZYVWoppH13XoJQkaJo9+RXEJRg7N9r/HAUADkcBgAt09+2/igF3z/4b1zVMnTkBfzSOaqsDZsyMBoQ7usujAUp5Df78ZYD+8DYkuj4Bf/hKYN4cvCoNc8a8l3o5jy+ByEzinXQB3GjcRi9qaQSF9KFyG4M9ALPY2TIGf6gH0eR14FyHWhpcVns83gCaOjYh3tQDUbRpL4IVYhgGVFmCqsi0rI+YwM5TAOB8FAC4QM/W269iDB9ecAPnSPefglbMI7Zuk+lhZ38sgZZtu6DLJRQnRi/lAHj8nYh3/gpCyVvAhMWnF5TiMGeCd27PO5N413Rt+T7SEIDGzAnPlB0uZo/D400ur+xwpA+aPA5NzVh7PBMRa+pCc8dmeH0Ny4d0CA5VUaCWSqZXihAC4Nxo/8H/aXcjSGUUALhAT9/+xQOAacWJUeSGzyO+biNEr8/UMQXRg/j6LYi0dyE7OIpA+O2ItX8IoidZ8XGl4jAEwbtopMGYB4HIZoTjO6EpjU28M/TirLLD3bWVHfZGEU5eM112+LzpssOxRCcCoTgE0beK5/o5NE1DqVSEQcv6iGVsYLT/uf9pdytIZRQAuEDv9tuuBpYOAABAyWcxdfoEwq0dpvMCAMAfT4KxFujyLphZrq5II5wxT8U7CmII4cRM4t0wDL3QsHOjKeX8AEOXEAj2ggkey8fw+poRSV4PQfRBkS6CV8kPCITiCMdawHl5WJwJIpjV6QgHM3QdiiyV9+2n0X5SE3aOAgDnowDABdZt238VqgQAAGCoCiZPvQ5DLiHavcH01Wl+OA05kzB1X0Ua5YyJpg5cTry7DqI3Blm6AG40KnGMQ5EuIp86BMY88AW7LV+ZMybAH1qPcOLqqqsbAsEY/MEoGBMgesojLqpcdH8gYHAotH0vqQPOMTA2cPB/2d0OUpmLf63WDs4t9GYcGD12CCcf+x7knLW5bTMsF/liAiLJ69C15V5Em/c1dMj8Utnh/r9EqXiupmOI3hiau+9Gx6ZPwx9aZ+4lMgG+QBgCE6DIBRiGy4bMOYemKCgWc9BUyu4nZK2gAMANOLfcaxbGhvHm//lbpM68WfW+ZnO7NHkMpeL5mtbPCWIQyY73oX3Tb8Ef3tDQ06VIQxjr/+/TZYfTNR3DF+xG+8bfQHP3RyB4onNvXOrdYAw+fxiC4IGua+AmCyzZSdd1lKQCFMVc/gMhZjAqB+wKNAXgAj19+68Gw4esPs7QNaTOnkQpNYlo9zoInsWXquWGM1CyiQrHkVBMPY3c6P/F+OC/FhTpgt8X7Kot8c4TQSSxZzrx7oLpxLtaaMok8qlXwA0FvtA669sKo7y6Idp0PZggQileBGAgECpPAVQiCAIYE8ABjQElAI5aJ8gNAwot6yON0z/af/Bv7W4EqYwCABfYeP2H9xqK/MFaH19KTWDyreMIxJIIJBcum8sNpaHkEgv+zsEh515DZvh7UIqnAXAU8xOyrqT89Ui8izbdAEEMTxfuadTV8kzZ4deWXXY4HN8JXSvAI5aqBgCXHlseZfOW/5/psHnU7dL2vUoJnJb1kcahAMAFKABwgV133Pshrqm3aFLt29gamorUmTfLowE9vXNGA3KDmQUBgCL1IzfyPUiZl8H55c19pPykAsBfj8Q7MAH+UA/CiT3ghgJFHm7YOaxP2eEQQvEdEEUFApMsPx42d/66pkAu0fa9ZEWcpQDA+SgHwAU8IhM37b8Dgmj9Snu+1Nk38cY//A9kzp259LfZI8CGlkF27P8gPfg3UOWRxQ4xp5e/lHh39r9CLgzU1CbRG0VT153lxLtgb0PPpSINYnTgrzE5+H9r3r7Y4000tI31ZugaSsUC5BJl9xNCLqMRABfY/o5Pvrvpih03e8NRZM6dWvbxDFXB1JkT0Ap5RLt6kR/NQ86GUUw/j+zo/4ZWYYtcKT+hAFiw25Cu5VFIH4ZSGoI/uA6CaH2HPNETQyS5B95AGxRpEIbRuPwAtTSCfOplADr8oXXWlu/xScCYaljb6qU83F+CIitUrY+sLI6zowMHv2t3M0hly7+kJA3HucAAoKVvJ2AYOPfzf17+Bi0cGD9xBNnBAXiiWzB17h+ga2aWDXJWaQ5dyp1EqXAG0aZ9iLXeAkGwWhKXIRTbiWBkK7KTB5GdeK5h+wdwQ0Fm7BkU0keRaN+PUGynucc5/Sqac6iqAnW61gMhhCyGpgBcgHkuX562bN+NdTe/C8xiIttS5GwGU2cOmuz8zeGGhuzEzzF8+tsopI+glmiFCT7EW9+Jri2fQThxdd3athhNmcTEhX/A2MD/bGh545Wg6yqkYoE6f2IrWgboDhQAuACbNz7dtmMPNr3nriWX9Vln5btqPvDQ1RwmB/8PRs7+FeTihZpaJnrjaO6+G20b/i28/o46vd7FlQpnMXLmO5gaehyGVnvCpR0Mo7yeX5YkGu4ntjNoE2lXoADADfjCCerEhq3YeuevwBO0vhZ/mSwPPSjSIEb7y4l3hpar6UkD4Y3o3PxbaO7+CESxca+Zw0A+9QqGznwb+amXFx3uZ8xZv226rqFULFJ2PyHEEgoAXIAtkaEWbu3E9rs/gXBr5/KOvyKvgqOQfg2Dpx5BZvyZ2ub1GUM4cRU6t96LWMvbAcsb+5hnaEVMDT+BkdN/gVJ++YmXjWQYOuiCizgJTQG4AwUAblBhgb0vEkPfXb+Glm27V6gty4sXZhLvhk//5+n8AOsEIYBE+7vQtfk/IBjd2tCXqyrjGDv33fK2wmpq+kU09Cmtc1p7CCGuQMsAXWDz9R95e2LDlrcvdTsTBCQ2bIE3GEZ2cGDuwn4TdF2DYXJXOKkwoaEO29oaRglS7gTk4gB8wU6InojlYwieEMLxmbLDQzD0xs3ba8okclMvT+9+GAV4/Qst1crQdRr+J87C+enRgYPfs7sZpDIKAFyguWXXlmhX7wd90cq714XbOhDv3YL80Dlosvk19Lqmmg8A8hM66rh8VFPTyKdegaak4A+thyBYjy3KZYevhyCGIEvngYZtK1ze/VAUFfj81vc5aBQKAIjjMHZqtJ8CAKejKQAX4Nxg/T95Elqp+hVuqKUN2+/5t2jfdW2jmlP/lAFezg8YPv0IshM/r60DZwKizXvRfcXnGl52mBvK8g9SRyuTw0EIWW0oAHAJpZDD2X99HIZWPXlOED3ouWk/NrzzAxB91Tfi4Q7pQgxdQnr0XzF85r9Ayr1V0zEEMTRddvjfN6zscLC5FcxDe2gRsjSn75ZFAJoCcIWevtuvB/ABJZdBfmQQyU3bIIjV37pQcxuarrgSUmocSnbpOWtd06pWhhPEGCIt70MgeqWgqzmmKZMNe72GXkQxcxSydB6+YHeNZYejDSs7vPUdH8KWd30IjAkoTozZXlVPpykA4jynRvsP/r3djSCVUQDgAt1b33kDY+wDAKDksyiODSOx4QpTxYFEnx/NV+yENxBEbvjCop2VrqlLdmIMIkLxvYh3/hq8wV5opSlEmq5j5cS7YRh6oWGvW1NSqEfZ4UjyegiiD4o0WJeyw11XXo/kxj7EejagdftVEL3eciBgUydMOQDEaThjb41RAOB4FAC4QE/fbdfPBAAAIOcyyJw/g3jvJoj+QPUDMCDc1ommK65EcXIMSi475+alRgD84W2Id30SgehuMFbufEvSEATBx8qJd9dB9MYgSxcatl9/PcoOMybAH1qPcOJqGHpx2dv9du64AfGejQAAwetFtKsXLdt3TwcC4+C61qBzsTgKAIjTMLC3Rvuf+3/tbgepjAIAF+jZvv8GBrx/9t80qYjUmZOIdvfCGzK3hM7jD6Bl606IXh9yIxeB6U5/fgAg+loQb/8lhJveuaCqn1ocBhO85R6YMfiCXYgkrwXnOtQKVQSXi3MVpfwplPJvweNvrakkryD6EYptRzC6Fao8Bl3NWj4GAHTtuBHx7g1zj+0pBwKtO66G6A+gODG6YoEABQDEeSgAcAMKAFygZ9vCAAAol/WdPHUc3lAEoZZ2cwdjDJGObiQ2bkVxbBhqMQ9jehmgIAYRatqPWMcvweNtXfThSmFWADBzSMGLYOQKhGI7oSlT0JTGlcrVtdysssO9EEQTIyDziN4YIslr4PE1Q5YuWs7q7955I2LzAoAZguhBpKMHbTv2QPT5IU2MwWhwIEABAHGgk6P9BykAcDgKAFygt++2GwH2/kVvNAxkzp2GVswjum6j6br23mAIzX27IHi9yF0YgDe8C/HOj8EfugKswuIQVRpkTPAtepvoCSOcuKqceFe8AMOoX+LdfJoyiXzqFXBDgS+0DszytsAMvkAHok3XgwkiFGkQMFlEp2vnXsS61lc+uigi0tGD1iuvhuj1Q0qNm1rBUQsKAIgDvUUBgPNRAOACPVv33wiG91W6T3FiFLnB84j1bDC19A8o7zAc6egB83SD6TdjqY59NlkaBmOVN+vx+poRbboBghiGUjxfl8S7xRmQi+dRyLwGUQzDF2iH1VXxjIkIhDciHN8JXStAlceqPqZ79z7EOntNHV8QPYh09qB957Xwx5sgZ1PQpPruWEgBAHEednK0/7n/bXcrSGUUALhAT1/1AAAA1EIOkyePwR9LINjUYvr4hdEs5EzC1H2V4oi5bHwmwB/qQTixB9xQoMjDDTs/3JAh5U5Ayp+C198Ojzdu+RiCGEIovgP+8Hoo0ggMPb/kfbt3mQ8ALp8OAaHmNrReuQeRzm7osgw5W5+pEloGSByH4c3R/oMUADgcBQAu0LP9tr0AqxoAAADXdaTOnoScyyC+bgOYUP0tzo2kTQcAqjR8aUWAGYLoRzDaV068K41D1xq3h76u5VDIHIampBAI9YAJ5kZCZvP4kog0XQuPNwZlidUNPbtvQrRzXW2NZIA/lkDTlu1IbNgKxjlKmRS4UXsHTgEAcRyGkxQAOB8FAC7Qs+22G80GADOkyTFkz59BtGMdPMFQxfvmhtJQsomqx+SGDCk/AFEMVb3vfKInhkhyDzy+JJQaEu+sUEsjyKVeAaDDH1pnOi9iBsO81Q3SEGaX3PMFIkh0b4InsLx6AN5QGPH1W9C2Yw98kRjkfLam6QGaAiBOw4A3R/sP/n92t4NURgGAC3T37d/LgPdafZwqFTHx5hEAvHzFusT6+dxwtQCAo5R7DZmR72Hs/OPTiXc9lkYCyhh8gc6aEu8s4zrkwgCKmdcheiPw+tssH+LS6ob4TuhqCjO7HzLVQObMW5AzaYSSLcsOBATRg3BbJ9p27EGsez0YY5BzGdPLCCkAIE5DAYA7UADgAht3vP9thqG/u6YHc47c0AVkLw4g2tGzaGeVG0pDySUWfbhaGkR25P+FlPkFuKGgmBublXgXWVbiXSRxNQxdgloaadi5M3QJxexxyMVz8AVqKzsszis77PP74POHIU2NY+yNw3ULBADAF40hsWEL2nddh1BrBwBAyabBKwRKFAAQp+HAiTEKAByPAgAX2PXe3/qIJhdvMtTal5GphRwm3jwKJggId3SDzeq0c4MLAwBDyyE/+SPkx5+YM28v5ScAlCviLT/xLoBQbDv84Q1QSyPQtbzlY5ilqSkUUoega1n4g+vAllF2mGEKonj56nwmEFAyafgTzfAGrU+RzMcEAYFEM5Kb+tCx+3pEutbBFw7D0FRoJWlOrRWuGdCNld19kJBKGHBitP/gP9jdDlIZBQAusO22T32wffcNN06deWNZx+HcQG7wHHKD5xDt7IUnUN5EZ84IANchZV5EZuTvoZYuLDiElJ+Yc7k/szGPKo/DH+qpaWMejy+JSPI6eHzN08sGG7itcGkI+fQhMOaFL9Q1JxAyhTEIQgHgC5MZpalxTBx/DcWpMfijCfjC0bq0mgkC/LFEufbAlVejY89etGzbhcSmPrRduQfeSATp82cadM4IqQkFAC5AAYALbHvbx97ftuu6G7iqID86tOzjKfnyaIDo8yHc2oXsUAZKLgGl+CbSw3+HUv4osNjafQ4uFSYW7TFVeQz51CEAOvzBHusb87DyxjyRpusAALI0iNmJd/XEuYZS/hSkzHF4/U3w+JqtHcAYWzQAmFFKT2HizaPIDZ2DNxBCIN5kdZakyqliEP0B+CMxeMMR5AbPI0UBAHEShjcoAHA+CgBcYNstH/9grHfT9bHujdBKRRTHlz9nzg0D2Qv9KI4Pw9ACmBr4FxSmngU3pIoPWyoAKN9aTrwrZI5Mb8zTYbldjHkQiGxGOLYL2qzEu0Yw9CIKmaPT2wr3LKh7sCR9tGIAMEPJZzF1+gQy505D9PsRSDRbLmRkRnboHNLnKAAgDsJoBMANKABwgW23fOKO2LpN14EBsd5NUAt5FCeWV9FuhpxJITN0HJo8UfW+HDCkwkTVNXUzG/PIxQH4grUl3gnzEu8Mvb67582mKZPIpV6CoUvwmyk7bJgLAGaoxQLSZ9/CxJtHYGgqgk0tEDzWcxCWkrkwgPSFsw07P4TU4I3R/oOP2t0IUhkFAC6w7R2fvCO2buN1QHmNemL9FjAG5IYvLPfQAABdUxctB7wIbiYAmKGpaeRTr0BTUvCH1kNYRuKdIIYgS+cXn5qoi3LZ4UL6MATRD1+gc8llk4yPWQoAZhiqitzQBYwfPww1n4UvlqxLwmD2Qj/SF/obdF4IsY4BxykAcD6rC7mJHfi8QI0BndfeDF8kjnM/+2eznffyMW59Up5zFNKvQcqdRKzlbYg13wRYzg8QEG3ei3BiNzLjP0V+6hfgNTTFDF3LY2roceRTh5DseD/8ocV2/FvecxuaivETRzB+4ghCLe1oufJqNG25EqK31lGBxpwLQsjqRiMALrDt1k/dGevZcM38v4da2hDp7EHmwtllVZrTVa3iOvMZDEyX8hM1fWY411AqnEUxexwebxJev8XEO1zemCcY3QZVmYCuppdzWiufk1mrG3zzVzdYnAKoRC0WkDl3BuNvvAa1kIMvEoU3GLZ0jMyFfmQu0ggAcQ4OHB/rP/iPdreDVEYBgAtsu/VTH471rN+z2G3+aBxNW7ajMDoEtZCr6fi6Zi4AAGDUGgBcOoBeRDFzFLJ0Hr5gN0SPtc4OAERPFJHEnnLZYekCDL1xZYdVeQz5qVcAGOX9A5gAbjIJ0AquayiMDWP8jdeQ7j8JrVSENxQxtblQ5twZZAYHGnYOCKkBBQAuQAGAC/Tt+5X3xtdvvm6p20WfH81X7IBaLNSUHKjpJnMAONelwmRdPjOakkI+9QoMXULATOLdIry+ZkSS10MQfVCkwcaWHS4MoJA+DNEThtfH6h4AzDk3UnE6V+BVpAdOQS0WwBiDNxQBExamYKQvnEHm4rmGtYcQqxjnr48OUADgdBQAuEBT29W7k5v79le6GmSCgMSGLfDHE8hePGepupxmPgmwbgFAWTnxLp86BMY88AW7LS+TY0yAP7Qe4cTVMPQi1FJ9Vkcs2trp1Q2+gAhvzfP11mhSAfnhC5g8+TpGj7yM/NB5FMdHIE1NQM6lkR++gIm3jkHO1zb6Q0iDHKcAwPkoAHCBni233lwcG7q9qW9n1cp2oeY2NG/ZjsLYsOkpAQurADSpMFn3xFHOVZTyp1DKvwWPvxUeb8LyMQTRj1Bse7nssDwGXc3Wu5mX+INh+PzWpy6Wf54MyLkMCmPDyA0OIN1/CtkL/SjlsjCWUU6YkLpj7PXR/oP/x+5mkMqs1UkltimMj+DCc/9qKuHbF41j652/irZd15nbgc50EnmDUu+nKdIQxvr/O8bPfw+akq7pGL5gN9o3/gaauz8CwVOfrXjn8/isb3dMyNrS2N8KUh80AuAC3dtvfzsDbi9OjEIt5pDo3VK1Y2dMQHzdRkQ6upEfugBdkZe8r66p1ZMAmYhw4mZ4/BsEVR5taOKdpkwin355uuzwOuvbCqO8rXCjyg5ve9c9WLf3NiiFLJRs43IBzNJ1jUYAiNPQCIALUADgAr19t70dwH4AKE6MQpMlxHo3mipk448l0LJtFzSpgOLk2KL3qRYA+IKbkej8GPzRqwVDKyHW8jYIYhiKdL5xiXfcmFV2OLysssPh+E7oWgGqPGbp8UvpvPIGtG67Cs1bdyLWswFaSYKcmWrMeTCBAgDiPOzYaP/B/2t3K0hlFAC4wLq+/ZcCAAAojg1Dmhov7wgoVH8LBdGDxIYrEGnvQm7oAgxVmXP7UgGA6G1GtO0uRFreA0Esz3nL0iAEIQB/qAfh+B5wQ4EiDzfstc8k3i2v7HAIofgO+MProUgjMPTllR3u2nkj4t0bAAC+SAxNW7Yjvm4DVMmeQIACAOJAFAC4AAUALtCz9fZbwC4HAEC54lxu6DwS6zdD8PpMHccfT6K5byfUXA5S6vLe//q8ZYCM+RBuegdiHR+F1z+3oI9SGAITys8niH4Eo33TiXfj0NXGDYfPbMyjqSkEQj1ggt/yMTy+JCJN18LjjUGRLoAbtW2e1LXrRsS7Nsz520wgkNx4BbRSCaV09doK9WIYGgydAgDiHIyzo6MDz1EA4HAUALhAT9/+t88PAABALeSQOv0mIh09pmvPCx4vkpv6EGxqQW74AgxNhabOjAAwBGJ7kOj8OPzhbYuuOJClIQjC3IBD9MQQSe6BN9AGRRqEYTRwY57SCHKpVwDo8IfWVV0VMR8Dgy/YhUjyWgCsprLD3Tv3Ita1ftHbvKEwkpv7kNywdcUCAUOjEQDiLJzh6Fj/wX+yux2kMgoAXKBn+223ALhtsdt0VcHkqePwBiMItbabPmYw2YKWrTsgZzPIj49A9HUi3vmrCMX3Vry6VouXRwDmYvD62xBpug6M1T/xbo7pssPFzOsQvRF4/W2WD8EELwKRzQjFdkK3WHa4e+c+xLp6K95nJhBo2tgHXVMhTY035lwAMGgKgDgPBQAuQAGAC/Rs279kAAAA4ByZc6ehFfOIdW9YdLe4xQheH5o2bwPXE/B6PwjRU31+XZZGwNjSm+DMJN5FElfD0CWopZGGnRdDl1DMHodcPAdfoLayw2INZYe7d+9DrLPXxNEBTzCE5MYr0HzFDjAGSFMTdS/eRDkAxGkY2JHR/ucoAHA4CgBcoKfv9negUgAwrTgxivTAW4h0rrNUUEaaLEHOJE3dVykOg5ko6yuIAYRi2xGIbIRaGoauLS/xrhJNTaGQOgRdy8IXXLfsssPVVjf07L4J0c51Fo4OePwBxNZtQtvOa+ANR1CamoA+LxmzVhQAEOdhRykAcD4KAFygu++2dzDgnWbuq5UkTJ58HaLPh3Bbl6nj50bSUDIJU/dVpREwZn4zQI83gUjyOnh8zVCK58F57VULK+NQSkMopA+BMS98oS5TyyTnYAz+UA8iievAoUMtDS56t57dNyHaYS0AmCGIHoTbutC24xr4Y0mohRzU4vKCI52SAInTMBwZ7T/4fbubQSqjAMAFevr2mw4AgPKWsdkL/ZAzKcR61kMQK3fYuaE0lGzCzJEhmxwBmIOVN+aJJK8F5zqU0hAaVcOecw2l/ClImePw+pvg8S2j7HCkD5o8Dm3e6oZ4ey+SG7aaWoK59HMICLW0oWX7VYiv3wxwA6V0qqbpAZ2SAInTcPba6MBz37e7GaQyCgBcoHfb7bfCQgAwQ5oax+RbryOQaEYg0bTk/XLD1QMATR5Gevh/F8fO/5O3vDFPB6ya6VjDsV3QLCbeWWXoRRQyR6GUhuAP9kAQq5fVnU/0RhFOXjNddvj8pd0PjUIJ2bOnAcYQam5bViAAAL5wBIkNV6Bt5x54w1FoUgFqsWD68TQFQJyHHaEAwPkoAHCB3u2338o5v7WWxxqqiqkzJ6AV8oh29YKJC9/ybIUAwNCLKEz+GNmx70NTJqVibsgv5U5ALg7AF6wt8U6Yk3g3DEM339lZpSmTyKVegqFL8C+n7HDTdRAEPxTpIoLhOETBg+zFAUy8eRTgHKGW9mUHAuXpgU60Xnk1Wvp2whuKQM1nocmVl1XSKgDiNIzhtdH+g4/Z3Q5SGQUALnDlu379Hq1YuGE52ePFiVFMnX4DoeY2+KNzs/1zQ2koucTcB3AdUuZFZEb+HmppAAAH51wuFaf8AKCpaeRTr0BTUvCHexfsDWBGOfHuOghiCLJ0HmjUtsLTZYcL6cMQRD+8gc4ayg6Ll8oOc2MUHk/58YamIjd4DpMnj4EJAoLNrcsOBABA9AcQ6ehB285rkdhwBfyxBBgARcoD8z4HFAAQp2GgAMANKABwge3v+NRHmrZcuSd7oX9Zx9EVGZOnXodWyCPStR7C9GhAbnBuAKAUzyAz+j2Ucq8BXLt8AIaSVJicUwpPLY2gkHoVAOAP9gAWN+aZSbyLJq8D50sn3tUDNxRIuZMo5d+C199W47bCfohiEeBzSy0bqorshX5MnDgKrmsINbdC8NSncrI3FEakoxvNW3eg/arrkdzYh3jvBkTaupDYtBXeSBS54QsNO2+EWMWBw2MUADgeBQAusPVtH/tQ9/W37ClOjNZlr/nixChSZ95EsLUd/kgM2aEM1FwCmjqF/PhjyE/+eIlheS7PDwCA6cS7wlkUs8fh8Sbh9S8j8S66DaoyAV1NN+x8zmwrrMrj8IV6IIgWy/vykQUBwAxDU5EbOo+x44ehSwUEmloh+qxvW7z0eRLgDYURSDQj3N6FcGsHCuMjSJ8707DzRYhlDIfH+g8+bnczSGUUALhA380f+3B8w5arExu2oDA6BCW3/D33dbmEqVPHYWgquBZC+uIR5Eb/AZpSaeMeoyQVppbsLQ29iGLmKGTpPHzBboge83sRzBA9UUQSe6YT7y40tOywKo8hP/WK5bLDTB9eMgCYwQ0dhbFhjB8/DCWfRTDeBE/AeiKiGdnBc0ifpwCAOAgFAK5AAYALbH3bxz6cWL/5KiaISG7aivzIRSj57PIPzDnyI4NIn3sNpeJpAFVyDDgkqTBZtRfTlBTyqVdg6BICy0m8S14PQfRBkQYbV3YY02WH069B9JgsO2xUDwBmn+PixCjG3ngVheFBePwBBOJNVisbV5S5OID0+bMNOj+EWMc4Xh0doADA6SgAcIFtb//ER+LrN+0GACaKaNq8DaXUJErp+pSe1TRl0XLAC3BeMhMATN8ZinQR+dQhMOaBL9hdQ+KdMJ14tweGXoRaGq3viZ3d2ktlh0/DF2iH6I1VuK+FAGAWOZfG1OkTSJ1+AwAQSLZeysNYjszFAWQuUABAHOUwBQDORwGAC/S94+Mfia8rBwAAwIRyEKDLMgpjw8s+vq4p4NzExjyGIUnFKUvj2JyrKOVPoZQ7CU+gDR5vwnL7BNGPUGz7dNnhMehqHUY/ljwXWRTSr0JXc+X8gMVWN9QYAMzQ5FI5YfCNI9CKeXjDMXiDoZqPl71wFullJogSUleMvzraf/AJu5tBKqMAwAX6bvnEL8XXbdo154+MId67CZ5AELnBAcBMB74ETdPMjgBYDgBm6FoehfTh6Y15eq0n3gEQvTFEktfA42uGLF0EN+qzl/5ilNIQClMvgy9WdpgPAXz5tQ0MXSvnCbxxGJlz5Y2FgommRfdqqCR94SwyFwcadi4IsY4dogDA+SgAcIFt7/jEL8XWbdy52G3htk5Eu3qRvdAPo8biMpqmmgoAODekUo0BwKXnUiaRT79sOfHusvK2wtGm68GExpYd5kuVHdZHljUCsBi1WEDm3BmMHz+MUnoKTBThi8bmBh5LyJ6nAIA4Do0AuAAFAC6wdd+v3R1fv3nXUrf7ojE0XbEd+dFBqAXrHZOmmpsC4ODFUmGq9rHqSweaTrzLvIbytsImEu/mmSk7HE5ctcJlh7sgCNm6BwCXTo2uQ5ocw9TpN8rBQGYKYAzeUHjJmg7p82eQGTzXsNdPiFWM8UOj/QeftLsdpDIKAFygfd11+5q37bpJ8CxdhEf0+tC0dQe4pqEwNmTp+JqqmgsAOJfqEgDMHO9S4t0peP3tNW7MUy477A9vgCKNwNAbXXb4FQRDEYieOqbxL3V+dA3SxBhSp09g5MhLyJ47g1JmCmqxAK1UhKHrkNNTmHjrGKRU4+oqEGIVY6AAwAXqs1UZaShVKijnf/ZjbHrXXRXvJwgieva9E7HejRh4+gfmC8qY7Mt4g0r4KdIgRvv/GuHEVUi2vwuCJ2r5GIHwRnRu/i0UMkeRHv0RdK3YiKaCw4CmpuD1Ny3/YJaemKMwPoLC+MKRDkVu3F4JhNTCMFhjyn2SurK4byuxA+eMpc6exOixQ6buH+vegO0f+RRi3etN3b/x17KmXiUK6dcweOoRZMafATdU64dgDOHEVejcci9iLW8HLOcXmH8eZ6HfWkKIdTQF4AI9ffv3M+DtuQsD8EaiCLW0V33MzJSA4PUhP3JxQQGZ2XTN3BSAL7RZ8Xg7AkppuGGJd5hJvMsen5t4ZwETvAhENiMU2wm9AWWH+/bfjeatOyFNjteceFlP5XLADXo/CKkBY/yV0f6DP7C7HaQyCgBcoHfrbbeDsbcBQPbcGXgjMVNBAANDpKMbiY1bURwbhlpcfH5cr5IDIHjiiLZ+ENGW9wcAAdHkDSuceFdb2WFxTtnhIRh6faYFunffhK49N6Ft5zXwRmIoTozZGgjomk7VAInDsJcpAHA+CgBcoGf7/ncBeNvMvzPnT4MBiHb2mhq/9wZDaO7bBcHrRWH44oLOfqkAgDEvwk23ItH+y/AEugEAcnEQoieGUGw7ApGNUEvD0LVGJ94dgq5l4QuugyB4LR+jXHb4+rqVHe7eeSNi3RvABAHh1g607rwGvkgM0sQYdBsCAV2jcsDEcWgEwAUoAHCBnm37b8esAAAAckMXoOQyiK3fZGqtOGMMkY4eJDZegcLY0JwEQW2RKQB/eBsSXZ+AP3zlnLl0pTAENr07nsebQCR5HTy+ZijF8+C8hnl7U3h5Y570ITDmhS/UBWY1c6GOZYe7d+ydk1/B2OVAIBBvgjQ1Dn0FE/N0XaUpAOIsjL082v/cD+1uBqmMAgAX6Om77V0Au3n+36XJMeRHLiLeuwmi12fqWN5gGC19u8A5R3603AnODgA8/k7EO38FoeQtYMLCPX9kaWju9risvDFPpOk6AIAiDaFqUaEaca6hlD8FKXMcXn8TPL5llB2O9EGTx6Gp1isrdu/ci1jXwgRLxgSEmtvQumMP/PEkSqkJaCsQCGi6Dk4jAMRJKABwBQoAXGCpAAAAlFwWU6ffRKS9G76IueVzTBAQ616PeO8m5IcvopTPgglBRJrfjVj7hyB6kks+VpGGwNjCYIMxDwKRzQjHdkJT6p94N5uhF1HIHJ3eVrgHgmh9c0LRG0U4ec102eHzlsoO9+y6CdGu3qXPL2PlQGDnNQg2taA4NQ69JDXsfOi6RgEAcRTG8dLowEEKAByOAgAX6O7b/24G3LzU7YaqYOqt4/AEQwi3dpg+ri8cRcv23VCyHgTC98Ab3IhqSQWKNALGlp6HFzwhhBMziXfDMHSTexHUQFMmkUu9BEOX4F9O2eGm6yAIfijSRVNlh7t334Ro57qq92NgCCZb0LZjDwLJZqi53JKJmMthaDQFQJyFMfbSaP9zP7K7HaQyCgBcoKdv/7sqBQAAwDlH5vwZSFPjiPdsgOAx1xkyQYCSA5Rsi6n7K8VhMBOJeOXEu+vqlnhX4ZVDkS6ikD4MQfTDG+isoeywOF12+GpTZYd7dpkLAGY9AYJNrWjZfhUSG7bA0HWUUhPLKuA0WzkJkAIA4hwMFAC4AQUALtC77bZ3A+wmM/ctpScxdeZNRNo64YvEzDwEuZE0lEzC1H0VabjiCMAcdUy8q4YbCqTcSZTyb8Hrb6txW2FzZYfXXXUzIh09NbXTG4ogufEKNF1xJQCOUnoKXF9ecETLAInTcODFsf6DFAA4HAUALtDTt/89AEwFAACgKzIm3zoOweNBuKN6xnxuOA0lmzB1bEUaBWPWhtovJd5Ft0FVJqCr6YadK13LoZB+tZwfEFpfe9nhxNJlh9u2XIX4uk3LaqfHH0C8dxPadl4DXzQOtZAzv3Xz/NdMqwCI87xEAYDzUQDgAj19+98NCwEAAIBzZC8OIHvxHCKd6+AJLJ0olxtKQckmKx7OMIrITfxLJnXxXwO+UBcE0XpNINETRSSxB15/GxTpIgxDbtg505RJ5Kdeqb3sMJtXdrh4ETOrG9RMFtL4GPzROPxR6yMNc55GFMtLCK+8GvHeTeDcgJJNgVvo0GknQOI0jLEXR/uf+2e720EqowDABXr6bn8PgH21PFYt5DD55jGIPh/CrV2L5vhlhzNLjgBwcMi515AZ/nuUcienculT0VzqZRi6hECtiXeBNkSSN0AQfVCkQVOJd7WZLjucfg2iZ5llh+M7oWsFqPIYQtFmcFnB5FuvIzc4AG8wjEBi+cWBfOEoEhuuQPuu6xFu7wI3OJRMquo2zZpGywCJ4/xitP8gBQAORwGAC0xPAdQUAAAANwxkL/SjMDaIaOc6iD7/nNtzQ2koucSCxylSP3Ij34OUeRmcK+CGkSsVU9GZxLt86hAY88AX7K4h8U6YTrzbYyrxbjkulx0+DV+gHaLXXG7EbIIYQii+A/7wejA+Bs90aWYln8PU6RPIDZ9HIJqAb5kjAkA5MTOQaEJycx9ad+5BIN4M0eOFKhVhaAs3W9I1WgZIHOdFCgCcjwIAF+jZett7wWoPAGbI2TQmTx6DGAjOWS44PwAwtAxyEz9AfuJHMPTLy9Y4N7KlYip2+d8qSvlTKOVOwutvhceXMNWO2cwm3tWDrmWRT78KTUnBH1o3d0Mjkzy+JESxAPC58/VKLlseERg6B28whECsqS5lFgWPF6GWdiQ39aH96uuR2HAFwm1dCLW0wR+NIdLeDW8ojMLkWMPOGyE1+MVo/8F/sbsRpDIKAFyge9vt72XA3noci+s6MufOoDg+jGh3L0SvD9nBDNRcApyrKKafR3b0f0NbJGOfcyM3OwCYoWt5FNKHpzfm6a098S55DbyBtunEu8blB6ilERRSL4NDhz+0ztRWyrMxY3BBADBDyWcxdfoE0v1vQfD6EEy2WB4dWfJ5weANRRBqaUe0qxeJjVsRX78ZpfQU0ufPNOx8EVIDCgBcgAIAF+jp21+3AGCGnElh4uQxeMMRaEUfCmMjyAx/F3L++JJr9jnXs4sFADM0ZRL59MvTiXc9llcLAAxefxuiyevKiXfSYMPKDvOZssOZ162XHa4QAFw6F1IR6YFTmDp9HEz0INjUAiZYCzTMyl08hxQFAMRBGPACBQDORwGAC/T23fY+1DkAAACua0j3n0Ju5BTyk78ANypvh8sNI1MqpuJV7lROvMscgSguL/Eukrh6hcsOd0H0hKufNxMBwAxdlpE5fwbjr78KTSogkGxZkIOxXJnBfqTPn23YOSLEKs7xwtjAwR/b3Q5SGQUALrCub/970YAAYIYsZatmmgMAN4xs1QDg0n1nEu9Owetvr3FjngBCse3whzdAkUbm5CPUW7ns8CvQtSz8wXWVdzs0LgK8aOn4XNdRGBvG+PFXIU1NwBeJmN6oqZrMxX5kLvQ37NwQUgMKAFyAAgAX6Nl6+/vAcGOjjq+pqqkAAIZuOgCYUd6Y5zA0NYVAqAdMsH716/ElEV3BssP5mbLDS61uMAYtBwCXn4KjlJrAxJvHkL04AEEQ4E80LWt6IHu+H+mLFAAQ52CMPz/aTwGA01lfxE1WnsAZ6rNtvE04CunXUMy+gVjLzYg1v81UPYE5GEM4cRWC0a3ITjyH7OTzDasvYOgSUiM/RD71MpId70UgckVDnqcwOoj+0UGIB3+Cps3b0HLlHoRaLOQiTOPu/nAQQmxCAQCxYlk9DTcUZMaeQSF9FIn2/QjFdlo+hiAGkWh/F8KJPUiP/jOk3FsNe7GqPI6xc99FMNqHZOf74fEml3/QReiKjPETRzB+4gjCrZ1o2nolkpv64A1FzJ3XOhUVIqR+GH0oXYACADfgjC2z7632BCabUZ9GaMokJi78AwLhV5DseB+8gXbLx/D6W9Da+3GU8meQGvkhVHm8YWdHyp2ElD+NaNMNiLfeBqGB19yF8WEUxodx8eDTiHR0I7l5G+Ibr4AvHF36QbQNMHEaRlGpG1AAQGxTKpzFyJnvIJy8BvG22yF6rNcXCEQ2o3Pz7yA39RLS4z8B1xu0fwDXkZt8AcXMMbSvuxpig7NnODhyIxeRG7kIHHwKgXgS0a5eRLrWIZhshTcSgccfhKGpkPO5xjaGELIqUQDgArw8BGA73oCxZg4D+dQrKGaPI976TkSabwCDxYQ4JiDavBfhxG5kxn+K/NQvGjYsrmt5qPI4xNDyt/y1opRJoZRJYfzEkcsvWxTBdR1ySVrRthBSDTNoCsANGrMzCakrVq2e7yowk3g3cvovUMqfqukYghhCsuN9aN/4mwiE1jewtc54O7hO+/8TQmpHAQBxVA65Kk9g7Nx3MX7+e9CUqZqO4Qt2oW3jv0Pr+o/XVJ+gmtYr9yC55Uo4JS5z+RIRshpRDoAr0BSAG3Bn9DSMr9ywXjnx7hSiTTeWE+9E6/sHBCNbEdj8GeSmXkB2/KcwDKUubQslW9BzwzsgX/92jL72C0ycPAZuYyKeQz4ehBCXoREA4lzcQG7yBQyd/iZyk7XN6zPBg1jL29G55TMIJ65GPYbvZzbt8cfi6L3lPdj5K/8P2nddC9bozEBCXMKgZYCuQAGAOzT0Es/0wZlhy5fa0IpIjfwQo/1/Cbl4vqZjiN4YmrvvRsemT8MfWre8Bs1LyfRF4+i5aT92/vJvlAMBz0oPrNFvLXEWxigAcAMKAFyA0xgvAECRhjDa/9fl/AA1U9MxfMFutG/8DTR3fwSCJ1rTMZaa+58fCAgizbARQpyLfqGIedwZcYiUO4lS/iyizXsRa30HBMFn8QjlbYVDse3ITh5Edvzn4Fwz/2ih8nnwRWLouWk/OvbsxejRVzD2+qswtEbVLyi/HkIcxaAkQDegEQAXEBySbs7hnC815yqyEz/H8Klvo5A+glqGwZngQ7z1nejc8juWtiU2OyDjCYbRfeM7sPNXP42Oq2+E6A806mw06LiEkNWMAgDiarqWxeTg/8HI2f8GRbpY0zE8vma0rPso2jb8G1PbEjOL2zJ5Q+VAYPfH/j16b3kPAokmu08bIY1FOQCuQAGAC/AGj72b/aayGhecezzWl/BZpUgXMdL/3zA5+H+ha/majhEIb0LH5t9CU9edFbclthoAzBC8PrRuvwpX/vK/w+b3fAiRzp66vHbmkKkZQmYwB40WkqVRDgBpuHjzRsilLIq5MRiG+bl2y3i57LCUfQPRlpsRa3k7GLP2EWcQEEleh1BsBzLjzyI/+SI45q3xX+ZPGwNDYsNWJDZsRXFyHBNvHMbkqTdgqPXZp4AQQsyghcsu0LN1/51guKZRx9cUBWZ6NcPQpuRi2tr4NWMIRVrg8foRCCUAxqCpjd27nnMdcmEAxczrEL0ReP1tlo/BBC+CkSsQSuyApqTm7EqopbMwZBmhlnaIvuWNbnhDYcTXb0b7zmvgi8ah5HPQpIKlY2i6autGRITMxxn76Vj/c8/Y3Q5SGQUALtCz7ba7ANawAEDXFFOb7NQSADDGEIy0XPp/ry8EfyAGw9Chaw2q3DfTXl1CMXsccvEcfIEuiJ6w5WOIYhjhxFXwhbqhSBdh6BJC0WbI6RTGXz8MtZBDqLUDotfqSoR550kUEW7tQOuVVyO5eRu8wRCUfBa6XP0c6ZpGAQBxFsZ+RgGA81EA4AI9fbfd2cgAQFNNBgCaNilL6WYrx2ZMQDAy9yGCIMIfiMLrDULTZHCjsUVtNDWFQuoV6FoW/uA6MMFr+RheXzOiTTdAEEPweLIQPT5wzlGcGMX48cPQShJCzW3LDgQAwBsMIdrVi9Zd1yLWvR6C1wdDLkGTS4venwIA4jgcPx0bOPis3c0glVEOgAvwmtPO6qyGAh+VWu71h5Hwb4QspVHMjcNoYCBQz7LDXFEBfnkjIkPXMHbsFUy88Rpatu9G++7r4Ysuv1wwA0Okcx0ineWdC5VcBtnB8yhOjEDJZ6HkMhBEL7yKhMxgbTskEtIItBOgO1AAQBqKcw7D0CAIS3/U/MEEvP4opPw4ZCnd0PzhmbLD+amXkex8LwKRK6wfhAmLpkwYuoax11/F+OuHkdjUh85rb0KwqaVubfdF42jZtgvArjl/v/jSzygAIIRYRgGACzDOGRo4BtDIDpdzA+nxswiEmxAKN2Op1yEIIsKxDgRCTShkR6Eq1hLhrFKVcYyd+y6C0T4kO98PjzdZv9cMjtTZN5HqfxPx3i3o3LMX4fauhr2WWookEUIIBQBuINS6At8ZODcg5ScgS1mEoy3wBWJL3lf0+BBrWgdFLqCQHYGhN3IL3Zmyw6cRbbrBfNlhs+vuOZA5dxqZc6cRamlH267r0LRl+6VqgvXj4g8HWaXsKRxGrKGNgIhpfJklPg1dQS49hOzUeehq5ex2nz+MZMsmhGPtYKzBH1OuIzf5AoZPP4J86pWGDIkUJ0Yx8MwPcOx7/xXDhw5Ck+u3FJK2XSdOQzkA7kAjAG7AOWtowRcGUxeRrE5jzapSRGZyAL5gHKFoKwRhicUojCEQSsLnj6KYn4BcSjf0YlfX8pgaehz5qUNIdr4P/lDvUiei5naoxTyGXjmIkSMvo3nrDrReeTWCTa3LardNVZoJIS5HAQCxBQeHLKWhyFmEIq3whxJLltkVRA8i8Q4EwwnkM6MN30hIKQ1itP+/I5zYjUTbuyF655YNNhkvVWSoCsaPH8b48cMItbSj5cqr0bxlO4SalhFSAEAchoalXIECABdo+DJA01/V+n+nuWGgkB1FqZBGONYKrz+y5H1FTwDx5vVQSlkUcuMNzg/gKKSPoJh5A7HWtyHW/Laa9g8wozgxivM/+xcM/uJZJDdvQ9PWHYh0dMNsEUhOIwCEkBpQAOACAuOMN7DgSz2uaJdL12VkUxfh80cQjrVDEJfubH2BGLz+CKTCFKTCFMAbtwkO5yoyY88gP3UIifZ3IZzY3bCse12RMXHiCCZOHIEnEEJy4xVo2roT4Y6uysFAA18/IbUwKAfAFSgAIBY0/kutyHko43kEwk0IhpuXzA9gTEAo0oJAMF7OD5AyFp/Jmpmyw/nUIbR2bWxkRgYAQCsVMX7iCMZPHIEnGEa0ax2inb2Idq+DP9E0JyAw9AYWWCKkBlQN0B0oAHABzhs9A2Dyu1pDKxgY4i3rLc/dlwpTUKQsQtEW+AOJJZ9bEL2IxDvhD8ZRyI42vL6AXByAWgrDF7BeV6BWmlRA6sybSJ15EwDABAHeUATeUBiaIiM7cnHF2kIIWT0oACANxVntc/eGoSGfGUGpmEYo1gavN7Tkfb2+EBKXyg6PNnRb4RUYCKmIG0Z5K+B81tZ2ELIkmgJwBdoHwBUaXArA7OFryja7fGxfIIZEy8ZydUALa/s1tYTs5Hnk0kPQKw13M8AfjCHRuhmBCrsOLle8dzMCCUs1kRqKBlsJIbWgEQA34NxsQnitx2/Yoec3ezlz90opC1W+nB+w1NoIxgSEo63l58iNQZHzdX1N8e6N6Lr+7cieO4uhV55DcWK0YeePEFeiZYCuQAEAMW25OwHOVuvc/aVthYtphKJt8AcrbyscTfZAlQso5Mbqlh/AGCvnNqzfjHjvZmTOn8HwoYMojI/U6/RYa48tz0rI0mgnQHegAMAFOGMNLgZgdiHgsmYAFlXr3H05P2AIJSmFcKwDHs/Se/jPlB0uFVMo5sfBjeUtm+OzXxRDORBYvxnZwQEMvfhzFMaHl3X8WlpECCFWUQBAGoobBvKZIYQirUuv7Z+eu/cFwijmylf3ZlcmaIqEzGQ//IGZbYWX/kgHQkn4AzEUC5OQi1M1z3wISxTziXVvQOzuDeVA4OXnUBgdWtFzTYhTGHZnyhJTKABwAWa6/FxtuOm97Wv7UstSFkrJzNy9iHCsHYFQ0trcPQdkKQOllEMo0oxAqGnJBEAmiAhH2+APxFDIjUFTitZfUJXkwlj3BsS6NyA/MoihQ88hd/FcLafNSoMafHxCyGpEqwDcoMH7AKzIS5ieu0+Pn4EsVV6+NjN3H0uuqzi0v9hzFHLjSE/2QylVfg6PN4B4Uy+iyXUQPRa3+DX5dkQ6urH1A7+MrXf8CmI9G6ifJmsHoyRAN6ARAALGmbkh9zp8p2fP3UdiHRCrzN3Ha5i717Vy2WGvP4NwtK3ic/j8YXh9myAXp1DMT4Kb2VbXYjwW7epFtKsXpUwKE8dfxfgbR+q6e5/pjZwIIWQWGgFwA9bYKQDTSWR1zETUFAnpyX7kM8MwjMqdYSCURLJlMwLhJkt9ryoXkJ7oRyE7VrFjZ4whEG5GomUjfBWKEV2+f21fm0A8iZ6b9mPXx34TXdfdDE8gVNNxFmlRnY5DSH0wg3IA3IBGAIh9VmjuvlScglxKl8sOB5NLBhGC6IUvGKuae7Dc2oyeYBid196M9qtvxNTpNzFx/LANKwcIaSCaAnAFCgBcgTEnLPVq1FDzzNx9ScogFG2Hz7/0Pvszc/eKXEAxOwLd5LbCl8oOF1MIx9rh9S3+HGauW4YPH4TXH0Byy5VgQu2DaILoQUvfTrT07URxYhTjbxzG1Ok3YaiK1TNYcxsIIWuXuPxDkEZb13fbRwFc2ajjayY7HF1XxhQp296odnBDh1LKQlMleLyBikv6RI8P/lASgiBAU0sw2wlyQ4csZaGrJXh9QbB51QY1rVR1BCAQiCF7YQCpMycg+gIINbUue9thbyiCxPotaNuxB4F4E3RdhZIzt9e/pqkNK1FMSC0YYz8e7X/uBbvbQSqjEQBiHhes9zIM8AcTkKW06QtVVS4gLfcjEG5CKNKy5Jz7zNy9LxCzvq2wnIcyUUAglKz4HJWUMikMPPMDjLz6PDquuQnNV1y57EBA9PnRvG0XmrftglrMI3X6TUydPYni+PCSSZCN3SeaELJa0QiAC/Rs2//LaOAIgGp6BEAeVUrWRwASzRvg80eg64rpSoAAoKkSSlIKjAkQPcEl+1YmiPAFovD5w9PPYT7DXlMlyKUMBEGAxxOAppWgVhkBiMTa5ywd1OQS0gOnkDp9AoLXj0BTc82JgrOJXh/C7V1o2bYbbbuuRbitC55AsDztwDkMTQETBAh+PzS5tOznI2Qp3DAs5b4whn8Z7T9IIwAORyMApLGmfzTmzN3nRqBr9Z27Lz9HEPGm9ZClLAq5MXDDXCBg6DNlhzPweE3sO7DE72Apk8K5Z3+I4VeeQ9vu69GybTdEr8U9BpYg+vxIbLwCiY1XXD43ug4mirj40s/Q//Mf1+V5CJmNcw65OIVSKYtE80bTjzNoFYArUADgBryxY7xmKwGYv9vsY89tek3r7lFe25+dugCfP4JQtL3i5j3lbYUjkApTkApTgMnn0FQJmiot+3wq+SwuPv8TjLz6Atp27kHrzmvg8QeXfdwF51acHsCj+X/SAIqcRzE7Cl1XIYrUVaxG9K6SFbfsuXul+tz95bLDMRRyE1V3BrTUfpP300pFDL1yECNHXkZL3y607bwW/nii7ueTEgBJvZWKaRSyl6tbWr0GYcygD6ULUADgDg7J8rLejErzhjMlgQOhxPTafpNX35yjVJiCUsoiFGmBP5BYsmmC6EM00QVViZdLAqv1KQlshaEqGHv9EMZffxXR7vVo23Ut4r2b6/aucvqtJXVmdmSOuBsFAC7AGRxRXZvXMNZscAOaUoTHt/Sudx5vEPHkepRKaRRzE5bn7qVCGpF4OzzepYfZvb4w4s0boEgZFHPjpssOL34eaj5/yA4OIDs4gGBzK9p2XoemLdsgWK1FULcWEQKAG1BVaU5+zYK43epX3xG/WKQaCgBIY3GOzNT56nP3DAgEE/AHYpbn7nWthMzkOfgCMYSjS5cdZmDwBxPwBaIo5ichF1I1bm60/Et3aXIc5376I1x84Wk0bd6GliuvRqilti0W6GqN1EqR8yhkRyF6fHMTbOfvPm51eatB81JuQAGACwjcKcW1a2+FIuehKgX4Q00IRZobMnevlLJQ5XLZ4VC4CVjyOcrbCgeC5amHasv+GklXZIyfOILxE0cQbu1A8/ar0LSpD6I/YP4g9FtLLNI1GfnsyKVptwUFsxb09/QZW40oACArhnOOUmESSinTsLn7mbLDspSZ3vs/tuR9RY8PsWQPVLmAQm4UumZyC94GhWOF8REUxkdw/uc/RqSjG8lNfWjasr160SAKAIhFxfzk3Jybap8hyzMADrlmIRVRAOACvMFJgGa/qaxO6eaz192HY20Nmbs3dBX5zBBkKY1wrL1q2eGEfxNKxRSk/MSy8gPqgnPkhy8iP3wRF3/xLKKdvYh2l0sKh1raF9QfoFUAxDJW8Z8L0CdsdaIAwA14g3d7Nd2B1LcRmio1fO5eVYrITAzAH4ojFGldsPf/bIFQEowJyGeqVOZrdHXm2U+l68he7Ef2Yj8AQPD6EEw0wRuOwhsOQ5MVjL/1+oq1h7iPIudhGDoCwfilvy3I8avykbb6iTdoWMoVKAAgtqtt7n4UqlwwdXwOjlIxDVnKIRRpqlx2eJl7+TeaoSoojI8A45fXaGvy8jcvIquPrssoZMehynkEI80WH70gRLD4cJoCcAMKANyAcdbIWQDGmLlh5EbVA0Ytc/froMgFFLIjpusLcK7PKjvcBp8/ssh9TJyvRp0EQuqkmJ9AKT95+Su74HM971NMF+xr0vIrlhBSxfw560pm5u6zU+eha5UT/3z+MJKtmxGOtUMQzNe10jUFudRFZFMXoC14DooAiPupct5ivL7MK/75R6NlgK5AAYALsOXWmK3K7HfV+npzBoZk62YEwk2WEhlUpYj0ZD/ymeGqSXmBUBLxlk3l57BwplS5gMxE/3ThIMPSmSDESaqN4FX/XM+/B7P4eOJGFAC4AOeNzToze3guWJ/X4+zy3H28ZSO8/rCFBwOylEF6/CxKhcmKw5SCUH6OWNMGeH3WCu+UClNITZxBqZhy51CoC5tM6kPXFOTSQ1BLuYr3qzYlP3+0gC13QIByAFyBcgBIQ83+HanH3H042gbvInP3MzzeAGJN68tlh7PD0HVz2wpzQ0chO2ppKoEQu3BuoJifRKk4BXAO37zAekEcOy/IXzgaV9+FgMwpe5eRimgEwA0anppu7rtaWyMWPmo5c/fZJefuFz5HvGUTwtHWJXcdXIy5PQAclgTgsOaQxktPzB8Vm9fBV7uEn9c/s/m3V54RIKsEBQDENuW5+43wBxPLnrtfDGMCAuFmJFo3wT9rDfRyOXylIFkDjAWfe17l3/NvZZZut7wRCXPjXNraQwGAKzR45xmzPVqNW85VykYWBA8i8Q7EmtbDs4y5+0otKz9HJ+LN6yvuOkiIExm6umBkilUdtavyna4yRTB/hIB2m1ydKABwAd7ga07zwbr1jwvnBjIT/VUL7ni8QcSb1iOaXAdRNJ+aMjN3n50agKpU3hBn5jki8S4IQu3pL477LXRae0hdzOyNkZroXyRfxtpPQvWt/us75m8YlAPgBpQESBpuZu7e6w8jFG2Dp8K+/D5/GN6WTZCLKRTzk6ZL3WpqCdmpc+Wyw7F2iOLSZYf9wRh8gch02eFJB/boZE3jgFzKoJAbBzdMJrHO/8OCHL8qWf4WawOQ1YFGAFxAYI3efN7kMsBljgOuxNy9IueRmThb/vHklZ8jFGlBonkjfIGYhWcgpLF0XUE+Mzyn868+Blglia9a1n+9Y2DKAXAFCgDIimv03P1M2eH0RD9kKVvxvqKnXHY41tRbsWLgHJQFSBppkdHz+bH3giz/+cv8FiwCsJYkuBAtA1yNKABwAc4b2+OY3zK0ft/plZi7v7yt8Dloaqnifb2+EBItGxEIN9XtNa4YikdWl0UH/ObvzFdlGZ/1J63yfPQhW40oAHCFBl9y2nhFOzN3n0tdhF5pY6DpuftE6yYEIy2W2qwqEjKTAwuGVRfj9QZMHNFhFzcOaw5pBGvr9Kt32NU2AlrmiAEz6FPpApQESExr5FWAIuehThTgDzUhFGlecvOembl7fyCGYn4CSilr+jlkKQOllJsuO9y8aBBBy52IO9R3576qUwxkVaIRADdodBKg6U6vsb1jw+fuMXdplZXgYTbLm6IQYsGife+CK/756/Tn3Wyxuh+rlhNo8avPDIEiaRegAIA0FGNAJN5hacvfmbn7zOQANLVyfoDXF0K8ZUMNz1EuopKdugBdlU0/jpDGW2RkilVbp291iN7aRkFWg16DpgBcgQIAF2ANTgJsZBYZB4M/mECidbPluXtNLSEzea7q3D2beY6WzdZLAiuF6fyAERiG7tItAVzZaGLFgmI+81Wb019uwECfsdWIcgBIg5V/eBo9dw8ATBAQjrYhEEygkB2FqhRMHZ+DQ5bSUOQcPKaSAAlpnFo33Lb07/mzigvmEFjFo1VHUwBuQCMALsAbXQvA/DJAy1/q+Q2/NHefXNewuXvR40OsaR2iyXUQltoRcLHnMHSosrmggZCGYYv9aXlD/FX690UWFVTbWIisBhQAuIFTpgDq+CPg9YeXOXd/vurcvc8fRrJlk+Wyw25Dv82rTfV9ACxP21n+Bbn8AEH0IprosvZoygFwBZoCII3FKt1Unrv3+WMoFiYgF6dMjzGoShGZyQH4gnGEoq1Ld/CMIRBKwuePopifgFxKL7vHpFUApJEWu9qfv/FP1VqAC5L4rI4glKft/KFkxWW5S6JiQK5AIwBu0PBaAA3cCdDgkApTFWcPZubu480b4fWFLLS6PHefntlWuFLZYbFcdjjRvAFer/nnIMSJFvwg8CoBArc2giCKfiRaNiIcbbXe+RPXoHeWNBQHRzE3ZnLu3o9YU28Nc/cGCtlRZMYHqs7hi54AYs29iCa6LD3HHHRxQxrJzEYAC+7CKh5jQXA8vzrgvKOJHl/t3w8AjIoBuQIFAC7AnbLbu1B7z7cSc/e6LiObuoBc6uIi9dPnPUcghkTLxumlie7+Gjjjw0HqZtG+s1r9Xotb9/LKAQNZG9z9y7dGCA39jbfQpxvm77qUmbn7mXX3S5qeu483b4Q/mLB0BhQ5j9T4GRRyYxWfY2ZpYrJlo6Wyw1QYhTTWIp+v+UEBr7wToOkvzPT3LJpcV+eXQMNkbkBJgGveyndml9fdZxGKtMIfSiyZWDczdx8MJ1DIjEFVi6afp1SYgiJlEYq2VuzgBdGLSLwT/mAchdwo7QxI7GXmK1nlit3MIXz+MMKxjmUN9S/FcOmWWmsNjQC4gGOmAOr9uubM3ecr3rfWuXvD0JDPDCMzWb3ssNcXQjDcbOKoq/LtIA6xaAaA5Y9c5SmBQLjJcq4NWX0oAFjz7A/Uy3P3Fxs6d3+p7HB6CLpeYVth+08HWePMZQBUm/OvHDE0fF8MWgboCjQF4A6OuORkDa6Vq8h5KBMFBEJJBMPNS/5IzczdB4Lx8tp+KWP+OUpZqHIegXATguHmBWVP3fir5cY2k0pM5AAs2MqvQpIgY/DQ0leyCBoBcIcGBgDmD11rDqCl/fU5R6kwhcxEP2QpXbF3m5m7r7UkcHr8zCJlh6t3p46Ixqw1mbheta19F1/m5/WHEW/egEAosbKtpSRAV6AAYK1bgVydePOGGufuR5CZGqia+Of1hZBo3ohIvMvatsKGVi47PHUOmlZO/OPUmxKbLR5gVv5czr/VI/oRS65DLLkOHgvBcf1eBCUBugFNAbgAZw5ZVMNrGAOYHqr0BWLw+iOQClPTOwOaO5amlpCdPA9fIIZQtA2iuMRHlgH+YAy+QATF/CRKxSnTwY2mSMhM9sMfiEMUfbac2uVgbEXiuFWDcwPc0B2cALcwBOAm7jNbMNpq94sgLkABwFrX4A1AZh+9kXP3s58jHG0tP0duFIrZ6n4cFtrjuEkAYpIi51HMjiIQbl7xYXHTWPU0wAUff4cFgIzSaV2BAgAXYA7Zeaa2L/XCps9Zd58dha6ZW3c/M3cvF9MIRdvgD8aWvK/o8SGaXAdVLqCQGzP9HGR10tQSirnRWUtBndw/mdgKeBavP1zxu0DIUigAcIeGBQCW5rxryBhhFUYYZubu5VIWxdxo5Z0BZ5mZuy9JKYRjHRXnOL3+MBL+jSgVUyjmx8GNOmxn6LCLGxr+ry6bughuaMs/0Erg5v4oenwIRdvh84ftbvFCBn0q3YACgDWvsYMLnHMYugah6tx9uDx3X5gyfezZc/flksBLf5wDoST8gRiKhUlLZYfJ6sDg7Gv+2RYNyuct8wtFW+HzR+1uKnE5WgXgBg6ZAqip6dxAeuIsivmJiol/jIkIR9uQaNkEnz9i5dxAljJIj59FqTBZpexw+TliTRvgsVB2eJEj2XAmiVmKnFu4nbOL3jJmohqg0zt/wxlpy6QKCgDWuJVYrTMzd58aP7vIuvu5ynP3PYgl11le21/IjSM92V818c/jDSA+XXZY9FjPBKefNmfSNQXZqQvIpQZh8PnTSfM3znHZm+iyan2MGS47wWsTTQG4AXPI9csyF8nPnruPxDoqdvC1zt3rmoJc6gK8/jDC0baKz+Hzh+H1bYJcnEIxPwleyzJHJ3DT+HYjcI58dhRKKb10v86tbZXrFILoQzjaYm1UjBCTKABwAdbIi05LVxb1aYWmSEhfmrtvq7h5T61z96pcQFruhz+YmM4PWGpbYYZAuBm+QBzF/LippYCcOaz7WMudPwCD6+VdIyuZ/zl3+DAOYwKC00te3Xb1DwAwBGefYAKAAgBiV+8xPXevlHIIRZoRCDUt+UM3M3fvD8RQyI1BU8yXBJalNFQ5V06aCiSW/C0tlx3uhMcbQCE7as85ITVZ9C2tEik6ewZAQKJ1c+ML9pA1j3IAXMAp5YAbMUC+EnP3hqGXtxWePAtVqfwcbvzRdcSHY4XMVI6cPSW0WF8+vzYOc9EwCWPu/BzOeQ2gHAA3oBGANY5bLzTeECsxdz+TJObzRxCKti8aRJgreOiMc7aWcMMoT9EU0+VUlDlvwcL3o/pfqH9qKEZTAG5AAYA7OKTHqfE7bSFJbWbuPhBuQijSAsYWH6S6PHcfs76tsJyHopTLDld6DrdY7QWMdE1GZvI8+OzMfo7K34oF5fLm3+6QrxQhNnL3Lx+pA/OdB6shAmBgiNew7r5UmEJq/DRKxVTF+dqZbYXjzevh8QUtvOxy2eH0xNk5ZYdNXf87LYHMjUliFhiGNrfzN8Vi+VxSVwYtA3QFCgBcoXGXK6zBnQdntc/dc8NAITuK7GQ/tEt7uC/O4w0i3rQekXgXmGB+YMvQy2WH05MD0FSJRoYdwNDVeX+pvDFOPcrnksoWvidkNaAAwAW4qy/xLjfd5w8j3rwJ4WirpWF3TZORmTqHXOoidK3yD5E/GEOydROCkRbAwnPoWgmZyXMmtyJ22Nvh7JR2Cy+jnBCanTpf/b5z/rX88rlkcZzr5fckdcHaAw0aYnEDygFY6xrcecz/2V2JufvZZYcLuXEopazp59B1E1UDq80/E2s4IJcyKObGYBj6ghGcqvtgrYLyuU7DwaFIGRRz4zAMHaJoratgqyUqXeVoBMAFmEMyluo5q1fvufulniOa6EKsydq2wu7jiI9HzUpSCvnM8KVqkGau56u/fup/lkMupJDPjFx6T1xcjoRUQAHAGmftZ7KGH9UqvxvLnbvPTJ0rz91X4PWFkWjeiEi8qz7rqx32W8hX3Wgrn/evKh18TS9/tZ2z+lr22aEsS1egAMAV3JsDwA2joXP3miohM3kOufRQ5USl6bLDidZNCLh1e9VVwDD0RQpCWX8vZj9i8WWQ8/42bxCN0/t/CecG5FJuzt8WTplQf74aUQ6AK7BaVuDVH69tcw9FzkNVCvCHmhCKNJuYu4+hkJuwNHevlLJQ5Xx5/4Bw05JBRLnscOt0fsAYVDlv91ldNsaZ8/cCmJ7nL+TG4fH44Q/G5t5Y+QUudrhLQcCiK1l4lb3/qUObk3shegPwB6JzbpvDYsBE1QDdgQIAsiI45ygVJqGUMghF2uZ1AHMJog/RRBdUJY5Cdgy6ZiIxD5fLDstSBqFIa8XnED0+xJI9UOUCCrlR6Jpi9ylatTRVQiE7Ck0tTf/FN+8e867O59+6WApM1e5l/joBuuKfTVUkFHIj0NXyd0us2uFb688ZFQNyBZoCcAPmjCRAoQ5XmeW5+yFkJs9VXdvv9YURb9mASLzD0ty9oavIZ4aQnTpfNXjw+sNItGxCONYOJpj7OjivM3H2b22pmJ7V+S+08OKyyi5+Zl4zq3xvp72DK61UTF3q/E1x9keM1IgCAGIeq185IE2Vymv7q8zdMzD4g4npufsmS52vqhSRmRhAITsCblTeSS4QSiLZsgm+2cOgpC7Ygiv8Kr2JmXh3TtRg5v52nwWHYRX/uYDV/l8HjQC4AQUALsAamLFk9++iUsoiPdGPYn4CqFDUpzx334Z4y0Z4/RHTx+fgKBXTSI2fRakwWXHulwkeCgAagVW5/l7wlpi4XuezdwJc5D3l1f69RvonDpSkNErF1Jw/Wy2NYPfvBGkMCgBcgDtkH4BGfVxm5u5TE/2LZIjPNTN3H0uug+jxmXyGyzualcsOL534Z2bxklPeDbeYv4yPVVvmV21KYAHr+wCshVUAM6NshcwIDEOz+Ohl7pxESYCuQEmAa5yTvqUzc/eylEY41l5x8x6vP4yEfxNKxRSk/MSlDUuqKZcdvgivP4xQtA2eec/h+Gx6N1pw9V05Q58t2MVvsa2BKnfgC4OOao1aXQrZ0blX/QtebrVRmOVhtA+AK9AIgBs4ZBsug9cvB6ASVSkiPdk/Z3e4pQRCScRbpvMDLJwlVS4gM9GPQm4M3LD4uhz20+aw5phob+Uhfj5veH7R0frZf2SVpwiWvM8qVm1zrIUqz5m47TNGzKEAgJi2ovt7c0CWMkibmLsXhHJ+QKxpA7xWthXGdNnhiTOXyg6bGQFw3ioAZ1vQ91pMQKt2zEXfs3pntTkcrxKcW3+5y10GuFaSLNyNAgA3WMM9zuy5+2qb9ni8AcSa1pfLDotWyg7r5bLDUwPQlJLpxzmF8z8cjR1uXiwpw/nnpD50rYTs5HmopcrfjWoj8vODKGY1S5C4EuUAuAB3zACmffGirinIVpi7n83nD8PbshFyMYVifrLq1dEMTS1VXK9+CaNygNZY7fHNDN/PXgVQ/RALrkddPkVt6CqK+UnIpTTAAT/ilV8vn58TUWVYZgGrSYAuP8FrBAUAa567vqeqXEBG7p/e8rdlyc17GBPKZYeDcRRz45bKDpNGq5IDUDWBb14Ht+hGgZWvaLnLr2jTEwPgfOn8GFZtJ78FiZe84t2txrs6rQJwBZoCcAFGl5sLzJ+7X4ogeKbLDm+Ax2stP2Bp9HZYU+1qs9qi/Xo85/RfpwPDUKTZ7pOyLNVzVaoN+VtdRUGf+dWIRgDWOIfsMlyTmbl7WcogFG2vmADo8QYQb1oPuZRFMTdWw7poUi/zs/yrdi51KffL4AvEEIq2WsoPcQJdK4ExEcKsdlcv/2TxnFZZmskt5vQxRjsBugEFAO7gkF56ZZYBWqWpJWSnzsHnjyAUa1/6B366JLAvEIFUmIJUZXXBkgchy1JtVcDCJXyLHcTa+xZJdLmu4zcMDcXcBJRSGrGmDXMCgPJJMX8Oqn3Mqy3NJKsTBQDu0LBvI19FuTqKnIc6Yb7ssD8QQzFvreywE7n9HVzY9Zj4uPNF1hJWOBGu6vw5h1ScgjQrgbVaFnC1fX4WzPk3YGnmnMfrlAPgBpQDsOatrkh/puxw2uS2wtFEF2JNvRV3HZxjFQVMK8Zq7zV/+HnRh8zr0GYHBEyAILj32kbXVRRz46ZXr8yckSXPR/kvlf9NH+s1iQIAd1hdvfQKmNlWODM5UHVXNK8vVFPZYcdw+p4rFgvxmBkRWOoL4fOHkWjeCK8/bPerrt0iQeaCvIkFyxoqz+Evsi7QYqOsLgOkHAA3cG+YTOrD6Z3HMmlqCZmpcwgE4whGWpe8MpwpO8yYgFx6aMnjUTa0dazaxWa1O5gYdRG9AYSjrfD4Qna/3OVbNDG3ckllZrlDr7YSo/LSzKpHp2WArkABgAswxww8O6QZVnGgVMxAlnLT+wc0Lz0svbzVVbZgjFnO0naSql0LX3Sh/xzxpvWrfJzM2jp96+VD1nbxpLWKpgBcgDfyp83KHoMu7mTKzb9cdnipxD93vkKXtdrqJnSNOoar1XfnPm5m5YWV1tEUgCtQALDGrcXyt4auIJceQnbqAnRVXnBGKnHxtgk2Wl7C2fwY1eePQhBX7+ClqZh8wTr9eTdbLOZTdZrG5cE/Wdzq/RatLg7pdhzSjDpRlQIykwPwBeMIRVshCKIrw6HytrYObnm1mSO+xN8ufdzK/yOKfoRjbe5O8DNlsQH4Oq/Tt7gyw2rui67rDv5AkhkUAKxxq6tLt46DQ5bSUEo5hKItdEYagPNq88uLzzhf7v8ZwrGO6SRNu1+NTRY5h9Z2AlxeeV/L6T80BeAKFAC4AashybcBVtOmQQteGy9vK7zU5kEznLkKwNnvy8Kup3Jhmst/Kz9SEDwIhBJ2v4wVU9toe+Vlfgvm+OfPZS2YQ2AVjkZWC8oBWOusfLMtbUziTtY2X3EI118WLzImsJZ7HLbYn5aZOFHl5oUTDFVWHVR9eloG6AY0AuAG1tf0mOf2voM4n4XPmOjxIRRtXwVBzXJU3wfA8he32t3Z0n8o51602n1SSANQAOAODvk1pAEjJ2Lc7Ws5GBgTEYo0IRBqWuOd/+JX+/Pf4WrvN1uQxGcxEZMBTBAQCrfAH05anvqiZYDuQAEAIVas7b6pRvPmk+d1DR6vH8nWTWBu3IbZJguSAHmVAKFqbYC5PJ4Akq2bwVht7wnTKQBwAwoA3MEh3Y4L58frzZE/a85eBsiq7EPv5sI9DbHoCEi1jXpYxWNUS7ycfzjBTdUTSc1oTHeNs5RxTP2/Izl+AmBeZ0QdfhWLfimr1e+1WOxn/rLCOo++aJQE6Ar0TXQHh4wAEHoraseYgGC4CcFws91NcbjFah9Uru63MGYw9zllTEAo0lzOvSBrDgUA7uCIXocGAByKMUdv1coZgz8YQyjaRlf/ZpjaCpgt7xAM0+9Je0NKYFMSoDvQt3GNW+MJ15axNb1AvTYhyuy3ZNEMgPkj/pbLVs79dyjc0tD3hNFWwK5AOQAuwBwyAiDQp8WZHHz1D4A6f4u4qc2Sq23tW+Wc03tCQAEAsdR3OL2nWQlO/OF0YptIXVUr11thmZ8giPD6IivbXibSb4UL0BSAC3Dwhg0C0LeUEDeovJfCgqkpxsvz/IEYwtE2MMq9IIugT4UrOGS8jqIFh6I3ZjVZ/Mte+T2ef6vHG0Iw0gqPx2/HC3hM95ZOrfwTE6soACDEAu6MUIwsAzd0GIYG0Y7O0ZTFyyNXu89swbAty/pOci787rGnH/yhHU9OrKMcAFdwyAgAcSj6eJjBwSFLaaQnzkJVJLubszRWfSMgVi0HcGWlOdgX9ebg7mPPUOfvJjQCQEyjfQCcWqbWkY1yFFXOo5Abg64p039x8jkzsRXwLP5gHP5Q3I6GGgD7Hjza54/9+BtjdjSALA8FAK7QuIFnuna0is6YG+UyI+CGZnczzOHm/ujxBhGOtcHjDdrQSPZTnfN7jz/z0BEbnpzUCQUA7uCMXoe29yYu5exySXMtWtth3jVAONYBry9kR/MGwXHf0Wce+i7cc0rJEigHgBArHDcH4LT22ItzoFRMQVNLc29wRghtCjNRDdCGzl9i4A/rRnDb0Wce/lvQB29VoBEAd3DGz5fgjGYQshhVKaKQHYWuyYg19c67dd5n1217Wtm6DSd7UjDwH1979uEBu08DqS8KANY4az+DLvvRbAiHBUG0LhGcG8hnhqCU8pXuNO8P7jhvHm8AoWg7vD4b5vkZXuMc9x57+qGf2X0eSGNQAOAGHMwlv1eErDjOjYWd/8Kt8ub929nBrCB4EIq2wBdI2LEIeAoMf9bXdPYvHn30Ud3uc0EahwIAN6DunyyBO7wja8yLnv4vm/Mfa4dw8GljEJBo3QTGVnzYX2OM/41H17906Nn/NHHU7hNBGo4CgDXPwb+EDuS0SIxB4A5sVsNoqoRCdgyx5LpLHeRin2Dr5XMdhJWDgBX2NBfw2aNPfe2Y3S+frBwKAFyAO2UrQNoJiNjEMDQUc2OQpWz5D3O+EPUon7tGcX4BYPdPZ/aTNYYCAELczMlj2XWiqSVkps4DfFYEWm3cw3L53DWnCLCvZ3nwoYFnD5SWfzjiRhQAuEDDagGTGtBbsdI41+d2/qZYLJ+7dnAG/KMm4PPHn3rovN2NIfaiAGCtW7O/g8SpdE2eV6mv8sY49Sifu0YcErhw72vPPHjQ7oYQZ6CdAN2hcZedlo68Rn8255wBZ40ArKZ3xNBV5DMjyKYuWnzdyy+fu8pNguGzfc1nb6TOn8xGIwDu4IxfL9oJkDQA5xxycQrF/CQ4N8CEuT9LVVfBuq987kpRwdh3vIz/8aGnHs7Qsj4yHwUAhFjhtLljoWo6nOPJUhqF3Pilf5WA6BAAABDRSURBVJu5np/LWvncNYHjKVEQ7j38kwffsLspxLkoAHCHEoCo3Y2gaoC0J1NjVL4859U6+Jo+lqv2s3xK4Pjca888/AO7G0Kcj3IAXIADTzTy4MTFXLYM0DA0lIppaw9ilWf0+eJbAc3757xVAc7YWaOe8gD706K/uIs6f2IWjQC4gFcXPq95jP3gWG93W4jTuKQj4xylYgpSYRKiJ4BAKDH7xiqvcPFJgZm/Llo+l1fLAXBX4FQBB9jfGUz4/dd/8sCo3Y0h7kIjAC7w3A/+MMXAfw2AZGc7nJYBT9xBlQtIT55FITcGw9CxsMOfd3U+/wAmLvCr3WHVdPdzX9PLMPhNR59+6JPU+ZNaUADgEi88dv/zHLgL9Q4CqE93NcEFfZtcykLX1CVvX3gBX2UXv8Xus+Cgy7rZ6YbA8aljTz9849Fnv/YLuxtD3IsCABd58fEv/SuDcDeAoj0tcHxfQxyILbjCr/I5MrNN75yowcz97T4LdaGAsW/LMt82vXc/fSHJslAA4DIvPP6H/8wE/k4A9Rnyo58QV3PFVDarsm1P1TH/xeb4Z+8EuMhJ4NX+7YYTN+ccPMkFtv3oTx669+TBr+Xsbg1ZHSgAcKEXvn//SwY39oHjxIo+MacKKrQM0LpquSMLbq8eIaDKA6o+xkWrAN4EY+87+vRDdxx76qGzdjeGrC4UALjUS0/8Ub/HEG4G5z+0uy3ETi64kl1w9T2/w+cV779Yln+1Vz0/qLB+BNulwPDZJiO46+hPHvpnuxtDVidaBuhiz/3gD1MA/+DeOx74AhgeQIMDujVcQW0Wh50DF74p3MwQ/+z7V1sFwFj1B7nnit8A2PdElf3e4Z8/OL78wxGyNAoAXI/xXzyBh/fd8cBxg/HvMiDRwOey+8USF1rQ91Yb8bd4zEWTCqsd1IFhE+d4lgv6va//5Bu0bT9ZETQFsEq88MR9T3q5eBWA56w8jmb1LXLalaQrktnmnbN6N3mRD7HL+v+L4PjUsWcefid1/mQlUQCwijz3xBfPB7LqOwH8KQDd1IMc9ktIrOGumAKw2kQzw/ezVwFUP8TCGQFHnLYiwP40LClbp5f1EbKiaApglXn22QMagAN77/ryc4wLf8uBTrvbRMhc1XYCrJbAN69DXywFYN5zLIwh7L72YU+KUP/D4af/0zmbG0LWMLu/BaRBfvHYHz3lF9QrGfBXle5nckBb5xx/6WOez3Dg77GGxw2cN+LuuAYtokoSQNVF+/V4zum/CgLC0TYEI812nYzDYMYtR59+6A7q/IndKABYxZ79/oH0C49/6Tc5Y/cAqDWj+EUGftOxZx7+9ydf/dujQ2889jGBGTeC4QW7Xx9xJ87nbwxUJQytQ7lfxhj8wQQSLZsRCDfZsZ/DJBg+29d89vqjP/n6z1f6yQlZDAUAa8CLj933j4Ko7gTwTwtvZUtt0j4Ijk8dffrhfUee/tpLs2+4cPyJlwePP3YzOD7FgRG7X99KcloOILgzJrOtqLYqYOGE/WIHsfayo4keROIdEARxpV+uCsa+7RWw+ehPHn7k0UcfNZebQ8gKoABgjXj+nw6M/eLxL93NwD8KjqlLNzBemHdXiYE/rBvBavuN88ETj/2t7pG2MLA/BVCy+zWuDMdFAHY3oDpWbSfAeXc3c465tbWEbOU7fgD4CQzxmqM/eejeQ089nLGjAYRUQgHAGvPC4/c/quveHeB4AgAY2KwAgD0Jj77jyNNf++LxZw/kzRxv9OiPCxff+P4BLmArGL5r9+sjTlSt+M+8f8+7ul98H6B5Q/yzAgLGRAiiz7ZXy4DTHOyjR59++Pajzz7wum0NIaQKWgWwBr38wy+MALhz311f/SQHfg9AloF99sjTD/241mMOvf7YBQCf7N5x5/+Awb4Fht12v861gFkdC7fD/Kv1Krv0mRkRWPSCnwH+QAyhaLsdQ/0AUADYNwr+woOnf/SfZTsaQIgVNAKwhr3w2Jf+1jD09/Q1n921nM5/tsHjjz8zeGLPHnB8CozTVqZkwQzAwg6+ci0AM7z+MBLNGxGJd9nR+XOAfVc3jC1Hn37oAHX+xC2cNqFJVpHeXR9IaprnDxjD5wDYNyZbRx5fAJ29zhnc4JyXpEIuYHc7KinmxiAVLqediB4/Ei0bL/1bKeWQSw/OeUxzx7ZL/69rCtITcwvhJZo3QvT67X5pAMMrBse9rz/98PN2N4UQq2gEgDTM+WM/SA2deOyLXOe7AayKqoUUMddBtVUAtRxjhXGGYc7Zbx59e/BG6vyJW1EOAGm4oZOPnwTwga7td90uMDzCgSvtbhNZScurBTBnCoEB/mACgui168WoYOw7IV/gj1780YEsnrGrGYQsHwUAZMUMnXjsqWuv/fTVo8WR3+YC+1NwxO1uk2UOq57EHLKpfeVGWlwFMPO3S6e6/D8ebxDhWBs83qA9r4PjKUPkn3n9qYdP2NMAQuqLAgCyog4d+isVwCPd2z78d1ww/pgx/A44bEnZXh2c3/9zXm3r34VBFWf8cvY/ExBNdMMXiNr1Et7iXPjcsWceXBXTWITMoBwAYovBN/9pcuiNx+7lhnEDA9yzNarzLrgd16D5FnTvCzbx4Ys85vJ9BEG0q/NPc7Av6s3BXdT5k9WIRgCIrYZOPPEqgFu6dtx1B+P4NoANdrepMmdNATi/+18EqzICwFDeK8C+fZcNgH0PHu3zx378jTG7GkFIo9EIAHGEoeOPPcGyvisZwxcBmNqFkLiEhX7c4w0i3rTezs7/RXDhpqNPP/TJo9T5k1WORgCIY1y8+KiEi3i4Z+sH/457xQfB8XE47JLbaRfc3HlNqgGDIHoRirTAH7QtL3QQHPcdfebh72JVnFNCqqMRAOI4F996cnDw+GOfZIztBfALu9tDlmveVr/zulePN4BEy0a7On+zxa8IWXVoBIA41sXj338JwE3d2+/6BGd4mAEddrfJUcMRABhzfofF5vf485ps0779KBe/0j5z5Mff6LepAYTYikYAiNPNLztM+6y7zbz5fNFj+xa+JxjHe48+/dAdR6nzJ2sYBQDEFWbKDjPGdwLsUdsa4rQhAO78EYAZguhBJN6BWKLHriZMgeGzfc1ndx155uF/sft8EGI3p/2cEWJK95Uf2g/GvwmOXSv5vF5fCB29O+1++ZdxnisWcrbtkGOGVJiEoWsIRlrsGu7XGON/49H1Lx169j9N2H0+CHEKCgCIe916q6dnPPHrHMZXwFnrSjylAwOAbLGQi9ndjMpthJ2/NM9wAfcee+rhY3afBkKchgIA4no9O+5pMrjyJwz4bTQ4sdVpAQDnRlYq5J0dANiB8wsAu386s58QsggKAMiq0bXrjm1MZ38OsPc16jkcFwCAZ6R8zn1FlRqnCLCvZ43AQwPPHijZ3RhCnIwCALLqTG8r/E0Am+t9bJ8/hPZ1FAA4EGfAP2oCPn/8qYfP290YQtyAVgGQVWfo+GNPdATbtzPOP8uAbH2P7rCY2UWrABroVSbgliNPP/xR6vwJMY/KsJJVaXj4kJGdOPlismXH/zKYEQXYHtSh9xY9PkTibXa/vFl4SVOVgN2tsMkkGO7raz77/zz95F+ds7sxhLiNwy5nCGmMzm0fulYQjG8B7G3LOY7PH0b7uh12v5zLOFLFQjZpdzNWmArGvuNl/I8PPfVwxu7GEOJWFACQtYR1X3nnLwHs6wDW13IA5wUAPFUs5NZOAMDxlCgI9x7+yYNv2N0UQtyOAgCy5nRde0dIkMQvcMa/AI6glcf6AmG09zgpADCmioV8k93NWAGnGDN+98hPvv6k3Q0hZLWgHACy5uSG31Kz428+G+vc8b/AeSuA3TAZDAuis3IAOFhRU+WQ3e1ooALAHiz6i7924sffPGF3YwhZTWgEgKx5Pds+/A4uGN8CcHW1+3r9YXQ4aAqAc0xKhWyz3e1oxEsD2N8ZTPj913/ywKjdjSFkNaIAgBAAwAGhe/vhj4PhawDal7qXzx9B+7or7W7sJZzzCamQa7G7HXV9TcDLzOCfOfrs135hd1sIWc0oACBkltYd90T8XP08B/8igAV1a50XABgTUiG/WgKAIXD84dFnHv4uQPsbENJolANAyCzF8TeU7Pibz8Zbrvj/wMQOAHPG+0WvF5GYc3IAGFhBVeWw3e1YJgWM/RdZ5ne/8bOvvWx3YwhZK2gEgJAKurbfdTtj+CaAnQDgC0TQ3uOcEQBwPlYs5JwTkVjGnixX63vorN0tIWStoa2ACalg6MRjT3UE269hjP0mAAfWknftSPlJMPa+o08/dAd1/oTYg0YACDGpZ8c9TYFw5DstHVs+andbZnDOR6VCrn35R1oxKTD8aZMe/C/PPntAs7sxhKxlFAAQYsGNd3xlL2PsBbvbMcNFAYABsO+JKvu9wz9/cNzuxhBCAI/dDSDETUQuMIM5adidO6kxS7XwWQP47PFnHjpid1sIIZdRAECIBVw0GLiTBs4cFY3MdxEcXzpGy/oIcSQKAAgh9VYE2NfDkvzwCy98U7K7MYSQxVEAQIgFnAvMSRezzHFTAOxJwcB/fO3ZhwbsbgkhpDIKAAhxNcdMARwGM+49+pOv/9zuhhBCzKF9AAixgHPDSQkAALM9AJgCw2f7ms9eT50/Ie5CIwCEWMAFgTEHjbpz+6YANMb438gQ73vzJw9OHrX7RBBCLKMAgBBi1U9giJ898uwDr9vdEEJI7SgAIMQCDzeY4aD9sxhfuSkABpw2wO479vRDj9r9ugkhy0cBACGkmgLAvpExAg8NPHugZHdjCCH1QQEAIRZwLjDnJN6XW9TIgzPgH3WP5/de//FXL9j9Sgkh9UUBACEWJLTIL1Ke3GfA8EUAXXa3p2GrABheMTjuff3ph5+3+yUSQhrDOZOZhLjIjnsO+CKy998w4E9gayDA+4v53Ma6HY1hGAY7cOwdgb/GgQOGfa+LENJoFAAQsgx2BwKc46xUyG6qw6FUMPadoC/wRy/+6EB2pV8HIWTlUQBASB1ce8eBkFfw/iY4Po8VDAQMjrOl5QYAHE8ZIv/M60997cRKtZsQYj8KAAipox33HPDFFO+vcI4vAdja6OczwM+U8rnNNT78Lc6Fzx175sEfruxZIoQ4AQUAhDTCgQPC3sOeD4CzAwCuadTTcM5PS4XcFosPS3Owh4zmwDePP3pAsfU8EUJsQwEAIY104IBw4yHPHWDsdxlwS70Pz8FPSfncFSbvbgDsewYTfv/1nzwwavepIYTYiwIAQlbIvjsf3AOmf45z9isAvPU4Jjf4W1IxZ2aq4SVw4TNHn3nwRbvPAyHEGSgAIGSFXX/XV9YJnP1HBvwGgORyjmUiABgEx31Hn3n4uwCctIMRIcRmFAAQYpP3ve/b/rQ3eyeH8GmA317LMTjnJ6VCrm+RmyQG/m3NCH3l+LMH8na/VkKI81AAQIgD7L3jq9eA8X8PsF8FEDH9QI43i4Xstrl/ZE/Co33m6I+/0W/36yKEOBcFAIQ4yK23HgiU4p53gQufAPhdAHyV7s85PyEVctun/3mCcXzuyDMP/4vdr4MQ4nwUABDiUPvuOdDEFe/dAN4LjtuwSL4A58YJqZBvB8Of9TWd/YtHH31Ut7vdhBB3oACAEBe4555/EC+qb11rGGwf42wTGN8Azj0c+Hlemfyr4//yzSm720gIIYQQQgghhBBCCCGEEEIIIYQQQgghhBBCCCGEEEIIIYQQQgghhBBCCCGEEEIIIYQQQghZyv8fPnV0HcCE1I8AAAAASUVORK5CYII=" parent="2OsGnD8xrRHOEKQomS8l-29" vertex="1">
          <mxGeometry x="120" y="10.5" width="59" height="59" as="geometry" />
        </mxCell>
        <mxCell id="2OsGnD8xrRHOEKQomS8l-39" style="edgeStyle=orthogonalEdgeStyle;rounded=0;orthogonalLoop=1;jettySize=auto;html=1;entryX=0.307;entryY=0.988;entryDx=0;entryDy=0;entryPerimeter=0;fontSize=25;strokeWidth=3;" parent="2OsGnD8xrRHOEKQomS8l-29" edge="1">
          <mxGeometry relative="1" as="geometry">
            <mxPoint x="150" y="130.96" as="sourcePoint" />
            <mxPoint x="150.6099999999999" y="79.99999999999997" as="targetPoint" />
            <Array as="points">
              <mxPoint x="150" y="100.96000000000001" />
              <mxPoint x="151" y="100.96000000000001" />
            </Array>
          </mxGeometry>
        </mxCell>
        <mxCell id="2OsGnD8xrRHOEKQomS8l-31" value="Collection Layer" style="text;html=1;strokeColor=none;fillColor=none;align=center;verticalAlign=middle;whiteSpace=wrap;rounded=0;fontSize=25;" parent="1" vertex="1">
          <mxGeometry x="40" y="245" width="190" height="30" as="geometry" />
        </mxCell>
        <mxCell id="2OsGnD8xrRHOEKQomS8l-32" value="Device Layer" style="text;html=1;strokeColor=none;fillColor=none;align=center;verticalAlign=middle;whiteSpace=wrap;rounded=0;fontSize=25;" parent="1" vertex="1">
          <mxGeometry x="55" y="385" width="160" height="30" as="geometry" />
        </mxCell>
        <mxCell id="2OsGnD8xrRHOEKQomS8l-35" style="edgeStyle=orthogonalEdgeStyle;orthogonalLoop=1;jettySize=auto;html=1;exitX=0.12;exitY=1;exitDx=0;exitDy=0;entryX=0.25;entryY=0;entryDx=0;entryDy=0;fontSize=25;rounded=0;strokeWidth=3;exitPerimeter=0;" parent="1" source="2OsGnD8xrRHOEKQomS8l-17" target="2OsGnD8xrRHOEKQomS8l-5" edge="1">
          <mxGeometry relative="1" as="geometry">
            <Array as="points">
              <mxPoint x="375" y="160" />
            </Array>
          </mxGeometry>
        </mxCell>
        <mxCell id="2OsGnD8xrRHOEKQomS8l-37" style="edgeStyle=orthogonalEdgeStyle;rounded=0;orthogonalLoop=1;jettySize=auto;html=1;entryX=0.307;entryY=0.988;entryDx=0;entryDy=0;entryPerimeter=0;fontSize=25;strokeWidth=3;" parent="1" target="2OsGnD8xrRHOEKQomS8l-17" edge="1">
          <mxGeometry relative="1" as="geometry">
            <mxPoint x="420" y="210" as="sourcePoint" />
            <Array as="points">
              <mxPoint x="420" y="170" />
              <mxPoint x="421" y="170" />
            </Array>
          </mxGeometry>
        </mxCell>
        <mxCell id="2OsGnD8xrRHOEKQomS8l-40" style="edgeStyle=orthogonalEdgeStyle;orthogonalLoop=1;jettySize=auto;html=1;exitX=0.12;exitY=1;exitDx=0;exitDy=0;entryX=0.25;entryY=0;entryDx=0;entryDy=0;fontSize=25;rounded=0;strokeWidth=3;exitPerimeter=0;" parent="1" edge="1">
          <mxGeometry relative="1" as="geometry">
            <mxPoint x="532.5999999999999" y="160" as="sourcePoint" />
            <mxPoint x="530" y="210" as="targetPoint" />
            <Array as="points">
              <mxPoint x="530" y="160" />
            </Array>
          </mxGeometry>
        </mxCell>
        <mxCell id="2OsGnD8xrRHOEKQomS8l-51" style="edgeStyle=orthogonalEdgeStyle;orthogonalLoop=1;jettySize=auto;html=1;exitX=0.12;exitY=1;exitDx=0;exitDy=0;fontSize=25;rounded=0;strokeWidth=3;exitPerimeter=0;" parent="1" edge="1">
          <mxGeometry relative="1" as="geometry">
            <mxPoint x="352.5999999999999" y="310" as="sourcePoint" />
            <mxPoint x="350" y="340" as="targetPoint" />
            <Array as="points">
              <mxPoint x="350" y="310" />
            </Array>
          </mxGeometry>
        </mxCell>
        <mxCell id="2OsGnD8xrRHOEKQomS8l-53" style="edgeStyle=orthogonalEdgeStyle;orthogonalLoop=1;jettySize=auto;html=1;exitX=0.12;exitY=1;exitDx=0;exitDy=0;fontSize=25;rounded=0;strokeWidth=3;exitPerimeter=0;" parent="1" edge="1">
          <mxGeometry relative="1" as="geometry">
            <mxPoint x="502.5999999999999" y="310" as="sourcePoint" />
            <mxPoint x="500" y="340" as="targetPoint" />
            <Array as="points">
              <mxPoint x="500" y="310" />
            </Array>
          </mxGeometry>
        </mxCell>
        <mxCell id="2OsGnD8xrRHOEKQomS8l-54" style="edgeStyle=orthogonalEdgeStyle;rounded=0;orthogonalLoop=1;jettySize=auto;html=1;fontSize=25;strokeWidth=3;" parent="1" edge="1">
          <mxGeometry relative="1" as="geometry">
            <mxPoint x="530" y="338.46000000000004" as="sourcePoint" />
            <mxPoint x="531" y="310" as="targetPoint" />
            <Array as="points">
              <mxPoint x="531" y="338.46" />
            </Array>
          </mxGeometry>
        </mxCell>
        <mxCell id="kaJ-znegsV_WZK0TnTb9-1" value="Actor" style="shape=umlActor;verticalLabelPosition=bottom;verticalAlign=top;html=1;outlineConnect=0;" parent="1" vertex="1">
          <mxGeometry x="285" y="780" width="30" height="60" as="geometry" />
        </mxCell>
        <mxCell id="kaJ-znegsV_WZK0TnTb9-2" value="" style="verticalLabelPosition=bottom;shadow=0;dashed=0;align=center;html=1;verticalAlign=top;strokeWidth=1;shape=mxgraph.mockup.misc.map;" parent="1" vertex="1">
          <mxGeometry x="400" y="650" width="250" height="250" as="geometry" />
        </mxCell>
      </root>
    </mxGraphModel>
  </diagram>
</mxfile>
